<mxfile host="Electron" agent="Mozilla/5.0 (Windows NT 10.0; Win64; x64) AppleWebKit/537.36 (KHTML, like Gecko) draw.io/26.2.15 Chrome/134.0.6998.205 Electron/35.2.1 Safari/537.36" version="26.2.15">
  <diagram name="Page-1" id="NKPSTKTGwkYX4l5W7tqz">
    <mxGraphModel dx="4869" dy="1976" grid="1" gridSize="13" guides="1" tooltips="1" connect="1" arrows="1" fold="1" page="1" pageScale="1" pageWidth="850" pageHeight="1100" math="0" shadow="0">
      <root>
        <mxCell id="0" />
        <mxCell id="1" parent="0" />
        <mxCell id="TehJbA46y9saMmQgOfsr-3" value="" style="shape=image;verticalLabelPosition=bottom;labelBackgroundColor=default;verticalAlign=top;aspect=fixed;imageAspect=0;image=data:image/png,iVBORw0KGgoAAAANSUhEUgAAAgAAAAIACAYAAAD0eNT6AAAAAXNSR0IArs4c6QAAIABJREFUeAHsvX2sbddVH3p6Y6XvoSChSkH0BSk3nBQSCwmVP5IrX8sYg16dL6EIgWSBCKQkQTKkDwU9RSGBE5UnNTTuBw3UkVpB0rQIUwyFkpf+8WSa2r43dlzF0Tkv8YfEH/6M1ea+GMfBWPZ+GvPM37i/OdaYc82199r77HP2ONLRnGt8z7H2Hr855/rYe3vxFxmIDEQGIgORgchAZCAyEBmIDEQGIgORgcjADmbg6ev2v//JN5//1OMXXvvIExfOL+T/8Qvnn3viwvmn5D/Tv/TEhfPyf8/jF87f1fP/5IXzf57/7xD78v/E9d/zCfl/7ML5j8n/Mzd+7wefvG7//fL/zE3X/pz8P3Xx9T8p/89cv3/z1254w3XyLzE+9gPf/ZorN57/jh08RTHkyEBkIDIQGYgMtDNwxzOvesX9D9+yd/no3Xv3PLLfFt7b2xNgFbB//ML5lxL4X9wX8H8Jx6nNNEwOVmlhm1u2V/jNkxHmo48JSp6cpEmJTjYunC8mHJhsSIuJBk8wJAdP3/B9r4vJxejHJQQiA5GByEBkYBszcN/RB/YuHS2K/8uHn2tOBGRVDzB+4uJ+Wv2jTWAM2tWdgZc8Psv29AHkaJOOA/gtW8JjPuISm8qjuJOs4wMxoD2eEKXdkHvSpOLN5z+F3QrsUGBXIiYO2/hNiJgiA5GByMAOZeDS0Z0F8BcTgcOn9+596DWDbAiIFQA6Bo6YDPCOQE+/ZtfoJgDuoCmQIx62b/Rd2YaMyrNN6gvflTm2mS6b4JKJXCZ58sL5O3DJQ3YfsPOASxqDkxKEyEBkIDIQGYgM9GZAwP/y4UvVCYDwLh/dPjAn198ZzFI/g6rXZ1mslkfbhr2W7pgv5nOssOnRwEPLMj196KFlnUTzJiR58iCySZ4mE7CT77X4EnYb5Lyk+yGu379ZJgpxaWLw0Q1CZCAyEBnY7QwsDs7t3Xv06Srwl7sAjw6SJStSBSGAV211DOCq8Wv0vB0PgByAYE1vLB7i6xgoRqWN2YeObVkPPKbBP3jcGrmxMXNuBrLZLi5LpF2FfEki3c+Qb5R87q3XftfgBAchMhAZiAxEBs5eBgT8ZVVfgLy5/m95Ngty/VqBkgHM9h2wS0CV6bW+XpO3+vYYkwS2Z2IY+GjwvTHV9Ad0G5s9RqzZf0ufeZoLE7cXq9AKXdJJdPApBqFjkiBPasgTF7jpUS47yOUeeYpicePeNfZzEMeRgchAZCAycIoyMBX85TKA9yfXpwEqAlJeP9EMrwZcVTrpd9kjeRc8V+ED1KnVcQuosm2AL9NIL42XeSTPufDGrD5Zn/tki2VdnxSTlZXj8v+1j8jlBjn32EWQSw0xOfC+IUGLDEQGIgNblIFlwP/S0fPVESQwANhgdUmAMgCyLJuAJsv19AFcPfYgk+w6/ubiw05qMWbkwh4jN+DblnMxFjPLOn130mP9ybETYzEmo8P5HMgd23oKlxnkXgTsHsR9CNWvTzAiA5GByMBmMnDp6LZJ2/64DHD56EozQJ0EGEABsCtwgE8t89w+gdCovQxqbGcAzrxKpjgU0Cby4cvGZo8VbI196LP/QczIAeLFcaX1fKsf9s+TEqY3+ohN7TViEBmSkxdDyaORd2ByIDsHzQ9WMCMDkYHIQGRg9QwsDf7pKYD2BECiS4+sZTBIRd+AFQHB8fsCKsChQCj8bGMZe2P+ZuFjjGgxJnPs+SrGZOQ5B4Wck1/mcx82mMZ95FbbHtsYH9ocN9vlPmJILcuSr/xSJnmK4erE4Ibve11cUlj9Ox8WIgORgcjA3uWjjy618scOwKXDp0ezKAU7TQI8MAOtsbJMwCHAwDK8QgXoZBmAiqvX4W8WfQKyatyVWApw5HHy+KE7ZeyeLNNafc8f5MHj+Gpxk46eH9BsS/ZEFvJ5YnCP3GsgjzXGfQajX8EQiAxEBiIDZQa8N/wpsI/c+S9y6R0BHRMAeE3v7AcwADRM0U9FPvNqfV2ZOnIueLLcmL+Z+By7xoQxo/V8ZVqhb+QTz5Mz9tSv0DkHBlgtT/TYf80fy3i+YFd5ZhyJbuKyvlXXjE18m395WVIxKcDnLtrIQGQgMhAZoAwI+KcX+TRe9NM1GTgcvgeA3Ay6mARoYScwGgCGKfqqQ3QGp8Qfs7dOPgAObQbeQYwUv4xZ+dBDO4Oc2gaoG5tezlgHfNt6MgNabfw8Zo7L0OFT7Xp8Hk+2BfnjxxfP3yU7BXLToTyeOvhABiEyEBmIDOxSBu5+9H3NN/x1AT92CCZOACTPUpBTcafijaIt9NTPINjT9yYONXvwu24+/GjrjEd5GDPlQ3g8dshy3AXNTBoKXfBMDJ4t2PRyqjzECbs4ltb4UJ2GLHRast54mMZ9tZPj4nFiUpB+g+H6/ZvjKYRdqnwx1sjAjmdAfs1vEsAD6Gvt4YN78vKgqX9pEsArOgAEtVq4jZzSGXgy+CiP7CggGDuJDrk59B0bGg8AHTFXYlF5jot0EHOXHPSoVT3QTBzM135DZhCPHSf8oGVboElL9OSXjgcTBPbBchV79vzruLKd9BsLeZdAXmo09bMc8pGByEBkYNszcPxzvqtu+duJwOGDS49bVmFecdeCzQXd9jNAAixYhws809FfB9/GURwDzNHSWLxYmFbYIT0Zy5gc63Lfy7nLN/G6MhwT5HPL8txP58GRYbp3rgob8AX/I/aSrpH1fGTaU3KpSl5mFI8jLv31DsXIQGRgWzLwwEPvnG/bnycBK0wAZOsgTQKkMPNKrqdvABDFXMGtYSPJzsxX/3ksxTGAB63x7cUD2sBORdeTg40C/JA3zw7i81oLuJBhO6DBhxxX+BKbjUtprAO/aMmHte3Z07ywTRsX83JfbJG9p+QpFkwI4jHEbalqEUdkIDIwmoF1gX96CuDo7lH/YwLy8hcU6lR0ndUc0xnkGTRgg1vWo4Ku7xuYhZ9BCbbgB8e1GCE3iJdBDkBpALCqa+TUtpNTjcvEr3TWcWTUtvBY1ovB43s0Gnv3GOHPscfnIMUL2c7xVHSekxdcyec2dgjGvt3BjwxEBk4sA/d95R3rWfnrLsDqEwDZCZDVlVfwC5AhcAB9oGNWc5DTdhU+wMOzAR5ixDHLgietx2/RenWN3CA/zDdxpBx58VJcmsesy/a579ka8DG5QUzsm3yqHmiOb8TFstqH/dwqne01bMI2dhxEn//lZ5flkoE8aRA3FZ5YqQvHkYHIADIgN+Z94as3zfOon4L9YnAD4eXDz8Hlai1PAnJhToV6pA8gZVkp2OmYC74p9qvyrQ+ABOJg+4lnxmH59tjah1344ZZ1XTnjW22bnLBN5LWg1fIJO46fpN/ig5dta2x0XKOxbXfcYsOLyfgc6Ho6HI+jz+dA3kcgl7bklxJX+1KEdmQgMhAZWCIDAv7yQz2z3vHvTARmmwDIGBcH5+TNbkUxNavCgpeLskdD4dc2g4HKooijXYE/sAmw4NjNpATgNdBlHcSGFnanxsq+2b5jR+Op6XixUFysn8ZIvDEgV1344FhrfY4TvljW40NOWvhimqdjbHrnD/FLi3/ZHUhvLLx+/+a4d2CJQhYqkYHIwLQMbAr8jycXd04LrkN6MAkwxRlFOxVcFPDcFjSrl4+TTIXXBKmGPtscxDASI+sCNKs02GrEAhsAqaLFuD07oNnW8cVj5L53bsb4HO/YuD1bns9izHk8rIs+/OFY9Gr9wibyaOQRi9rJ/OxHLxXEZKCjEIRIZCAyMC0DX3z4zRtZ+V/dWZh/AiAjluupUkxRoIs+ii4VYS64qVALr6ZPAOfaX5JfAwiNx4u74gu2OD61Y8blyaoe54j1OBbEwLLosw7kqPX8KI11YY/9Co1lPLugkb7mgWjqk2gsp3z2B1n4YB73IYfYmQddKyPHlpePJRZ5IZE8WSCf82nf8JCODEQGIgNOBjYP/ou9e48+7UQyA2lxcE6KoxZuFFgUVSqmWmg9GhVtAYSBPdBYF75ym3TG+GM6WR+xwqaNxx7XYq7RYTeBH8cM/xIn+mhr4yS+F1fyQfYK35yPbKfgk+3mWEZi82wyjfsar42ZY7V9L3aOifsYE1qPR/YlthRfvkwQ9wzMUDfCRGRgFzNw/+fftHf56Mrar/lfXfkf3xC4tgmAnES5J+D6/ZupUOrjez2gkQq+Kcag5cJ7FQypMAtATuZ7Okwj+2obNJZDvKvQYBeTGzouQJDpnl/wPR7H5/kZ4accsEzFB84XWs0d6yJOjsPjV2hjttWn+GEbFPNoXilG10bmy1sJ5QbC+N2CXaziMebIwBIZeODhN54I+Mtk4PLR7UtEPEHFTgJy0QWASOHlPla3oKF445gLNXgDG1qMz78E+TH9Qo6LvfSdmEGDnsZgdDlGyI7Rilgd38xHf2CT9byYMl/HwfLg0dghB38Yy5Rxs472a34RM8fSomVeER900UIfnzk61nGYeJDXwq7RY12Rg448TSCPx8ajhRPqRYhGBnYpAycJ/huZAOSTiZ0AARItkNynoqp80LiAsw7oaEV+Sb76hC22UwGMBGIs5+kuQVNwzOPn2Nw+5Un5oNVywvzcd3VJzuVPGJ/qc8683Br+IM+sw7KIhWLWXHpyYzTY8ex6uiLP9KyP+wXkOxA3D+5SdY+xRgYaGThx8E+/K3BbI8J5WXKNVIohCjoXZ+kngECxza2CBorx1aKqq3u1QzI1Pch6fI+GlS/aJIMYR/x59ibR4Act+cM4EJceiwznjnTZN4+D+55ui882JQZ7rDQvJsTm8Wgc3tgQJ3jsl+PlvsZi8si6sAf7zLO2avaSDYxtOI70WGG8gXDe2hLWIgOnKgP3PLK/d+nw6Y1f87f3AFw++qhcqt9Y7vJOQJoEDIqrKcwopCrHqysUWENj2WX0BzoUk9rORV2PK7EMbE2VI98CSOxP+5BhfgWIAWrcDuywrrGZxsP8KXlAnJXWiwP+irGzPsdHuR3k3egM+KQ7iIN4bjwmBtbnvupS/h6/cP4uuVE2dgU2Vn7CUWTgZDMgYHvvQ6/ZCvA/vgTw0Y0nhHcCUpE0Rbag5eLNNK+wzsJnoJB+jottg4aCXo3F2FpGrvDr5MHGAmDj1rOB2LX1xsnxe3ycM5YzfR4zx1HrYzzM1xjFthcHAWohi1gqOpDlGEGDHz2GLdNynNxXfcd3IXfV3lNy4+Bzb732uzb+ZQyHkYHIwOYysE3gLxOA+44+sNEdAGSaJwFcaLsLsll5sY3Ub/EBXp4M0xxwQQHXOHttLSHnjWlAExAxMUNGYwTQsBz3nXFamwNbrMO2TB/nAq3aYTnExzZBM3KqT/wx256O0rzzwnGwf9NHnlst+9G+xE62hA6evFsgHidElYg2MnCGMrBt4I8JwEmlWK6Dyj0BqfhRIZaCWtBysa/SVuCrLwAK2t54IM8xzE1DLOzD0BIIZVqRJ0fO5Xu64g/6Hh88J67kw+TBBcoOuzw2xIMxWD+gt3QQh9X1dApZjrU2ZpYx+SnsIzd1+XviJUMnVZnCb2Rg5gwcg/+ja/5lv+GP/dhr/vb47kffdyI7ACm9i4NzMglI71tHQQT40/GgcNLqCYCgreiN8RsyHih4NPVX8aU6AIFV5DgXsAca23Vyl+JgGasPO44uwA+tjol0wNN8MM/4VX2mt/waOfhSO+KLZaaODfJsg+NHH3L2GHTW5z7JI+bUGhnwMD60mf4lebV23Ccwc0EOc5GBTWXg80+9eu/S4aMnfsOfBX85vnz07k2lwffDkwAqqFIEUSxREG1bK5yQ8/jWpicDMCtkc2ygWT17rPEDBHK7jBx8YlxqG/kS2+ibOAc6HIcn69AK/zW+Yxe+WZ/7PTEnG45P1c1+4Uta9sF96BQ01nf8JNnG2Nhv0c+2mjTIOH5ZT2KQFwzJOwXSRGCTd+3639qgRgYiAz0ZAPhfTo/cTV+he6A9I+0V9z98y8ntAFAC7U4AF14thrxyouKpsh18tYXC79kBiECGAYBpvf5WlKvGzLFQX/MhtIrvZJN5nv4YHzqUw6mxQr6I2cY9dj44ToplYNOzw7oVPnKFWG1O1Y+xBT3wU+vJVPxCD3ay/6d0IkDfn+hGBiIDW5aBY/B/cOu2/XkC8cBD79yarMnrU+VyAAqlFDzu5wJ4TAP45JblisLJfO4DKIwdrBLRsl2XhhiNnbEYRsfi2TMxc2zcR5zwoXk0NpWf7RY2WNbjm1jUFvJh+Gy71vfiVlpHDMkuxy39Dr0UO+L15K3NfLzUOGDL84MYICOtR0s5fu0jcmlga768EUhkIDJwNQN3PPOqvUuHD27ltj9PAO77yjuuBr0Fvcd+4Ltfk+4JqKyUtCAy3xZJHHsy4Jki64FHFw32Kr7UxhxyJmYAl/owfKVXfCsfoF3T9/hM88ZubA1iZR2WlX6Fx/HqhINlvXFynMv4MfY1BviyNvmYdJMeHUv8aot1pF+T8+lfipsFt6BwRQiRAWTgtIC/TAS+8NWbEPbWtLITINc8ARpaLE0BVHouoCiySY+KqldoXdlc1AveGI382HgQR9X/RN0iLqOLiZGVqfoGgJnW6sMu2oIP3RwL+yrkbKx87OUXfI/n0WpgivgqOjg/3WNjOzxmpsMnxiCtpeG4Vw/ysGmOc97viccHt6aERSC7moEE/kd3b/W2P+8AyE8Qb+M9RbITgEkAA0sq2jwRQDFEmwuu6oDu6VjZCpCoLRRgtC3bnr8VaQpY5J9j4z7yhFZ5iBk2qFUZorFPl18ZE+t5MbAt7gtY8jH3YdOjKcga/aqOkfNsKs3mDMfUqixyR/YTj44Rk7QtPZbjvAzs5TiE/uSbz38qXii0q+gT4z7RDAD8GWC3vS8TgG39k0ImkwAUvKIgesUTxTe3g+La0qFiroW5RTO+VMfQe2OYJIe44AvHuUW+rE0+hozGXbHRw1cZxJNb9iEyKmd8KXizvpEpbJlxwnbRejKwOdEP7BYxsA30W/aNTGGroVfIiQ1PFrZzm358CE8MbOuXO+KKDJylDNy1uGbv0ila+WNiIj9ItM1/8lOqT1w4/yUUYV4JaTHk1ZXpJz1DS0U1F1PtUxHtpfXE4vlfmTYldjN2+EbbHCvrtvIDUGJ50EhPzxfTuM/6RG/GSHLF+RiZ7HXbhH0eD8fJfZKF/dQaGfDSOYCOtB1yA3usw/00/tc+EpcFtrm6RWynPgOyfS7gf/nwc1t/wx9An1v5UaJt/xtMAirFHcVRCqtXZAd8FPXcMh9gNUpr+eLivgY5gLiO14yHAcbLh/K98XPsHp9pLGvGWeQvyzGN+8142F/uu+dIfIzxEW+nzVruitjhE7Y5DtAg4/mFDOuNyLF/7uv4s015vbBcUtv273nEFxk4dRk4zeAvEwF5Q+HW/y0OzhWTACqkWpxBM4W0ySdZlVuCpgWXV2CIZ0aaxsg2DeDyZIDlE7iyHvcdGzIm1ff4yNPIOBXUW/LC6/DH8cCuRwNP2gF/GT+tMWJcaMl+8k3HU+KCbBE/20JM8Eut5zcuC2x9lYsAT1sGjrf97zyVK3/sAsh9C6flL08C7imKoinyKH4ooBYEmM99gPhSNCq+1h/iSHZXkcsF34vPjT37qvoFgJi2sC82xvi9Y4IdI6/2QYdcbot4OmmjOmPj8vwgvo7PWzrnGAf0PJtWhuLyxuB9lliO+5BFfhPvOJYvyUu3Tst3PuKMDGxlBmTr/9LR6QZ/mQTIJGYbnwKonXRMAqSwaVFDIUWbC2mVz7oo0Kawo4CqjZYc20MMc9PIP2Lj1osTxd/NlWPPtUFyLr93nGSH40k22QbJef6atAl2xnI38MO26RyznbFxDWxirGzb+RwmPZax/pknNu0x0cRWsnf993xCvku171nQIwORgUYGzgL4y+uJT+OfvA/98Qvn75JCVxRgFFRqq0U3F0XRR4FNtrLNXhr793zNReN4an3kA3zrm48h0zN+lrU+MH627dEKGzg/9vxNzL1rc8J5LfQbvjEezRXiz21hh/yrHsbp+WBbHXLJF+twH/qg2WOh58mB2JEnbOImwdNYASPmE83AvUefTtv+W/p+/+5LEpePrpxoHpd2vjg4p5MAKmqp4PLqBwXQ0LiIch8Fu5fW628OOc9GV5xm7LCDtmmDdQEqmDDRMWyhVZuU/8Qz5yrJGR+qS/a7aFPsGFnEZv0M4qPxqCxoNt5OHwBkxIBW7ZNdTL4KHfIziBe6JAP7sCU68tsCS38XQzEysCsZkK3yy0e3dwMsrrNvbXv49Kk+dTIJePLC+T9PRc0UYq+AokAW8lnP443SUGAroFiNgfQkll45Ld6s34if5T0fyvdsdPoockQ6TX8iZ86XHnux9NLYbkOnOW5Pr+Mc1fKAcRX87EPjoLg9OdBSa3MMW2jBt8fkg/3CpnyP4pLAqS6HEfy6M3CmwP9okX6ieN05W6v9vBOgkwBb/Hjl4xXELI8i6BXGKs2zvWaaxsl+HHBKciyDsRua2nNsCHA1+WM6Iz4HMeLceXYn0KrnC/Y7xsU2tF8ZT+KDN9VHRyx8DopzYnxW82l8IF61W9p5Ki4JrLVihfHTmoEzB/5pAvDgaT0dg7jlWWcpblrYUIwNDYVSZVEAc8v8ntXbmL9UcE0MS9Ea8blx5vFX4zPjrtowcqP5aY3V2EIeXN+N8Y7FMMZPfk0srFPra7w9Y5T8N3ywraYcbNDnmXU5VqV7Og4t6ZrPidCeufF7Pzj4ggUhMrCrGbh0dNvZ2fYX4Nf/u0/VEwBjn780CUCh45UP0VKRZB4VVi6IKKZNGtlVuXXRKE7Exq36Z7lWLCyX+64NkvP4A1qHz6RjzsHATgtkKSbJgeoam8iP8o3egM/63Bc9Pu4YI2yjHcTA9iiugZzjW2UQh5WBPc8H02r9C+cX8l2SS2xj37ngRwbOdAYuH32UAJPB8yz07z5z504KlxZIBgcURW5zAU3yKKa9NLaT++y3WvgrMY3pcoy1PlaS4FubfAwZiZP71kYPv9Axean5RH6gi3YslpactTlmq+CbuK0tHPN4PBrb5L4bt/ic8Hlje14cKR58jnk8Dm1gCzJl+yX5Zc4ztUo4cxUvBrS2DNx39IEzDP4ygbnzTH635RfRimLYWOl4hXSUVrNHxVNtzETDeNiu9qnYD2gmVthBO5DHhCCDU5NPfmEPrerR+BNvol21Q748mgAp07kPv0ozsl7MkE0ty9N4IAMQ51Z5Y3Fzvluy8AsZE9PAH/GrY4CtRitvEHzm+v2b11Zkw3BkYBszcNbB//gRxju3MfWzxPTE9d/zCRR+tCiEKPjcejyPBlvSMj/1TSGdm8a+tZ+BgWNRIKJ4vFiaNkgX9jwfBY11kB9DU59Cb8Re2O2VI5st2xqDBVXEDDraPAYvhx7N2l9qLGbM8FPYGok3xdEYA9tq9YX32IXzH5vlixlGIgPbnoG7H31fWvmf9uf8r17r9y9XyI2Np+ktgFM/NzIJSIWNgSEXcy3SKKKGrnpMp1UVAIbtCE31UHhnpLFt7TvxJ16H35aNYiyODxk362seVvVbsev58mgaR8UOjyvpe/HSOVcfE86n6lRiYD7i7aIhBsRnj4kOe6n1xghdw4Me4kK+hC47a1O/gyEfGThVGbh89O4zvu1/PBmQyY1MAM76n6xcpIihoKEgyjH3ITNKg14utoU801CM56LlMRT+MC6PN+bX6LrjFxtGzvNf0Obw642nk1bE4unk+HRcTryeDXx+0CYZ2GIbJl/w49mcSoNP6NljxKYtYuH4TMwqy3SjJzLiS/7lkdu4OfCsV80dHZ+A/1lf9fOugNzguAt/aRIgBQ6FjVc9VPhQULkoejS2w7Kp7/mYg0ZxDnyaSYnyW34de+5YSc7jezTOj/IRC9lDnCpDvMm0nnNKMsk+HXPMiKtoK7Ia57rHh9xYP86xxsSfC8iZcags0Vu5yfJfipcG7ULl3J0xvuL+h2/ZLfBPOwC7MQGQj7E821wUdCmouSii4CV+Lw0FGUUWBZboYk8LLNGXoXGMtb4dj/XDx702dAwYX0d+2I/q5/FP8WvHUz0/lNuWTtIXWYyFY2IbOG9Gzo4F9ni8axkf55xjdkAbMekYnTHoONgu5NCyHyc38jsCj/3Ad5+C3xLfHRCLkS6ZgQceeudOgT92AeRGx534kxsdFgfn5J3nUhgHBdspcFpIvULINkzBTHoef0WaZ5fHgXgHtIrfgT3KgdpgXY/forEuckSt+mjZABCTjMQ90GVfDj/J12S8mECDX9YFr0LryivsOrG644M8+U5+LB3HXuvF68gNckU+Ne9XbT0VPy28ExX07A7yvq+8YyfBXyYBcsljp/4wCZDCR4VNi24HjQuvFkQUcujnwsp86K1Cg42izT6TXfhHSwXe86t2PBuki1x5Pjya2kVe2Bb3Pb8TaewLcaItYoNf5AYt6LnlPFl95sGvRwPPjWPi+GwMahu5vQrGxxMjzz6NkeNl29yHD5YFjdvMj9cH71QRPUODFfBPQHj40k7c+IeVf27TZY8zdDq7h/LMTdf+HBc37qPAebTEo4KLAq8tFVqlVeTVPoCoQ451tA8gIN+JN8WeY0Pib/mQXDBfj1mvMjbW434r957c4HzYHOCYYwKNW+ZTzIgHftBqLCTLNO07ORIbzIePLpoXJ8bhxUI8tU9yg/GIvPHBel7/aze9UW6wfSreFdBdfkJwGzJwDP7P7yLw65glB7v6V0wCclFMBc4UyIKGgtoq4tAn2ZWKPnw1YsRkw4tVizbFU8ghXs9+BgQAhY5jTAcxk8+arhu7F4tHY/seH3FCzpMBbyRmm0d7vJbxVeJl3ziXTOPzlfp5jAMZGjvOA+Rh146L6ZDNk4bjFwad5eeKd7VYnrVxf+GrN+1dOtpt8JddAMnDLv/xJMArjgXNrIxS8fNoKKoebxUa7FbaIlbIAAA9v5Ch1rUxwnd1ZvAOaCPOAAAgAElEQVTr2R3QeFwOgCf5lgzzxmKeIks5UwCdkaZgjZhhm2IcjB2yJJOB+yUAueYXsrDrtcaO2Pr6239wId+pXa4pMfYtzoBMTr/48JsD/OX6/+FLe/d//k1bfLY2E9pTF1//k7bwoXgC5FEge4p5oeuAUo8N+NO4YCcXZvbBfQADaKxv/UJG6Sj6E32kWI3OXH7teNhX6gOYGrGrnJFROnILW7m1Y2B522fZKXltjY/tuHIUbyErdIy1MZZCB/JoWS/TCnnHt/DlXycBsROwmQIWXvozEOBfvhHwnkf2+5N3ViUXB+fk+mUqcA4YoPCBr8XVroCcwpuAAkW1Ij/JrrGhurYg07HEq3IUC2JTHukojXU9fovGulP9tuyCx/ZBs+evIjMYO8XHY/fkmM99yKJVXi22TF9KjseF2MmPxKB2we/QSbHDjqdHPLYv/XR87OO5Z3/iusU3f/qHPnJWS0aM6xRmQMD/8tEVvf5tbojbSfrnn3r1KTyTawiZJgEoZFpEUQi5qKIQtmikx4VVC2ePDZJhG0U/++G4dZJC+p5ftePZIF3Y83x4NLVbyY/yPb+9NMTXkG/6yfpeXqo0x5cn2/Tr2Fg2v+w79T3byJMz3poO27Vj0WNjF2OQVvSff9ePvBiTgDXUqjA5PQOy1R3gX67+ZQJ01+KaM/1bAFM/KboTwKslFLpcXFHgUiFs0UhPC2pLnn1W5NiO9h2QTbwp9hwbxTg9vkObxa9jV3LN4x2LbRCH1adzg/Oo9iu5rwKf2DK5VlsVv8yH3R5akjG+ED9az46ND7JoBzpeDihnKs+xgJ/zIT5f/IW3Pf/8z/zwb079HoZ8ZGC2DDzw8BsD/I+G4C/3AMTfMAN5EvCcFDApkIOimwudFkEqfEyDXiqysEOyaruXZuJB8ebW+mz6oCLftGHkCh9eTGP5MfZsnquxQI/zBVojDthHW8TPtjrOEetyP8UMfROT69eLt5fWyC/icH0iPjNmq6PHLIcxEa0YfyV2eURw8Ss/uYhJwLDOBGUDGQjwHwK/Xvo4fDpW/5XP4NdueMN18jvog2LIKx4UxQqt0B2RTcVUimtLjopvYTvT1QbLTbTn2iB7Ht+jTR2HZ8OjpXFzvmux9chAl2Vb+fJ4sCEt+EzLfW8sq9DUl4mdbXIfeUOrPNJPNDoWH5DzePYzCFmmC03uB4hJQKXQBHl9GZAb3C4dPr2T1/YV5J2Vv/IOH11f8k+75cXBOZ4EoACiuNWKHfhooWfl7bHIj9FgS2Uz4DAdwACatcnHkLH2rI0evtVhP6rPYNgRu+hZu4kGgG3YULmGDI/fxgh9Ow7QU2tsQ5btct8di7Hh2fVo8IV4PD/WX5eOc45gp/DVkCtiyXIvvPctaRLw9Xff/MnTXhoi/lOQgQD/xsofk4LDB0/BmTzBEBcH5+Q954OdgFy0pTBqUW3RCLC65Ct2AQRsQ/vw4U0keu15NljX47dorEv5GYyjZcOOh21aHo5HZMT/IG8Un/IqNOX32pkyvizLPjzgdT975GcZHfWJcXMsnFPw0ZJftUG0NIG4uL94+Zd/PE0CvvmuH/43J/itDtdnOQPy6Om9D70mVv4A+Up7/JPHd5/lj8I8Y6NJQCpuXAi5QHLBM8AAPbcod9qArtvmQlz46S3OiNuzAZ60Hr9B4zhdUIDtho3meLKeG5ex7coYvzZGeyzjceMZsdPjO+XK2BmjcX7R5/i4jxggx21LruDlnCYa8su0sfORXxIklwLkXyYBixv3rpnnSxpWIgM5AwD/Y4DrWAVXAFK3yc80/8743PRkIE8C5H3nWjx5IkDFTwsk0VRHCibRPdkxGvO1D3Ciwpx4HTG2bEisTf66/PbYtWPFsYkZuedxuDTWa50j+KF2YJttOWMR/wOdZWjsx4vZi9HTITnkRj+nzPN8gEZyg7HB58X9BS4FyCTgWz/7o/+55+sXMpGBrgzIM+2XDh/d2V/2mzJpkQnSvUef7sprCO3tyd2ScjkgTQKo6A2KXauQoxC2iuWIvoIHYjBtige07KcaI+RMO7DR4mfeQKdjHAoyng2Phrx5vEyzAFbE1aMHH9Ry/tge93UspKe0hl/PRi8NY03y7Ff6nk+SYR32hz74OIYvbiEjtEKu5vvi/gJPBWAnICYBUV1nyQDAfwoIhuxts+R+l4zoJICKrBRbLYa5+Lm0rNMl69mkAs6FGH21y3Jj8bAsCrmhwb4WesNfl9/CLufDiTPJjsiMxs/6pp9y4OXS5KI478QrxpLpq9AKP5W4Bvanjgl2aRw1v/wZaeb54v4CTwXEJGCXKucaxxrgv9yljstHH13jWTm7pp++4fteJzsBtsDa41ohtMUSx2P6iZ+Lcq0vBVr9csF3QKfXBttLsRofHs2OhY+n+MV4kg8ZA0DJiwFA1ZLx9CDPOWI52LUtyxgbiJPHOjvNmQjxuXD91XQwNh6Tkw+cBz6fBQ15YDugkQ/cEIhJwF//w3/w389uxYiRrS0Dx+D/YDzqt8S9CvcdfWBt5+WsG37sB777NbgcoMUQhY6Bt0JjHe6jgHs0j6dyKK5ega/EM7Dn2WBdj9+isS7loctvtpvGx3Zq/npk2CbZSfHgGHHiWFq2zX2b6xYv2+s6X9ZuQxcgX8RIsQ/8YXwcK/ehS3JFfoRPPLUPGvS9MWQ/omN3AWQiEJOAs141Zx7fHc+8au/SYYD/spcyLh+9e+YzslvmZCfg8QuvfUQLIhU/KZpaHImeaLlYDvokV9MfFGPRceyBxvJePMr3bHA8Hr9BU7uVPCi/YYPzk+QbspPtObY4PwPfGEfW0/zi2MkVZApbjt+V5NjvyGeBx4d8ebGBx20hZ3yy3ULOG2vOo8i99Es/9jJ2ANC+8J6bj3arisRol8oAwD/u9l9u+18mDQ889M6lch9KVzMgOwFpEpCLrxZDAAOvrkAzBVQLrSdraGxf+wAnspt4Rjf5MbSWDQGmJn9dfmkcmptM43iENxgnaMaG1VNdlsP5QevxmMZ9kyvE3eV3lZglBuPb84l4CllnnKrLNh05144jp/ZMrkRffjYYwM/tC++5Od5QdrXERM9mIIH/0d2x7b/Etj/vFnzhqzfZ1MbxEhl47q3XfpdMAlKxc4qgBRuW4z6KtFc0WY77UkiTXm4LXi66Y/ZGbbR8rMkvj4P7iLWgAVymxtmIXc8ZbHIuW3oebxM0iQ+xOv5svtKxMya1wTzuwwfTcr/4/ELOiYVz6+0CyGQgJgFLFKJdUAnwX37Fz+AvffmFxPibJwNXbjz/HU9cOP8lFMHUeqsoKoxchFXP44NmCq3qNIqxFnQvFseeGxPJeXyPtrRfE6dnu6Cx/BJxVm15OQfN+jTHhc3GuZlbjj8PatvEpjI0FqUhf6wzIpd0PXnYquxuyOdDYvTuBcBuwAvvectj83w7w8qpz4C84U9+uvZSrPxn2/mQlybF33wZ0EkAimaj+GvRzbKpYHMhdXQhI7q1PoAX/NRWijFkrD1ro4dvdZbyS3FqfoRmcpR4JsctGR5nSw4+OfZC18ZXiaHlo7DXGNcycp4OxuTGROMpdDM90UhGbHly8MHyhZw3TrJlnwjABOB4J+Atj8UbA+erUafWkoD/5cPPzQZ+djW8i8eymxJ/82ZAJwEonAAJBnfuoxBCXlrmk34qtIbHRdcrxJ4OaGibNtgfxdjUgRzrtsZRkWcf3Je40zHbBw22cmv1VJfkBrZsrCTL52agR3I9fr1YlqKZPIiN9G/oRUzMw3ihJy1oHXJql3Q0hmxTZeADdp33AvAEICYB89anU2ktwH++bf+rE53nT+Vn4TQEnScB9zBYoCCmQmgLZT4ueBVAg52i9fThAwV3zJ5ng3QBCEWMns6Sfnk8ng/XP+KDz0Y8ns2Clm0lGuwyDT7AqxwXNleJp1cX8Ujr6RAd/EGus40idrZrPjue3GjeKrGJnrwd8IX/8xb3hkBMBuRygHyvTsP3P2KcMQMB/usA/0X6saQZT1OYMhnQSQAX0lwEuQCjPyigkMVKKRdylWO6KdBiM8mxzJg96Jh41Z/Hd2hT/VblOY7c51gEzIpjT2YiTQGSbSNvYovog7idXOh5yHFUz/UquhRTzR/8ass6GB9ajnWCXLLtyZO9wfnK8kLn3wgA6Nv2xV942/MxCTCF5iwfynX/S0d3xrb/inf7X13102Qifgp47V8duXb5+IXzd9nCDPBQOopvbgeFEgDBfKMD8GLbKPhj9qCLdmDD+Cr4Xky56Hf7deTZB/cRI8aGY09mKi3JtwALPOTDHnu52ARN4kBMjr8iD4gZnyk6HnweM8/mpSaHc8LyhW8nNujUHgm0kwDZCZCnbtb+5Q0HJ5uBAH8C63VMAI7ip4DX/glfHJzTSYAp0FKwuVCiEGrLfOiaYq2yjULNwKD+GvZUpuLL43u0Hr9Jzxsn4mMej9HQPf9L09h2pT+Im3K1tN8WIJN9OeeeD/4sKJ/jFxt87OUYNPYHmqdr5Nhvige6JKcyJh6hW7CvHctOQEwC1l69Ts6BgL/8Ul285Gc9k4DjvMZPAW/qEy6TgCcvnP9zLtLaz0UyFcaRgskytT6AF/zUVgowZCQW7lsbPXyr0+sXebDyoKe2liPky+OvQjP58HKj8a3iZ2bdIk465zg3iNnLNdOqdpCXbNuTYzuFvzxWGwuf3+ff9SMv1kDf0mMSsKnqdQJ+Lh/dHtv+a1n1X51QSI7jb3MZKCYBvJoyRRUFUQupLZysy30q+KoLGsu17EGeY2Jdj9+isa71S3oKCkZ+MA7WMX1PdmkaYjU+5NwkmxwnaEZ2ad/L2DPx2M/QIGaMj/WIlvR5PBPkrG89t2xP+mwzH9ufCragb49lEiBv4tzctzg8rTUDsvIP8L8K0u61+5kmBvFLgGv9KLvG8yTgDhRJaVGcbV+PbeH0jnPxZlte4fVAKcWSC7D6BBiwr4aPZfwWOuzH5ATjYPla35NdipbjqfpBvMjTxNyw3aXiM37tOdRjiROyPCbEP0br1TVy8J/GyT48uUxDTlrvBLATADmWpwfkNzncL1wQT1cGAvw3A/4ysYhfAjyZ70YxCUAhtqshoaNYMq/WB2jCHo6NfCrMhjYo0mRDYmjy4Yd0UMhVrzIOgIQXU8FjHxwP961/OhZbGgvRPRpisW0huwa/hf0cYy/NniPEzvrab50LHhfkKF+1z2PyZ+Q8f4Uc+4JuptUuA7QeE5TXCcck4GTq2WxeLx3dFtv+M63uO3YOXnH/w7fMdu7C0PQMPHnh/B1aKKkISqEc0EHLhTnxUaRNW/Cy3TF7XNzVP+yKDfRzW/jwaGN+mQ/bGKPHI5kCSCi20Zi8OD1a9l/zo3RP96RolAeNj2k5roJn8g0ef1aKnJq8jMkxv7DNsXA/2596GQC7ArJz8PR1+98//ZsYGieeAdmO7gCtkJlxgiA/BCSXXOLv5DLw5JvPf8pdweXirUXUKZQoqtyqPBdr6PKqCzSWy33XBsl5/ILm+anQOPbUR1xoyW+RJ7bXAWTwU8RZGy/bpn7SpWOx2WVvQ3IYY5Enzh/6PAbkuUJTmyO6nlyieXZhK7eaQ8he3G++EAiAb1vZIZBJwNdueMN1J/eNDs+TMxDgv7ltf55kxQ8BTf6orkVBJgEAFyma3NdjLpa5aLMc97FaBy21VHT5GDLqhwDB0ljW+hBZ0FIf4yC/as+jwW8Hz4sDvj3eUjTEj7jQIj4c53YpHzPrFjFInJ59xI/x0fGU85N8ebrIi8fLNI6T++r/4v6idhnAgr53rDsBsbpZS72a1ahch45H/U5mAhA/BDTrR3klY09c/z2f0AJoiicKObdagLFqMjrKB53lUKSpHcgzQLAu7DHfo3m2WzTYYF+QB09aj5b5zTGQjS454yfpcGxT7Y3laxV7lbgGnyeWw/h6aRSfngNP18hprsmfxCU2lAcdkul9KZA3ARBa7ASsVI42o3z3o+8L8J9xS59X9z19ecVy/G1PBh67cP5jKK4AnFQsUSBbbS6ehR4KKukNii7xRn03fBR+2Wbue36ZZvVbPAW23niWkeO4bR6XsQcbc+tyrhu2+XPEuQV9jGbPD/T0XDTy5dlWfY7Z2KiBu9BbNwRCTycBsROwPUUOkQj494BUyKxnd+Dy0RWcimi3KANpEsBFXfq8Wqr1nRUmirYWYAIhpmnfsVH49viWVouv4jsBAXg8btDQVngcO0BlFVoRD/vmcdkx59hW8bu0bkdcGJP6wLhYd4SG3Gpb0VU+zlfFrsZCckoTnYv7C7mzH2C+SvvM9fs3b9FXPEK5fPTuAP8TXPmnSdXho/FB3NIMPHPj935wUEgBOrmgpmJJxTXJe7wxcOq1YeRc/yjmXqzEk1i12BO9sEl0lUcMhufuXHi56KVZ+3yMGHptbUJO4mvFRfFX804ymm+PBj+ZV7Vn5NLnE+cdPLTkB58BaVe5D8BOGJ66+Pqf3NKv+06FlR49i2v+61nVT9stuTueANjGr55sVy4Ozj153f77i9W3UyxRVLn1CjKDg/Ib9lSGCnOPD9XzbFdWjFUdT57jYT6Ahfkr0mzuNU7ysU206vnhPOG8rEKj8Xd9rjxf2UbKX41/cX+x6n0AMQnYsgL3wEPvjGv+J73yV//xOwBb9vUow8EkwAAZiqYU/FofhRn81FLh5mPIWHvWRg9fZUyBFzr+2bdH43h67CFOtIV+BrylaN4YVrG3AV1vnF6OV6EVPui8jp2rpOfllGnUF3n7PoCe6/4W9O1x2gmIewLKWrOJowD/bVj1X40hfgdgE5/61X08c9O1P6fFs7KCUz4V5AHNW2l59jwbrOvxiQYg1lZ4rO/5JBrASVuPx/bI92DMmCSRjAUq+PF0izFkG57cidOcfKSYmE551HiXoCFf2lZ8KB+5J18tHscmfQvgrePeCYJ8p1b/ZoaF7gzc95V3xMpfV95XQXjalv18enIJJn4HoPvje+KCmARocURR5TYX2CTTKLaTbXT6KPyyDvU931UaxkD6NeAofDfyMFUOsU3VS3HOGMeYPc2L53PFSRByoD5gz5yfXjnYKXJqzjHzXnjvW5Z6KVBroiC8NAmInYD11zZ521wCnMOX4sa/bZoEHL17/Sc/PMyWAUwC7GqaCy/3pdCikCodRdus2pQPHS7ILOvxLY3lTT8V/15aLQbWt76zDo+nABy22auLnJHurPZ746jIFZ8HihHj1l0MzhvGtAqNfbXsQc7zBZ60hp9yfHF/8exPXLeWCYBMAr750z/0kdm+oGFomAEB/0tHzwfwbxHwY9dBdmXi73RlQK5fAnxQIAGq3Ba8XGShp8AAQKHi3bRh5Aof4FFBZ37VN8mLb5ZjfcRc0OAztx5vDlqygdg25LN6HryxIocOD7EjfzbHoC8jV+QWMeSW7Vm5Fg/xoBXZdU4AYhKwxvr3xYffHOC/hcCPCYCcn/g7XRmQXxGUZ5q5iKJYonV5BFzKB80Ub7GjMg6vyjcrOMSTWvjyZCq0Ql/igA0nJi/eWWmO71ntV3I+6oNz59lA3Cw3E807Pxov+fDkis8EzqeJMdm6uL+wNwLy1v7YNf8xPmzFTsCMdVAuqwT4z3e9HoA9dxuvAZ7xQ79JU4uDc5gEoEhKQeU+wBK01KLQQjYfQ2bMRg9fZRzbwsO/jcfqFXIAE8cmx27HnGxk3ZXlHN9r9YcxN+JHjnicbkzL5p30xEf1nCFWzpGna+QQf3Fu4MeMG0C9zvb5n/nh39zk1/jM+grw337wl8lEvAb4dH8FMQloFmcuxGaFZYGjWuDFBuuSTU8HIKSt1QcQsM0WjfypTdYlvhfPKjSbI4AW2lVsr6KLuEZtcJ5aOV5FjvLvnh/4hZzni3jIrdhK41vylwGXmSzEJGDFmijgL6+YnXu1GvZmnlQcPr3imQ71bchAngQ8h8KLggmAkLag4RgF17a5WFsdLsoDm2M65CPZpWO11aBVYxEdz/fcNC+27GMj/r3xcEweH/FluWXyjnM+pts6P6xr5Twe0+Bf2nU9CeBNEr7+7ps/uQ3f7VMXwwMPvzHAf4uv+ReTqMMHT93nKwL2MyC/ff74hfPPecVzQAMwYHWVQZTluJ+KMMtWJhBNHdav+B/4ITkGgoFcbzyryHnxEwAPxr6Kr15djsnRSTGxDOVT452J1jw/5MOTw/n0eBxn7yuBx675j/ExIfjmu3743/jftqC6GQjwn3mFvsaJxPEjmZ9zz2MQT2EGFgfnMAmQQoriz8UVNC2qvDK0RTofQ0eLs5Er+BUdlrG+NVYC0yYN/iGPY8/33DTktZE3HutGdgYkllYOOFbkbJ00xDLmw8jh81Xkj22s+VFAgL5tZRIgN92ewoqw2ZAZ/OMd/6djIhBvAdzsd2Tt3hYH556+bv/7ZScABRVtAbzeqtCAQw2EYa/GL/yITa/Qe/57adnmwI8BZ8Q5t5yOxxnX3L567WGstXPCMatNxN+b9145/hy1fEDOswtePtdpfJUJQO9q3gL7lONv/eyP/ue1f3dPs4N7Htnfu3T4dFzzX+OKvdi6n8lPvAXwNH/rKrHTJCAVeyrCDBS2z7LcB3gwjfsev6DlYl7oMI2L/QQQByhIW9jO410rjWJeq5/OsYzGQPFqvtZEK2Jp+LBy6TjLWx5invtHgWISUKkhU8jyGFmA/+lY8dtJhPwcc/ydwQzkScATF84/lYAShdistrTo0iRBadABwMox63t8oiW/ZFfjYBvEV78VGvO1z7GRb+bD72w0L/5N+c5+dCwcy0gMxbmr5BjnjO1PpSHf2nKM5Ff5iHuEJzEtOwGYa5cgdgJMrQzwP53ALxMBuUwTbwE0H+izdMiTABRXBpBM02KPQiwt84wuAEHapAv+mA7bh24vzbPd8tuQH425ocugxXlbxeYquhpPI+bC/tS8954fTw7nJ/M4X4jbxga6tJYnx62XAU1ZzbPs1MnBX//Df/Dfz1KZWHosx+D/aNr2j2v+p3MiIPdtxN/ZzoDcE1DsBJjCDLAvVogowFzYeSXn8T0a65h+Kva9NI7D6VfBxciuIteKl4FLwWtG317co+ercj5a41A/+Iz0nh9Pjsffsge5lo3MW8cEgCcDvf2dnwR8/qlX7106PAZ/u60cx6dnMiDnMf7OfgaevuH7XieTAC3wAAcUZhRhaUHLbdIBbYxf0WEbHAOAc4w20Pf8bIKW81SNF3naYCzN82XisHHb4zknL3zOcJ7Rsl8rV+MJXf5bID11Nd+yNcZ74T03H539yuGMMMD/9AB8ezL2vHN2g3RWM/DYD3z3a3QnAEAF4OfVF2iYJNAxCjhaLtZVmuMrybJPyFRonnyX78oYVtFlwFU7iJ9ypbx10DhPU+2zLuJeAw2fB20rPpSPcVBMBU/o9DbAdYJ9r+0X3nPzo2e1XgzGJe/2v+OZV6WVf2z5n+5JQDp/h7vz2R18mHeUIJOAxy+89hGAWAIpFFwpwLlf0B3aGL+wkwt7oYNiPwGgCzCAvhNb4Rtjm1EujQP+TfzFGGf0mcaOsZDvqWPlHNpxCG8tNBN31YeRQ6xFTi+cX7z8yz++9M8C9wL72Oqf+TszCThe+T+Ybh5rryxPNzjuytguH8ZLgHZuHrA4OKeTAAYS6lcLtMjwKm5EpwAtLu5sA/QOmsbFsusCLRqbC4wcA40BoIVWYyZ7q9CQU7bB/ZrfJFOJWfVpHLPSaOyYsBSfI/iFnBdn5klcq0wAGLjn7J/5ScDxyv/BeM5/pufvt2GSES8B2jn41wE/99Zrv0t2AgAMAhzcR6EuaCjQ0uaiXfA9GuuYftLtpXm2ARwN3mh8q+giZ94Y1hUb+5rqI+tOyjv7a423IVecgwlyHCfbeOmXfuzlXvCea8XfY+eF97zlsTP5xkCAf2z7n62djXgJkOLhTnau3Hj+O564cP5LCv6N4rzsytOu9LSoE3h10UxsWOmiVRskt3ZaawzrioNXx1N8sF4r7jXI4RxpW/GhfIyL4gRPzumUCcDGJwpnbRKQwP/o7tj2P0Mrf9l9kMlcvARoJ3G/GLROAnKxTaBpCm9Bk+Lc4nt2sHJkHop8bsfAmmOo9REX89dKa4xhrTHQOej1wwCKPtpkozGW2eTwuRk750au8H9xf6O/CNg7gWA52QmQ71XxRTuNBwD/bdiujhjm3334wldvOo0fy4h55gzoJMCAgBReDxxQkGv8gY4t6DiurARVn+SSTyOvchT3JmiIBa36tPGuMa7u3PM5pPi8mNdOo3xgYibtwC/kPN7IBKBnq57Bel39Uz0JkLv971pcs3cpVv5n+p4H+f2G+IsMSAbyJOAeFOZUlAkwFHAybYxf2MkFvdBBkWeAGqElwCUZALCNrfDdGMNKciYOBTGiF+NdJm+N2Nk291tjsvmrxkxj0NzOQCvibNizcjbOF977lqWfApgL8HsmGi/+wtueP5U7AQL+cod4rLrnX3VvS07lEoCc5/iLDCADOgkwxbkAAV6VkZwt0go2BsQSnW0QX21UaMzX/oQJBOsgvqVpvWMYydFk/8Zvrz7GKxME1ankeZVz1NLVGJCTSiyFnI1xZAegF+B7ALxHZsyfTALkhlt8x05FG+B/doFfJiDH7wB4+lR8FiPIzWZA7mJ+/ML5u6QIJ6CgAuwVZk+moKHYO60CEfGqtBxHYdvE5vHWSkOOKH7NW6bN7b84B/DbyE3hH/IdccNP0ic9O76l5HDeOEeeD54gkOw27ACMAT/zT80kQLb+Lx3dGe/2P2M3/Pm7DndvFlnC2+nIwOLgHE8CUOBTawpyFziwjukPbAIYPDkDEEVcJwho2HKvraznjNP64PxzHz4LmpfTk6Lxuew55yZOfgqgZ5XeI8OAPXdf/MskQN6/sdVFAODvA8bZXhXv2pjvPfr0Vn8WI7iTzYBMAp68cP7PFeAqRVvAJgENFfIBzcgUwLcUYnkAACAASURBVEQrOwAXWpZjH7U+YmX+RmiUG465GEcrP5k3GjfnythrjRNxSFuNj8awbrlinA2/Vg7HPAGYC6w3MUmQFxjJb3Kc7Dfb8Y6VP57zR7troLhL4413ADhfhCAVGdBJgBRpXoVR0e4CFIAV9HDMNkdoCcSMfJfvdYOeicmLM9Ew9hXjAdBbm3Ls5aMaT2/ca5AbxF7xUZNbxwSgZyKx6iRB9CX2rZsEyGowQH+ndjhecf/DtxTFPg4iA14G8iTgDgCJtFiJ9dIATIXeEoA4AASxkScOhe0N0hATxohjaZk2W3w5b2yP+24+WIfybmNE7Bz3WmmY9I3FZ+RaE4BVQbpnIsAyy/hLk4Dr9r/f+75tnCavg92llW+M9Xii88WH37wnOz/xFxkYy0AxCTAA0g0iXMQrKz4FHsgaOeZr3wDtWgGLxp78m/iS7woNcaHl+KfSAPLS9tpxdSp5bo1D/c2hS/lsxge5PN5t/C0ATAp6JwTpcsBJTwIC/Hdq1V9M9OSHneIvMjAlA09eOH8HgE9Agvso4FUaiji1CiY9tAw4nv1R3wRWk+Nu6ea4lxnHSjFTvgDWY+OyMdpj1Te21ymXbCO/Db8sJ32A7TJtL0D3yi0TA3RkEvC1G95w3ZTv4GyyAv6x7b+rE4DnY/U/2zdptww9+ebzn5oCFgxQAnoKKCj8vTQDEMku0dTuhmkA8u6xzRRf4Q+TMbLtnqPeXG9Izp7DYkz0+VA5oV3cP/GXAAHA52hPZBJw6ei2YjUY2+I7NhE4fHC3UCtGO2sGZBJgV2VSmFOhzi3ztYBngFoGrNlerY8YmL9umh2LPZaxM2222AD2rbxXzgXHg3NzojSMYeTzITF+7aY3zj4B2MRqvzVZ0EnAJq7Jyt3fAfg7BviD9xrcOSsghLHdy8AT13/PJyy4tcBEgFhBBgV/Ai3ZNvJqD2BowLYVz6y6Ji4vVtAQE9ql4mB/U8e+RO41xnXpyhh4TBU/Eoc3AWgBeIvXAuV18VrxPHP9/s1rrST3HX0gwH8Ahrs1GTi+7HPbWj9nYXw3MvDYhfMf615hj6zuAIhoFXQI4MAr2gwWSZ6AQ2Q2QeNYvJirtCVjZX/dueccmXxW4zsBOT1nnu88Bm8CsC6wZrst4GY57i+js7ZJgIC/FP+47r9bgO/t9sTPAO8GQG9ilGkSYAp2rZADsHpWewnozKpQwYrpAHoTg8oSfU5assVxEKCrnxZtibgGOZkwduii7YpxlfF16HIM3PdiTPyL+4uvv/0HZ78EwKC9TH8ZoG/5eeri639y1u/u3Y++L4B/x1f+PBGQRwDjLzIwVwaeufF7P5iKNgCJgE/oKN5a5DP42WOVJXBUWrYJW8lfxQ/zPPnZaMuMg3Wmxs95WUWXY2CbOFeboDnn0/s8pHNJ8T77E9dt3QSgBebL8tIkYI57AmS1x8U/+rEDII8AzvHZmgtAws4pzoB8kBYH5568bv/9usInACmKeseqEOCtegA6ssmggL7Kk9xaaauMxRlTV6zsc4lxLrvzUj0nHA/G1Euj+HEOPT+al2x3rgnA2Kp9jL8ssE/Re+ama39ulcqQ3vYWW/4B+Dzpu3x0ZZXPVOhGBvwM5EkACnZqCRSKIu8Uf+ixHNPYXq2PCQjz10VDnBzjUjSTo9HYJXdZZ1TWk9vkKt+cZ84Vx879IocmfpF7/l0/8mINRLcBtGuxLUtPk4AlVmsB/rHlX9n5uTtW/z6EBXWGDEjB4kJfFPQMXsrvXS0SSLq6BDTK3wStElcac+/YlohT7K8yTkwgpFU7c4xlgr1BjigPGh/T8piX+SnguScGc9nrtfPNn/6hj0z6aj7w0Dvjmn9MANwJQPwK4KSvUggvkQGeBCSAAbhQQWe6gpDl0zEmEoM222Z7AJC10pzYesfBcsvEyDrc7x63iZ3jQX43QYMvGzd8F2PLMS8zAehZffeCccuWZ8OjtWzUeN2TgPu+8o4A/wB/F/zlUkD8CuASiBYqkzPAk4BU6L3VIQORxzc0AIMAhvZXXA2zHQDSKI39m351rBU5+ETb9G1sNGUptwM5Y2dqzGoPE7sl7akd7xzCNsaRfchLc2ogedbpo5MAAf9U5A9fqgIAXw+O/u7dHyC7Q/EXGdhEBuROZi7yAjR8nPqm0DO/AMXGSt+uIAFo6g8+GjaKWBpyiMnarsYNAMttVa4jRvat/Uas3phUz5wL0Kvx9Y6jV86M155DxMFjkP5ZB/mx8T3/Mz/8m+539wtfvSmt/OOmv90D9SkTuQcefqP7+QliZGDuDMivCMqLTaRwo6Cj0GvLgEGgMJBnOaev8sSbmyYxq03ESv5cvqfj0ciO+iCatc0y3K8BeZLx/J4UjceW+4NxcI4v7i9qLwGaa5u9Br7rtg+/vX4GkwAB/0tHz8eqP7b+m58BmRwucUPp3LgQ9nYpA4uDc4NJABV/ABOA66633bS4/effv7jt1g8tPvwrH0///+hXb0804UGO9Wp9TDKYvxLNAarCtsMv4qVxCz3psg4AL7dV20aue0zsqxFLb8yryPHYuF+MheOd+BKgGpjW6ADhdbdz+f/6u2/+ZCoj8lKXAP9Y9XftAhw+GBOAXQLfLRrrYBKAlefF/YUA+y9++N8u/t7vP7F41f+9WHz7H7/4orTe/6v/+NnFLR/7kzQxuPOnblk8csO1Lycggr11ARvbtwAsPit8BXnS8WgAU7Qqw+OBDablvidf0FaMT20hhhXttc4ZeGjFt/zP9Q6AOUF+LkCfGpP4TZOAAP8A/y7wT7sj8SNAW4SJOxdKngQ8h1WeAP9Nv3Pv4ts+64M9JgDf9qcvF5MBked/mRDIrkEBngRUQk8AtiQNdtWOA8CQUaAkmUm0VowM9lmud1yzxUfjquWjd7yICZ+HYiyOn3VNAOYG8bnt1SYH4uedf/QfAwD7AXC3cxVPAOwc5m7XgBcH5752wxuue/zC+edk9S7ADvBHC9CvtZCzrcjLDoJcNvjyW697QcEF4O8ACsvUwKxnZa+AR+C9NI3iVBtEA1gWcRHf01HaHPGtuPLnWLRvz5HxkeQu7i/W9QigBdhNAbj16x2PxSL8G/7ss7sNbDEB6Dv/8QTAduHhTkazODj3v//T/+efMsADzD0ar/65L7I1PaHLroBcHgB4KMATCHbRMrgyWGHiMLBNQKy2J9LYJsC+oBl7roy3O2D1LOhmfnWcRn9lOXMeMA7kVvNHY3npl37sZYDkGDBCbu72pPy2xvH5j/1KHwAEUO52nuQJgLgJcCdhd2sGfc1vf+sjDPTcF+AGqKNlPvfH+CIr9wvIjoBOBJYEMQUnszJlsGrKeHoVWmGzAtLiiwGY+9D3aIUeAbDKbpJmzkWKm8eFWJCDi/un9vn/3klDr5w3GYhLAfEEQDwBsDUwF4F4GWiBP8AdwM6rfaXlewX4GH3oe61cGkj3CABgAC65TQDYohmwUsAkcALwomWZpWg98bRkvLHlcawcWyMfvWPlnHNf9Dk+8GqPADIYegDq0VjnpPpzxxW7ADEBaE4ALh0+6NXkoEUG1p+BxcG5V/zWcz/rgTNoAuQ1MC8mA/mGwJos7HEL23//976anjgASFmwAZ0BCLTa6nmMr7YIrLtoBLIqLzRMYojfNQ7WmxrLGnRT3tguj4fig9zX3/6Ds+4AzA3AJzWRgF8Zz9/5r/fv9hZ3XOKon//4DYD141x48DPA4A8wZoDmPoAdLfO4D/6YPdaRvsjLI4fp8UEDNAloWzSzOlXwJ/AqwDrTl6F5sRT+cpyenEeD7jKxrEsXdmVSI/0ibpPTdT0BAACttWMThTF+ze466HEzYOwCVHcB7jv6QFz/9/EpqGvMgIA/wBoAbEGZ6WOrffBhE61ns0XTywITQRpgVazEeSVLEwgF2yVoCo4EhIVPACbzx2hLxLHKGMZ0lW/jNvkUuU09AbAqMK97QtCyf+tnfre+AozV8e7mRt4AKL8TEX+RgU1mgFf+LTAe49VAHpMB0a/JjNmW9xDIY4MJjLyVqEcj0B3oEU9XtavQANpsAzQvtgbNTioYgMHbGM2MQSdWNE7OLT8BsCpIe/otYPXk101bJp4PfvJfL+KXAGMXwN0FuOOZV22y9oevXc6AXPP/xF+/nQG6BsQAbmm5D3m2gT7kVGbkRUKQ4xY2pJWnBeS9BABB2xagaFanVrZYpRPIqY2pNAAi+wXNrpwzXX2RXIqTbUyNY25dGxuOjR9MAmqAuwxQ1mytk76JOP/FJ/9ZTABip8PZ6Th8epfhKMa+4Qz0gj8AGWAsxwB58Goty0EfbU3H0iEPW/LIoAJ4BkgAkAV6BllPhvnQXYY2sO3F1UtrTBCWiW2ucQ3GiMmAtI0fAaoBtge2Hq2m36LPZUd8zGlL7KUJQACgA4A7vitw+fBzG4aAcLerGZgC/gLACsLOKh7ALMCNPuQB5jhGC3qrhSzaZD/HgksCOhEwYKRASStoAGGhQ3xPp5emtikO1Z1CMyvrZPcEaQP/Gex1bIjt4v7ipG4AbE0EtpGXLgHEBCAmAPYzEK8A3lU43vC4D67cCKAGqLaAGDwAsW3Bty37EB4fw4bVsceQQ8v81/3B19IlgQRGAPIRsGWgVhAb0Zkk56zyi/gcvkxIOC7pT/JJ8a9DV2Nz4gRP4n3+XT/y4qYBd+7V+SbiTzcByg1fFgDieKcnBa+4/+FbNowE4W6nMiCvlzz4xpumAjHAt9BznvMHH/IA67FjyHErOtCzLeSSzJ++nN4imIAIq9G8SvVoCqwAsw4dz04vTf0RSHu0dexKqJ8Vxwo7qTX5Ak/i5xsA5wTmOW0xwK9it0e3JhOPAe74Vn9tonfPI/s7hUcx2A1noAL+DLYA1yktgJ91LI2Pa4DO+uirLP3SIGiQkdb7TYEE0hl4AV5CU9AaAeVV5Ng3Vvgcg0vbUGyTxkWTBx4TjwV9Btdt69fAeM44e32kFwHJDkDsAuz0ir/YAbp8dCWe/98wHu6Uu4NvvOnb//jFFwUsGUC5z4DKciLDcgBzpkHX0mrHlm71he/JeDToyhsE9RcGzUqVwQvgK62CIQHdXDS10wvsa4ghjXuVcXqTJMQpvGy75w2AvQA5JygvY2udcf7lr733+AmAAP8Af94JiBsAdwqONzvYjz/7BgvaAFJu0QegSss07kMGdlkWch4vyY2s5qFfkxU+y2gsnz3+qWGdBBjgxUq1mAwYGfAYvJeiASRNW8SQeaBZn/ZY4tg0DbGlHGAsNClAbpa9AXBusJ3b3jITiJbOH/7LgwA+Br7oH38e5AbA+AXAzeLiTnj7+LNvsCt/Bk+ANNMA5kyzcswDAFvAZrrHszbkGDS0sIFjtKAnu/RkgsQpbw+86203Hd9YB9BCS6vWAtRWWSV7ug5IdoG3Z+sEaQD4QWtimvMGwDEQH+O3AHhZ3lw+49cA4/p/sfWPCdADD71zJ/AoBrnBDBx84/U18AegWyC1AGuPE+A6K3hrD3qWDn/KJ9Af8MiP5xc2Eo8mAXIsTwikSQADvwHlLkBectXNK2fu4/KDR2OQXWds8DPJR85jETdyc3F/8fIv//isPwK0LFBvs55MIuKHgGIC4E4A7n3oNRtEhnB15jPQAH8ALbcAU26574FsFdwNcMMP7CVbJAO6tOhDx8qmYwJ7lrfx6JsDzWpVgQ+TA8NPALkibWCDJh/qP9MAqkpfY1yz+MBYco56fgJ424F5mfim7AqIbPwUcIC/C/6X4g2AZx6PNzrAex96jaz8GVABlAySHm0AsAzU1C8AmgDZo3s+IacxkA2WhxxaladYQIOMtKCJrdtu/dCJPGePlXZr1Q/wh6wCNEAWq2w6FtmTksNYON7aDYBTAHIZAO7R2YYYEOe7/uA/xPV/bHlHy5+FOzeKD+HsDGfg4K++81V/+DfPMohyHyA5RvP40C0AtgLcnr6ljR2zn9Qn0EcsAHo9zjKWnl4fDBDd0AqbQZr7AE+33VBsyfcSuxxpHEZvzuv/AEtux0B8jD/FFssu2/fi+Z8fele8/z9An0H/al9+Ajj+IgMrZwDgT6AMYEwA6tAtULI8+gzUtT5kbevZZxsib2VwbOVgm+ktWfCgJzsBAmAAMQCwB84r0wjIAbbSsu9aH3GpPCYuuV05tiXteat/ofELgMZA0wPHMZ1N89cRo/4AUDz+dxX4YkJwnIsvfPWmeAJgZfTbcQMG/AF+aBPQOqtjgOmYHEDUa2Fjig9rBzY4DsjUeKBDzrbgi038p8sBAGcBQvTNqhagrWA7Vc6AbAHmxpf6gI7hrxzLTPYwYdF4JScX92e7+W8dwLvpyUPN39/9i/8WwBeAP/wMyITwrsU1O45eMfyVMnDHM6+SbX8BQACobWvgyHQAZkHLuwbMg22W8/qsAz50tfW29R2a1cextGqrchOhlcFOgICXglkGX3tcADcAGit5OrZyAEulYwJhdBK4C83hzxULfKxiz4tP7Nau/9eA8LTSV5mc6LP/sfofAuDOTwoOH1yp9ofyjmfgYPFt6Zo/gJq2+QGMCQCd1T9AlOVAYx2mMV30WBeAz7SW7oBHsSc/dAzb1j9sMN+TQUyI+faff//VGwN5IgAgXpGWQJdtAPiZxv0Kf2Bnpvh0MtBrz4lPbKz7+r83YRgD4zG+Z3MV2pi/WP3H3f/+3f8pL7ftOILF8JfOwF2LazzwV7CrrKQZLCHLgMu0Fp2BVvr8X/iYEEehRxMAts19lhe6PU60bIfHJXJ3/tQt7j0BWDFLq0AJAJxAUzsAWWsDdLSWT8erxrLSOJz4sCPgXf8fA8RVwHZO3U3EKat/ffY/dgBiB8DseMQvAC6NfqH4yt974X8wwE0BQCvLwIm+BUzRwT9k9NgBWfDQwh5apTsTBLbv9a0N2OIWepBFCxl5VFImAQCzBNi8KgfwLUkD6KbWs2EAXuKAjsa0BTQvftBWAeQxAB7jr+J7U7rX/qcvBugZ0GushncrVzIhjBcABZBPzsBdi2sA/gAz2wL8QLfHoI+1Vs+CqOiDxrIeLck6YD8WQ43v+qvsGrAs25OXBelrgwmQFYiXpdHkQXcCzO4BQJT5J7nS98asExHKAyZKU67/nySYT/E9RXZsElHc+S/FPnYAdgvgRyc+h49Orv2hEBnwwB8AB+AFyA2OMwAzHbqigz7zYQst8yAPHtsoaAaYoQdb2pr4QGe7TCt80OTC2mc525fXBj9yw7UvKwASeC9Ny4AJkPfsFMC/BSt9BXuOhSctTL+4vziJ6/8e6M4J2p59S+vxJzLFz/4G+Af42wnBvUefDjSLDEzKwN/+9y9+2QKYPQZAorV8OW7xIA8QTfIWmAlsIW9b+EBr+ThmP6BJW6NbXktuIGtuXIQ/+SlhmQQUoMwgblbACuhEZxqAn+0xH3QrV5UhP6K7CTmeECBe9R3v/68+/ijgf+tnfvcY8GLlH8BvgR/Hdz/6vnj+fxL87bDwXYtrPPAHuKIdAN6fvqxgD6BsySZ9s1oHSI61LfvwCRkbJ/uFLPuDnsdjuVE7lbHJ/QA3/c69sz0ZwICZ+q1dBQb3lpxZgcOuTgbm1jVxsZ91vP9/bGU9xrcr9TmOl/FZvPM/Vv4xAQDg2/aBh9+4w4gWQ5+SAQv+DIQARwuEreMxHebD1xiN/bEs02v9lg/WUbkM5Oyn2vdkKxOBX/zwv003BSawA6AyEE5dfXfYmM3XKnEaXaz+bWw4fvYnrhusgJcByzlAeqqNdcYptgeP/cUkICYBFvzjB4CmwN9uy9bAH2DIACl9ACHzPRrrQRatxwMNtnAsLWiefuIbEGY56LI99MHrlYcet6wrdHvMstKX3w1IQAdQXGXlDRvSVux4uwXqHxOIiu7a5CoTHYzhhfe+ZTABmArE65RfJ8hz3NaPbv1LwQ/gD+AfAH9+J0Jc/99tUO8d/Rj4AyATsDnX5ZkPoGNatW8AG7rc1oC0ZnNMd0yP+WIL/gct5YF1BnKVXQCxXbwoKIO4gi2B+hgt8QHiY3Z65ci/TB7GYsAEo1cOq3+0gzFMeP2vBUgBT4/GoHoS/Tlikq3/v/XFhwL0aqAX9KufjctH747r/70ouItyi4Nzr/x3L/wXBi3uM5h6fcgyz6Mxn/sMnKCLPtuADGhoIc+tlRWeR2Md9Ft2e+1YXzWboEuLdwQocAKgJ6zGAb7atmwIsE+wvUpcTV2aYKgcxTbl8b9VwLwXlHvlVollTFd+7U9f+BNAdxXoIhd+Lu55ZH8XYS3G3JkBAX8PABWgeJWL1Tpaj9dLM6vilj/ExyCc+ojD2II8wBjHhU5HnNBHbIUdR5/5ydeIDOzKOwK+/NbrXkggCOCugWOmF4DJNEe/tnqv0au2KaZVdd1VP8e+RY//jYHyJvnv/KP/eLzlH9v+PuDFRIDycvh0JwyE2M5lQF7y8+m/+QxAC2BkgQt8tABFHNfkx+SYz75hl/k1H5YOHc+ela35Ab3WwgfzQYNftJBpHYuu8IvHA1dZnTNIGzsK7Iaedg02TatcUsDOhMT68i//+Ild/19ltb+KrkwmPH2hpR/7EeAP8CeQi/f/V994GNf/dw7Wuwfsgf8AqHgFS30BNis7hQZgTDpkF0Ba44PuyYGHlmVsrPZYdEDz9JgG+6xT0Hg8ZocCPmq6xeOBFYBUECegZ1rq80oadjKN+ayXJgGQJdurrvQ9H1j9o+WYMBnxHv/zgHHK6ntV/Sm+emV7Y/rLX3tv3OwXq/tpEx+5/h9/kQGbAYB/AUgOcDGw2T5AkW0kYMt2mF70Hb61XTtmO8kXbf3X4umRg671a+nsHzzQ0MJGjS9yLIs+2n/0q7cX7wgAICqQAtwrK3YAubaQN6AOu2h77c8iR7GoPaFhTBf3F97jf72guim5XvDulfPiFl35v+HPPjut+AdY7na+ZJfo80+92tb+ON7xDFjwB/BY4GLgBJgxDfKJRpOHGp1tQAa+mSc0e2x9QM/S1S7Fw7bAR2t5sIsWctJa2V5eTZftsT/p1349sADLDKJVmgH+JOfsAuhEYcOrf44HOwGIRXjer//VAHIK3ZPddtq7/uA/7DaYxWRmifN/+OCOQ10M32bg3D959nYPeBiAAGwsB5oFM6uHY7SsZ/s1+yzXkvF4Y36h05KzMp6slUHMlu7q0q6F6Hk6+sNBDOLoY5WcV8zVFTytshVgWRd8pk31sYxuZaKB1b+Av7f9vy6QXmV1vq6Y2K7+0E+A4BIguMP3B1w++qit/3G8wxm45re/9REAFbcAoARGBpyYZsHM0ytovAo318Kr/kmnkIH+BD7iRcv20rjIFsfNckzvsTOmy/ZYFn32wTcFptUyADu3Y7TEB6AbXZ0QEH3MHq/O0Ufbq6t+c1xejELbtu3/k5ok6E1/Af4B/lM/A1/46k07DHcxdM3AXYtrPPBnsAEASQuQYr5Hgw54OPZalkGf7Vsd5kGeZcb4kGVd9FkXcmjBQ2vpcjxmZ6BLEw3Y8+xAj9tbPvYnx/cDAMgnrLgBztqyLoCfaUv4UODv1YXfkV0AfvvfpsF3FX+9umNywj/8jVuv/srf1OIf8rs7YTh+QuT5ePmPIuBudzzwTwCEVTVaB6gAdh5wMa2wR3YAZlYWx+CzH6XluAaylXhVj/xD17Ytf8wTPXvMtpjHfZZBv8b34lbaZxeL22790NWbAjOAKvCOAKq3wtZVeI8uychEYpJfowu/RUzeTsCEt//xVvlZ6ssd//Gynx3evl99AnfnbqNejD5lwAN/gEsL3FhGAawCyDU7sIHWynmA6Ml6NMSE1rPl8WpyHr1F45jgh1vwWzZE3uMnOuUa9wMo+PautiEnQMwrfQAz0yC7TlrHBELG2LP9X1tB1+g8OeiRYflN9+VNf4Mf+VkdEHZ3RbxruUvviYjH/3Z+CtACfwAUQAvH2tIqukkjoGLgYmDjPvxxq/YrK/tkl+JhP2yH6d0+jV1rD8eIEcfJF+mCX/MLPutzn/Ugi1bk5H4A3coHgOdWJwZE92hJH0A/Iuvpr0LD6h9tsoVYcgsab//PAb7rAPxem71yGKfIx+N+sfKvvtindzJz70Ov2XkA3NkELA7OveK3nvtZBhjpA1DQMi31CdCgy8AEGlrLs8eQsy3kijgc31bPO4Yt4XGfZeHHtizDfbaDPnRrfpjPMqCPtfBfkxO+/HKgTgI6VuoK2CwL4GcaATHrYMIwCw1+K7sA8CUTBIDhrrUC/uk1v71FPuRiV8N+BtL1/3j8b2exXwZuwd+CCgOU7QOIbKs2HKAGSELHkwUNMtK6NLIPu5CTFrSaPtMLWcduTVbo3j/b69VlnVq/ZovHjXjSjwaNgClW0gKq3MfqWycR4JM91ZmRBr9eLAXtwvnFpn78Z8rkYuoqfoptlhXwj1/4i9X/yqv/ePxvR/E/r/wTUGI7vdICUGptC6wYsKw+QMvSk04GYZaBH6Z5upYGvWR3yTGyLuxzHPDBNE8OtGTPGSPzvT78tHiI4e/9/hOLR2649mVdMQtQe6t5A+AM+q68Z2MuWs9EI/uae/ufAbanvyzYL6snMYmuvujn+A7uWNnalW0c938mHnj4jTuKgLs97LGVPwMNAKWg0SrZBSMALcmpnRaP5GGX/SrNszECqGyn6Hu2PBrFpmMhmsZGNE8ONMhLC5obV46lkGcf1IcM7KRHAzNg8go69TPwD+jY5qeJActjgjA3Dat/tBwXaPAtxx5IrwKunj2mrdM2+0Hf85fAH8CPNgCvH/AiV5Srw0fj8b9dmwfIyv8Tf/12AASAJ4FQA0gALLaFPtqaHejBL47Rsn6LJryaDdWjcUyRhX7y4YAu+DWbdgyeHGgsCxrso2U6+qwHOW6ZL335T48GWlDHMbUDQJ9rVe/58GgjEw4BfYlR/nvu/geQovUA1aNBftvaWz/zu/HTvgHgBOArXwK5bdfgb+fH64E/gwaDVCgVpwAAIABJREFUCfchAyASnkcb0wG/sMOA7a28HVrhvwHW6g82KrLeWIoYHT3VIR5o8MtxMi3Radws59lgXS8u1kFf2vT/py8v7nrbTVe3/xnYCXSLSwVEH0wMerbps36vLlb4SZ4mBxJTQcvHJ739P+fkoGcSIuBfXPOP1f+cQLibtuLtf7s1H2iBP4OGBScGHADRGM3lE1DCDreujgFJlpc+63h9jKtH1trmY9iGPbQ1ux4fNLRsH3348Y4tryVjffCrgnUbHSDvTQiYRoCsgD43DUCPmOwEglb/m3r3fw8wj00E5rCRVv6x8t1NkF7Xeb98dCW2/3cJ/w+u3MgAwgDBdICK17IO+B4NPGnBZx9F35kUQMe1k+XZBsvZvmfLyuCYbUIPLWSkZTmm274nxzTYZhpseDTldeZA7MOH6PJPB9tV9Tas/lu7ADppOSU//Ts2Mejl67b/uoAg7O7mxOLeo0/vEvzt7lgXB+f2Dr7xJg9QXJoBFwYQyLdoHg/A5bU9NkXPk4M9z6dHYzvcZ1nY9PieHOLy5NmW7bMeeJ59y6vJwB74aEWf++lSAK+yeaUPOtPmXul79uC3sguAyYlMWuR/1Z/+7QXfqXJzrPbZZ4D/yte4dxPcxyZ1cvnovq+8Y3dBcZdGbsCfwWAALs52uyefQMWTdWgMQAAppiGGKTY9O0yDTY8Gnm0xzpoO0yFrbfBxIV/Ji8jDViGPSRit4At+w16ySXxrv3opAMA8AsZ6CWAmudaq39ulsNv/c4LuFFtTZBnUe/REJr3kRwo1rvWjHSvuwQ/QH/sMxPb/jswADr7xpm//4xdfZGBCH4ACgAA9AQgBEOg98lY22SIwUr6x34oBOl6LmCyvZQ88tKLr2QEfLXywrNe38tBD6+mAJ+0Yv5BFHnOOPd8eTS8F8EofgM40TArWSaus+gcTjRzDMnf/MwCj3wPEkN1kK+/219f7BugHmI+B+VR+mlQe3b4jCLjDw/z4s28AmAAEpEW/ABICafChy3LoMw/y4NVayGnLPrmfQU3sFH5IxvpQmwYQkw2PVrGldojPMVi/tWPWUZs0LqsHGUvH8RR7hSyPg869TArxVAC21/Uae54IDAC4F6gnyGH1j7ZY8efJh6W9/Ms/7j7/v26Q3sSEQX/YJxXpw5fSW95iEhCTgKkgPyYfd/+f8YnBx599A1b+ABe0Airoo/WABrQkn4GkJg+6Bz7gsR227fXZTos/ZrvXTk9s8GVb1gUPMbN/9CGDtqYPedjilnnosz2WTfadyYdcChiA/DpX+t5uAnYdKpMGTE4kTvnfxlf/zjXxOPyNW49/1S/APwB/DMCX5afJ5OHTZxz9dnx4DfAHWCRQoNVhDTA8UPFoVp+PPfkiDmeFDn3oevIq0xiHyjR8QAat51N4RQwNn9CHPa9lW5ZvebBn6VZPjlmm6GP8ZiKAFwQVq+wKGA8mCyvKda/6aUfi+Xf9yItjgFtbqdfoY/aW5U/x9/mP/crxC364sGPlj5Z50Y9JwrKfgXj3/xmeIBx84/Wtlb8HGgwcABumQacAFGdHYArfs6m0ClilmAjAOFboovViAQ8t9NEKnfWsHI65hbxnAzS0VftOLuGDdT2a5x9y3Nbk5LPy5bde94KAMVbZWHWjVeD3VvCr0CZMINJkofLq32UBehv0ZJLwh//yoHy7HwAf7bKFPvRikuB9BuLd/2d0AnDvQ6+Rgi6gAeDQllasAAMBCPA9sACN5UHjdirf9QnQH4mTfRV9Z8wco/Tht9AjfyzvyiJGmoRAB/I4Rsu+QJO2Rx4ybMOjwa4r58VqxnzT79xb/GywvRdAjnUSMLJl3yuH1T/apEeTCfUJ2oXzi7lu/qsBv7di92hWv0fG6uD4X3zyn5UgxaDPfa+QB63MXeSjIx+HD8bLf84i/h/81Xe+6g//5tkCBEyhB1DYFjoAF8u3xzV56NsW+qDLcdEfiRP+YKfVsuyyPtgG+2I6+jUf4Hv6ng7TRKelzzaTrAF5tsV2mG71bv/591+dBADk13k/AHz0TC5yHLVX/64CwADiTbYSr/zrL/oBuBjwuQ9+tB0AF+8NaP488H1HHziL8LfbYwL4GyAAUKDwt8BAZQmMp8onUKnoj/ESP8ePeBETWtCLuMgf5JKtGh0+KvzCRiWfLNPylXgVGzwG2MP4cFzTh5y2NBaPlux4MpQL/tngYjXeA9B0jd7uHng7At2rflr922f/NwnYc/sqHvMLUA9Q39RnQCaVn3/q1bsNlmdt9Bn8GSwAArbwy7GlAYhYB3JomVeTZxnooW3xRIb5sJ/oDFrUh13bsi54oMEHWvClBQ1tomV/oMGOxytsGT3woA97oLM97rOcpwtazQ7TbR+67ENk9N0AtDpPgA4gnmtHYMKkApcCem7+mwrUy+wcLKODuERX7vT/O//1/gC9TYFe+OHP2p1nDf52ezx3PPOqtO2PlZxpufDbYs889AEMcgx5bR0AZvmkQzKenksjHcTRal0bZpUNGWuH44VMQZsYix0z+/Psgw8ejmstxwYZjwYeWtjXtjEukYGc3D/C7wawOwFY3Xur+l4aVv9oCx95olHQ8mRk6rP/qwA1AHvZtuZbb/YTUIotfgam6G9iohKv/j1D84W7FtcI+EvRRwGvtUkmg4CVYR4ABG0NbGBD5SwAO4BTswUb0rIM+uwLNNZJeuQfMmN6zLf2ajYT3eQRumwPMYBnW/BFx9NjGnQ9mvKcmOADMmjZjieTbgjklT52A5i2yo4A7PXsAmSfczz7XwPlZUF+qp7+ml8Af4D9JsB+4OPw6bj576zg/12La175ey/8DxR1aVHYtXVAGPJe4S9sGF21iR0G4v+vf/TSy/L/v/z+i4up/xIHbCM223p80Hgc3IeNMRrze23CtrSs7x6bfMFHywZ4bJv1QAcNraeXYjIxJBqdP5aBDb0hEEA/BbSzrLcj0L3qJ79ip3bz31QQ7pWfc7KA6/1/64sPxap/AEpxw17zhr1583XbWYG/nR8Hgz8DAMABhRwt6Cw7xgOov/JTL7z8yk9+a3HNv3p+cc0//+bi3MeeTf97v35lsfehKy/vffjKIv1zH7SxVnSy3rl//I1kV3yIL/EpvmVSIbFIvK1xYDxJjnYEQPfGDl5Nh/ksY23ZY5a1NnCMsegxgNqJPdkzoG1pbgyODvzZlvVf9wdfWzxyw7UvY8tfgFsBHeC8DK1n1Q+ZbL/n5r85Abt3ksByNf/ych+93i8r/1j9x+p/XlDvz2c8+38G5g2Lg3MM/ijiXLwTMDTAxAKPgKuCvAD8P/7GMaALeAPUP/I/j4EeLYAdxz1tj4z1Bz+5bU0SvFwgLzxml0ZAOcofk0XuR+QQb3G+OnUQI2zw+Nie8isxwY7VFz3vhkCdBCyxI4DVP9pkiyYTuNkPfEw+vGf/a4DLoHzSfX2+P0C/H6ROChzPvt+7zwD67fgQ7lpc87f//YtfRlH3WlvIcYxCLzqyok4r+n/+zUVaxTPICgDXgBpywmc5oUOH+6ChZX2vz7rchz5a9g1aticTBNlBwO4Bdg6QK+QDx7Yd47O8J+vRRMfS+XxYnifv+WUbHh80z/6YD+jihkAFfgLsybSpk4a8AzD15r9lgL93QtEjJ1v+6Wd8BVQC/AP8t2By8Yr7H75lx9Hz9A/fA38BAQ8IuOhjhS9b9wr4ApwekBpAdYGdwdnri90MyMUOAvvz9KDTG4OVhx5a8H/9Srq04E0KvNwlcKysmAGM3Ho2QEMLeT7mcwS+bSGPdsB3dgwgY3VwjNbKCR3/4PEbAhXwpwK5yOeJw+iq38jNcfPfMhOCZXWw5Z+u929B4d/g9eUA+q0933Hz3+lG/8rKf1DIGQz+9OW0Ck6gz4Bsgbd1zEA61q+B+xQ9yLItoSF+8Dlm0NAC9HGMFnS0v36l2ClgMOY+gJBp1X6eNIhOTcbyYB8t9Pjcgsa6zK/RoceyoCWdSryIBe3ghsA1XvtP2/7ZvkwWVrn5r7Zar9GXBX3RE5sf/OS/PgbBWPXHZGCbJgPxwz+nG/9rK38u/OjLtfwE+gA6AKBthQ+aBVzhWdBlGdbt6cNPS5Z5LM/0Vp/j8/QtX47lX2zmf8lbuvnwUy+kpxoAgD0tA2tNnoE4nS9nl4F1x2zW+B7d0uwx/EqM+AeN3xCI6/J6vZ52A2o0rP7Rju4CwOYW/PBPz2ThL3/tvYsb/uyzi7jLP+7o37odF5mMxpv/Tu8EoAX+KNByTV+uewPItPWAUMCOwdCCKh+zvtdv2WF5tok+wBdy0oIGGW7RhwzLwwZkpG3FxnLQZXvC//CVdDNkup8gTwgAmgBytDgP0kKG+ywHPtOg3+LV7EE38WlFz/Sx/phf0f/wr3z8+HcCllz9Y+LQexlBJgvezX+rrNLn1pXJgbzYR+7yV/CP1X+s/rdl9X/8WYw3/51W+Af4C1gAMLTFFr/csc9gx4DmAV2LxnYyCOouAevV+qzPfQZXG1/NFuhsBzRpV+kjhpYdjllicCYEU0AXIMtg7NHAZx7OOXjJr7ncU/DMzgL0tSXdlh7zXv3Hz6bHAovVO1bqufXAvXvVb679y4TB3vxXW43X6HMDPtsrbvTbloIfccTkw34GvvDVm04r/u1u3PKSn3/3wn9Jhd6s6tINfZ/8VnkzXwsMAXJoGfwysBUgz7YYBKHXA8iQZVu278UDPeujJct2rR7sSeuN1aNDh+2ChjbbSk8c/Kvn01MVAGwFWYCwOX/eOWUa9AG+Nbvgc2tlPZ5Hg0+0LMP9X/zwvz1+F4DZBVDg954QwDP9PZMFkcm2T+rmv57JBFb9W7fda4t/HO/4hODwwd0F0VM8coC/FF8UZQF+uT7tbu8zMNm+HLeA0YIr9FsAyDxrm3k1W1YHMbIu9z07zK/1M1B37xaInZotptt4xA9uKvzUCy8rENNKG+cRPD63Ho2BF31PDnYhg5ZlQZO2R15kPDn5nYAvv/W6F7xdAJ0EMNDThEDvD2jRaCdhlZv/eKU+Z19W/enne2VrFf8BsjsOslt838MDD73zFMPgbobO4C8FOwG/XN9n0LQANAZczGc7HqjV+LDBOtxHTGghb+2xzpQ+26n1a/Y4JumLfkuW7UOupQMZaeX/Q1fSjZhyQ6acv2XBGCCMtgBynlxU+pBnfcQCGlrISuvRwL/lY39SvBFQgZ+AXWk0GeilyQ5Az5v/pgK7t7L3aDW78njf3/2L/3b8XH+Af4D+Nk/80rX/w0d3E0FP8ahf+em/+QwKrRRqeW69AH4ADACnF5QYAGEDNNiATeaDB9kaeFodlq/x4E98QB401mn1PT225/E9H3acLZ+evicvtGxXni6QcymTAQZYgHGiEYjzZwD9mgzzuQ8QZx/Mt/Y8edCsXvFyIAA/gX264S/TE/BDppO26s/+TgH2GuCDjlV/8Vx/KrDxkp+4BLK9q/948c9pmgjI630J/GXlqC/sAbgw8PQCG3Qhb9tlbcIO9Bl0rU/IgM7HbIfp6HvAPKYDXWnxLzotW2wT/TEdO2ZPnm3lWOS+AZ4MWHD1QLcG4qBDx7YD23mSATnwYQfH0loZ5nX9WuCEa//F7sAWPPoH8Hev9QP8t3kFGLHt+A7F4aPxq3+naAIg4C8FVwpx8TifBRAcj4EPgx33LSDCntDRR8s06495njxorAcaWo4F9lgeNCvHdNiyepCxdMgzv2UfcnPKIAa5TECTAQCuB8YA35YM6xV95ybEBPDejoO5cTF9Jiv6d/7ULXpDIB7x03biih9PCoh+69E/b2Xv0QDgy7Z6hz+2+gH6tg2g3XGg3dIdgMtH744JwCmZAGDl7676ARZTgWgZPQFLAN0YcCIe1mGf4MOe5YEPfcvnY/Q5Ju7DlucLujUZ8NH22O2RqfmzMZJfngwwQCvoV4AYfEwSuC0mArXVv7ELnTG7f//3vnr8XgBs/fOTAaBN2AUQ8JedAPvo37IgvoyeTCbkB3yK5/oB8gB/HEcb4L9tn4H0GT18+pRAX4R5zW9/6yNSaNOqH2AAkOAWvF7w8QBIdD06/MAH2prsWAw1PtPhAy37As2TZ7lan/U8GeELHf/w15Idk7F8+BA6960PjpVs2HsGeEKQ+lip0yoegA0A54mA7VsZewx5sal2zURBZPQVwQT4WM0vc+3/pB79k8mC3uTHRR2gb1uWiX5MBLbpM3D3o+8LZD0FGTj3T569XW4Kk5WfghFAqdYSSBRb9jWQ8eQtCI3JMEjVdMdssB7Lgm7jB11a/mdd9Hviq8nAhvXn0dkG+GgRIx/X+p4d1me+vHwo30AIkEYLkJbWo3l8gDl4rWO2yXLSx7G8Ijht+5vVf3FNP08OxmjC3/Sjf7Lil9f4yi/36Zv8pJgH4AeobxOod8cS1/5PAfTv7cnK393yBxC0WgYWBgvQhQZ9obGM0EFDn9tl+mwfMcAOYmF6S170PD7rz9m38bFvjEFa20ecTJe4evQ5fqsvx/hnuWwbryVmcAaYp4mA2RkAUBcytGuQdMaOYdO2We+2Wz909VLAktf+BfznfvTPuzeAadKXH+8p7u5n8EfRxWQAx9HG5GBbPwNx7X/L8X9xcC6Bvzzeh0K/TAtwQMs2QEPr8YRm+Qxe3IesRwMPPkTG0tjP1D7bYv/ch4z17ckgzqlxQH6srdmvxQJ7Vo/pti+28kuH5DcgMBlAy2BfTArMFr6Vt5MFPkYfLft43R987ep7AehSwNiKX28YFJ2L+4vao38M2stc1/d0cHd/serf1qIeccWEo+szEKv/LUf/vb29D3/j1uIufxT+VVoABFqxhb5tmYd+DZzAlxb/bE/0WIZ5Vt6TA83aAZ1b7sMP03r6veMU+zYmHFs/cox/xIXW+mNd5sEf9Nge/DIP/cyTS0jyhsip7xhgEOfJAIN8QaedApFhOewCJNCfuAuwzOp/2UnB4W/cmn61Lz2/Liv7WN0HuHaB65be7U+xp+f+Fwfnth8EdzTCV/zWcz8r13MVnFHo52gBChZk7DHkGIBYBnyPxjzhs8xY3/qzx2yb+yzH9DF/rfjYJuwIDX2rC79oIcd2hAcb4NfsWD7kQGe7oEGmFQPePvjJb+muAIN82g3IIA7wRluTs/Rkw1wKEJrcC9C74h/IzfSrf61JgTzWd+tnfjfAjgAjXuKz/aDef45i9b/V04pXfOKv3773q19/PoE/F3EU9jlaBiH4QMtA4tHgHzxpPUBjcIIs22Y+9z37lgY7rMc+wEfLckxDX9pV+9YGx+P1PRrH4MXM/LG+6LOM9Qe+XCLIP1LUBHGzqreymCDwTkCaBJAedJbeBbi4P/jVP2/bflla9bG+AMOYEJ2Vz0C883+L8f/gyo0J/H+dtouliK/j3wICfDCdAYT7IgMAsXRrB/ZqgMb6PX1rp6bjydVkQceYEDPo0lp7Vsby7bGV77EpMoihx57ng2mwxXZBc3YFLJgDwC2we3KYEEBHjkGbsgvATw60XvyzLOiLnj7Wh63+2O4PwD8rgF+O4+4tRr8dD+3gG2/SlT8K9LpbBgfpC8gAELitgQ/ri7yVQ/ws19u3sXA83Pfs1Wg1mzV6K34ea80f67M8x4/+WAyQQ2vl7bHI4R/xSdsjl3cFWvcKANi5BcDzhAC0NGmgSwLpvQB4JLB1LwDdLPjSL/3Yywz0ra18lqv15Tp/8VgfgB9tWTwDFCMfp/czIJ/pBx5+446j7BYOX27G+Pizb9j78JUra7nmDxCotQAH4U/twyb00LItjyYgNEb3+GwXfQtoOAZfWu732hWdWpxsz9q3PPbX4rGc12dazY7IYPyQBw3Hnq4dp8hkO+ndAp96If0wEcAeoI42gbuz1V/jywShexcgTxLmevGPTBrc6/wAfbQBdqcX7OLcledOPtOXj27fQvSLkPYOvvH6vQ99/TFdrUnx3fS/Bw4WFCDD9Ba4sJwHOhgj7KIFHToZiNwJA2SgAxtowa/ZmBpjTV78WR812Z6YajJjNm0ecIzW5sXSMQ7IoZWXDOXfIihW9xNAH5MHbvntgGNPBfS++GdsV6C4zm+BIsC/BA6bnzg+nfm5fHRl745nXhVou20ZOPir7zxx8LcgIMdU+N3+GN+zYQESMqDbOFo+akDY0mnZRyzS1myzDPen+Jxqm/3U+jWbiMu2sCN66Etr/6EHOo7N5QEAem21n3YH6L0CmECIvPxGgAC//GTw/3XThcX/8aM3LN77ozemf+kLTXiP3HBtsfVf29Jv0QH81bulA/xPJ7jFpGT8vMUrf7cN+ff20ozsV/+//7cAWBTbk2pR5MW/7QMwEJvlC70GRp49awf2pIUv0KAPutVlektf9KwsbHPLfZG3cdTssN6UPmLy/EyxI7LyzzFzn215vkBDy/K2/+Er6Xcp5AVDOglo7AgA+CEr7f/2a3+xeOvNN3f9yy8KtgDe48lugAJ/2gal5/kD8MeBI8D1DOTo8MEtRL8dD+lg8W17v3rlnsGqS4rsSf8zYHCfAQAAUeNDVvjoY1yi+/+3920hslxXlqmy6BFXF88wIMPQMP5ogdW/bZA+LaTKsjXWHfzS9OhD/hiY1sedj8b+mam6mq7xwP2yMALTH90Y1DMYY1ulki5Yj7ZAdsvyS1dCLfS+brt7TF8Zdauyym78cY2qhh2ZK2vFzn0iIt/xWAnJ3me/TsTJyLP2OXHiBPtVjcX+UcyUjOtiG9SL40F8tqnCIw5s/Tmn6oe90TJ+UTH9sXC9Xod2wfmBss/IBusEPMj7MsD/pv1fn/zRnz5YCfg5Qfjf/+nuk7IpfksEBPxtem5d55KctSpK0JDwauFfDZON7YP9tQM9gMfTVEcPu0jvQaHMtkyPOkYAkwNI6LhO5sv0bOuPA74RGJoty8tsfT1V7a2OlG9KHh0X6vM+XE7ZsJztPY/y6JijdQIG+rg9YNTA/9bP/enU4I9E4L996j9kAJ9KBGzE/+++99zwJT3oBK2j5BE/80WdqHQtGAF3OIH48Wv/q6cd/2qWAFw4vFhb8LcOHZ06U5anAApytmUeeoALqK+H5axLyS0u63w9UQz2YV/woJEv61g/K190vFVi8vEYj3jmW+YPW8Rgf5ZxLO/DdcAnWCeAJGCWkT/AH9RmAjDlb4nAxIgfwA2g9xR6UQF8a6+BV3/We/bk+pqhX8cPZ+fgXAZW6CjRsdaZ4lhBow7fy4pAArYpG5OjLlC0j5VTetiCoh6jvi624XjsAx6+VsYX/qCwNcrxTA//yJb9It77cuyoLpNxnKj+1HF4X8TxxzClv73PAusEprnnD7BPUVsTAODPRvce5FG2Dp751nb4HR7p6jfNJ3J2vV9++7aOo23NTt8e97Nn/dGhosNtAsUxo/MH9XKABlPm4ccyiwE5qOnxZT37Qc8y9gfvKfwiucn8OXk7tkHdKR9fV8q+TO7j+GNK6RGXqfGpNkVcb89y07GeY7Gd4y0R6H/2czNP/UeJwL/9/gvDjs86PIB8GRVY5MFC7dGu9sj+C3rmv17ony36O3x9DGroRJtCuTPHMUMGyqDANgBH1pf5RLaRj8k4PvwiGR/TNDxiep/oeGDDPrADZd0sPOpIxTM9gzLsuS7vi/aC3GhKBhuOB977QH5hMNWK/wjsI9m//7/fznfeAH+Ami9DLppvN7VHi9rj1Z/pmf96wX+vV+dFf9ZJV/kCFAAAoNTJ54AHek8BEuzHvOnhw3LjUUYM2HkKO1Bvz3UwD3ujzFexYXs7Hu9jZbYBn5Kb3seI4uLc2RYy1AHKNpAZ9XxKloob2cPW6tweHN/y+YcWOvq3hOCP/sf/PO24AfaeCtxO20ht0f620NR/zdD/wtH5rINFJ9lkik7dzmEaMIGfpxYHsoi3OlheZOuPqcyW44L39UFuFLy3KWoH+DAt4318tvfn5G293nz98XE8rzP/SMY+4FE3ykZT/PbgeJ6V/9Ho32QWM3xESklA3C5KANrdLrbqX5+atAD2+LdX+6JzbAuNgIY7fwYRgArOPfJle47j+ap2UR0+VpnNtHXxeSI2KNcd2bGeefizD+s978vwZ/msMmuPKA7igSbabSkJwP2fa3eHLsDW71v9GviBHvmrCfZnh9H0+/7W2UdfdPSgAAUPEPCFHWiRvbeZJ0YERJHM14Hjm0bOPnwOqfrYxvhU23HcKjxi+fg4F47BNiyH7TSxouPn+A+8t7wZABvtY8RfvbMUsKit2nMN2F7/P3zr95UA1CkB2B58NQRQdLBtoK6TH58v5KA41xQgmh62bGOyInCBD/uneLZlG66P5cxHx8F+qdgsZ95ic3zmYWfUnztksIEfH0sqtrfhso/L8X089kP9EWXZhcFcm/8kbwHYDIDAvz1ApqRktt/yxbc+XSfo07HY8/7oONtIARiukx+DOOQMFgwqVXjEYAre4hqPslGuy8u9bVR/6pw4FvxAWZeqHzY4ZviiPpRxjLBnGukiPWKB+mNiH9hwbNYzz7bgjeKcOAbksBvFWdYiwOsuvzVbpymwUbu14Rqw1/xqt78a5Rz2hj973p87xbbyrpMfAwLLRwAwbg/WgWegggwUbcdl8J6m6oId67nOVB2RDWw5VsQDHKO6vT2XzR6+Jvc6L0vpIzkfS5Gez5t9mC/yNx3rtwfHi9wECDMCE48BtqFD1zkoMalyDWQzX6/+rXb7qxH2Z4fShkf+0IEXUQYD8KDc+UeyFMCgPvMBCMKffWAHChv4oeyPw8f0ei4zj3hF8dm+jPfH4eNyfRbLnzvsuZ4opunxhQ/H9j4cD35R3d4OsVmOehDn4s8XuhGQbSoUPgFQpfOUjdqu6deA3ff/m3duqhv8dfd4bBqm7VP/6MxB0fH7zh5yb2dl2IJ6G5aDB438TQcgQyxQ9mPfIh6x2BeyyA86Pg72BW924KM4JuNvFVvYeGpxuD7oOT546NjedJCDsozP2cdpURV1AAAgAElEQVTx9hd/frLxna+cbLzy+ZMPfe3uhe0FYKP/D/7i3ZN/9dr/E5g1Hcx0/NWvYSx6/cmbd3QXbOt45t9692xnpv7R6TNFx5+iDCDw87ZsA523hQ0DFmyZepCCDv6gVe1gz7SM97HL7Mv0UTzzYT+cJ6jpzA9lT9k3xZuPrxtxvA/KD76SAf/1b/znE/7e8oWtuZMA2wDo3/zDIPe1REDrAfQ+gE7MCv30tS/WEQK7fUwPHH593MlaJ9iFL0AAAIEyzp3LEc/ABOCAL5fh6+3ZFjxsmQK8ENOXIfcxWI54JoM/y6bhvW0qXkqOY0AcUNj784Ae1OzAg/K5sj4VC/ao0+IYb8D/zMUc6HMCYPyt98/+TgDzvfGtd46RAPzrf3gvlwiYTomAEoHWJgI/fO3/dBto63j2u4Pbc6MwdJpdpAACDywMFAAPtA9sGXgQx9uwL/w8hQ+o1/sy2/njRDmql2XgYY86IDdqX3+OkMO+TO/jwS9FER8Udr7McvBG+Xi8j5VhS8Bv0/0A/Y3X/njMQ2Z0lpkAG/l/8O/+6V8A/qBIAkBNfvZnvzq54bW//11rgUDT5tWnzdvTVj/Qor+6JQC24c/2wS87MeIHAHgKEACFnsvgQYtsvI59wIOarfEMvAxasANFbFD4sj7ii2RcH46H47MMcXC8rPO8j+H1VWLxscHeU4sb2aF+UPjhOMyHgd+BfS4RoKQAiUBvr39Y5Q2BZmP3/AH4TAH6oKwzXusENBvQjiTw1b/VS37qBv52PBcOL3Ya/AEOoAAJUAYWtvFy2HvqfVBO+ZseMdiW5dCDwo7LEe/r5JgRb/aIzXrEBmUd86ZHDM8jLmKAwp/9YAtZkQ1sEY+p+aOcuMdv4J4a9Wc6lwj0nrzrd7Y40GYEbHqfvyYzXe/Sufc9sFvZgz7KnsJWtweUDDQzGXj1Z1rxX0fw3z26udfGvf4BAvNSgAUAhyliwwY0Aino2B8yUNYxDz0odKgHclDojTLgsdxsUzq2A+9tITfKvLfDMYGyLWSgrEvxsAUtsrNjifSjVf0YxYMWjfZZB/ssGfjRp056e/3j3t7WiBoffbdOzry4X2kGIAJ/nzzY7QE9PaBkoPbJwPBZ/19l2/zWEf86f0xdeebfgKDqF+ACyiDCAAc9gIbtoCuT4Zgi+6gujud5tvc6ju/rhC7lDz1iRnYpGXx8nVZO+fj6Il/YeBrFJP+NR/8ie5wvB+Ju2j+nc6N96JAQ2Mh+CP7lCcDGk/81SwAigIcMQI9yETWdffX0gBKB2iYC9qz/i2//YedxtpYNgIV/6CBFq41mrZ0APMxDBso6tG2kg6wIvNg/ZYc4vl6Tmw/L2ZZjG+/js18RX6Tj+sCDej9fNjt//LCB3MqQeX57cHzdN745AfwezFNlyI0C+DP+8mcJ/IsSgFPdmZefHM8CFIE7EgFM/RdR2GrRoBKBWiUCBv6X376tltjX+YN69uT6bOEfd8LoOEXTYMIgEwElAAntyjYAskjHcZmHLXz5t4HO12E2LON44FmPONAZZb5IXzUO2yE+6jAdeKbs448h5cP+FwYn1/3lMycf+N5/z1bxM3hnAO5G/kV6rzP/3hN3n/T2Ddz9l28B5HV+FoCBnXmfHADkIfdllmPRoB4lVEKwxoTgtz1t9FPTNMN2/LtwdD43irWOU9+4DQA+DEgMNNCnKNtyG8Pe6yH3IMd2sGHZNLFha3HK6mE984jhj6HKsVkc2IEWxSnSeX8r233+xLP8DObMG6j7b0q/8fI9o/v+eYCfTAZYP0wMolkABv8UD5D31NsjOTBqiwb1KKESgRUnAr/9wAtv31tT9NNh9eyxv6687IdBahbegwtisNyDk7dhW/Cg8GVAhIxpivdx2M7rPHh7Pfsaj29kx7bQ8zkwD72niM+x2I/l8E3pIX/gvePsPr8b3Xtg92Ws+k8BvtmbDfS9Zz4ZjPwZ7FN8/9hmAWyUzsBdBurQA9xRBi2LpVkBJQGrSAJs1unMG1f/RChb1xYY7ve/Pe7cuRMWfwp6vi0AQKAAJwAP7E3vZaZjmY8BX8REGXbsyzYmZ1tvZzovQ0z2i2JG58G+zLM/894mdSywA+UYKd7bPvDesU33b7xwfjyKB1hH4A5dBuzBQr8i/WyjfyQEo1mAF/dzjwBWAXLYeFoG/kgaQDUroGRgGcmAzTTd8MrVC3WFPh2XtYDt96/H/tJAb4DjvwAbAC7KZeAEO1DELQPCIr0/Bh+bj4l1nvd1lPkV+XsdzrMsZtExwNefbxT7wVfG9/n9yH4Z5eu+/x9nHP0jCdg6iWYBGMgB1gB7r4MctEwPO1DY6wkCJQOLSAbsOhL4NyHF0KY/kwDPoFLEp4DO5BGYeRn8PU3ZAQT9McGf9ZAZ9aAJXWTPsiKej5HjmY99Wc9xouNhPfOw5fgRb7LRd+PxPx+P+IvA3kb0mAngUb+XoYwZAJThY+Xe46dAXnzPP7I7XSDo9wUAOHsKsDbqeS8r8oUOPky1r4ASgVkTAZtRuvHNq19pAvx1+xh3f/Mh3fsPRvgGQmVfABGoBzz4Qw/KAOd5Xy7zKdNzPLYtO1avZ1/woFZHVA/rjbeY3hZ+0LEPbGHDFDz5ZdP9BVP3BtQA8bLEYBr9Ikb/w6Shf8y7AzI4g69CYcNgDhmo6cCXUbPVboNKBqokA3a/3xJHgX8T0ops5b+2/B2DEgPOtDwDF3hPAVqIbXoCsHDEzHrzszLiMh/JWM91po4DMSK9rzsVz9cZxawi4zhsb3I+PtPR6n4GeOYjQGc982W2Xj/f6N/NCOxvndzwk4fH+wIwUAPQAdhex3LWzSP3vlo4qEQgTAR+/Or7NuVv110G/oYt+tS8BYaj//KRLjp70cm2YnCKeA9YDF6L5KvEsuPzxxMdcyTj+IgDOx+TbU0HO5Z73pcjH8iIbnz7rxYyqgeoY3o/lRB4/cbExj8O0Cf2A6igv3TufRtFAXw9ZXBP8d7Hl82PfaGPZKyDn1ElA0oGLBmwUb/NENl1cuatqw/3BP41B347PI3+J8HcQGjabwRwHhABWGzLfBXwYxvEg4xjeR1sjOLLNl6GY4dfKrb3Q0xQ+Hs7yFGP2afqQCzWw/+hy7nV/QBwUAA4ABtyUOitnOLLbE0/+6N/qURgeBvg937w4HgWgAEYvKcRcLOMee+LcmSTkpmcv0oGupkM2Cp/XD8Z+DcA+nSI1gJa+X8KiACpeSjACgCFWJE8ksGPgZFjQM6yiEcco+yDOkFhx+AKHSjiM4UOlHWIGVGWFfF8PJEdvbQnB9yJZ/xzNsH6AIB8RNk31M+08U8K+Fk+TAKscwXIopNlQGY+0kcy9mGebVNy2KSo+dlXyUD7kwGM+nGt3Pj21e9mwKrRfwPyC/uRdg703L8BzCK/DIoRzzIGtxTopeQWx3QcA7yXR7apuNwWONaIRnX4+q3s7Yrq9fUgHiie6U+AOIM18xFwmww2PEMQydjf2y5u8R+Dv/HDpwIwCwDARWcLoIUclPWRjPWe5zL7puSwATW76KtkoH3JgN3rt98d3zH4NwD6dIjWAtr1b7HAbyCFL4DMg53Xww4AV0Vf5jNNrCLbaYGbzxXH6CnXBx3LjOcy2wTP9AOMAdoM1OAjG8jGNlMmFKjP4sR7/nswn7U8TALOvvHSGFgBtqBVwRn2s9J560FioGSg2ckAT/fjNxX4NzGl0Oj/FLABPIukDF7gjTKwMo+6YevLKbnZ+bjeF2XYoswxoxhen/KDPKKpGGbr6+QkAnrbwnfva+Ez/QBiADkoA3zSJgH6FiPlg/igGz/61Nwb/xTuF5C9UKh/bC8tQmcLAGdALuKLdNPEgi2oj8tl2ICaLvqa3haOadOh+icF9htZ8uZ/x7NX3vl+E+Gv28eM0T93zlHnLdl8SQK3L3hQABza2OQ+IYAtyyOQjGKZjG05FviUHx9TZMPHw3rE9dQfB5fZn+s1m2DUD/D1lEGbebaL5EgWIp35shy2mdxG/5fOudf+zjrSL/PrH9ssAAB1WsrgPC/P/v44WMd8ZGd6/zWAsYTARpl2fzl81OxH9QfLthy3/QYM/Pgd8dueffMf386AVPf8G5ZP4I1/6KjR8YrOB/ip9rN2BmiaDbd7xE9rz/VG8bhOr0+BMdvh2FnGfBTD+7B92fHavf5vfDMHvgBdADqAmUEZOk+LbBCnqg/sl/LoX/i44PA2gG0RjA4YFB2xB9JIDxko+0Lm6aptcB44DuxCqGRgtUkPAz9+C0/H4N8w6NPhWgvsHL6em37lDln8YpMABr6I9+CJ9oetp6Y3WQSwXgZbo74exPX1sR1sQDke82V6XwfsQTnWxZ8n9+8H+E6ANU3ns00VnmNNY7/4R/+KZgGGSUDZ64LRSTNwp/gy2zJ9Kq4H8SgOZCmKGEwxO2Aj0raMsOt2Hgb8lnRxuzOP30vg3+Q0Yndwe24Eis5ZdLHA79sTYMcAy8DHPGxBORbLwINGMViW4iN/1BnpTJZKNorkPhbblqzwZ6AGz4AN2Sy0aIbAxzNb+xbeuw9H8kUAX6Y7nQWwDhkdMfOQpWhkWyZjfRXe120++KZ0kHN8lsEfeugwO6D1A/PPDvA0P9o5oiYT+DcZ/O3YHzj8+ni1Ojp50dWAvwdAtDvkPjkwPcAWNpDBl0GUZbAHZT9fjy+n6kRdHKsqj2OLjscW+j1zcWKhHwA+A93EKB8ADVsrF9nDrooNYmWU6l/eo39FicAwCeAtggGG3FmneLatYgP7qtRiclzvV6SD7bQ2sDd/niHQLYPipABT/LbewtqQv/gtQNHGRjPw1/3+BmcAtu0vd8DolEWXmwD49sVvwMALmdkaz7oiGXQRNZl9o1gpez4OtmGebXCsrAePhAH2sOXyg69ku/kZIDPgGl/lC78qtrPYIGGAr9W30H3/K88WDBMAW3iIjhudNCh31sxHesg8LfNjvfFcnjdWFX/YcL04Di/TLMFrJ70fv/q+AT5A36/kR3t66tvyzCu/ONL2vg3G/uzQ9ejfaoHegBBgyNTzXAY4mozlvuztvC30oF5fFA8+oD6B8LFgV1U+sgsX+tFIG+DOIAyZAbKXcznSe5kvI7aPY3awXd3iv9RsQP/YNgdCh80dNWSgVXVmx7Ypvmpc9o98WJ/iy/ygL6M+PicFbX3agAG/6J6+tY1vn6iskX/Tgd+O/9mT63vbB7/U9P8IWAGAq6QGlAymAE5QHAvKKWp2Po4fbbPe7BGL5SzjuhGL/Zg3P9ggBvQpOeKbnt7cB3CNaBEQR/aQeT9fNrvKMre98GoX//kkoH883HgofizQd94Ax6ijZx14TzkedCxL8bAFrWrH9uaT8kvJ4Q/KdixDbKY2MubkACBat4V6/nhwnHYf32aGqo7w0R5F1HQf/Lt/+pdsy/g2YGCnz2Hn4Fzvz9YIfgAA0fwsRASmBpIMrABXtB3rwINWsWUb+IFGOpYxX8XHJwSjKf8xWGPqn0b+0DGNADsF5OxXhcfIn225PvAbS9v33wN9UXl4KwCbA6EDj8AOOtAiG9aleMRJUe/HZe/DOua9XarMPp7nMvwjGXSgZhN9sb7AANaAFl8DX8wiGG/T7R6gZy0D2FEH6rRjiIDeHzefU8SXySxeBv42cNSn4S0w3Pf/aY3+15wAATCNepBnnYEsgJbtmIcetqCIw/qUn8nZjnkcI8t8HNNFssQx8JR/BLoe0AG8ETBH/rBnnZehnKqLfble49ez+C9KBoZJQPRYYNSxW2cOOSjLmIfeU7Nhu6gMH7aLZIvUR7FQJ2gVG9h6ar7TfM0fswkAa584AMyNso3NQGAEj+NA3VaOZEXnVlXHduA18m845ucO3xb/obO3Tlvf9bdBBJL4XVhnMpQ9ZfA1HX5j2LFvik/ZpuxZ7n35eJzdxne+Mr6PDmBlMIYsohEos6/Xsy6KVyRj3xy/9H3/I6Avkg3fFlgEDOjMjTLPQJLiI3vYzko5JvOIx7IUD1tPzb7MJ7JhH8SMZNBVpahrWRTHgfgoe+r1VoZNis/A/2/euSmHISo0uAW0+G/9gG+AGH0jEHXgGfqxDfOIF4FxJMMxFfl5G66PecRgWcHGPgzEBrYA8hzw0q0BlrOv8VV1sENdZb6oZ+n7/ld+GiCfFPi3BaJzT1EPCCk7yFMg4eW+zP6sgxzUdGV62IKyPfPQe1rVJrKLZD5+3cp2zLMet8C/wTifPHRb/MedMzp00RiUV9Uu+E0YmCFjEAVfxQ62OAeOxzqTWzyWMQ8/rhP6yM900Bs1m4cuZ4/4AURBAcIZ+LpFdrApoxzD2xbpYFtkwzokCutd/JcH/fwmRMMFgdzhp3gPVB4ofBn2qXgshy1opGMZ85EP61N8ym8ae8QAZd9IZnq2icrwWxb19aMelkMGWnSc8MvA/4dv/X4SR6RoYAto57/1gjyAMUUBtKCwQ5kBGDJQszU+soEuolXq8DYcJ+LdMVz3l88UjsoBxEYZcLkM8E3JWO55K3uZryfTUwLi9SjXY/FflAQM1wLYewJw7xidedThsw7AUEbZh3nvxzrmYccy5iM9ZJ5O61dmz3rmUa/JIjn0Kco+PsYiyqjX11MmT+ktTgb+z1/5gwYinA65sAW2B19NTiGjkxetR5IAYAf1QMu/E4Dfy6zMYByVy+Ijtrfzcb3e6rJd/R79i4lNfAzMAagemCOwnlYG+yw2gTrknExkNhVvLWS2y37t74zT/8OZgGESgB0C0cmnaFXQYDsfi3VVeO+PMvuyjOXMT2PDthEfyaK62I71KZ7twa+b8rFGx5KB/4tv/6E2+ilE0oYpbeW/PcKxc/BbJQCJ++8MnnXiU0CbAuYR8I5/ZwCzp7Arig8btEcUAzYcx+yCLX098AKQF0mRWHBdkE2AfZAc8LEgBtPeE3eveO//aLSfkg0TANsh0B5Js84eX3T2EQCwLMVH/mW28AE1e+/DZbYDD1rVju3Zh3nYgJbpyvSIA8r2zJfp2bYqP4td6jhs5qhn4K9PC1tgZ3DfGBTQoYvWY7Sf+h0AuABZ2EXyMllRjEhngB7V52VcL+K4xX4GoEkQHo2+J2xG4Bz5pWxz4E2jepaD57gmKypDV9/pf04IhkmA7Q1gHX2qs4e8Kk0Bjfevahf5lfmyPvL3Ml82f45RhUcMtoUMNNKxjPnIh/XT8ogHmvJnfWSTjfwvv31bC5FPp5S1wM6Bnv0HeDWNAmR5lA2w9editgzekQ/0iAsa2SI+bDg+ZDgWK9vOfi+cn5j2B/BWpQDdMnu2Yz7yi/RehtF+5F+fZ/8Z8B2/b+VhEnDmxf0c4AEEQA0IIjAoksMXNOVfpi/zgz+ot/dltvM6LsMuRYtsWWe8LyMmyyED9X6Qz0q5rhRfJXZP4N/iROFb754dLxBDhy5a79E/fh8PsixnwI7sIpn5TyM321TCgFjQ285+NPJm3gCVywy0LI+At0zvfRAbfih7O1+GPeTsZ/xw610HuHPds19WrNNbAbahDACAAQIy0EjHshQPf1C2i2SsZz5lG9lEtpCBlvmxnnn2T8lh4ynbp3j4eL0vp+zK5NCDWlyOzXLjs2l/gX+Lwd9O7cLR+fF0LgBEtBkJAH6nFGh7EIYdKOu9zHScRMCWqfFl5e3BMa/0Z+A0MPXAOgZYShYgY3sfJ6ejvQJY7nkr44vjQFxf9naIZfbrf/HPtMnC8F0B9mpldPqgDAjMR3rIQFP2LE/xiJGi7DeLTeTPMubnjc+xmPdxWce8t0M5smEZ8/ABZR3zrPfy3k/evKPl6KfT6+0Mns+N+tCpizYjCQBwM1hDBloG0vitU/aQYzTP8aCDDDYjOW/rC9AEmDL1wJvTBckAADqLWbJgj2MxzzEgryqDvdH6PvtflBgMkwDeJtgDgJVZNi0PcPG0KE5Khxim9za+XGQLHegsvikfxPS0qn3KLiVHPSk9y2ELWqTLRv4/feOc0LHNLWCr/23rX3T+os0A/Oh3AgiDsg3LwBt1QD2+DQQbixHxkS8nH+S3sfe15AjfgBOgn/ERyDtgj8AZQJzSsRw81wv/aSliGM1vuFMEunXSDbcItqcCeG8ABoYqPADFU/PFFzqOB1mKsq2PAx+2gQx0Wl2RPWJ6yj5V+Kr+sOOYkIGarkwPW9CUD8cxvifwbzPy07lp69/mgj6DPPMAaA/eHvAJqMdJYOTjZd4v0l8YnGBPfwZWALDJmGebMl2mD54CQIyiuJEN7AHovn7oU/K6bv1bLSmx9QBbJ7ZNsIEEAwX4FPWgwWXvw7oqvPf3ZY4BXSQr0kX2LKvCIz5oFR+zqWJXFnMaPdcX+UFmtPfiW5/Wc/6Eka1mdw5fH3f+DCLim50YJEA5OaIvAnVcCxwzkpl+NBNg95YBtlUpA633MV0KoDNgdjMF8OeYzEPvaRUb71PvZ/+rzjhsXuNbAQAEBo4qfOQHmaepeLBL6Vk+jS37pfgoXlUZx4TPvJRjpvhUHWxfxcbsP/DC2/e2Gu90ctQCu0c3Z4AQdezo4EWbmwjgd01Mz49vAdhvDPAGH1GOUxDbwB9gDUC1MngD0BSf6QpG9x58i2LhGLwP5HwMZTbwyeqjZCN79j97tK4q0NbUbn/rxLYJ5qcCABoMJMxDDxrpWMZ85GN6fFP6SB7JuK4UDz9QtmMZy1M82zPv7X2ZbZlnO8g9ZRvjuQxblpXZ9H782n/RyJ/wsfWsrf7HtLCAvrlAX/bbAawZ1JlP6Rnwy+wthu3uF7zK14NrWTkFzCxnPhUPNjnwDtYZZKBOcvj5uCwH3+zpfyQjo8cC9/rHlrx50ACYeFpml9KngMji+zqqlrmuWXwi/0iG2JEuksHe08i2TMb6FI96TM82kHsKmzNvXP2T1uOdTtC1gG3+82cN2/q2DOykzycyHtxToB4BvPfltg10AP9C4AxG9wBogCr7R7KUPmUbySMZxzW+ik07pv8tERglAftbJ4u4FQBgKaKsMx5fgJTXTyufxx91gXKsqjL2Yb6qf2QXxYnsIhn7gje7DPxtQbg+HWmBbPX/yRmN/juU/DBgM9gzbzbRjBD7sg14GvkziALYIYsANZJl4EvT7PDP5KORuo/NNmzH8sgH9UOHMvtl8eh4xrYv35MtoKu22A6j7TrT4WOB/K4AAAkogGMayrbMF8VkO+aLfKDzlP1TPHy83peL7FK28AFN2bE8soUMlO1TfGQLmdEbXrl6IZv2VwLQEfDHaWrv//xImUe3beMB4J762QCfDKDs7RBnpN94/M/HC/7G4EhT6h5MozIDb44PZgzgH9lBxzRnV/G4cB4WJ+Wfbf3bhvv/ud0Kh0mAvSvAQIWBBcDBMm/jyykfyKtSrhM+LEvxsE1R9oNNJCvTQe+pxSqKF9kXyRYRCzHG4A9MEO1QC2wf7Gv1f4dmAAys/ejeAfn4ejC5B33zR0JAvD3nD7BloIQsAlCAa8o+5ctyz3Ms8KjH21o5soGM9ZEvZO2Z/vezEnY7YPMaXhsMwDDKvAcqXy6z51jz8KiXY0QyfzxV7KM4kYxj+XrYvsgu0nkZYoH6unyZ7cAbvfHNq1/pENrpVHMtgFf/MgCgUxdt58wAfmtPAeplgA8/stv49l+NwR+gCMpgClmKAqjLfKA3e/CpmCb3Nr4M35R8rO/E9L9LAmxm49K598++8dLETEAKlFjOYANQivQsS/FRLMjYh2UsZx42oEU62IBGtixjHj7z0JSv1VOlLm8HH4F/Dg07WNg5ODce7Qnw2wn40e8KEAclMB9fD9B5ikRhRG1v/zFA0rQ6wBw6oyzzYOvLOb8Z7vdH8UIZgTrX6Xn2Zb4Rb/7LTe07gC/U0VMBT/7X7IUwACOAiAcX6EHZDjJP2Yb5ae3Yl3kfx5fZ1viycpm/16McxWYd8/4YUjqWRzxkngr8O4j3E6e8PfhqbkOYCCwka3diAIB3wJ5LBCxBYD34hy7nQB2gyQBpMi4zn+kcALOe+VTsKAZsi3R+9iCqi+Ok+PZO/3OiMEwEytYDFIEWAChlAz1oyi4lj/wimflzDNh4WmSDGFVsfFxf5hjMwy6SQecp2xbxZ966+vAEFkjQwRbYPvjluKMX0Lcb6It+3ygJ8LMCsIHcvdI3AtuqoFrVzoMw/ECzYwhmC1jPNj4eyrmZCkpQWJ7Fad3qfwZ95k9nAs68uJ8DUAYaABLLUjxsQVN2LIdtika2kQz+pmM982wT8SaL5NPEYFvmo7iRjH2q8gL/DuJ8eMq2+18RKEjXrYQAAG+/exl/8eeFo3oAKSiAk4GY+UI7d58fseCTokXx2YftLHauzLc0Ar4dm/8w0Jfxw5cGResBAFBl1IAKX2/LIBbpWD9NDO8XxYaMbSMZ66vwZTGgB+WYLGN5ioe9p7DPwN/WfelRvxASuyO0C8B2/xPIdwvky37vMuA3/QPvHdtUsIEog6UHVQbqlB37FMWDHcdhPtKnZKEfjfLhV4V2Y/qfk4LhTIBtFcxvDQTgGNAAbMD7stnCHhS2KIOm5NCDwo7rYl0ZD72nUTzYsI556EGr6iK7SIa4nrJtxN/49tXv6jn/7kB8+Zna7n9lgCB99xIEJAGY6sc1MJJHL/fxI+ci8GQAZt77FOnYdlY77zdRpqQgl8yM5CZrz8Y/DPJF/OmtAEsCoyTAA5MvGzgxQEX6Ihn7go/soSuirJuWj+qEzGJViQd70JTPvHoD/5Pbe9eXg4IsutECePwPnbto94C+6DdHEmA24LcHx9d945vJUT9AeQJIg3vysGUKPwZb6KGzMvjQjkHbvTUQsapQ1MH1MW91d2/6H4kBkoDh/gBl4FQF1NgmihfJ2Id52HpqNmw3LR/Fg4xjQQZaVcd2zBfFYTvm2efslXe+3w1Q01lWbwE9/ifAL0oAGPjB24r/4D44AyODK9tCzjIAOMsiO8g8Zb8UD5+UPien5AF+RbR70/9IAJfWOBEAACAASURBVIwiCegf8/sCGIRSPIMTeFD2KZJFOvZN8fCbllo8jgl/ljEPPSjrjPdl2HlaxTYVy+Rn3/zHtzNQ0D3/6tjYCUt7/K8MAKRXkmCjf7sVYIv+Xjg/vO8/JVCmQJTBN2VjcrZjvshnGh0SEdSVK9O5enn3pv+DBODSuffxvgCAFwMSZJ5GNouScRzmcQws83xRmf3ZDnJQ07GeedikKNsy7+1NV6Yfg38nAE0nOV0L7By+Pp7aFdAL6IuuAVr0x8BqgMiAHJUBqvBjEIWMbXyMnA2BceYzKueOITVDQb58DOA5Bupkmec3Ln/2/W4nAEgGThcFnv3Zr7LFfQArD1JRGbag3iYlLwI/+IBGtixjHj5VKfsy7/1Zl+Lhw/oiWaSDbwb+GvVPh4mdsf7Wu2cF/h3b+78I4Et0vMd/BI6QecqgaTougwcAe1+UoYc95D4eyz3PvikePqgP5RTtPfPJDi4ABOgzHd0K2N86sScDAEqeApgiarJIjhhlOtb7WEU6xAf1tpCDFsWGDWgqFsthC+rjs5x5juF5K2vk3xkkn/FE7e1/WNhV0vnrNkHHEwW30x8DKMDRy3wZdhH1tlxmHr6RzHQM3MzDr4zCB/FRTsXuPc4g2HX+NAn4vR88mIE5AxPAC7RIxzaRXSSDT1XKMZiHP8uM5zJsQFnHPPQpOk3cVAzIud4M/G2Btz5qgWQL6P6/pvzLEr8Z7vsDPD3YmjwHqDRND9uUL/QRTcXkWDk+dRsgOB7Ul/Mf2W10Zve/ionN+DXIw0TAdgpkcGKAmpbnONPyqbqiOEUy6DytEt/bcBnxTJaSs00Rb7oP/t0//UtP4J+EPSnQAnb/vwwApO98krDxna+MX/IzBsTovjsBq7dDuSoFqEfAazFS8irxq/hG9fvY7X75T0XQT75AqH/c2986sZ0CsUcAgAuUwS7FR7aQeVoWA/ZsV1XGPsbjC39Py/Te3pe5PujKZKbXyB/gJlrcAru/+ZDAv+PT+mXJnT3vP3rDHwARIMggmpKxDfNmjzLiosw6xGUKe5Yxz/oUz/YRz8cS6SHr9uN/ZQnC6HbApXPv3/Da3/8OgAgKUCujVUAvsknFjWxZZjy+iMF6yDxlG+ZhxzLP+3KZT6Q3WTbyt3VdWvRXjH3S9no9u/9fBgDSd3v0z4/8Ydo7GuUXTJ0DLEGrgqvZsy3zrMuBPB0H2+d4zFzQeXAMHCco63K8pv8rLH4czgJgu2ADqQi8UgAY2ZbJfCwr41vkC51R5n08r5tVz35VY0Y+kI3BX+CmFihtAbs/pPv/3Qb3CsndxuN/PjH1PwZGAlvIQHOAW5A4FNlDV0a5rjJb6NnH8wB5UPPxNpnsR5+qAIBlo+QW67P1AKNZgL3+MScBAC2jRTzrAJLeB3JP4evlKEOPeL7MdkU62HnKPl7ny2zLvLdD2WxgZzKBfyniyWCiBez1v3oCQElAKhF46PLEZj8MhGMw5ZF01aTA7RuAWEwBwFwneOjY3niWRzz8vV9ULrPV/f+KyQslAvzOAIBZGQXQRZSBsIo+svH1T2vD9swjrslYXoVn34hn2Rj8Ne0/AXESpFrA7v8L/AX+KfC/MDjBW/5CcCTQz4A3AfxlIMq+OcBOxONjsdgpH66Xefjn/OhcWA7bFNXjfxUTgGyRIGYCNq9xEjAtGLI9QNBTs4nsUjKWM4+4LGMeelDWGc/llA3knrIv87CDLAP/v3nnJt3zTwGd5HELaP9/gX8B+PdGo38DPwZQACTLGCBT+pQ85xuAPteDGOwzLY8YubhUb06eSAwshh7/mwb82XaYCNhbJA3E8PXA5uXQgwIAYQcKfYqyXxWbyJ5lzKfieTn7pPgiH+gy8P/hW78v8I8hTtJUC9hU0YXDi1oAqCcAJq4BmxVKbfdLQAngzQFmoI/sIDPK/pADpFEGZVvmfRz2z/EFx4c6slgE/BOxRzG6+/Y/BvNZ+NMnA7BREAAtRQ0kU0DJcvizbFH8rLHZj48FclDWGe/LbGe6DPyfv/IHqS5ecrVAcQvsDJ6f6PyLRoTSdWbGAI/9MSh6noHV6zLQHIGoB+pMFwAx4rE981EdyVgUPxUD9fGxch0pP9ho+99ZwB8+uB3QP/YbBTHQgQdlUIQsRdmWeW9fpIOt2VS1K/PhOMzDrwrNwP/Ft/+wuIOXVi2QagF7AkD3/zsD6FMlem70nwJKAGSZHoAZ0ZwvgXZoS3rUzXYci+XMsw3HSPHmm/OhmQHb4EYvAJqjDWhhoCUBDIYpHuCY0rM8smVZma3pI5tUjDJb+IGyfRHvdbahUk/gn0I2ySu1wO7RrVOBgkb/nUkW/Oi/CBwBrmU2BqIpG5aH8Qh0oQfNgfMoQcjJyJfrYRvEStGcH+rQ8/8LSn5oJuDlJ0sBF+DpqQfJIn2kK/OHD9tFskgf2UGWolEck2Uj/8tv31apj5eRWiDZAjsH20oAdP8/ugaKVv4zSFYBUQZP9p2G5xjgq9RtdcCe6/MyjpXi2T+Lq+f/F5MA0CxAb69/fMYlAQZ6KTAEeLI+xbNtmQ3bRnyRDDpQq4vrYznzbMM8bIzatyfwT0KaFNO0wPbBvm4BKAGYSAAefGW86U8KDE3OIJqymwBNnsIP1gekYvo4KMM+Vz9G6DTyH9s72cR58PExT36oS/f/55j6L3pvwCgJYODzIJoCyEgeyXxslCNbljEf+Zg+smFb1jMPG1DWGZ+N/H/y5h3TdPGyVQukW+DCYDDR+WuavzPT/Knf3nb9A7AacKb4MagyUFbgIz/IPI3qBgCzLdtBzjL4sAx2VSj7gdfz/8tLALKZALcmAMDoqYGjB0vYsDySsd7zXIYvqOnwhcxT9mfe26HMNhHfE/insUyaKVsALwDSIsDOA34uEXjgvWMAXBkwAlTL7Lw+8uM6mfe+KBfZRPHhB8o2VXj4gZqPFv8tIwFAzOG6gFmfDvAAamUvi4AXMtCUj+mr2KT8q8gRP1vwZ+CvHf6mBDmZxy1gF5I2ABLw+9keSwYfuhyO+COQBAhHOgPKlDzTjWYK2Abg6mlUD2zYH3xkXyTj44l4xEWdmY3u/y85ATpdGHjDTx6eCbwBoAzWLDMQZiCGbhoZ2zLPsUzOOuZh5ynb9F5869MC/xjKJJ21BbQBkBIAnwBcGJws8qU/EZgyiE7o3ZqAEHjpFoP397FTeiQDkX2RjI9H+/9jpL5MepoE2GZBNhJmYARosmxanmOkfNkGfIpyjJQN5GbL9sybjX0F/rMCnPzSLTCcAXg6N/UbgIH0HVsguD043njhfOHInUGVAbEIOKvqPDCjHNUTygpmFUL7YGFfdn4pOcXvPXH3kkfAywTWJsU+TQL43QEMoovgESNFGZw9cMMnsmFZZBfJEP8DL7x9b7oTl0YtME8LaAGgZgB80nfx5+H0vwdFBnSAtLdhwM3xBKIcp4znerK63EyA9/f2kQ/bVOFRh52P7v+vMok4TQLsVcI3vvXOsQEnwDNFGXyZ9/as8zyXi/y8zsqQRTEiGeyNnnnj6p+c3N67fp4uXr5qgbgFvvzrWzS679jo3oO9L28Pjv3mPwA8UIAkAzp0RqEv4tme7SLfqB4v4zLzXI+X+zLbpnj22bj82feVAKwnAch2Xrx07v2zb7w0MX3OoMo8A6vJWZfivQ/KbB/JWG98UTnlb+Afd9ySqgUW0QI7g/uUACgB8NfAdd/45hjEAXgMzAyOKTnbRHxZXO/j6ykqs66onsjO6oWP57MyzTjoBUCrBH9fV/8YSQC2DvYgC2AFZX2RjHXsY7wvsy14ULaFzNOUTQb+tkW7VvwvAukUI2yB7cFXfeevshKCje98ZbwBkAfiCBTZJgWeOTmBKPv62OwDOy/zZdhlsRL1sE+OJ/tccvDK53NJAWJrAyAPyqsun94SsMWBHlxRZpBN8WzLNiwH72mZPeuLeOhueOXqBQF/iFgSLrQFdg60ANBPgat8Yu9mB5DmgNCtzs+AMJIVACniggKAc/Uk/LP6SBeVEdfTqB7YcN2QVaHZBkB6CVBt1kHY4sCzP/vVOBEAoBqtwntgT5U5FmxYxnxVvdnZV+C/UIRTsMIW0AJALQAMEh7rSAGYDIQeKH2Zbavw0/j74/HlovpS9fgYXE7yowTE9Lr/v+oRf1F9Nhuwec0WB/p1AQDhMmrAzeAdlRHD20HuKdt5HcqwufHNq18p7K+lVAssrAV2j27W/v+a7o9u+fgXADEYpoCWbarwPk6ZjwdxX/bxUmXUE/mzLMUjrhYAFoHxunSjWwKXzr2PTYMArkar8ADlFK0Sg20Qh2XMQy/wXxiyKVClFtAOgBr9B6N/SwjsFkAKAMcAys/I07R80s/ZII4BahWfMfBSvZBVpVwP+/CxsDziYasFgOsC+bJ6R4sD3WwAg26KBxin9CyHbYqybRl/5q2rD1fqs2WkFlhYC+gVwEoAUglAwSJABlHmI7CsIgOgltnCbhF1Wl1RPMhYzzzXrR0Ay4B4zXpbm3Hp3Pv25fcIALBToDyrnuNFMSDzVOC/MERToKlawF4BnAAAyTt8a8D2AbDHAGmkzXwKqNlmWj4VE3IGXsjmoVE8lqV4qxPnph0A1wzwydcI47hOnxCwtQF2W+uG1/7+dxFQe1BmG+ZhF8lYF+lZZrx9Bf5TIZaMF9oC2we/1BqADgN9UfL30OXCpwAYCDPeTe8DnFNAmpLDr4gCgLN6E0lKFRvUwbaQpSjbZs+gl4IQwEh0vQsm82sDGKyZZ5CGHBSgzWXwKVoULwN/Pee/UEhTsKotsHtyRuAv8E/O9CReBTwPcKdAleUMsEl+AclGLvYoXk6WSCzsWK0NzHa9gKaEonr7Y00A6PBJgTMvPxk+LggwZ/BmHnpQJAagLAcPCpsb37763ew5f23yUxWxZLfQFtg9ujXZ+ReNDKXrzLqBjW//1Xi6m0E64quAZ5lNKrnIyQmYo+OYRsZx4ceyFG+2egKgiQkIEgDQrZNs34DRVsIRyFeVGcAzyEc8ZBn4L7QzVzC1wDQtkL0BUFsAKwEqmAF54L1jmyECCBpNAvgCRuQA4CKKY2Gb5DFRopCyQRzWQ1ZG9QRAExMAf8xYIzBcH+D3DigDf4zmAeyRvdedvfLO96fpqmWrFlhOC9gWwNbJa0TfmRH91L/1A++FLwViIJ4FPFPgyrFSvPmaLncMcyQgOBaOBxnqQplt9ASAB9OmlpEEDKltImT7B6R2EwSge8rgH/Ef/MW7J7ZVcW+vf9h7bOu25XTqiqoWqNoC2gJYwF8l+RslAQzIESCOZRVG3hwrx1cActSzKMr1IybLGPRZr3cANBXwo+POJwHDxZ2b12wvDJsVANhHwG6yIrnpLIYlFr091LN5TUlAVaCS3XJawJ4AqAIAsul2ojCcJRps/PW5hyMwNFA0wGTdPDxANqI5YJ4n0Rj55o6zQIZj4fr1CGAEpE2WAZxH1PYQyN7x0D828LbRuwG5jeQZ8JEcRDQD/mcuDuNMvC9i81rv0l0fW07nrqhqgaIWsCcABOzdBvaqv//OwW97tmD02ZPrLQkAGBplQGT5rDzHS/FZvRVmCnLgnrDHcbJtJMsdyyiWHgFsMtgXHPsI9E9H6y4xGO0uaLMDlhTY124Z2Be80WwDovGI32L4Ok2mJKAIpqRbVgvoCQCBf5UEAODPjypd2nqoFCRnHJ0zECd5io3jmJUysCNGKKMEwuzMZrJD9x28ys1uIw/8ozISBFDbaTAH9PA7nUEoThaz2wHnltXVK65aIN8CegJA4F8Z/Ae3595JbteOfSkJAHCCJoGbQDRlgxgpGvkxYE/Nj44p5xfI+HjMduPle4IRnQC/2YAf/H4AeQN45kPAB/CDBvEmZgFgoyQgD1IqLbcF9ASAkoCyJMBeFJX6uCSAgZnBclo+B8Q00md5FJPrr8JbDB+T/VAHy9hejwACuDpKs2QA526AD34eOkoC7L+lj1pgaS1gF5jeAaAEIJUA2KK/3cHthdefXUP23f/4lwCWoDmgTIB40qZkliDlh7qrUMRgcGc/6FkGHj56BHAeoJNvOmHYvNZ7pH9v4X9PSrXA3C2gdwAoAYgSAAN/G/lXHYWY3ffu/oIHSCsDLCvzlCwgXkRTcSPbSMb+pveAz3roWGY+SgAE4mkQn7dt7HZD/765+3gFUAskW0AbACkBiBKAomn/1MVkLzP53t1fAFhGoFsm8wDrgbksNuur8P54rH72y+qn2Qh/PNoDYF6Qk39xAmG3Fe68P/WXk1wtMHsLfPnXt/S2B9oBMALArsqykf9g9lHHaCaAQXRaHiDLyUCKjwAcspRPTu72LYAvKB+7yVBGDO0BIAAvBvBFtc+d91eejZsdEeTZmRawjtpGeV0FOp335MzHvODPf569O+/3YJkBKI2mAaJeDvAto4if+Ve8bYCY7AuZj8PHl+no2OHTe3xRHbzirAZIm9zOmgngLkb8vC2wc7CtdwAUvASna0nCzhwj/+ha/O5dn08BLQDUU7Yv4xmgmfcxUeZ4JmMf03EZPimKWAKtJgNqE4+9/8XoryaZWmC6FrAZAHsEsGsgp/ONR/4Xjs4vfIrRrjFLAl6+5xhACuDMAJhG7SzPdDTaZmBmHjEjyvFyvLvHzzqOg3qg9zQ7Rm0CpE2QFvLY35SJyP7HvzRdZy9rtUDUAjuD55UAaAagZ+C/zI8lARUAnW0YjFM8QBlgnNEK9fh4ZfWyPsdrEyAlAOtIAKzOR/sPLvMvq9htb4FsBkAvAep0AjR81G97JZf6Y1vneCbAgzCXGdhZznwOiAn02SbiOTbzsEXcSAcbUO0COOXIdV1g2dZ6L209tJL/rippYQvYI1uaDp+cDu9Sm9gaEEsEV/V5bOvcGDyrTv8X2CEWUwbuiAfAmw/zHAM863OxRgnHxuXPvq81AEoC1noNPLr5tVX9fVVPm1pALwHqLvjbyN/Wf6wS/O2/Y/VduutjmAnIAay7Nx+CMICXkgLYGfXxoGM5ZExz4F4hNnyVAAj81wr+2cxG/7inJKBNyLyic9EjgN1NAAz81/VxSQDA1FMG5QkdTfkX2Xk/K7M9eE4QcnwqGRjJ9R4AJQDrTwBGv4ElAatO6NfVh6jeBbSATf92abpb5zpMeNYJ/rhsraN6bOu2cCYA4Eog74GbgR2ADTBnnedhm8Vz8dmWY+V83LEpAVACUJsEwN5K+MjmnpIAdDKixS2gRwC7NwNgv7mt/ajLZ3/ro0gCUqBsYByBMAO2980BeGIUz/5sDznXCZmnSgCUANQnAbDfQklAXbq2+h/HzsHTmgHo0COADxx+vZajA5cEGMhGgJzJadRuAF3VbiEx/ejfEpMffUqPwbV1hX2jz6v/VC3/6/VHxQ4dod4C2J0ZAHvlc50/T37iI9FMQArgJ0biVUb5nDxUsXeA7+u0st4EqBmAes0A8O+hJKDOXd56j83uwe4c/FYzAC2fAchW+9cc/PFPsCTg8mffj4B2mtE+Jw3Mc1xM75fpy3yUADDgiK9fMtB/qla3/PBfF11zC+we3Szwbzn426LHuo/8/d9g744PYyYAIM0gbHwKtCfsKoz4uY5U3EgOPyUAAv36gb7/TfrP9Z7eutH/1VTucgvsDm5XAtDiBGC4w9/Tjcz+LQl48XP/7AE9A38G9RHPAM08/AHW8Pc2XIZtmQyxlQB4sFG5fglB/7i3pySgy3A/ee721jc9FtfeNQC2wLNOq/0nr8C0xG5PWRKQuB0A8GUK4AbIsy7FRyDPthwTci9TAiDArx/gp36TzZc0E5DudrqjGd7/1x4AbU2ADPx3T840/oJ+4p6bMBMA4M2BdoWFfAbcKR/EBLh7W8jZHzJQJQApsJG8fonB5rXenpKAxveLCzkB7QHQztG/vd2xDeCPi5ySAIAuAzfz0Bs10GZdiocPQD5nFzwFALuxnx4D1GOQjXtccPOl3hP33IS/mGjXWmA4A6A9ANo2A9A28Mf/MkgCAMCeeoD2+qjMoA+9l/m4pjeZ9gHQSL9+I/0qv4mSAHQv3aQ7h6/3bKFY20Cwq+dj4P+td8+29mJ+eutG3A4wkGZAzoA4WBwIMJ+Gclz244SAbXQLoArYyKaeSUL/imYCWttjlpyY9gBoxy2AbLX/4eutBn9cyj4JINBnsGaewboS72Kyj8XlRCAr6xaAbgE07hYAJ2RKAtC9dIfu/uZDGvm35BFAm8mxkb/d1unC59mT620mYAKYaUEgdAzWlXgXg304qQBv9eh1wAwm4us50i/7XfpX7KmbLnQfOkdrgd2jW5UANDwBwMjfkrmufSwJuPyZX4yBmEbtZaANH0/L/KBHcgF/JQBl4CJ9M5ICJQHd6UZ3Ds4pAWh4AmAj/y6Cv/1LbbbDJQEAZKYM1lV4803Z5eJywvHyPcfN6OAFxPqdyq6B/lXNBHQhDbhwdF4JQEMTABv520ucugr++H9SEpACbYzaM2Bn0E7wAPnIj+uAXRZXCYDWADR6DYBPCvpXe09+4iP4m4m2sQUuHF5UAtDQBADg35V7/hX+fxs//cwbEyBP9/MZsFN8CuDZPpcYYI+A1/5YANgqAPSA2MVy/1BJQIWOp7Em9l74rj4u1+TzBvg39sJb0oGf7G4gCfCJAACcAT7Jj2YGUnrE8nX09rsIEjrn9t5SsB0DlQQsqbeqQVjbKrbJQNjFY8/A/+jmGlw9tT0ETgIykJ5yN0AAfG6kz7cLErMKvSfu1iyAZgFaeA30D3v7Wx+t7R9eBzZDC9gLYmwBWRdBtInnPNysadCz1zfrU9wCJ7sb1/340z/gETxAvYga4Bf5sA7JAcuUAGg2oL2zAUoCijudJmqHoNKOjXCaCOrTHbPAf5r/2CgJAOAzUKd42BpN2QD4c7aj2YHeM59s4ehPoN5eUJ/2t+0f9h7bum2av6Fs69oC2gSoGYkPRv5f/vUtdb2U6nxcNhMAsGbwjvgc6POUP/HjWMFtAG0HPC2gyL55ycXmNSUBde7xqh6bAcp0I9BmAGb7zmnQs99Kq/2rXtkTdtntgADEAeZMOTFgOXgkCWw3lmk7YM2AdGINxOa13qW7PjbxR5OgQS2gTYCakNDYtP+tAv85/1f2dMBfn3sYIG4UoO15tvE6Bn3YsWxDewEoAehEAtA/7u0pCZizV1qz+87gPs0A1HgPAHtJk4G/PotpAZcE5ICbZgeQGKT0Y+B3twDMz77Nm9LVNLx+s1mvgex2wLnF/EEVZbUtsHOwrQSgpgmAwH/x/wW7hTJKAgDyAHNQBn3ImLJfyrb3+KydqfwExE28BpQELL6zWkXE7cFXe3oKoH63AQD+I8BaxaXQqTrcTAAAnsHdZFwGH4G+6ViuRwGbCGI65vmSr1ESoHVKDepKbRdAJQD1SgAy8B/crnv+S/4fWUd1aeuhFLAzoDOPZMEnCCzXkwAC0/nAtKntt3mt90j/3iX/cxV+YS2gXQDrBf6WjNnCTH1W0wKjJIDBu4yPEgYv29CTAFoH0YmFgFGi0j/u7ffvW80fWLXM1wLaBbA+CYCN/AX+813P03rjFsv+x7/EwA9AZ5nx0UxAKNOTAEoAOpsAWFJgTwjcef+0f0fZr7oFLgwGugVQg0WAGvmv+srP12eJACUBDOrJZMA9AZAlCCTTS4Gi0aFk3bo1cOf9upWZ72rqU7L3ALRvw5z6jOinaVuN/Nf7v7AEwP4P37v7C37UzyN/TgZSSQLk2hJYYN8tsE/93poJWG/nlqpd2wDXI1mwvRgMgPRZfwvY7/C9u78AoAeYc1JQVaaFgClAkLx7iUH/i+v/c+sI8i1gG8xMM0qV7eITBgN/ferXApQE+Kl9JANIElD2VDsCCui7B/QFv/n+x79Uvz96l49od3C7EoB13v8/Ot/ly6/2505JAI/6AfyQoewTBZMLAAoAodOL5DraLo/2H6z9/74zB6htgBc/oq8yS5LtuyDwb8T/7Lt3fT4H8LRdMI/4kQxkScDIJksA9GpgJUFKdPLXwKWthxrx32/9QV44Oq8ZgHXMAAj8G/XfGiUBnAj40T4nA8xrHUBHR7oC/Tzo+/Z4dPNrjeoDWnewttjpwuFFJQArTgDs3Qv6NK8FHunfa/f0PfDbyJ8TA+YzW+0HUAwEHhhU7kh79Y97SgLW3A/aewCqTFnLZkG3Cg4varX/mq/5eap/bOtcBupT3AYwe70XQLMAWguSuAYsCdATUPP0SjP6WqNvH+wrAVjBDIDd87dkS59mt4D9Zx7bOsejfOYN7KOvbgMkOn+N9jsy2i/6/fvHvUc295QErKNr3Bk8rwRgBQmAwH8dV/fy6rx018cM+AH+uQWAtBPgWK/bAAI6JTsF14CSgOV1VkWR9R6ABU3tFyQRAv+iK7B5OpsFsK8lAaM1ARj15xIBd5tAtwGKRoHS6RaBXQP9pzQTsMouUe8BWG4CYOBv28vq084WCJIAJAOgSAr0dkCBvEC+yjWgJGB1neX24Fi3AApG7/Msfnzg8OvKZld3Ka+tpv2tj9pMAIDegB9T/0gCIBMAVAEA2eg66T+lgdOyezR7D0C2Ic2SAHAe8Gy6ry2u1Kc7LTBKAgD4qWRAiwEF7gL3qtdA/7ne01s3dqcTWfWZ7h7drNH/EpIfgf+qr+R61PfkJz7i1wRkI3/aFdD0AoCqACC7bl8r/ePenpKA5XVuehHQ4u//7xw8ramr5V2ytY+cSAIwM2BUiwEF7N0G9ml//82XNBOwjJ7P3j/f9Kn2uhy/3UoR+C/jKm1ezL07Przx4uf+2W4DYC0AaDYj8KNPFTwONW3nKHuBaduvgc1rvT0lAYvvCO1FQFoDsJhZAIH/4q/Ppka0RwQtCaBHBHlNQDYL8HjbO22dnxKTRV8Dmy/1nrjnpqZ2C/U6buuk9CKg+cE/G/kPnu/tnpyp1w+so1l7C4xmAnj6HzMBeiRw0eCgeN1IOJQELK5fduasbAAADolJREFUsxcBaQZgviTAdlIU+C/ummxbpCfuucluByAJwEyAJQI9zQLoVoh2B5zhGuhf0UzAIjpK26SmLvfQm3gcAv9FXIXtjYEdA10SME4GtBZghs5fI/1ujPSLfmdbE6AkYP6O0zaq0QzAbDMABv7fevesNvqZ/zJsfQRLBCgJGN8GsFmAS+feV4de1NlLp+sjdQ30r9ham9b3H0s7QXteXQnAdAlAds//8PWebaKkj1qgagtYEvD01o14OkCzAKlOXXIB/jTXgJKAql3QpJ2NYpUATJcA2MuTbOSvj1pglhYYJQFIAIxqX4BpOnzZKkHw10D/qmYCZumM9CbA6cFfI/9ZrjT5cAs8e3L9xuXP/AJJgHYH9B26ygL5aa8BJQHcxVTjtw9+mc0AaBagPBGwZMnA36Zy9VELzNsClgSMNguyREDvCJi2w5e9kgR/DfSv9p78xEfm/Wt2x1+vAi4HfkuOLFES+Hfnf7GqM6WZgOyxwH3foakskNM1UP0ayN4dcKgkoGoHppF/eQIg8K96NclulhY42d3A7QBtDiSwqw52aqu4rUZJwP7WR2f5O3bHxxayNfHZ+1Uecwb+Rzdr2r87f4t1nenGTz/zRrYg8JlP6tl4bY6ja2Dua6B/2FMSUNCd2ZT2KsG0aXUB/AuaUCq1wCJbwJIA7RCokW08slW7TN8uSgLi/skWsn3517coARhM3gIY3hYZ9HaPbo4bT1K1wPJaIEsCXr7nePrOTgChNtM1MHkN9A97j23dtrx/bFMj7x7dqgQgSABsYaTAv6lXdSuO+7off/oHWg8gMJsEM7XJbG2yea136a6PtaJzWNhJ7BycUwIwkQAMspmRhTWyAqkFpmwBm5072d2wJKCn9QC6Fz73vXAlDb09WxioJCDfEykB8NP/NvK/Nd9IKqkF1tcCWRLw5F2/m23Uo45f7aZrIH8NbF7rPbZ1bn3/6LrU/OzJ9b2dwX2aARjPAAj863Jt6jhOW8AeEfzrcw/rtcECsjyQqT1mbw8lAcMO5sLReSUAg5PezsFvNfI/xRxxNWsBJAHZWwNtKlOdv9pA18B814CSgF7vwuHFzicAAv+aoZ0OJ9kCe/0vztfpCTTUfroGTq+BzWu9R/r3Jv9vrVd0PQHIwH9wuzb5af2V3o4TtMWBe3fef9qBqTNXW+gamO8a6B/39vv3taODmOYsrDPZHny10zMAtghSH7VAk1pgnAToVsB8Hb+AU+2Ha8D+S3fe36RuYDHH+sDh1zuZANhGP7sa+S/mIlKUtbSAjVq0FkCPCOoaWOA10KUkIJsBONjvVAKwPTjOXn1sI387f33UAk1tAbt+7XEme7ZZILBAEMCoULSb11WXkoCdg6c7lQDYyF/g31TI03FHLWBbnO71D7vZWQuk9bsv4xrofzH6q7VLZiOIncHznUgADPgz8B/cp5F/uy5jnU2vl737fK9/VWCwDDBQzO5dV7Yw8ONfan/fsnP4eicSAJv6t02P9FELtLUFnrjnpt5e/8pwy1OBVvdAS7/5wn/zR/sPtrW7GJ6Xve62aa/oneV4Bf7tvo51dsMWeHrrxt5e/7mFd4RaY6A1Bl29BlqdBNhb72xqfBZQbYzP0Xnhg1qgMy1gt/Ye3fyakgCNiHUNLOgauLT1UDv7D9sIp9UJgMC/nReuzqq0BbJdA7VXgEBwQSDY1RkAnLcl1a37NGYUP35hj397X7q8c7Ddut9LJ6QWmKYF7P3nekJA0/cAMdH5rgVLAlrx+LidxO7JmVZO/WczGocXp+knZasWaGUL2P/8yU98pKcnBObr+AWcar/sGugf9x7Z3GtHErD7mw+1MgGw7Y31UQuoBU5bwBYHWsclIBOQ6RqY8xpoSxKwe3Rz6xIAgf9ppy9OLeBbwN58plsCcwKA7qkrkdw6af5MwJd/fUurEgCBv+/uVVYLTLbA3h0f1qOCAnGB+CKugf5Tzb0dsHt0a2sSAIH/ZEcviVog1QK2NiB7SkDvERAQLgIIuxyj/1Tv2ZPrU3+1+srtbXhteATQ3mhoHZp99VELqAWqt0C2QHDzJYFglwFM5z7/9d9/rmfrbBr1sZfiNPkxQEtetg/2G9XmOli1QJ1awJJmG71oNkDrArQ4cI5rwPbbaFoS0PQEQOBfJyjRsTS5BSwR0GzAHACgUfT8o+g2tGGTkgDbH7+pMwAC/ybDjY69ri1giYBmA5QIaDZgjmtg86Vm3A5oagJg4K/7/XWFEB1XG1pg+KTAUxrVtWFUqnNY/XW8+VLP3s5Z248B6IWj842bAdg5eLqZKy5reyXowNQC6RZ4bOvc8BXDApHVg4javNltXvckwPbKb9JTADuD57Pti9PdlTRqAbXAolvABgv7H/+SNhASIDcbkNfx+/Wv1HcmwBKAJqwBsCRF4L/obl3x1ALTtYDdFtB2wnPcG14HAKnO9SYt2dMBNU0CLhxebEQCIPCfrqOWtVpgmS1gTwtkiYA2EVovuAjcm9P+/Ss9S6Br9bHd8+o+AyDwr9Ulo4NRC4xbwBIBez3qnhKB5gCRkob1/VZ1SwIsAajzGoCdw9d733r3rFb8j7tcMWqBerVA9tjgHR9WIiBgXR+wNqnt+1frMxNgW+jWcQYgu+d/+HrPXlesj1pALVDvFsAjuTbFeWnrIc0INAmQdKyrT1zqkgRYAlDHGQCM/Ovd7eno1AJqgagF7PlnPTWgxYLaTKjgGuhfzXbejP4/K5PZhjp1mwEw8NfIf2WXgCpSCyytBezlKNmugjbi0UhTbaBr4PQayJ4OOFxvEmCb6tRpBmD74JcC/6V1xwqsFlhfC+zdeb82FBIAngKg2qK3N0oC9rc+up4/piUAdZkBEPiv5xpQrWqBVbWArRUY7iz4nIBAAKhrANdA/7C3liTAHrGrwwxABv5HN6+qH1I9agG1wJpbwDo87SVQcI8Y4CDajURhHUmAJQDrngEQ+K+5J1b1aoE1toA9OfBo/0FtMyyg7wbQF/3O/cPepbs+trp/oy24W+8MwKC3q5H/6n5w1aQWqGkL4PaAZgU0K9DpBaOb11aXBFgCsI4ZgGHSIfCvaV+sw1ILrLUFsqcHskWDWivQaTAsGi23VWcLA1eVBNj0+3pmAAa9L//6lrV2MqpcLaAWqH8L2HbD2Z4Cmy9piritoKfzCq9tWzC71M96EgCB/1J/VAVXC7S0BWy9QLavgJKBEDA0W9Cy2yeb17KnZpb2d7YEYJW3AHYOftvbPbp1aeejwGoBtUA3WmCcDPR1m0DA3zLgdzMij/TvXfyf2hbdXBgMVpIA2G0Ggf/if0NFVAt0vQWsH7Oth4cbDT2l9xA48FBy0ILkYPNabylJgIHyKmYAAP72Z9VHLaAWUAsssgWsX0Hfkr2HoH/f6R4DtqhKoKg2aPo10D/u7ffvW9zfxv4wq0gABP6L+80USS2gFqjeAvY0gS2kyt5QqPcRKAloehJgx3/n/dX/AGWWyx79Z+A/uH2cnZcdj/RqAbWAWmBZLWBPFIxvFWQ7r7VgergNoKZzmC45W0QS8OzJ9Uud/jfw3zlY8mMMy+opFFctoBZobQvgloHtupbtQqinCqYDIAH2etsre4nQF+f7f+6enFlaAjBc9Cfwn+8XkrdaQC2wzBbAugGrA2sHHt38Wm9PtwvWC3BKMKq1f3+OJOBb755dSgKwPbAV/wL/ZXZciq0WUAsspwWQFNjLirI9B/pP6T0FAuRqgLzqdrKFgR//0mx/hN3ffGjhCQBG/nZ7QR+1gFpALdCWFrD1A/Yo1vDFRc8NHzfUEwb1BMZVA/Ga67NrcurPMhKAncF9WvA39S8hB7WAWqCJLZDNEtx5f2942+CKwHDNQNjlxz2nTgIWnQAI/JvYhemY1QJqgUW1gK0jsMcOc7MEAkUlRiu6Buxx18qfRSUA2cuEjs5r5F+55WWoFlALdKEFbD2BPWlgawmy1xz3NUvQ5VH6Ks7dZqMqfRaVAFw4Ol+pPhmpBdQCaoGut4AlBVhPYAu4xomB1hNopmBBMwWWBGAxa/L/tpAEQOCfbF8p1AJqAbWAb4FUx2y7FtqaAtvudXgLwZ4+uNLbU2KgxGDaxKB/nCWWqWstuybnfQxw52C7PMvwV7/KagG1gFpALVC5BYbbGd+W7WBoiUE2Y2AbF21eEzBOC4xdsh8lAeGFZpnBrBsB2T3/7cFXBf5hy0qoFlALqAVW0wL2SmRbY2CzBuPbCZYc9A+VHHQJ7AvO1RLG8DNrAmDgr49aQC2gFlAL1KMFoqne4RMJt2V7F1hyMHxU8TntclgAlqtYpLeOOsLNgmZJAAT+9fjD6yjUAmoBtcCsLWC3FWwhoj2yaE8oDN+WOFpzoFsL7Zs96R9nW11PXC/TvA1Q4D/RfBKoBdQCaoFGtkA0a4AT8bcWxgkCbi9oYWLjkgTbxXLic2EwKN0O2O75P3D49QlfCdQCagG1gFqgnS1QlCDYGQ9nEIa3GOwVy9ltBixStPcnZMnC1cYB5Tqm6FdRp60TmfjsHDzdyzbyGZwkEwGB/0SzSaAWUAuoBdQCFVvAbjnYrMJjW7dltx0MjOzWgz3VYGsThnsh2PoEe+xRCxiXkRBYwjbx2R3cngR+uz0g8J9oMgnUAmoBtYBaYIoWKJtNML23yV7PvPXR7CkHm77mWYbTpMHWLdiLmezJByUPYeJgt2v6z6V/LXt1787h65OJwOHFiR8lHUUatYBaQC2gFlALrLYFkDxwAmEzDpZA2KjXNleyRyVtwSMSCZt9sFsWtrYhl0yME4mr7ZmJ6F/NZl9Kf5Xdo5t7tq2vfXePbi21l4FaQC2gFlALqAWa1gKcLFQ5diQUdhvDkgokFnZLw5ILTjCyPRnsFsed92e3OZBsYI0Ebnsg8Rje/rCZDJrNGCciNqsxSkamvTXSvzJ8uuOOD1c5RdmoBdQCagG1gFpALaAWUAuoBdQCagG1gFpALdC2Fvj/6RYqHsZo1+EAAAAASUVORK5CYII=;" vertex="1" parent="1">
          <mxGeometry x="-122.22000000000003" y="907.0000000000001" width="170" height="170" as="geometry" />
        </mxCell>
        <mxCell id="TehJbA46y9saMmQgOfsr-4" value="" style="shape=image;verticalLabelPosition=bottom;labelBackgroundColor=default;verticalAlign=top;aspect=fixed;imageAspect=0;image=data:image/png,iVBORw0KGgoAAAANSUhEUgAAAgAAAAIACAYAAAD0eNT6AAAAAXNSR0IArs4c6QAAIABJREFUeAHsvV+sJVd17hsdRRaKdG4ekqdIeYzySHJjIIeAY/nY7T7EsqKDHUHgIoKQ0zbGNP4nMBbajbG7G4QSRUlkk3vUJlYwGFrIMmB1ty3zcKRIcB9xcnxN8DWJ7VjniYhECYLUzZg1v7m+OWrMWbNq1Vp7rd3DUmlU1Vp779XDe6/f940x5lw/8zP+n2fAM+AZ8Ax4BjwDngHPgGfAM+AZ8Ax4BjwDngHPgGfAM+AZ8Ax4BjwDngHPgGfAM+AZ8Ax4BjwDngHPgGfAM+AZ8Ax4BjwDngHPgGfAM+AZ8Ax4BjwDngHPgGfAM+AZ8Ax4BjwDngHPgGfAM+AZ8Ax4BjwDngHPgGfAM+AZ8Ax4BjwDngHPgGfAM+AZ8Ax4BjwDngHPgGfAM+AZ8Ax4BjwDngHPgGfAM+AZ8Ax4BjwDngHPgGfAM+AZ8Ax4BjwDngHPgGfAM+AZ8Ax4BjwDngHPgGfAM+AZ8Ax4BjwDngHPgGfAM+AZ8Ax4BjwDngHPgGfAM+AZ8Ax4BjwDngHPgGfAM+AZ8Ax4BjwDngHPgGfAM+AZ8Ax4BjwDngHPgGfAM+AZ8Ax4BjwDngHPgGfAM+AZ8Ax4BjwDngHPgGfAM+AZ8Ax4BjwDngHPgGfAM+AZ8Ax4BjwDngHPgGfAM+AZ8Ax4BjwDngHPgGfAM+AZ8Ax4BjwDngHPgGfAM+AZ8Ax4BjwDngHPgGfAM+AZ8Ax4BjwDngHPgGfAM+AZ8Ax4BjwDngHPgGfAM+AZ8Ax4BjwDngHPgGfAM+AZ8Ax4BjwDngHPgGfAM+AZ8Ax4BjwDngHPgGfAM+AZ8Ax4BjwDngHPgGfAM+AZ8Ax4BjwDngHPgGfAM+AZ8Ax4BjwDngHPgGfAM+AZ8Ax4BjwDngHPgGfAM+AZ8Ax4BjwDngHPgGfAM+AZ8Ax4BjwDngHPgGfAM+AZ8Ax4BjwDngHPgGfAM+AZ8Ax4BjwDngHPgGfAM+AZ8Ax4BjwDngHPgGfAM+AZ8Ax4BjwDngHPgGfAM+AZ8Ax4BjwDngHPgGfAM+AZ8Ax4BjwDngHPgGfAM+AZ8Ax4BjwDngHPgGfAM+AZ8Ax4BjwDngHPgGfAM+AZ8Ax4BjwDngHPgGfAM+AZ8Ax4BjwDngHPgGfAM+AZ8Ax4BjwDngHPgGfAM+AZ8Ax4BjwDnoF9zMDBwcEbfuvgyV+67oGnfuXdf3zpbW/72BPHf++PvvmBa0499QfHTl+457pTX//UsTMXH77+zMXzx85cfFaOaz/9zb8+fuaZ5xGPnb74AxzXnPr6D3Fc+8A3uux48BsdHpMoX/P2+8+/LN9Lonw/Pt567xcfl58tx7UPPHUgrye8rocu3CSv8+qDJ6+U1y2vfx9z76/ZM+AZ8Ax4BjwDi2fg4ODgPwkYBZLHHrpwk4Dz+rOXPh2B+qxA9/qzl3507PSF7tiDT3fHTl+KEdcS47k8/uDTAeaIALtcX3PqqQT68L3w/AeVAFCCAF/HUc5xyM8I5598srvm1JPdNYhyfurJ7mrEdP/rPxQhISJFxIOIl7fe++W75N9+1SfOXyVi4dozl35+8WT7N/QMeAY8A54Bz8C2MyBQE8CLOwbcxVkfP32pO372UheinNN1D/0LXYJ/BDbDu3R+rQgBAF4BHaKgJTL0e9A/GUQE4L+KEf4R9kEIGOdXiwiAEEA89VR39Se/Fu5LDMf9XwtVCBYKIhIkhyKWXCBs+zfYf55nwDPgGfAMFDNw88HBFXDy4uKlHH/8M898Rxx8gLyAno8IewG83A8xOHxAH1GcPVw+Yu/2RQAk0BPww/0HvjGoCOB+Df5D6PeVg9V9gb1UAKw4FAIB+lIJiMDvIS/XAnvECH4IAIn39/euuv98fG5+LeLgrfd86dtSRZDWw5UnH323i4Pir6c/4BnwDHgGPANLZODcuXNvCLCPjl5K9e/47LMdjgz02uHD6VNM8JdSfyj3U5zg/CEIaoBveWwF+xX8e+ivSv8rETCEvq4ArOC/An5oDzDwrfMoAoIYkPP7v9aJIIAokGqCCAlcQzSIOHjLnX/11bd/4qunZA7B5w+W+K337+EZ8Ax4Bi7DDEgJX4bupHwP2AvkBfgm7AF9HTX0xfk/+HQo/UvM4Y9rrgCsnH94PlcAKo4/CIORVoAFfbvsD+cPMWALAIY+YA9g47qvAij3z9AnuAfIRwHAQgCCIMX7vpJXDO77SnfVfV/pRBSIIJA5g8vwV9j/yZ4Bz4BnwDPQkgFxjKFnL9Ptpy/+oHf2z5UdPpf2AX2CfdbjlzK/lP1VHMA/lf2H0Af8EVMbYATyY+7fEgEr56/7/zb42f2zCKiW+7X7j24fzp/hn0AfKwHmdYS+gD8c8lw6FzHwm3d/6c+kOtDy++DP8Qx4BjwDnoEjnAFZXie9ezj8d3z2ue6Gz30rgz4cv45ZFUDADxGASGIgg3+sAAzgj6n/ighg6MPhl2IN/Bb0e+e/Kv/jOoiB0MuH+8cswEoMMPRXTr8v1a+uxfWv2gFZJcCqANSc/319SyADPQH/bRH8WYR4uO8r3X+59/EfhaWMD1246eDg4OeO8K+4/9M8A54Bz4BnQDIgk+RS1pdhPRnUE+D3x6qX3zv/vswP6Gew187fAL52/3XnP1zWB5dfiiIEAuARZ1QBWAT0jp/dflvJfxHnj0qAUQEwnX4COYkAOH2KDH855yNVBqIYkDaBrzLw9wjPgGfAM3AEMxCc/pmL5+Hwf+dz3/pXdvor6PdCQIAP+OuYiYEpzj+W/5d2/iIEUAXQ50EkkDhg6Mtj1nUvBuD260LAcv5NPX+G/syefxAHAnxy/gA7w1/upeuPfbkXAhTD4x/7cqgKuBA4gn/8/k/yDHgGLr8MwO1LeV9gbwEf4LdiBnrL9eMelfqbnD9P/VfK/UX3L0CPzr8V/FoIAP457AF9K67K/ez6+/J+/1hf3i+U+AF8K051/qkCEHv95PohAAB9dv3pnOD/NjnHIULBhcDl90bh/2LPgGfg6GRAwC99fXH5AvYW8NccPyoAmSBY0vmn3n958E+ADdgjWlAv3bOcPkQAIsRAfx2df+r95wKg3fkXBMHUnn+CPpX94fzvP79y+FEMJMePa4Z+BH0AP59DCHzsy91boxCQjYiOzl+G/0s8A54Bz8ARzYBM8QP8PfTL/f2S4zdhD6ev41TnL24f6/2T8x9u8lNz/gx/nCOW4I/7LAIA+3qMIsDY3a/s/AvALzl/uR8rAFLKry71SyLAdv4M/eT2Y/k/XLMIINinCkDhnqwekC2Lj+ifjf+zPAOeAc/A/mZAHL+s1UeZf+X4V0v4LODzvVoFYF3nHwYAE/xpnX+L8zd2+hOgt0Lfgr/cs8RAf38F/XCdtu7tKwCm8w87/sk2vgx/Pqc1/43OfyAE5kz9w93rWBEC4vxFEKR47+P99b2Pd7LJkG8utL/vE/7KPQOegSOWgbBRz+mLPxg6/nb4QwhkoNdun6+nOn+z5z/B+ceNfwTIU8EvX4PDdPsPlPr9cj8v++OaRUDf968s7ys5f+r7T3P+tLZf9f6LFYAK8C33n+AfhcBbowiQ58ryQdl++Ij9Gfk/xzPgGfAM7E8GwgftnLn4bO76AX3E4dK+Few3P+2PpX992b/k/G0hYK33x+AfgF4TA+zw5fnWNQRB//jK+Yf7qvfP0IfT11HW9WMFQLbGH2V+igx9dvt8Hqb7uexPPX8M+zH0MfgXIkPfqgBEpw8BwNAPFQBy/rhmIRA+i8A/vXB/3jD8lXoGPAP7nwH5KF3ZrQ/L+HIBIFAfhz9EAMcm98+Df0YVQECfQR/OP/X969v7CtD5EDBbkLfuQRSUImBfjxABtvtnETDb+UME1Db5AfQ5SgtAOX59Pej7swhQwAf4ObIIkHMBfopyrg6ZDfAthvf/PcX/BZ4Bz8AeZCDAf9DrF+AD+jrWKgCbW+ff1vNvd/4APmIJ8nxfQC/XVsxFAKAfI5x/7P1fHdsADH/L+a8EAfX7AXuKlvMvun7t+HEdB/syx49p//hYAPuCzr8kBH7z7r/qZO8A+d3cgz8hf4meAc+AZ2C/MiBvrnHQL5T8sZlPD34IAMC/DH12/HLOg3/VCsBc58+Df2nqP3f5AnV9cPmfoT71nOGfQ1/3/SECcF+uh0cPeQz3ISrgC+z1wYN/U50/QV87flwPnD+LgAbnjypAgHyD89eVALl+00f/8jnfUni/3lf81XoGPAN7kAGBP2/ms87A3/Gz5d5/JgIY+jIAqEr+XO5H2R9xqZ4/HD/iFAHA8EclIBcBgD7HJ0MPPzj8gfNfTfmjAlB0/eT4xd2LIKg5f7MCII4e8EekFsCg98/lfu38cU1iQGAv4E+x0vO3gG/dExEgv6t78CflL9Ez4BnwDOx+Burwzz+4Rzv8sevRCgCLACUAAHvEAH3u+Ye+/8SePy35mwL70nNZBOTwZ6ePfj/irjn/cu+fRUCoArAIINjD4ddiKvGjAqD6/Rbws3t3xxmBe770bV8quPvvK/4KPQOegR3PgJRUj3/mme/kg34MfZT9Ecvl/7WcP1UAxp0/Nvuhqf9K+Z/L/XD6pVgCPRx+KebwZ8dfh37v9HtBECb8zfX+quTP5X44f8SW8v9U58/lfjh9xIogWMr5ywyACAGOb/rIoy+JcPW5gB1/g/GX5xnwDOxuBuQT+1DuR8z7/mXg19x/Vurn9f04H3H+4vrh/BGzCkBw8vaQn8BdHywCapBvfWya8x86fvT/efCvWu4/hJ4/BgCz/v8M1x/aACPT/pnTNyoDDP/03Hu+9G1vB+zue4u/Ms+AZ2CHMyAb/NjO36oAjAsBLvdjADATAgx9cvwW7AH9LPLAXyr/cxUgB3+CPpX95zh/iAKGPioBs5x/U+9fuf7D6PnXnD9XAAqiQEAN+CPyvQRyA/jymIY+X8u5HHEw8A07/GfmL80z4BnwDOxOBqRsKpv89B/kA9jzpP94ub/k/lkEZPCf6PwB/sz1A/qIhtMvOv/4yX6AOYQArlsji4Ac/lbPv+z8UfrPp/4N6G/C+RsDfzztv4TzD8BHrx+xAPopQgDgZ4Eg2wfvzl+XvxLPgGfAM7DDGRABwH3/1ZI/cfmAP+I8579oBcB0/uXyf4vzbwW+PI+hr69zEVDv/Q/X+1tT/xURwNP+hZ7/ItP+WO/P/X04fkTD9aeef3xMIJ2c/wQRwE6fQc/3gxC487E0GyD7BOzwn5y/NM+AZ8AzsBsZ4NJ/3u9vh76uAIw6f64AGNP+Vhsgc/8sAqY6/+j+4foR54qAHPrTnX/u/ivA1+4fbQARAvHItvIVZ186ePCPlvo1Of8K9AXw1hEm/idAf1AFiBP/cPzVeOdj3W/e+VjnOwbuxvuLvwrPgGdgRzPwyCOP/Nz1Zy/9iLf5nVsBYOibjp+hj54/oiECBtP/Cfo09S/3CgJgG85/HfjzwF8vAhorAFt0/oOBP8AfsQB8OH0d09K/hvI/O/yS8w/34fwF/HEWQKJ8iNCHHvrTX9jRPz1/WZ4Bz4Bn4PAyIKX/Y6cv3IPBvyXcP4sAs+fPIsCAPpx/uefP8M+H/CwhwCJAztnl75bzn7DLHzl/3uyn6Pa5CjDX+QvwG6Cv3b8AGiJg4OoniAAIgIEoUNAX5x9EwJ2PdW++87EwFHh4f2H+kz0DngHPwI5m4ODg4Gc35fzNCsDI1D/gX3b+POFfdv4QAgn+9AE/gD4iC4LS+VI9f2upH5w/lvytro1WQHT+LTv9ZWKAoY+BP8QIdgz66ZigD/gj1pz/WM9/rBVA5X6A/6130yoAcvzhcUAf7h/XMf76rZ8/saN/gv6yPAOeAc/A9jMQ3D99wt+67n8J53/szMVnj525+LBUJeTTB9/2sSeOh/MzFx+W/QmkVQG4t8bg+pXzL4G+dp9FgF32595/fdq/h7w4frh+RAP6uu9P/X5zwI/dPp+zCJjS848CQTv7sesle/6oHKC8D1EAp4/7yf2LEBD4x8NbAdt/f/Gf6BnwDOx4BjD5v2TPv9n5n73UHTt98QcCfAH9uXPn3iCihA8rfe/+40tvu+7U1z8ln1OgRUBy/A3r/FsqAAx9EQfWdS8G6tP+NecPx484+FAfEgCh3I9pf8TaTn/ycb5w+ogEf3H32vFn1+Lk4fgR+Z6qAqSpfy77R7ff1AYYc/7k8OH8ETMxEJ3/m+/8QmgHSHzrvV983Pp98nueAc+AZ+Cyy4Cs+19ip79Zzv/spe76s5c+jV3bBPpT/wfI18jqhWtOff2HWggEuIvrh/NHfOAb2QxAzfHjMYZ+D3s4fR3HXT+cP+KqAtDg/KnvP2nifwnnz/BX0NeVABYBcO6TIvb3R4wbACWXj22AI+T5fhIBeCxWAKQSICLAVwVM/Svz53sGPANHMgP58N+09f4MfTh+xGzwz+j5S5kfH9wyB/z6f0ZcxfDpYw9eCMCHs9dRgI57gHspMvTlOXydi4D5zh/wrzp/q+c/1/lTBWC28y/An6EPp48YWgFjw36W81fgh9NHTOAH5FH2R4zQl+eFSkAcCFzid07/Dvq1Z8Az4BnYqwxI+T/v+49v8COQx8EiIIM+pvwRSQSI6186SfKGLofMDMiMQGoDiNuPzp/Bz+clAVCH/padP4uAWrmf+/0B9lT+p7K/lPizMj96/DoWYK8dP65ZBExy/BAHhggQeAfgx9L/AP5oCQD6iEoUyGoAVAGk3bT076B/P8+AZ8AzsDcZkNJ7vvSPKwAryAP2iAx9uWddZ2KA4C+A3rT7uvrgySvDXAHNANQgrx9jp69FAK6nVADE5aPcv3L6/cDf6rpS/mf4tzh/iAAu+y/h/AstgAT9KBYE0HD+iFUxgDK/AX8Gf3L7DHzAXkeBfbwH589RPitgb/5Q/YV6BjwDnoGlMyAwXrn/NvhbIiCDPRw/xygArjn11B9sGv6SI/kZIgJkLgBwh+NHxP1SZBGQw147f7ke7/uzCEDZfxUF/pUVAGriH1P/iNlSP8Af0XD9zc6/AHy4fY4sAqqwh9PXkUUAL/Uj2GdigAAP0KdITh/3BP768FmApd9R/Pt5BjwDe5MBKcX3A4Bt8D9+tq8KWI4flYBMDLDzP3Px4W0mBu2AMBPQOPTH0IfT1zEXA/XeP0MfTv+aCHpc16b9w5AfHD9iS/l/X5x/FAECacA9xSgC+LGwnI8EQbouiAF2/Cj9swj4jZOPfnmbv5P+szwDngHPwM5kQAbxVgKgXPKH6wfkETPYs+Onc3mu/JzD+keH/QRmTP/noLdcP+7V3T+LgJXLr7h9Wu4XxIFy/2EJYBQBc5z/aO9fyvhznf/Yxj7a9fO1VACU84cYCC7eAn8s8cPlB0EQxQDgb4GfRYBvEXxYf5n+cz0DnoFDzYAMy7UIgHWcv4gEKcdvo/RvJVPmHLBEsKXcrx0/rnNBsJTzLwiB2T1/GvhDz//+8wHouuyfXTP0Gf58TsOAXO5Hj19Hgbc8L0QGPZ/P7flDDFjO35j6Z+CH85OxHXBS9gX48l3W743f8wx4BjwDRzYDsgSvBf5w/ywCWpw/tvOVnfsOO4my1LEEf30/Bz1cvhV31fmfD9P9cPpWDA5f4M4HiwCCPff5+ZxFwCjoGfr6nJ2/qgDA+YdKgAV7VADkMRzxHioAA/hjFiCKgDd95NGXDvv303++Z8Az4BnYagZkJ71+AHC89C/AR9lfx0wMUM8/3D99qZONhg7L/SOhBwcHP1erAgj04fR1zAXBiPOPw4Crsn/pU/3mO39z8M/a6Q8VgAj5zPFjCSBDH24f0RABDH3t+HE92/lTzx/gT5H2/E/lfsAfEQJAVQAyAUDOnysBu/A7it9Vj54Bz4BnYKMZECDL7nlw9y2RRUAGfer3A/pw/7LHwGHDH4mUWQDt9vmaRUAOfe3+R5w/iYDt9vyp/G9M/vOmPzvn/ONmP8Hp00BgEgCAvI6APu4D/jFm8GfnL0KAxIC3AfBX4tEz4Bm4LDIgKwDGKgBc9p/q/OPH+N6zK8mUjV8Y+HzO8Jf7QwEw4vyNdf6Y8kfsp/3nO//q8F9h6h/lf4Z/qARYzp/vKfff6vyzKoAu9ct1a8+fHP9o+Z92+BPgi2gYgJ9gn5w/iQBZDbArQnVX/l78dXgGPANHOAPSm29x/gB/1fVLFYDL//FcSqu7kkL5kCHeF0ALgCH0Jzp/EgGznT/t818FPtb4I0oLwHD9fC9z/SjzIyrgc68f5ywCUs9/bMivJALQ61dlf1QAMucv7h4OHxHOn2KAf6vzB/xPfqG78o7/0cmnBLoA2JW/VH8dngHPwMYzUFsCuK7z793/xR8cHBz87Mb/IRN+gPyb4fBLMRcCdecv7r53+DqWev9qt7+GaX+z55/A/5XJn/IXhAC7/QYRkOBf2uFvTAhUnD+W/o1CH/CnyI5/svNnEXDyXFipMuFXyZ/qGfAMeAb2NwPyMbotFYDJzl/cvxxnnnl+l7IjDs+aA8iBr12/XPdwH4u960eJH1EBX6/xh+NHbNnkB/BHnOr8BfgN0IfzRwyuH6BHtBx+6R6LAHL+pusXZy+g54Pcfpr4n9rzJ+iHGQC6fuOJR/5wl35f/bV4BjwDnoGNZUD2yi/NAAj0UfpHzIQAl/tR/gf4T1/qjp2+cKib/5SSdt2pr38KwNcVANzvY935X93g/KXnj13/Brv97bjzT44/tgYE0iIEOOpzuS4dAnJ5LIskAhj04XkQALUI+E/t+UvZ/+S5MATI8S0f/cvT3gYo/eX4fc+AZ+BIZeB3Pvetf61VAFgEZPDH1D+LAIJ/cP+nL3W7sP6f/4fJm7t8FgF6/wJ6iIAc/qgCsAgYVgFYBGy95y/uv8H5h4E/OH7Ehn4/XH+AvoAfjh+xAvuqCFDQhyhgARDcPZX5w2OG+2/q+cvkP7n80rkIAf9wIP5r8XPPgGfgSGfAgj9Dv9n5lysAD++ao4IAKMOfoV8u/wvw897/Gj3/Bfb4hxgYTPsz9FH2R+Q5ACUKUgXAcv4TREDm+FEBUCIggz9K/jXnj6l/FdN0P6CPaAgAdv4iCoIA8A2BjvT7nf/jPAOegZgB2R7XEgAm9OH4EUecP1YDHOb+/6X/0bIjYBn+bc4fswBBBIQP9pF+/271/Jdy/ij7pwrAJp2/5fpxDxUAQD9eB+hjfT+iAL8Cf1QBLBFQ+r3x+54Bz4Bn4MhkQAuAdZ2/9Pz7yX+KOzYEKP/zZAbALvvXnX8q9zf2/pt6/gXnb079T13nD+ePyG6fKwBTnD9VA0plftyf4vxDG6DF8auef/YhPwz9OfC/41yoAsj22Efmj9z/IZ4Bz4BnwMqAbI3bu/3VNsAsAub0/NH7DwOApy908kFD1s8+zHsyl2D3+1HuRxz2/OH8EXvXv2XnX+n9c/k/TPkD/hXgc69fnwuYUwVgrvNH2T9GFgap9A/4W+V/cv6Y/C/2/lkEGGV/OH9ErgDIuewHIB9adZi/n/6zPQOeAc/AxjNwcHDwBpT7dRyFf6HnP6gAxM8B2Pg/ZsIPePv9519eqwKQev+NPX8s+4tT/2Fznw07/6z8v4TzX6jnD6dfikEQQAxwhPNHXGjqP/T+o/O/MsarPnH+qgm/Tv5Uz4BnwDOwfxmAAGiCP/f+jWl/dv4QAagCSM99F7Ijw4iyK6ENf+79l51/agOkvn/DGn8IgHXX+c91/jPcvwB6nZ4/b/erHT/gn9w/evw6kvMPjp96/4O+/9rOX9x/PE4++u5d+H311+AZ8Ax4BjaagSb488Cf4fwt+AcR8OCFndsL4NoHnjoYlv/rvX8u98v5avq/sQJgOf9CBUCqA+mY0fOH8w+x0fmj7G9N/U8RAQz6AHlZ9x+n/XGdQZ+Bz+eW8yf4pzYAQx89f0Sj/M/lfsv5S/lfRMCv3/r5Exv9o/Nv7hnwDHgGdiEDoz3/RufPIoCcf3csioBdGaySnQlzAcDwLzv/TATMcf8iAubu8Ldl579Oz7/m/AfwF+jjYOhDDPC9WA3YiPMPvX+4fxcAu/C+5K/BM+AZ2HAGbj44uKJaARhx/ubUv+wACOf/4NN9BUDimYsPb/ifM/rtjz104SaAvBcBDP/y4N/K8fcCgT/Rr68IFNoAc3f6kw/1AfQR6YN+eNAvc/wY+Nuy82fow+lr54+yv45BADDoCf486Lea9n9s9Sl/VgWg0fnnFYDe+XsFYPRPyJ/gGfAMHJUMiAAwh/3g+ivlfjh+xMz1yxbAhgg47E8FlG2Pc/dfhv5KKAD6T8YtfWes94/uf1IFgEWAsdsfi4DBtP+cnn9cCiiAnnXwHv/xeyR3D5fPEdDHvejwQ3kf5X7EkvuvlPsx5Y/I5f9+2r9f8pf6/rH8L495C+CovMP5v8Mz4BmoZsCsAFjO3xADgwpAgn7s/Yvzl3sPPt3vD/AfVYDD+mRA2f0vhzrgr+OqDTDb+WPoz+r919oAVs8/VQD6D+/Rjj+7Ljn/giBIPX+GP6b9EWuCIEI/qwConr/p+Bn6cg4xYIkAa+rfcv6GGGDo546/AP8gAv6HC4DqO4Y/6BnwDByJDFQrAJVJf7h+iSwCQhWARUAQACIC4nH6Qicg3mbyMPl/zamv/zB3/yvQ58Igv88iQM4Hm/sA9jqS6xfnD/efBvwE7NbBImCbzr8F+JYYIBEgjj8AH4CPESIgqwgw9CECIAAOw/lH+HsFYJt/nf6zPAOegUPLAM8AhFbAXOcvJf9C2R8VgCQCHnx6qxutfOihP/0FWfcvP78HfdnxQwgw9OWeQB+f6IdrUwhExx+Ajyl/xJrzhxBg+G/D+dMmP2nwr0UIqHI/gz/r/d/5WC8IAHsGPc4R8Rw4fsQoBsLw3xrOf1ABCEv+8t5/PwPgFYBDe0PyH+wZ8AxsNwODGQAWAZUqwMD5swiIZX+GfjiPzxE3vo15ANnq+NpPf/Ov83X/ucMH9HVkETDZ+dN6/0nun6Di8BepAAAgAElEQVQvpX3rMPv9hRI/lvdZMZX/xdW3QF+7f3L+GfQF6PEwnT8eJ+BjWR8G/XA9mPg3yvzo8evI5X85xyY/q54/1v2LCKDDZwC2+wbkP80z4Bk4nAwMWgAM/7k9/1AJWPX+ByJA2gFxi+C3feyJ45v6l4vAEOc/hH+5AsDQXzn9WAGIlQBeATCoAlgVgJrz50E/wB8xTvRnPf4oCtIA4AI9/znOP+v5Y5vfuZ/up4UAlf8HAsCqANDUP0Mfjl/HXgDYzh9CwIcAN/VX6d/XM+AZ2KkMmBWAKc4/6/n3A38m9DEHoOMGdgnsl/t9/Yc5/AH+egWARcDK+c/v/Uufv9r/ZxFguP4E+ygIBhUAFgFxmM9y/LiXnP8c1y9VgFbnbzl9uaeBL9fx3gD44vj5INhrx49rFgGTnD9VAVwA7NRblL8Yz4BnYBMZSBWAqc4fn/qX4E/r/Uvl/wef7q6N8Bcwi0hAlM15lth/PWzz++lv/nUo5z8gwMch0IcAQFwJAYY+nL+Oizp/cflw+jqSCGD4Z5UAhj6X//mcxABDH45fRynXjx5W75+cfyj5R8ij/I8Y2gIMf4iB0OvvRYDAXp6XQR9lfx1JDDD0g+M/ea6D889FQN35ewVgE+8y/j09A56Bnc1AqgBUXL857d/S89dun64F/iIIQoyCQD6lb05bQMSDbDS0Aj7Az3EF/CAQ4kf64pxFwMr5Fzb40RP/h9XzLwAfbp8ji4BZPX8IBBEB1lI/OH6OAD5gjwjXj8fjwN8A/BXow/EjsggI0Je+P3r/2OM/Df5Rz5+cvwuAnX2b8hfmGfAMbCIDg+l/EgI86AcRUJz2T71/WvZHwGfHD+cP+HMM7YPTF38gQBewy0ezyjbC8tHF8u+Xc3H68pjs699v7gOHvwK+fM8e7nD8iCshwNBPjj8u9cP1Zpy/XQEoOn70/jfk/FENKFYARpw/hv4GkQA/qACQCFjM+d+xcv5zKgC/8eFeGHgLYBPvNP49PQOegZ3KQGgBcPmf4I+1/iwCAvxN59/e+9fw18IggPuBp1JlgMVBD/X+sZXb7+GPx1b3IQZWwIfb58giYOX8J/b8qQIw2vNP5f/z5pQ/Jv8HvX7MALAIoDI/u30+34jzp7K/gD2V/uH+AX44fkSCPgRBgP9YBYDK/XD8iAPnLy7fdP4y9V93/vK4iAAXADv1NuUvxjPgGdhEBrIZAII/Qx/OP0Sr5585f1sIWL1/Lv9ryJeuBe4AvY4Af38fFQGOKyHAH+kLp6/jEs5/MPzHA39G779WAQiCgOFfKf8z9OHuEbPy/9ggYIPzz3r8EACIEAIcSQQs5vyp5z9w/qnsXxYAcP6ILgA28W7j39Mz4BnYqQykCgDBf2POnwYAAXi4f1y3RBYBPfSfTKIAIgD32enr88N1/mX3zyLArAI0uP4A+/i8APwx0KO/b0VDBJiuvxH6Szl/rgDUe/6F9f6qGgD4ewVgp96i/MV4BjwDm8qAFgBF55/K/qtp/74igH7/dOc/Bf4M/d7hryoBQ+ij14843flj17+56/wHzj+V/b8ynP6vTf1bjn+m808VANr9r9jzj0KAQY8yP2IAOaCPyE5f7lnX1g5/WOonpf7K4B+X+4PTrzn/0AaoT/0z9FH+dwGwqXcb/76eAc/ATmVAC4Cs3A/oc0xL/GzghwE+PfhnOP8Wp196Tg78VZ8fwmD1+Ar87P65/L/Vnj+LAII+ev6IgwoAi4AG98/l/1Tun1sBUNP+gP5ABAD0EAKAP5X7eXc/OQ+gB/g5sggY6f0v7fwF/i4Aduotyl+MZ8AzsKkMQABMcf5hEDBB3hYCVs8fjh+xBHi+3+78V0KgFwA5/Bn6fa+/f1wcfn+9igPXjwE/ijzoB7ePGNb3A/aIAnw55xiH+uQeQx/XofzP8K84f3H3WdmfXP5GnD/t8R/EAARAIXKvX0REuGYRwNBHBcCA/6ACQFP/QQykAcDpzt8rAJt6l/Hv6xnwDOxkBiAA0PdHBSBAnp2/nAfoI6L0X44sAhjqOJ8iBORrVs4esNdRoC73cvjr6971y5Q/jsa1/rzNb217X0Bfx4rrz6AfBUHq/ze4fggALQJSBcDq7Y/c4/J/0fnD6Wvnj/tUARhAn10/oI9owJ97/ij/59BHrx+xPvHP5X84f0QfAtzJtyt/UZ4Bz8CSGYAAKFYABPqAPyLfS5WAXggw9AH4UoQQqEWrApALAYY+BMFKACTnH0XBavBv5fhRAVjX+ZsVAHb8qACQEJjk/CsVgFT236Dzh9PXMYiDDTt/C/5BBCTHj6V/6zn///P2v/AWwJJvMP69PAOegd3NAATANpw/hEAN+NZjLAJy+DPwx51/D3qs70dscP9LOH8D/qEdoMr/yfVXYM9uX58nxz+3548P9olxkvM3XD96/dz/H/T+ufxfcf6Z68cuf+Z6//nOXyoAIgK8ArC771n+yjwDnoGFMgABMKgAWOv90wDgsOzf4vwtuJfuMfTlOXzdiwDt/Feun0v+K8ffP75Wz/+TXwt9fDh9HbPe/wznH9oAVs+/IgaOlPM3yv+Dnj9N/efl/7rzxwZAXPbnnj+cP6ILgIXeYPzbeAY8A7ubAREADP9Q7kfvPwB/mZ7/HPc/hD4cPyKLAFsAwPUj9n3/BtdPA38C+irsda8f16HUP2O9/8SeP6oAUppPFYCR/n54rn4Orfdfwvmz60clIHP/E5y/6f7DBj/o90usO388jj6/joC/VwB29/3KX5lnwDOwYAYGFYC5zj/OAohbB+wl4rzk9PV9hj6cf+/4LeiPl/1rFQBTDHC5H44fUQ3+QRSs6/wHZX84fsSKIBCQh8E/ilNEgIA+9PRLsTTtz+V+nGO6H1ENAAb4M/QNx49eP+KgAjCx58/Qh+PnyNBH+V+iVwAWfJPxb+UZ8AzsZgZQARg4fx74U4N+ADtiKv+rT/bTcG+9ZhGQw98SAWXnn7v+Pej5NwAfbp/jus6fRYB5TiIAlYEsEujh+hEzxy/AB/QRR3r+cP6Iedkf7p/L/+UqgHb8uGYRIOdeAdjN9yp/VZ4Bz8DCGUgVgIWdfyvs8TyGvtzj61wEcNl/WAFIU/+f7IVBuedfEASxAiCuXr42xA05/2zpn9X7N5x/6vnHx7gCMMX5y8f5Vp2/uHrrKEz7B+CT8xfQy9cnAWA5/4oI2LTzt+Av91wALPwG49/OM+AZ2N0MZBUAFgEjrh/uP5T4xfkb7j889sA3ip/qB/gjlqEP549Yd/0YAuxL/AXQS4+/dMSeP/f+szI/evw68uAfLfUbnfYX5z/D/QfgrzHtb4kAQB/iANcAfLhmEQD3T/CX5ybww/UD9oiNzj84fkz8mz3/8d4/YF+KgD5HbwHs7nuWvzLPgGdgoQwkAZDBvzz4x+V+AF5HAL0lMvTl+XD7fN7fqzt/hj5K/32ctt4/c/6FCkAmBhj6IggU+K11/nOcP0r+7PjR+0/Ov0EMCMAB9xSt7X5LZX+GP3r/BREQhMAhOf9a7x9O34y3eQtgobcW/zaeAc/ArmcgCIAE/zL4BfI4WASw8xdoQwy0wB/PYREAAWDHdufff5jPRPe/zrS/AX+IARYB2cDfXOfPA396kr/lmsr/LAjSeQn+DHw+j6IglP0t988ioNH5L9Hzx7DfFOcfqgC3+T4Au/6+5a/PM+AZWCADqwoA7fgXYG+LgQR/gj2gjwiw1yJDX57H1zn85zt/TPmjEmCW/K2p/6ae//nh3v4kAhj6cPyIQQQ09vyT8x/r+Y+5f4L+ZOdPDj+1AnAvxhz+1AJg+FfK/+M9/7aBP4E9wK+j6fjjzn+p/O8VgAXeVfxbeAY8A3uRgVQBkCoAufzaeXD91POvgb72WBn66PUjtjv/Vd9/gvtnEaDgn5X7d6Dnn8r+LU5fP0eJAAiB0NePA3/hXnT0fD+c436C/mNp0C8IA8v9V6CPpX6ILAJC75+X/GX9//KkvwV9XQFIsI8T/4NrrwDsxXuXv0jPgGdgzQysBICU+IciIDn+KA4E6HD6pdgKfXkeiwBclysAQyEgwNc9/ybnjwHACP+s918TAfcZzl/uxd5/zfmHCkDJ+ReGANPUP5f9o9tvEgMR+tnAn+r5A/qICfwR9Bb8cS84fwwAzpj6Z+iHsj9DP9vml5f6lQf/rAoACwCBva4EBAEQnf+v3faILwNc8z3Fv9wz4BnYkwz0AmDV3685/wB8OH/ECVP+EAYM/Rz2cPyIQ+AL7PXBIgDwN8v9gD7H2PfHxL+5uc/A+ZMIUEN/KPMjFnv+BeCj5M+RRYBAevJhiQBrr384/FgNyITAlJ6/uP5FnT/Dv+7+UQFg6PP5wO1zFUBEwG1/0YkI8FUAe/IG5i/TM+AZmJ+BvAIwFAKpAmA4fwE6qgD6HLBHZOjLPes6FwMCehECQ+Dnjr9/XIDfD/6tpv6rImCq84cIKEz9b8P5w/EjtggBgXhw9kZMgI9wD8+DCLAiKgKx1C9fn/f+v9CFcj7gryMNAFrO364AMPynO3/L8aMCwM5fwC/XoQLgLYD5byj+lZ4Bz8D+ZKClAsAiIPT/J4AfAkBDP4c9HD9iHf4QBWs5f6kCKPdf7fdDAEg0XD/fM10/HD9iHOpjp6/PM+c/NuRXqwxQ7x/QB+whDsJ9QB8VAFwT+HkIMLh8uH2OBHr0963IImCdnr+4/przZxEQoM+uX86j80f0CsD+vH/5K/UMeAbWyMCYABBww+UjMtTHzi2nXxcDDP9hBYCh31cCSs6/MAQYnX+Af8s6f4Df7P33G/ig3G/GuT1/Y+q/yflXyv0Z7FERAOQt6HPZP56/OYoB7v1nQmBk6p+hD8ev45Vh4G8954+yP8N/1Pl7BWCNdxL/Us+AZ2DvMjAmAAB9xDmCgEVA3fkPgQ+3z5FFwKrnXwA+9/txbjj/tt7/V6ruf3HnL65/jvNnEWAN/AH2HFkI4DzCHhP+iBnw2fmj5D9SAWARsJTzH6sAtDh/9P+9ArB3b2P+gj0DngHPwH5n4KpPnL+Ky/7J8U8RAVTuh+OXFQBS4s/K/qXNfhj+VAFY3PmfPBfmBcTtowLQi4HDdf4+A7Dff0P+6j0DngHPwF5mQARAgP5c5485ABEBDH1y+hAFk3r+URSEsn9prX+j+w+wx97+iNka//KgH3r9iFLSn+38C71/EQBeAdjLPx9/0Z4Bz4BnYH8zECoAtN4/VQAE7GNVAMv5tyz1sxw/OX8u+8v5oPw/tedfdP7WTn9DMcDQt+Bf7Plj8C9O++upfzh/FwD7+/fjr9wz4BnwDOxtBtACEJc+Cny4fY7s/GMFIJX+qQoQ3D9fswiQcz5oqZ8pABqc/6DnX3T+Q+DD7XNkESDn+mAR0NL71/D3CsDe/gn5C/cMeAY8A/uZAV0BaBICDc5/AHw4/FIkAVAs+x9R5+8VgP382/FX7RnwDHgG9joDEAAB/Ozsx84N549eP2ISAXD7Gv4E/fDc2mY/mPwfmfaXfn9bz5/L/31fnx0/zjfh/AF8HX0nwL3+U/IX7xnwDHgG9isDLACy/n9FAAisAXnEBHsu8+N5EAC1qOCfVQHmOn/q/edL/+pT/wx9EQK1cr88Nij5N/b8XQDs19+Kv1rPgGfAM3CkMsACQGDedGDaHzEO/pliwII+O/94ngEfbp8jiwCjClDs+Wcf7gPXP973ZxGgBQCgjzgQAJj2R4x7/fOafw1/ufYKwJH60/J/jGfAM+AZ2O0MTBEAlvPH0j+U8IMI0Ov9LRGAQT8deeqfoV8Z/GP4o/wf4uBT/qY7f64A8KCfCf9G5z8QAid8GeBu/5X4q/MMeAY8A0cwA1MEABw+Isr++hpiAI9n13D/mAdA6Z/Br52/4fjR60dkERDK/cWp/3K/H7BH3JbzD9WAE14BOIJ/Xv5P8gx4BjwDu5uBFgEgAAfkzUiOPzxecPxhqR8cP8CvrsOa/8vF+ccNgH7NKwC7+wfir8wz4BnwDBzVDLQIAA19OHvczxy+GgIE9LN1/qgClFw/yv2IjRWAcedf7v2L2z8U5y8iQASAVwCO6p+Y/7s8A5vNwLVnLv38dQ889Svv/uNLbzv20IWb5Pi9P/rmB46dvnCPHNefvfRpPq594KkDua5FeexyPd7+ia+ekn87Rzk/isdb7/3i4wJy65js/Kmsn4kCVRHggT95XnD9gL2OBvy53L9Oz1+AD+jriB5/KYbBv4ae/6DfD9cP8FN844lH/nDKO0X3vXf9cvf63Z/qXrv7YKeOVz/08Z9+/723d69++D3heP2u6370/O/+2pR/mz/XM+AZUBm4+uDJKwPYz1x8+NiZi88eO33xB9efvfSjd3z22U4fx88+2x0/eykc8hjOj5++FJ6bruNz5H64F+Ox0xc6vheuz17qjj3Y35frdDz4dH8uUR3XhusLXfgI3wef7uMD35gdxz/ljz/aV87tw/50v691V+PT+8Zi/Ijfq+4/3/HH/Mp19bhPPt3vfPET/uTT/fARv9kn/fFH/MaP7ZVle6VDgI5lfYgW5Efv0aY/AerUDsB1BntUABj6cPxU7q/u8AcRYMAfPX/EzPWbE//1nj+LgK32/CEEovuXCsAUAXBwcPCfutfvuq577c5uJ47X4+uQmB13/Xh1fdePu3+845Xu79//XBAur374Pf/7f37gP6u3Ob/0DHgGJAPi6MWpH//MM9+54XPfipB/rnvHZ5/r+ms5X8FfAB5gD5hruOtreR4OgXuE/iA+GGGfgf7CAPaAfw/9p7sUH/hGeO6cj/WVr2Ho4zr/iF+Gfvnjfa+OYoDhLwJBoI9oCoAIewa9PA/wt2ImAgTqIgw4RtAD9qUYRADD/76vFKEPMbAu/AXo8j2KcaGeP9oCAeaAPmIF/oMKwMRpf0Afkcv/cs+a9kclYKrzNysAseeP3j9aAFMEgLw/7KwAEFHCgiC7FkFAokAe+4dbvx0qGC+98y3+zu8ZuGwzcO7cuTeEEv6Ziw/D2VugZ+jjPMEfkC9FiANEed7pCP94juvk8MXtswhQLh/g55jgv4DrB/QRc/gL8AF9RNv1czUgiIBPCvx7AWCCn6sALALuz+Gfwb5UASjAP4gCgXoUBJnrj/cB9imRRcCoy7daAOT8IQZYEATXD7fPkZ0/WgKIGPyzev8C/Ab4s/OX81QBMD/dr9zzZ/gftvNfSwBkblu77y1eZ5CnaoC+j9eL+0kMRFHwyi1/E6oD33vXL1+2IPB/+OWTASnlhd79mYsP/87nvvWvcPct4GfoB+ePCoCGP2CPSKAH7OV7CcBDRCWAoR9EgJT45zt/+f4CcTn4HPd0tJy/PGcoAOoVgJrzzwVAQQxwuX+S84/tgAL8Gfq6AjDF+cuH+IQyPyKV/6d8wA8DHtDHOn9cB/BTBQDXVsx6/YA/9/wF+IC+jkYFYCnnrx2/FgBWBaDo/G//i/BRvnD6iNZGP5njR+9/ZgtA3iF3ogJQdPoVEQD4Iw5EQRQuUhl4/a7r5D3y8iGC/0sviwzI4J6U96WPL7BvAT7cPkcWAXJePDT8qeSfQZ97+zOcP6oAUgEIh4J9C/hZCLAIGIIf7n+a8++hP8H9SyVARAAdXPavVgAK8G9y/g3lfl0VSGLAcvUt9wrOP4kDDX+4f3b+1PPHKgAWAwH6gD+iAXy4fY4sAoL7X8P5SxVAwx/XAfj4OF+OPPjXuMNfJgYI+HD+iLNaAIDnYUQAfImI7wFBwddRCFwWYPB/5NHOwG8dPPlLx6LbB/hz+Od9fYY9zhn6co+vMwEA6I9EgXImApLzp95/cv7DCgCX+wF4HQXquMeAt84Z+vK4dd2LgbrzR8k/lPtDr79vDfTl/t7tt/T+A+zh/BFrbQCGPnr/scSvnb55PbXnf1jO34J/odyPfn8Y/uNy/xadP5f9AX9EAb/l/MN9hj4cP6ISAWYFoNDzB/gRZwkAAeW2D0B6qQjY878D3zvdO9mF4UFvDRxtQB7Vfx3AL7CXUj/gLyX//lgN8wH0tViEvq4CCPxxxMf0kF9qA8RZgND7ZxHQ0PMXuAfAk/MH3FvBj+dr6C/l/HvYF8r83O/nc3L9UgGoun3u/7MIIPjvuvO3Sv4o/yOGcn8N/pj2V2Igc/4sAhrcv+n8s6l/mfYf7/kz8OH2OW7U+Rtlf8Bf4iwBIKDc9sHABqjXjfw9Gfqvney6cKCl8NF/kaWFR5UT/u86Yhk4ODh4g5T6NfR71y/Qh+NHLAsBhv7WnP+U3j+5fEAfkeFeOrecPsRALgK24/xbpv4zQSDL++D4dVSDftr5T+n5o+zP5f4wA8C9fyn3f+zL5vp+AXk4jHI/II+I3n645jI/4K6j6vUHx3/nFzrEdXv+YfCPp/4T9AF/xOHyPwE9BABicPi3/0VoBXAFIBMCsQIgpXy5H+KCzh8iYJYASLDcUiVgXdCXvj77dwD6Ot4Rqx0Sb3/8n1645Rd9PuCIAfOo/HPkF7PfjKfv8WO4b+X4t+j8YwsgOH/u/WP633T+9YE/ATsfqQ2wxhp/wB4xhz73+6f1/K9J0/4T3L/h/JsqACwC9sj5px4/nD3FJAYgAOixUNqHCMDjcQbgzda0/xI9/8z5C/DL0BfQ88Fun88z4HPPH+ciAujI+vpY029FLv9X+v8iAqZ+GmAaAhSobuNgl14C+dT7/D2T29fgl2uBPo74uOwp4C2Bo4LMo/PvkF35sHYfpf7e8WP9/nLOH5WA0d4/2gCAPk/9ywyA3E9lf97YZ9jzZ/DD4Y/FkusH7MdiLgbqFYD2nn9BEAj8MfjX1POf7/xDJaDU8y8MASbnT71/uH1UAgTaxSM6fyn3A+669I/7qAAMyv4R8ulxXKMCoK6Lzh8zANQG4HL/wPFn8G8r+5ecPwQAO3+5l8TAlpz/WhUAADdz0AtXA/Azlorma7Wgj3sAvxH/8Y5XfJfBo8POvf6XwPVzuR/gt53/eNkfcwBc/s9gr3v+ck2wz87J/fMcwLDnPw59FgGY9k9xRhWAy/857Ndw/nHwL1/q17jbH1UAsjI/9/n5fImefwH4KPlzZBFQBP0EEcDAD+eY9rfcPhw/ImBPvf+s3w/Xb8CeJ/z5nEVAmvbP4L+M88+AD7fPMbp+Lvs3uf8Jzh8CYFYFgKEs50sf7ND5Zy15v9n5swA42XWv3B7nAz78L1IN2Wt4+Ivf7wyEZX1nLp63Hf9c59/PAzD84fgRgxiIJf4AewgARBIDqQWgp/4HS//q5X8u92vnL04e9/S5XPPB0Jf71nUvBizHP2wDWM6/L/+P7PSHob/o/AX4pZ3+TDHA8Efvn8r/xfX+Czh/OH7EqhiwnH/c8Q8OP4O/gN0SALjPEc4fIoDL/zzwBxGAWHP+J891dgWAnX+5/L+u8w8l/3V7/iODf4C/xFkzABrKprueURHQ33fda7wufB9cm/AX0OuyP8E/gP+OKAAQXQTsN0H3+NWHjXxoPb8WAbn75/J/eeAPzh+xyfUb0A+lfezrj/I/9/wZ/mmpX97fZ7evzwPQ4wY/reBnEYDzuusfwh5L/HRkEbCu82/q+aMKQMDHpD/HMOQXBwGzcxYBsaTPTl+fZ85/bMjPqgAYIkAgzxWADPpw+RACCvphBoDu7ZPzr7p/6vebS/usfj9gjzjS82f4zxYAJScuoF3nKH3fJe4H+KO8r+MI/DEHICIAh9yT81dPyDbDXgnYY5bu3UuXQT+r5I/Sfx8Z+uNl/5rjz5y/AB/Q13HE+acWQBzmC0IhnI+X/wXagD0iQN4SLacvX8f3c0FgVQDkXn8w9Pulfl/rbOe/UM8/Qd/u/RcdfxQJAeoo9yNWhABDH05fx6rzhxDgnr/a6x/QRwUA1yES4NM13ZNhP0z5I2ZCwKoA1Jz/HSvnP6gApIG/DTj/WPoP5X44f0Q19Z+1AbjcPxP+swUAHLWOAbIznP9SgMfrMV9HDfqNzh/w5xjEgQgBXya4dyDdtxcs/X5Z3sdun89z1w/oI447fxYBo+4f8CfoZ71/cv4AfRZRBVCT/drt8zWLAD5vFQRl2OueP65XwAf4ObIIWDn/AvBR8udIPX84f0Sz7J9EQP/pfez2+Txz+1wBqABfu/4A+1gdCMN+6zr/u+0P+smgD8ePSMBPrj/eW8H+sdVH+07s+2+i589L/cTt85EG/bjfj/M57p9FwETnj0rA2jMAGt5zKwD6+8y55q+R83Bo8PM1lfjh8jkK6OH0Gfrp/LZYEbit61778L/4YOC+EXWPXq+s7T925uKzDPze6aPXjzjN+XO5H05fx0wMWL1/EgHJ5UsLQA0A9oN/mP7nqf9y+d/q/TP85bzlYPjL8/l6bedvfrpfQQhMnfZP0DecP33Eb7ECwNBf0/kHIQBnPxYt5x9FQDP0uRUQHT+EgAgA+T4rIdC2xz9DPzj9w+r5M/jh+BFrzh9tAIb/rlQAqg4cQDYivm5uBOzx9bheqtefgE8tgFcI/uH8tk4+dlj2CdgjrPhL3YcMPPHEE1dY8IcYWNf5swjIYI9yv44EfO36g8vHB/vA5UvEsj/cm+j8Me3f6vYtUVCGPhw/4i47//gRv0b/n0VAVgVgERBdveX4cY/L/5Ogr0WBiADl/AH/Qf8fbr8C/fC1GPzjgT92/sagH0/6Z9CXCX8+Qqkfk/7lcj+v8YfjR2THj/Oq8xchsM7U/0znv1YFQAAL2NaiPNZytH6/2vMS9CEw2Onr8wbnb0IfAkDgbx23h62DfaOgfaDqnrzGmw8OTPgL9PMKwDTnf/xs3xIQ4GvHj+tMDExx/lT+T+AX4EchMIiGGBCAA/aIEAGAe7pvVAEY9trx43pt5x8/1hczADLFjzmAfu9/Wv7X6PyLLQABvlQDYmTYy73BNUMfzh/REAEM/VD+px3+cC3Q5vPaDIDAGpDXESAP97H0DwLAiuT+N+H8Bz1/EQVhMx8dVxv8CNwBfUQAX1lur5IAACAASURBVGJxnb9y/rWp/6znv7DzhwBYZBVASQQMoAw4Uyx97dh9FgP4OeFrNOxxPTLoJ8BHuR8xEwHs+EUIWAIgPuf1uz/lImBPALvLL1Oc//VqmR9cfw5/6fOj14843vOf5fwrvX8u/wfIow0A948IIWCAX6COg0UAoF+6x4/rcxYDOfTh+BG34Pyx2U/tg31Q9kcMpf6y80f/P3P9gD2iAX04fkQWAWs5f6kEFJx/VgGwYI8KAEEfgiHAf8z5VyoAXP6vO3+AfwX8XhDk1ywCGP44ZxFgVgGMvn/T9P+arh/wl7j4DACDWYA8dujnT7nm55rlfob/uq6/Bn2IgRNd94oct3U+D7DLZN2T12bBf+j8LfiPi4BDdf4B8vbkv9nzN5b8acjra4a+PMbXuQgQ6IsA4LgSAlfXpv5j7793+/N7/qbr5+19yfkz7E3nL8AH9HU0RABDH+5ex+D0x4YArZ6/mvo3Hb818GeIAHb+2dT/1Gl/6vkfpvPPpv632PNn+Mv5RisAcPECauvA41Mjvhe+LlwD9ogjjh/Dfuz8M8fP5f4a/HvgA/x9lHu3/I1XAfYEtLv4Mo+dvnAPu30+ZxGwrvM3y/1Wz3+q85c2ADb/gfMX8DfMALAI0GCfcl2GPhw/4gr4POWPcxYBs6f95zp/wH9Kz59FgAF9OH4dg+sfA73u8/O1IQLg+LMI52/Bn51/fB4G/TLwc9+flvfpfj9fDyoAg56/OP9x99/i/E3Hz+V/cv9BDEQRYJb9ufy/oPufXQEQ4AK+LfH1u35sVgKmfh9+foC+CAsA34rrun44+7EI589i4ETXvfqhj+8iW/w17XgGZJMfBj6fW/CXx1HOb41WBWCRnj8GAAF7DX8q8aPUL5GhH66lrz/D+UMgMPxRAVjP+a929luq5286/1T2z3v+cP6I+9Tz184f1yjtFyMG/lp3+iMhwLAPTh/OH1FAH3r9iFLeB/wRVyV/hv4me/7FFsBCU/9brwCIQIBISNCme3hMR4Y9HsPXp+sS9OX+EvBvdf4sAOL5398iVYB/lg8O8krAjgN3l17ebx08+Ut6kx8IAAv+qwpAe88fIoFFQAZ/VAB48M+Y/Ld6/nD48v0C4BscP4QAiwCAfJ3IIiCHPzt/lP+HVYBDc/4sAgznb4mAQdl/rvOfWwEwev4B9HD5VuRKgHb+gH+8jypAFrn8T/Bn14/zrOcP8A8qACvgb6znP2fqf2HXzyJg4zMADG0BN+A9N4bvZ4Ef0Ec0BMBouZ/L/lNcvyEAwizAifARwrvEF38tO56B42eeeR7A7529nvbH9bNxFQBP/5dFQG3qP4M/Q98o+zP0i0v+4pAfNv4JomCC80cFALFFBDDs4fgRc/hzr78C/0/2gmC12Y9dAWia9m/5dD+GPsr+iCQCBs6fy/1Wzx/3lCBIvX+a7EfvX8DN53JdOsS9A/Q6ouwf7rdM+8Pp68iDfwz9xoG/rAIw0flDCJQqADzoJ88ZlP6l1A/oF9b5m67fcvxrrPdn6PP5VmYAAHvL1eMxRH4OiwecF0v+Iz3/UfgL8GuOH4JAlfkBesTg/E90HUffKnjHqbsDL0/KRKVd/obOnwf/ytCH09cxAz7cPkcWAYbzx9p/uH2OGfRbp/2jOCiBfooQsKEPx4/IImDo/FPvX0RAWOonA36FIT/e2Q/nvORvyrQ/iwCCPhw/IouA4PxZBCjQ6z4/X7MICP3/CuhLAiBB36gAJHEAp4+IagCuo8sPm/wA/vFe5vjR92cRUHH+3AbIy/3o9SPWnT+LAIG8PlgEDAQA4D+3578B6LMAmFUBYEgD3JuKo+CvOH60AczhPrh9joB8KVacvggAgb51vHLLi94G2AHI7vJL0H1/hr5dCWhz/oC/QF/OOWZCgKE/0fn30L+Q1vknEUBzACjzI6ZyP8EfoNexJAz4vlUBmOX8B1P/azh/BX/0/BGz7X4F+HD8iCQCGPoiBBL4Bfhw+TpWxICAGy4fke/VgJ+gr6f8WQSQ48fzi71+gr4An3f7SwKAoV9x/lzyX8f5W44fvX+JDP25zr86/GdVADbQCthqBWBMJAD2eB6uTdc/wfGb6/oB/jHnP+L42flb8I/3fvr9996+y/zx13ZIGRBleO7cuTccMz7Zj0VA3+tf3/lDBGTwh/tnEVBx/gHw6O3HCOgjpqpAofQfIE/wZ5hDAPC9lnMWATn8pzn/fsgPrn/Lzt+A/9LOPwAfvX7EGe4/Ofzo6DPQyz04/NK5cv4Av8QEfrh+QB+x4vwB/vG+Pw/+DasALAK06wf0EYvOnyoAVeBj0h9xA7Bn54/znasAJOhj6WCt32/0+eH6q9Bn+JfcvtxfBv59O+CWF7vnb77ikDDjP3aXM3DszMWHue8/7vjH1/nXnH8mAhj6cP6IJAIE6AB/FuXjfFHqZ1FQAH+L82+BPZ7D0Jd7fN2LAC73o+ePuCr/88Afpvx1HPT7UfLHEj/0+hELFYB1nX+oAEx0/qncH6sCAuvk/CeIAIY+gI8YHL6eCYAIKMTg+HUFIF4HEWA5f0MEcLkfAiDEhXv+EALFCsDcnj+DH2V/xA2KgZ2oAAD6cP4h1sBfKftP6vWLECgJgBH4i7Ovlf3//oOxHSAxHv6JgbuM4cN5bbr0r+G/S86fRUBy+AH+K3Eg7j0cEAO4pphEgLHUb477H0Ifjh+RRcAK+uj169j3++c7fynxm2V+9Ph15PI/lf034fyT+58AfQF8dtB6/ybo13r+XAVYwPkD/pn7nzjtP9bzZxGwuPPfAvTh/iXuTAUAIiDEGvxHXP9izr/S7x+FP2YBCP4iAnwW4HAgu6s/Vcr/U6b+ezHQ1vvnXn/m+K1yPxw/Ijl/cfuZ40clQDv/AHiqBhDwA9TjNcMfsEeEq2+JDH04/97xA/qIbfBfTfv3AkHcflMFIA78iauXrwlxQ84/9f11rx/XU3v+E0RAzfmHCoDu+cPxo/yPaxWtCkDR+VfK/oMKwILOv9Tzz8r/E5x/89T/Bp0/RMChVgAA/WbnX4H/JOdvuX52/Cj/GyJgFP6G80cFQOL3bjzuA4G7SuQtvi75Jfi9P/rmB7j0X+75t5f8UfoH9BHX7flDBGjnn8r/AnhuBSgBoEWACAEG/boiYB34owKwcv4T3D/K/wr6WZlfO35cz3X+AvwG6Ivb50NAncr+2tU3XFsigO+hGpD1/uH+WQi0uH6U+REr8BfXD+ePGCoALAJCFaDe8x9z/lz233fnDwFw6BUAiABz0A+VgAr4mxx/rdTPYsAAPob8quV+dvxyrpx/upbH3v/cFjHjP2pXM3DtmUs/zxv+MPzzNgA7/nEhYDl/UwRYvX9y/gJzQD+LJedvAF9DH5AvRRYEpXPL+dsVAHb+Ug2wS/+W8++FgHySX0UI8FK/DTv/0al/BfoM+mv2/OVDfYLD594+T/sz4PU5QA/4Uyw6fwE+oK+jIQI27fy53A/HjxhEgOX8C+v9zW1+xeWj7I+4BecPAbDVCgBgD8ePaxP+Av11ev086FcTAOz8DQEw6vgb4f/yB1bC4Ps3/qpXAXaVzFt6XaXBv7znP2/qn0WA6fy5DUDQF9BbR+b6Y88/uf0C+AXy+giuXzn/Euhr91kE2M6fy/82+FkQrJz/CPR56I+c/9Z6/nOdv5T6J5T7s36/VAYMEQC3D3GAa9P9QwjE8n+Af+r3Fyb+AX8D+nD8iCwC1nX+UgUA9HU0XT+m/BFbPthHQM/HFoEP8CPOEgACbkB8agT08XVF+I+4/ibnz+7eOjeAz44f5yICqkfJ8cf7Af4kAF7+wOe3hBn/MbuYAd7ud5PO3xQClvM3ev+DCkBy/tznxyf6Ia6gn3r9UQgI0Hfd+Tf1/KMIyHr+hQpA1gawPt2PBv6kpA+nb0Zx8ij7I/I9VQVIU/9c9o8ioKUNwKV9QN78iN9S7z/CPgkCSwSo6f/DcP5c9gf8EeH0zTjB+e9Szx/gR5wlAADvsTiAfVzaF74O5X1EdvxLOX8L+rg3Av9R58+9fqPsD8efRREB4fi3f3rhll/cRTb5a9pwBqT0gx3/GP676vxR/u8dP+A/BL52+wH2gH/8sJ/g6teoAGzC+ffQl1J/pdyvnb9y/xno0d+34hI9f4a/gj6X/gPk4+MDR9/Q7w9fE50/VwBYGKRzDXu0Avi+Og+wR7lfxwbXj14/4jrOn0WAdv2Av+n+WQTMdf6HUPYH/CXOmgEYAz8e50pBJgYAfR1HXP/ag36N8G/u9zc6fxEB+vBPCtwwaXf024/3/g+n54/Sf5Pzx7CfVAWMUn8Gf8P5czWgVuqXxxj6+jov/6/f80cFwFzvb/X85zp/EQdjjp/L/YA+YgX8Neff1AYwyv2m8yfIhwoBA556/aECII/FI5T/F3b+QQTwwF/4sB8e+Bt+uh9DH44fEdAvRe79h819Cj3/XXb+EAEbqQBksMeGPqWP7mXnbwgAhn617C9wX6PXz+X+qgBg528IAO34Nfhffn8vBv7h1m/vKKL8ZW0yA8dOX7gHk/+26x8f9ONJfwz4IY72/I1yP+CPGNw+1vFnPX8Bfhn6WgykNoCx3n8M/Pw4i4Ac+uj1I473++H4t7rHP5f/qexviYBsqR+LgAr0N+X84fDRAsC1wJzvpTI/iQIAX+KbIQCiMCi6/8Wc/3J7/JvOX/r91PMX0Juw5z4/n/Pg3yH2/2dXANjZw+3rCBGQonb7uDagL6DnI4AdQ31WhLMvxZFBP4b/Or1+TPsPoK8rACIC3t91/zEMuEnW+PfesQzcfHBwhUz+y8Hl/37qfznnb4oBq/dPQ3/bcv4M9to5Q1+eZ13nYqBeAZASf4L/KZT7+1h1/ij/WxWA2tI/hj4cP2IEu9nrR2VAgA/Hj8j3lCBIzj/eDyX8CT1/lPkRE+xp+l/upftw/Az9CPjwPDweI0RAqACkAcA48Y+BPx1JEPCgHxw/Yir/D5b6TXf+aAEI4HUFIEEfjl/HWhuAoX/IZX+4f4mLVgAA+0wMAPQ6TnD+pgBgx7+G8x/t9WMA0HD7AL7EVucfKgBRAPxHG8BXA+wYpDf5cmTdP5b+2e6fRYCc1w9zyA8T/joS7OH0dWQREKoAPPg3wfmjEhAAH3v+oS1A7YAa/PEYQz+HPRw/x3H3zyLA7vlDGMhqAHWIAFBHGASMIsCcA2ARMNf5M/wV9IvOf+7EP/f8C0v9snI/A5/P4fgpFl0/+v8EewG7dbAISNAP5X44fsThvv4o+XMUwHPZH/AH+IvuPzr+fXb+EAGzZgBqFQCIgBA19HGtHD67fZyb0Nfuv+T4cX/dQb8J8G91/UkAvC/sDLhJ3vj33rEMHDtz8Vku/89z/r0oYPjD8SNmbYCpzh+l/wR/2uCnIgK43D8H9hb05R6LAFznYmC68+/L/6ud/gawZ/hH5x9g39Lzx/CfAB+OH3FLzj8MAPL0f8PQX3L25PjR+5/t/Kn8z73/IAYE8trx45oEAEMfjh8xFwHr9fwB/zHnH6C/rvM/ahUAQB/Ov7i0TwTACPwF/PKcogBg5w/Qc+Ryv9wviIBR5z+j1y8T/gMhEHv+CfzR/Yfr93U/ev53f23HMOUvZxMZkKV/DP+8AlB3+roSwPDPYK9dP65H3P/A+bMIqEAfTl/HAPM1nD+LgRz27Pj5vO7+x52/cvssAOTccP6m4wf8EQ3Xj74/yv/Fnv9c5z/X/WO9f3T+LAjSOXr/KO9b5X9y/ZgNCPAfK/sT9LX7ZxGQQx+OH7Hd+QP4Vpzi/Jt6/1z+P+SeP5w/4mIVAIgAE/6Nzr8IfTh/Bn3tvAB9iIFqnx9L+hArpf8B7LUAYNhb5+/rOl8NsAnc7t73xPDfqvcv0MfAH2JZCBw/u5vOH/AXaO+n8y+U/aPzD/Cf5PzPD53//edDPx/QNyP39xn+fE4tAKvnP8n5c7n/3sdXvX2qAMD5h6jhDxFQiJvs+ecVAMv5iyDIxYCAHuV+RIZ/0fnzwB8G/1ABmNrz3yHnDwGw1gwAoL+O8x91/Az/hXr95pQ/O/4K/K1ef9H5W9DHvfd13cvSBvjgd3ePVv6KFs/AsdMXf7CCP+/wNw5/VABYBOyq89ciANdw9S1xCdefD/wJ5AF6xBHXX3D+IghG3b/0/ue4fxYBBHvd68c1i4CmJX66FcAiAD1/xCgKkvvnHn+L84+OH6sBQrkf/X6j1K9df4D8yXNpj/+lnL8FfwiBovMH+Kn3n+3kxxP+fL7Dzh8CYHYFAPAfdfyVsv8k+K/h+Cc5/xHHj4E/0/0L3KUKAMiXYoS/CAA5vveuX14cOP4NdycD/JG/PcwBfcTDdf4yDBiW94Ulf209/+T8sdkPVQDClr+y9G/CYfX65euHYmCk5x/3/F+V/Ve9/nzavyAEGpy/KQJ44I96/hACUupvdv4F1x8cfhQGCf7U60cFIKwA0LDX15X1/pnzB+wRC44foEfkCkAGf6v3T+V/LvdnIuCOKAbSev8NO3/e5AeOH7Hm/CEAGP476PwhAOZXAFDWL8Ulp/zH4C+PF8r+i/b6Me2vS/2APqIFfoG93Gf4v7/rXnpv99Pvv/f23aGVv5JFMyDLPOrl/zL84fwRm3v/h9Dz105fX7eIARYBQ/BP6PmTCNi68zfgb4mArPc/0flzBWCW84cYEBGgHD/W9yOi/J+JAhYBcs6H2uRHHssEQKP7B/yD85dJ/w1N+4v7Lzp/FgFT3b+GPoTBLsUTj3RXnnz03VPe8LpXP/ye/kN6SuCvOH4MAI72+rnsPwb/AvjNMj+m+jlWHD+W+YWyvwV93LOAz/cK8IcY8E8InPIruH/PxfT/vJ5/ufeftQFmTPsH558G/sj5oxJQ2OUvwN1y/lwFaHT/DH04fsRcBIw4f2OdPxw/Yj/tP9/5h5UApRZAYerfgn+oBDD02fHzObUBkuNHBaDg/EerAJbzp3J/Bnq4fokM/dI1lf0Hg3+LOX+IAasCsOr7b73nD7Bbzl+LgcMcBOTXctuSAmCC419syn8d+HPP3xABWa8/Ov+s7C+Ah+NHZOjj3II/VQFeem/Xvfx//Wv3/M1X7B/Z/BWPZuCJJ54Im/8Ml/y1O3+pAGSwx3S/jiwCjCpAcdo/AB87/CGuPtgH5X4dBdRw+ogtTt96Tg57dvt8PmfavwB8PemPnj9ibZMfTPlznNP3ZxFAsIfD15FFQHL+c6b+2fnT1L/Af7bzB/xVBSBz/1Tqb+r5F53/cMhPD/2h14+IPj9HHvwzqwDk+jHtj1idAWDAA7gQCIcdWaCceKS76hPnrxp9E6MnyNS6XQEYWd5Xhf4Ux18p96MN0DTlb0Afjr/a54frr0Gf4U+wh+NHDPCPj3/vxuOUZj89KhlA/3967/9S2AiIy/6mEGDoiyBQ4Gfow/Ej9pv9lJy/LQRa1vu3iIHFnD+V+/PBv1Xvf9UGMAb/5vb8Af+C8y/2/MXhw+XraIgAhj7cvY6h5z8mBCrOH22AqvuvVQCoBQDgp9L/iPOHEBj0/gc9//nOn0UAQ98s/3PZf4mePwsAFgaHca5fy22PdFcfPHnllPfa7rW7D7owAIgWwATnb5b+BeiY7ke0yv7i9ivwX7fXD/hnzp9hj3N2/gA9R3b8cr8gAAB/ieHcPyJ4yu/h3jxXPvmvL/2PD/yh14/I8K9WAFgEKAHAgiAAHyV/jqGcbwNfu/4Adyr/s5tvAT8/H+fj7r/u/AX8gP8K9lty/pWeP5f/s54/iwAD+tr54zq4foAeEf38lsgigJx/5vpR9gfwcY2yP8EevX9Af1D2x9T/iPNnEVDv+bet9+fyPzt+nLMIaHX+VccPV89Q53sGeJu+H77HEpGdP17PiUe66x546lda30xlnql7/e5PrSoAS7j+GvQhBCqlfvT6Eavuf13Xz6CvnRegDzEA6Kf4+74csPWXcN+et+r/S8m/XQQw/Jd2/qECIBBHrx+R70XIQwAk58/wV5v9AOgt0aoA5EJgpOdP0Af8+8jO/2sddv0b7PbX4PwX7fkz9Bd0/qgGhCpARQRwed8EPoE+PA4BUIsQA1bZf8T5Dxw/LfkLA4Bp2n++8wfwJTL0cZ3Bf0nnD8CORRYMmzofeQ1T30+7lz/w+S6s+x+B/+gSP3b+AD1HdvxyX4kAdvxV+I/0+jPnH11+cV1/rezPzt8QAMHlvy+6/RiTAJAqwO/7csCpv4z78Pz+g3+m9fu5ArCO8+fyv+n+A8zXd/4twLeewyIghz/6/iwChlWAq0kE7KrzDwN/gD9io+vn8v9aPf8oDIIIIOfPoiAr/2voF9w/O/5U8ofrx7Q/YqUKkLn+Nfr+AnYu97MAAPQRM/hbm/20LPUTuAKwADiup0R8n6Wj5frj63rjiUd+/KaPPPrS1PfQ7u/f/1zTdr5muR+9/gVcfxX6mPIfgT+X+7MBP5T7EWtuH48Z0IfjR8yAH0v/uPfy+7qfvHDD+6b+//Dn73AGpL/WD/9tz/mj5M/wR8+/d/4XDOdfFgHJ+RsDf3NK/gx9EQVD8DP0RQgMwZ87/v5xcfhWBaDJ+U/a6c/e45/L/YA+4pSeP5f74e51TGKg4vhREWDIw/mP9vwB/EoM8J/h/LncH5z+ms5fgA/o6wjYl2IQAQ3O3xz8q8A1iYJWEQDxsFRs/Lm/cfLRL0/9NLruH+94pZ8BUBWAUccP+E9x/sr1A/qIo+X+dXb0E7DXHD+DX84LAiBz/gr6Af6/31cFpALwss8B7DDOp780Wf8PNz8lVl0/Bv0QZ/X8Bfhl6KPsj8giwHLyU4XAEPpw/IgsAmwBABHQO3/p9x/Nnj/gPwX6gD+idv4QApnrRwsA7l/DH+V+ilwBkPN0cPl/xPlDBGRVgPCxvuj3t038A/4Ce31w+X9x5w/YrisI5PssdTS+ljfe+uenpryr/e//+YH/3Pf/Ffyb1/dzid86N4AvsNdHFfwV6Fvl/rWcfwH6EANw96NRRMC7fA5gyi/jPjz3+jMXz68+/rfeBth8z3+m86eeP0CvoyUK9L11nX8q91PZXzt+XA9cP5b2UQz9/YLzt3f6m+n8uew/pfc/d50/l/v1Hv9W+V/v8a+FQBQEmeNfw/kXKwATe/5znH8G/7nOH5BuhGzYcQ8iYSwuUQEY+xn0+ORdAF9651sGAmDU+Y85fggBA/QMfu75mwKAy/2GCOByv17ml/X8x5y/QL/i+Bn+L2PCf8T5i/uPxz+9cMsv7gPb/DU2ZKDf/78Ofq4MsAgwqwBLTPvzwJ8a9IPjR0zOPw77AeoQALhujSwC7CpAm/Mfun9jeZ/AXh88+Dd1nT+m/RGNvf556d9g6r+x748WwGLOX4kAbgmkzX0K0MeUP57Hjn+dnr8lAkIFwHT+4xUA7fhxvTHnLxAFSCEEcL1ExPefGvFaWuLEFQDydtfvAkjuf5vwN6GPXr8BfLh9jkEEoK9vRZT1S3EC/KuufwV8gL+P7+1+8r/+200NaPGn7HoG8o//LYsAhr6IARP8KPfrSOX/xXv+FeffCnx5HkNfX+cigOE/7P2nCkDa8a+x5w8REOG/Decfev8CfO34cW2IgTTwZzn/CUv+GPAo9aPnH67J8eM6tAJQ+rciNvlR5f9Q8udyPwb+EKn8X5z6X9j5W/CXe8n976Lz16JhaiVAf33DtQwATu7/yxJAhn51c58x5y+OX56zpPM3lvllzr8EffT6ES0BMAJ/Ab64/yr4pRJQgn+873MAu4728dcX9v9/6MJN7O5r5ywCigIA8CfoY+APkUVANvUf+v0zev7i/Bdw/ywCcuij549Y7vcH10/l/0k9fxYBIgTiIWKg6eDNfqY4fxYBBvTZ7fO5gHmdnr8AH/BnQRBAD7dvRYY/wT4JBBICqd8P2CMS9OH0dcz6/TL1v7DzZxGQwI9Jf3yyH+KUaX84cgC6AbSTWgD8/fCzxmKL2+fvG1+7DACOv5Plz0grAEQEVA+U9UtxAvyrzt8APjv+cG5BX9+zgM/3Gnr9S8D/7975b/7xwPnv3N5eHTtz8eHV9r/DCgBD33T+XO4H/BFJBDD026f9h2KAy/0o8ZdiSwWAoW87f8vxD52/gB8l/zyOVAC43I9ev461NgBD3yj7c7kf0/5ZZPhXnD/Ab1UApogABj3gb0aqACSwixhg+ONaAV+en9oAjc4f8B9UAGY6/9m9/wnOf+NT/xrIpWsIDSuWvqbx/uQPAXr+5iu61z/6L2EJoAl/dvy1ZX4j8B/t9aPsPwL/Sc6fYY9zdvxyT4kAdvxV+Iuzb3D+MgQox9+9899k2HJvwecvvM/A8c88852a6wf0EU3nzyKAoA/Hr2Pm+kOvnwb/Rvr9AfYo+xvOvwX6+jksAmznzyKg7v4T/MO0f+PEP4uAbTr/BuAD/BxZBIQqQMMyv+x50flr8AfQR6iHxwB7XQXAfRUT9MXl88EioNH5iyBIFQAWAaEKwB/ws/pgH0CfI1y+FU3XD8ePONf5C2BxzHHfjYBOMwb4WTqu87NPPNJJi3LKe3X3+l3X1V1/DfqoBKxb7p8AfxEA1QOgr0UFfUsEVEv+Y/AX6MtzIvxDfG/XvXjD1VP+3/hzdywDNx8chA8AsgSA5fxNEcDwX8z5ywf85O5/+86fy/1w/IgrETDs+aMSIMN9EACI5YG/6T3/2BbgCgCV/WvOf0rPH+Bn6Mu9AHTEFgFA5f4E/jjtn65lEFA7f3L5g0qAdv7x+s0pfqELzh5lf0RDBFjOP4iABH+GPgb+EIciQIAvQoCjnPPAH66DELCcf2GP/2bnvw585wgAXQGY+z3i173po3/53NS3zLAF8KjzB+g5suOX+wURMOr8ecrfcP+W48+m+yEIBPhyXgI/O39DAGTO35rux7058O+FwE+//97bp85nTP3/6c/fYAbkA4As+OMeiwDT+QvwDehrx4/rdZ2/uP+sAtD4Ub7a8eN63PmzCFhBWyfu8wAAIABJREFUH+V+HQX4/Za+AvwK9NHrRyTXj6V9iNXev3yyn1H2lxJ/VuYXp28dE/r9Afrx+QH+LdDXz1EiAOBPzl87fX0tjr9wFN1/Bfoo+yOyCAjuP7h97v2zCBhCn50/4C+Q10er8xfQm7DXLhvXAL6+xv1txQjwrDow42dPXf4nb5XdP9z67WEFgEFfOy9AH2Kg2ufHhD+iAX/0/auOvwZ9iAED+Nr1V8v9DH8RAKWDHb8+f2/X/e01T2wQT/6tN52B1QZAqx0AGfpw/Dom6AP+OlIbYND7F2c/KPvD7SOuPuJ3ivPHLAAAb0WGvjxuXfdtAAE+HD/iUAQE6J/qgd+X/1fOf3VtOP8I/8z5o/e/Lz3/lgqAgr7APpv2J8gHQYCyfs354zHu9d/5hU6+dyr9c9kfIgCRKgAM/dzxt+3tb0Ef8EdkATCoABwV578Q9CEaZAvgg4ODn5vyHhg2ABq4fwF+rezPzt8QAOz4RQgMRAA7/gr8R53/mONvhP+o82fHb/X8BfTyHI4a/jID8Htd9/+9+x+m/P/x5+5QBsIKgDMXH4bb58giIMAeTl9HAj1cvhVZBOTwHwIfLr8U07S/mvq3YF+6x9DvIQ+nr+MQ+Nr195Dvn9e7/gnOX0SA4f6rrh+OH5HK/rvu/EvgD6Iglv9DNYBFAMEe7l9K/HIO14/zBH8BvQF7OH0dWQQk559N/S/j/LOSv/T4cbAI2Kee/wxXD8CPxVnT/69++D25+6+5fXnMAL6+NwA++vscK25fXD/D33T/C8K/2uu3gG+5fwP43P8X+MdrHwTcIahPfSmyARBWADD0TccP+Fs9f1QASBAw9EUUhJ6+dv5ps5+yEEgVAGOPfwE8u34+1/Bn6Mtj1nUvBuY7f3yiX9X588AfHD9izfkL8AF9HWN5X5f9s+sFpv0n9f4t5682+4HjRwzwR0UAIoAjnQf4qwpAgj7gj0iOH/Bn6MP5IyYRMBj4W6bnnwkBhv8+9vwXdv4QBm/72BPHp/aX8+V/LfCviAB2/qYIYOdvCACGfhIB6O9zHIP/SK8fpX92/qYIYOdfgj6cvyEAAH2Ocv69G49P5Y4/fwcycO7cuTew669CH/BHZBFA0Nfun0XA0PmXoa/dP4sAgJ1hz+d43IoM/R722vHjesPOn0VAC/QBf0TD9cP9A/qL9/xbyv2Fnr9e78+gH8AfkDecPyoAqBIMHP/izh/9//F+v1XuR+mfy/7J9cP907T/3vb8F6wEzP70v++965dXS/9a4F9x/ybw2fHj3AA/+vyAvun4IQBQ1i/FCfA3od/a64cgMMCvnb9AH8fLv9/99Pnr7tsBnPlLmJoBDADWnD9EQdYGYPhv0PlDBAjIAXgdLcjrewx9ecy6zsVAvQLQ3vMvtAIY/i3Onwf9lnT+hSWAadqfB/4Af0QNer6Ozp+hr0v/Afrk9DMRAAHAUc7jNUNfhEC6XqPnvwnnb8E/c/5RAIjjFVGQxVobwIKtdW9DzhwOfWPxxCOduP+p72fdqx/6eC8ASvAf6fWj9D8K/xnOPxMB7PhrA38j8B91/K3wF+g3On+An+PfXvPEE088ccXU/1/+/EPOwGoAsN/W14Q9HL+OFdcfyv2nL3SI6zj/AHz0+hHj5D/EgAa+dc3Qz2EPx89x3P2zCOj7/uUhv8E+/3P6/iwCDPfPS/6Kzr8AfCzz48giQOA8+WARUFvqRyKAqwKAfXL8BH/cS+CH66+U+1H2R+Tyfyr3Zz3/ZZy/BfysAkBT/rOm/QH+fYW9et1z3b+0CrpXbnmx37LXEgBLwn9d11+DPioBI1P+i8J/outn+Itw8EHAQyb5zB8vOwC+47PPhWV8gL+Oazl/iIA09f90nP4frvEXmOPgcj8gjyhw53ML9voew18e4+tcDEx3/uj1I/awX8j5c7nfcP4o+TP8Uf4PsdTzLwgBhj56/To2CQGr968+3S+DvRYB7PzRBsDAH/X8RQgEETDX+Z88F/YICNv7Av4h8sDf9J7/qPNfsucvAFUQ3ffrWe4/fPrfHYVp/xH4r9vrR8k/6/mjxM+RnT9Az5Edv9wviIBR+Iubrw37jTh+lPwF9HLOwM/Ob0qP+SDgTAgf5pcdP/PM8wJ8QD+DvXb8uJ7q/GXID4N/amMfAL8WA8yj858KfhYCOejZ7eOc4V+uAGzd+bMIMJw/i4DFnX9Lub9UHRARoJw/oB/K/YA+AI9rhr+c44jPM10/nD+iMfBXdP4CfMA/W/O/Xs+fRUDm+NH3ZxFQK/cD8Ijs+I8Y+OWzCOZs/CPvoWH4z1zqV+nzm0v60NvXcV3Xz6CvnRegDzEQwI7SvhXH4D+z15+BX2YABP50+I6Ah4nyeT+71vvPxMDUnj9DH1P+OpLj1wJAwA3YIzLM+XF9X67Z4Zeuc0HA8BdBkAsAhj6cvj3tv7Tzt6f+i44/CoRQyofLR+RqQOzto+Tf7PzHBEGD8w/wB+Qt6LMgiPDPlvxxzx+lf6sCQCKAy/3o9euYi4B6BUDgjoE/RABfogBfx0wERPiLU5f7IdZEAKB/GcTrHnjqV6a+m3XB/Z8k98+O35jyZ8dfFQEjvf7M+Uenv/Ed/axP8WPoL+T8B8Cnwb8A/lwE+I6AU39rD/H50i+TP7TtO/8JU/8kAhj4JUFgCQHAP4c9HL+OOfRrImDV8y8AH7v7ceTBvylT/9L7rzh/lPwH7r8CfICfI4sAOW8q9Vvu33D+A8evwW9A33b+seQP8HMk4MPtc2QRkGBvOv9yyV9gj4NFAMMf5xnw4foRY98fE/9NvX8N/6Pm/m97pHvjrX9+as7bYu/+dd9/Xec/An8u92cDflzyl/Oa28djI65/sR39RCgU+v0C/Gq5HwKAXD8qAC+9q/vpd3/7C3P+3/nXHFIGjtFHAHMlYF3nn6/3p54/KgA1549tfhn+avCvBHq+X6sA5GJgxPkPPt2v9Kl+BSHA0K9M+w+2/OWBP6P3X6wAMPTh/BGV6xf4M/TD9b2Pd4iZCBgTBBXnD8evI9oBIaIiwDG6f/T55XmD8v9U5089f1QAkhgYrPdfwd6C/lacvy77axFwhK7f9JFHX/rQQ3/6C5PX/Yv7Tzv/sfM3BAA7/+qk/wT4w/EjBjEgYG+BP/f8DRHAvf6X55T7ude/DvzR6zfgDxHwyge/e0go8x87NQPyR4YVABnw0efnuEjPf4LzJxEAqE91/XD+iDn0D8H5ixCIR9j2N1YAqrv9Bedfdv8sAjL3zyLAgD67fi0CMuhb7r52Tzl/y/VDBBThT9CHMBDoQwQMBEBDzx9VgAB69PtN589l/yH8LREAt8+x6vylAqDcfxjYA+hrUWB/hIDPg4oy+X/1wZNXTn0fk+ev3L8BfCzr41gFv/T9G3r9Gey148c13H0pGsBHn7/J8UMQoKdfigXHj0pAtdSPMj9iSQD89677u//+ozn///xrDikD15+5eH5x5596/yvn31cEMOFvCwFr6l/uCcBb4F9z/LYIWMb5Yw5gsMxvrvPngb9Dcv6pAsDVgBr4rZ39UOKXPf+tT/djp6/L/7hWU/8Z/Jd0/kEMMPyHLQABPBw/ooa+XAv8ETMhwAN/LT1/CIEjCnwtZGaX/uVjf1+TyX+jz6+hv06vn8v9enOfTAyMOf8Rxw8BEJx/BPwmnD+X+6tl/zHnL+CX5wQB0HXfe9cvHxLO/MdOzcDxzzzznar758E/owow2OEP8A+lfoAeEQKgHFthL89rOVgU2BUAFgHD/j9/xO9We/4sAiq9/0EFYAnnP1bqLwkBY9p/UAEA9CEOcM2un86bnH9DBWDc+Q+BD7fPkUUAwx/nRfgX+v48+FetArDzF2FwhERBWPM/4+N+5b2ue/7mK7p/vOOVJviv6/oB/Qz2cPqIJaeP+xPgX530Lzl9vj/i+qvQr/T6Ue5P0Cf4iwjwLYGnYvjwnn/92Us/GgwBMvSlDaDAz9DHJj9tPX9bCFjOH44fcSrs5fll+DP0jWn/Qc+/Fwbi8DH9vxIDxsY/Dc5/0O8H8LXjx7X08DHdb8RQ/mf4z+z5L+X8NfgnVwC0CODe/4jz53J/6PHXev4Nzh8CgOHPFQCGvjwnc/0o91Nk6FcH/44Q5LnUr8WL9P2nftof3jG71+/+VPhUPnb6+ny05z+j158N/LHjFyEA2Os4An/u9ZvwF7jXpvsBf+75GyKAnb9Z+mfHXyv7K+cfKwCyEgD/fzzucAZ+6+DJXyq6fxYBSgBk0GfHD9cforh8G/gCdX2wCLBg3yoEytC3ev5D+FtT/z3sZcCvMOTHU/44ZxEwZdofQqDi+osT/xXo654/rtMAoLj6uc5flf/R289EAJy+5fyp3I+pf5T6i31/FgFyXjjE+UME5IN+4vj5KPf7AXtEuH2OLAIGAgDwp74/i4Bm53/EBIE4fznkfWjq22TY8U/2/H/1xI+rn+S3hOuvOv4pzr/S7x+F/7Z6/VOcfyz5o/Qv8cUbZfDx81P/f/rzDyED8hkAx8/22/8GIcDQn+L8005/q55/v+lPBH0SBDn4GfoAvI6WGCjdY/ijApCX/XfH+ZsVAIE+HD8iCQGrAlB0/oYYSLCPQ4ECaDh+RL4n57VDQC+PFyNBPzwP14UYyv3Y4Q8Ru/yhzK+jAX6GPuAfogAfg38Nzt9y/CwCGPrrOP9iFUAD/wiW/jH0N3XqX94uV5v+qMG/UcePzX1aBv3wEb4APUd2/trtyzU7flyTCGDoVwf+pjh/w/HzoF+17M/OX871wY5fHlMC4MXfDff+/W/+69fn/P88BARevj8yrAB46MJNgwoAi4Apzh+VgODul3P+JdiX7rMIyOGPCgCLgL60r11/X+Znx79t5z9z6r9h2h/OPwAfjh9xBPiWGGD4m86/5PgN1w+3r6sAqAaE2Oj8Af4AfIE9wJ+5/vG+P4sAdvw4ZxFQdP5UAWh2/gx7PteiYI+vrzz56LvnvgN3r374PWbff0n4Z2V+Bj/OLejrewR8DPdxNEv9cPso9yOixM9xpNzP8DfL/XD8tVI/CwEFfUsE+GcCzP213u7XXX/20qeLzn9KBWDBPf7nVAAY+nOcPwSAlPgB/z6uev64Hkz6S8mfy/1Y54/YUv5f0vnzHIASBKkCsAXnD8ePCHEQoqoA7JrzF5cPp68jnH4pBhHQMO1fdP1HFPZ6BuCNJx75w7nvdt33b/zVVemfJv9H4T+j12+W/wXyIgI07HHNzt8QAJnzZ9jr8zHnPwL/0V4/4C+ArwkAdv6GAIjOv5MYj7n/b/3rtpgB+RCgVAEYcf4YBOQBwFDmT85fXP/RcP4QAbvW8zd7/wry7PCtcxYBa/f8jan/DPRw+agC8LWIAOMIYoDL/lLybyj7i+OH60esu/96z59FANw+x406fxEBLAT4fI8dv/ybpOe/jvOXD5tJn/YH4FeX9jWW+7Huf23XbwCfHT/Om5w/O319Xin1w/VXy/0Mf3b4+twAvnb9ofe/gn8QAb4UcIskn/mjjp25+GxYATACf4Z+NgA41/nTJj/a8eO6VOLn+0s5fwE+oA+nr6MpBiznrxw/ev2I2aY/c51/XBEQAI9eP2JFEIgbD6V/ilNEgMA9OHqOLALufMxe7w/wK+cfBIDq9cvPCMDX0Me10fO34B9EwMSeP0NfO3+5ZujrCkCr86+2ADTcAX59f0+vBf5zPuGP3966125/PA39QQBwlPN0sOOvbO4j0NdL/DLnP+b42flXBMCo82fHb5X92fHLcwsiYNT5jzl+iIDpzh8VgM4/FIh/bXfvXGYA5FMAg7M3yv1w/Bwzx8/OvzDkJzDXRxr8U1v7TgF/SQSs0/OHAOhBv+WevzHwh33/efAvDPwx/CuwL7l/AfgU6Ifn02xAEAEMfXL3QRyQCBhUA1gIRPcPx4/+f4L/ROfPImDg/LP+vzj/tt4/O36cswgI0Jf+Ph9c/q99sA9cvhU14CEE9jXKp/t95NGXMPA3991Qlpcl+De5/gr02fED/qb7XxD+a7v+CvQhBpr6/LVyP8O/4v6p3L+C/qoK8JMXbnjf3P/P/nVbyoDsATCYAaDBv206f4b62Lnl/OVrhgKAB/6GS/54kx/t+HHd9/wLgiBWAMK2voWe/1LOP5T/Bfhw+jpWxACX/VEBmCQCxvb4JxGQQb/g+DPnryoAg3I/nD+iUQEQ4KPsvwnnb8EfFYBW53859/x/4+SjX567zh9vhZ3s9oclf0XHD/fPzt+Y9M8c/1JT/o3O3xQB7PzlXB/s/A3Xz46/WvYfc/7rOP4V/GUp4E+fv+4+XwmA394djDcfHFyR4E/QZ8fP5wP3z+V/w+lr549rqQCEg7b3neP+WQQMwQ/YI5an/QX0ufs3NvbB2n4rigigIyvxY02/Fbn8T0v9mpw/4F+Bvq4ABOCvMe3/VrXHP4MebYF0D+CH40eMrl+eB+fPMXP/E6b9Af+B888m/tdz/iwCMscP97+u89euf8+vscZ/nWE/vG3+6Pnf/bXulVv+Obj/VN4H7K1oQB+OH9F0+5jurw34cblfzivgl8dM4POwn4Z96doAP1x/FfpTev0iECqu3+r1DyoBN3bdizf4XgD45d3VKB8DnA0AGiJgUAFI0L/QBUEwsuSPy/2AvI5jbp8fZ+iz4+fzXgzUnT9DH/Dv47Sp/8z5FyoAmSBg6Btlfy73Y+APcZbzp17/HOcvoAbcU7TK/6WyP4QAR7W3Pw8ChjI+nL6OG3T+td4/nL4ZGfqFvf3h/BHDcB/K/nsOeb2jH1+L65+zwY9+vwwT/2Gr3xPU27egL/emOH+GPc653F8TAQL9Cvy5118VACXY4/4E52+W/tnx18r+yzn/sBHQizd2sheA/n/p1zuUgbAJkAF9dv1yvq7zZxEA5w+oQwzguiWyCLCdP6/3b3P+/Yf5FMr8luvH0j818JfB3nL9gD7iFOc/s/cv4E7wp16+3G86jPI/nH4QBRb8FfDD88n9Z9AX0PMxw/lnFQAe/Eu9/vGeP4b+4PR1NF0/1vcjzun5QwQcBVEQe/0y6Cfl33VLwP/0wi2/2E/8x41+qu5/Cddfgz47/4rrXxT+67r+GvQn9Pqbnb+4/xu77qXf6/79u1f/PzuEO38pOgPHeBMgJQSmO397+V+Cv1HunwJ/hj7cPmIuAuY7f0z5oxLQvN5fiQC7539+uMMfiYDFnX9sDWTw5/I/n1tCwIC+tAC4IgARYEYWAFT+53L/aujvsZUAYPijAjDL+WOL3/ayPwQAoun4Ue5HjBWAMNk/UgEYdf4QAnsaQ8n/1j8/tW6vH+9T/XK/D343bPZTBP+I4+dyv5yH3j/cPkd2/gA9R3b8cr8gAEbhL87emu5vdPwo+XPPf9T5A/Qc2fHL/ULZX8r7VfgL8KX3H8HP0TcDwq/ybsZrTj31B7UZgLrzt4EvUNdHcP1q4r/F6evnsAjIoQ/Hjzju+lH2X038T3D/1O8H7BGrFQAu/2/D+ZMIaHL6WggYIgCwD85fD/5Z0Af80fPHdawGZM4fVQAD+KE1oO7z4F/o/c90/gJ6hn6z82cRMNf5A/b7Ot0fX7d8jO+HHvrTX1jqna53/gL/1rJ/xf2v3euHEChAH2KgWuqvQR/wR1zX9TPoa+cF6EMMDHr7PORXgH4SADeEOYB1K0BL/T759zEycOz0hXu0AJjm/IciIDn+KAQE4nD6pahBz9cMfblvXedigCsAQyEgwAf8V06/h//qujwEOL3nbzh/gn/N+Ren/gXshSHA2rR/UxvAgL7p/K2yP+CuI0r/Ru8/CYDFnD87fpT9EXvQC+xxMPxZBEi536wAWD1/OH/EmhgA8Dny+Z4JAfT5lyj34y1qVfa/rdLzH3H+2ZR/dPrZun64f4G7nAPyOrLzNwQAO35z4I8df00EjPT62fmbjn+hQT92/KbzZ8dfEwEiAG7s5P8l/r963LEMhG2AVekfPX/EUAXgwT/D4WvHj+vM+a9RAWDo57CH40ccAl+grg8WASj7m+V+q/ev3H+b8ycRQPAfnfbnnn8B+HrSP0B+Iecfpv4bP+gHy/pChYArAYA/KgDWDn+H5PxZBGjXD/ibfX8WATXYo6evI4CP+7jegyhlflnPL5P9f/Inf/J/LP2W1smn+71yy4urjXysYb8J8K+6fw17fW0AH26f49rOfwT+o+X+VvhXSv3Nrr8GfbQBevcvKwFk9cbSvyP+/RbKQNgGWATA2X7QD9APkaGPTX4Q5bGCEEgVAMP5czWAXb51ztDXzt8WAQJ6EQJD4PfOvr+/gr+4/HbnL6AXkZBVAFTv3yz/c9m/sedfdf4R7hr8lvOH40dsaQMIwFHe1xFwD/cBeXH72vHjugD/Ve8/foQvev2IqtSPAb8s3hHX/XPZP2z2Y1UAVo6foQ/Hjwjol2IQA5dpzz9A/9Y/P7XuRj61t6407V/s98+c8s+cv0C+5vghAqY4f17Sh3N2/ijtc2Toy/1C2X8U/gL11kG/igBg52+W/tn5A/Qce8cflv+FNkASAVfX/p/7Y4eYAXwOwKDsP9jhT4Bfhr4WAywCQhWAxMBcEWBDn51/Gf4QBSv4C/gn9PxRCYjuP4iACH8T+gL6AHvEr3Rw+xy5/B9K+nD8iJVSvxYAAfLrOv84A8AiIMAdkIc4YPhb5wB/fAyDfxn44foBfUQD/uj/j/f8efBvCH3AH9Fy/Rr+xQqACIF4VLf2hcuXqB2+dU8/5xCu4fJ/8+4v/Zns2b9kb7/0dtd/st8t/zzu/Ed6/RnsUebXEZAvxRHnP+r4a6V+LQIK4G9e198K/0q/3wS+7vdPc/4YCvzJ//pvN5X+n/v9Q87A9Wcunh/Af6bzhwhgwMs9y93X7tWcv3zdUAiw8x+KAIZ+XwkoOf+CIIjOP6sANDl/gv8Szr/QAkjOn+APx49Ydf6x5z9a7icRkIkCCIA7Hwtbvb7po3/53Fvu/KuvvvXeLz4uh0DkLR/9y9O/8ZH/+9TbP/HVUxJx6Gvc3+Uow27y+jjK+d4fJx75Q1m6t8S6/Slva2HSX/b2lx3+TOc/odyPKX+z7D/m/EccP0r+DP+X4fY5CuBrAoCdvwF/dvxVETDm/HnKfx34T3H+yfX3GwG9eEPn2wFP+WvY4nMPDg5+VgRAVvZf0/lbImCOIGARMAQ+XD+iXfKH69fl/5XzLwAfbp+j6vu3VwC27Pxlad/Y8j496S/XLALUUj+U+7kdIOVggbyAXRyiLgv75O8W/5AX+lH4f4a40Letfpu4u19Dv7/i+gH9qvMvOX3cnwF/FgLpnN196dyAvi7/h5I++vpWFPjXjiXhz2V+63wI/b4NcEPXvfCOTj67ofpL4A8eXgbkkwBFAGQiIFUAnp620x+V+dn58/lhO39UABBb9vif7vy/MlzvT4N/XPYPvf74WCjpw+UjVloANec/SQRUpv7h9P/LvY//SNz8r9/6+ROye2T3/M1XbBMUh/cX4j95UxnoXv3Qx+tL/KY4f13iR49fRwCf4wj8Be7mdD9c/5jjhxCY4PxNAcCOv1b2H4H/2r1+iADu+Rsi4IV3hCqAfB7Apn6H/PuukQF5A4cACJP+cP9h0G9az5+dv9Xzr4Hfemzc9be5fy7/74LzR/+fRUDW+68APwiEWObHOYuASdDXVQARAcr5C/TF4Qvw1/g18y/1DGQZ6F5651u6Vz74Xbvcj4n/EccfNvexoK/vMeit84ZefxX+LAIAeiuOuH4T+HOd/0i531zap/v9gHwpGsCXvf9xCPzj8dP/9x1ns18Av9idDBz/zDPfSTMAlvMPYmC4sQ+AD3evo4Y6Htf35ZrL/aXrXBBM7/nD8SNuxPmnwT+7AsDQ35Tzz3r+Y60Ay/nf+3gnPXwp6+O3VISiu31kw+PcDIRe/8sf+Hz/aX5j6/srAkD6+9Wyv4Aezr8EfblfcP7s+KvwH3P+I44fZX/u+ZtCgJ2/VfZnxy+PKwHAjr8Kf4H91EE/gj7DX84hAL77238293fGv26DGZA3dQiAVAEIk/6Y9kesCwDAHVEgjnNEC/ylezns4fR1rPf9F3H+MgMwdeqfhv3g9nXMHP+60/7c8x8Dvnb96P3f/Xgnbl+G9bY9ALbBX2//1juUgTDhLx/mwx/lWxz4G4G/OeDHzt+CPt8bcf1V6LPjX2PQj+FvQh/u3wK+dU9B3xIB1Un/MfgL6OU5BvD5Hjn/IADkI4FdAOzQX6J6KcfPPPO8QDoIAI5BCNTBz0v9AHrEEtyt+7UKQC4GRpw/faQvnL6O6zp/EQSDZX/3GdP+JAQmOX/u/VfK/XD6OoZp/zEhoJy/lPkd/OoPwy/XzoDMicgAWPogHxP4S6zrB/wF8q3O3xABmfMH6K24pvMfdfwM/231+mvOfwT+An1y/HD+iD/97m9/Ye1fJv8Gm8lAqgBw+b+wwU8QCuoxFgGA+7oiIIf+NOcvwO+hz+v8tzHtTyKABv5G3f/Enj/3/tfp+bPj9/L+Zv62LtfvGrbxlQE/fHxvdS//itsPff74+DZcf7Pzt3r8uDfS61/M+Y84flQAqq6/Bn30/hscfwX+UjVwAbDD7wRBALDzz3r+dguAoZ9gH9f7p+sHvtG8/t+qAOQiYMT5G3v7W86//7hfY4//xnX+pvuH09eRRMCgAsDQh+NHVK4/OPx4Lw380Uf7ogIgzp/PQyXAKvmHe1983B3/Dv9R7ulLC8N90uN/5ZZ/TtP9JvwF6ks4/zHHj7K/4fZD/z/eH3X+7Pitsj/3+uW5BREw6vyltF9z/Cj9j8Cfe/6mAOByvyUC2PFXyv4jzr974Xg/B/C31zyxp7/SR/9lX/vpb/71aoc/G/itzh8VgDkxB752/XLNIqB3+XD7cPyIs6f9Z/f8z5u7/LH7ZxEQZgBYBBjQh9NHTPBfp+d/z5e+rdfrH/3fcP8XbjIDMtjXl/njR/a+Uhvuw4Q/4F9x/+Iy4Z6TAAAgAElEQVT4R9f118r9E+AvAqB6wN3XYgH6EAPVPj+gjwjQW7EB/ib0BfQ44O5rscH5635/dh3hL9UBFwCb/BNc73uLAMAeACvQ20LAcv5w/Igt8Lccv3zdUAQw9CEC6vDvRcDXYhtgFfvev3L/Dc6/6Pq148d1zflbA38V5z+AP7l8dvt8bjl/KffL+v0nnnjC1+6v9+fiX/0zP/Mzsl9/gL7s3hfc/u1dB/Cbjh/gZ+dvwD9A/4N9H3+xKf+K+2fnbwoAdv4W/Nn5GwKAHb8IgaIIGHP+An15TgH+o46fwW85fggBdv6GAGDHXyv7w/mHeLz797/5r1/3P5wdzYDsA7CqANSH/gLk4wxACfRThIANfe3+WQQM4Y8qQO/60fef2POf6/wN6LPrl/Pg9q3Y4PohAALgZzh/+TrZre/aM5d+fkd//fxl7XgGZD4kfEDPqx9+Tyfl/dDXv60HvsAeR3HAD/BvcP2AfrXfD2dfigJ8eawC/kV6/SIIDOjre0Xoi9tvdfwV+EMUJHcP2OsIyJeiAXyBvD4yl79a64+Bv77sL+4/Hl4B2O2/8F4ARPBn/f+VGEjOn+F/mD1/GvRD2V87/1UbQLl+wJ4ib+sLx484mPgH9HWc6/yNCgCX++HudWzp+cs++/Lb50N+u/03eFivLgzryUfvfv/GXw1b8soGPQJ6GeAL7l7K+uLuBfQEfYE9nD5iVQBMcf6Y6OcoQEe5H9ESACPwH3X8aAVYbp/vTXD+pgBgx2+JAHb8FfhPcv4l8Mv9Cc7fFACx3K+cfxIB3gI4rD/x8Z8bPgxITfaLi9cHi4CS+59yn9sAw9I/yv2IQ+d/NYmA3P0bwBfY64PL/y0f7CPA54OAr10/nD9iVgXYgvOXkr98qMv4//3lnhEA8vpd1yV4/MOt3+7kEMcox+sf/ZfutTs7P8ZycLLrXhs77ui610aOAG6Bd+PxGp5HoE/wh9OXx3AeYxX8S7n+GvQhBBoc/yLOfwnXb0FfQM9HodzPjl/Oi85fwF4r90MQGC5/suuXSgC5fj5/8QZfBbDc2+zy30k+DjjtAaDAz9BHab8UW+DP0LfL/1zur8C/cep/AH2IgAj/4Pw/2a/rh+NHzGAP8Av0l3L+lSHAVAGwev5ja/zv+dK3N711bygLB7f4oY8HyAvcX7/rx93rd3b9Iec4IvDkMREA6TmX+bkphlrAL88pwF+ALY8VoS8AF9BzBPA5wvEr2LPbR8/fFAAjjh/L+7KePzt+nLPzB+g5suOX+wURMOr8xd1b0/1w/SOOH2V/cfub7PUvBv8Rxw8BwD3/UedvCYBjQRj4MsDlub3Id5Q38poACLA3yv4tsC89x3b73PdnETB0/tzzR/m/Wu4H9HUUEbBt52+U+6W0bx0sAuTcGu7je/I9ZAvfTfb7O3H4UhoOwBeAR8gz2PkcsMc9K8o9P7bo+hn01rkBfXb9JvC5z49zY8gP4F+k1w8hUIA+xIA53IdSfw36gD/iiPM3S/3o87c4frj/BudfdP0tjr/R+ZvA556/BXzr3jt8J8BFaL2hb3L92UufrpX7S44f90ug5/uLOX8q+wP+w97/SLkfjh9RiQCIgqwCMNf5Y/iP3X6DCOD+Pnr/fI/Bvzr/4uOb6PV30iN+7e6Dvox/1497F89uPzr5EtzZ+VvPgUi4nGISPOLmRQC1OP+C64fjRzTdv4Aezr8EfblfcP4Cfbh/RFMIjDh/y/GbS/0E7rWyPzt/QwCw4zfL/uz4ayJgxPmPOn4IAMC9FLnnbwgA7vWbZX8u99dEwIjzH3X8EAAW6Ple7/y7FyQe6+TDgDbx3rQhJF4+3zZUAE5fuEcLgAB3OP847MdAn3POIsCuArQ5f64ATHL+S/T8Uf43+v+Ddf6AfwPwzQoAlf9XkH/crATIHv5L/9b24Be3T9AHwDXUcV9H/byx6wDDI14RQA4C9GvwF+BXyv1oA5jARz8f0YI+3xtx/VXos+Ov9PwZ/gHuKPPrCGdfigbw4fYRR11/Dfrs+OW84PwXhb8BfZT7TeDrCf8a9Cc4fin9r+38e+gD/jIb4J8GuPS784Lf75pTT/1B2AdAQE/Qh8PniPNWAcDQl6/h61wEMPyHvX8e+Ks7/8Lyv4ae/1LOPxv8a3T+qdwf2wGZ2x8t/3/5riXVdZgMl+VeKO8DWBJxrkG/1DV+xlGLnJ8gcsac/wj8BfpVx8/gb3X+hghg5286/hnwn+X4IQamOH8u8+OcnT9Az5Ed/zrwF6ffUvaf4PzNsj87f4CeIzt+uV8Y+Bt1/uLuK4N+aegvd/4QAT99/rr7FkSWf6ulMhAqAA9duEnArg8RA+GgT/YTiK8jAnLoc99/CH04fR1XE/9S6i8AX/f75Tr2/BGzEj+G/KzI5f+pzn+G+w/9/lHooxKwLPxDqT+AP/b3GVyA/6ZjAOQRrQKE3G263M/wZ5evzw3ghxaAul8Ff8Xxo98fnL92+Xw9Vu5n+Ffc/yKuvwJ9VAKaev2t8K84fxP42vkz7EvnBehDDDQ5/lb4a/ffX//khRvetxSz/PssnIGrPnH+KmwElCoABHoGPp/XqgDs9LXzx3UvBurOH/AX0Jecf3/f6PsD+uj166h6/5kgYOgbZX8u98PxZ7HR+aP0nyoA/3977xdrW1ad+SGLIIRCHMUkipzQiqI4yEpHohMw5Nah6ui6CpURKSEDEU4nyI0s1CV3u/lTlNK0FR3ail2WJVvC1ENZwkWBylXcBmMMfmg7Fq2S84J4CH3r1K0y19AV27SsemgZcVt0q6p2/M29vnW+NfeYY86519r77HPueNgac829z/4z9jrr931jzLW2lv0rIoDn+C+xO6TFfelUPZb7B7e/a9hbz4+5i36zhNNE2OQiQB2/U/avOn9A3nP8FAEZ5HPwV51/T69/uLIfy/6TCkAN/hXHryX/5weXzzgRBAC7V/ZX52+U/LXcv69V/q4AAOy9sr86f0MAqOM3y/7q+D34246fzp/xxWd/6j1LVimXOObFcwwZwClj6v7V+RPyreDn4wl5Rtv5K/zXgCfwragioHh6X4PzN0v9B+L8dcGf1/dfquefyv1Y1Z+AJfAnrCxAW3Bb+nF8/YsamY/x/ddK/g70m3v9C8J/ruvnKv8J7NX1Y0xnX4od8J/AnuV+Ri3xl8YG9On4GZucf2mRH+Yr5X72/F3we9DXCoABfTp+xibnrwv78nEF/jfuTgsAV4g379vrNUkC7h0ZwGljFAAANmGfR4V7aew5/6kIUPiXy/8K/TOnvy77n20b7l8X/HU5f/lJXzp/xmFR38TpDy2BsSKwgPOvi4DfeaLj6y0+NP1yW3L9mePeB+AJSC/ivot209wR/ukz5o6f2+r8Mc5u6vjdnn8N/nD8eMw+nX8OfEI/j5YAqMAfwDdX9yv0PcdPIdDh/E0BoL1+r+xfgT+g7y72qzl+wr/D+ZsCQJ1/Dnzd7oA/BMB33v2W4oEo7jj/DCTYcwFgx8/4WkJARcAU+tv3/Nc/4wvwz+v5N7n/j4sI2FPPvw799U/94rr+S+wt6Ydcxl7/0G/3YKxg2/fjCNKLFJmj9J4J+zxmsM/hz+1U0mdf34os65diB/xd5185rz/1/C3o53MW8HXO6fO70Cf8GQn5Uqy4fhP4PK1Po+f66fwrvX4X/uz7E/KlWHH9JvB5Wp9GBb01Xvf1Wd7fiAB+frv5vtcvcdyK59hRBt7+K3/4/+WOP9+2YM85hT7mrO2pGPArAFs7f7YAGlb9T3v+An06fsY5zr+wCHDs+cuq/7T4T9cAPMiFfuv4tl/84vM//8uf+pG5vbT1hXzkPP7zhDtB6UXcd+g3zeEoVHLg63aH8zcFgDp+r+dfgX+116+r/B0BoKf4mWV/AJ7OX2HPsTp+zGUiQB2/KwIAe8/5Vxy/lvsX6/UbIkAdvwv/HufvCADt+ZtCAKBv7fXjsZkIAPAxp1FEwI6wFU+7RAbSmQAP/eEfJ5jPOOdfoT+F/Qzn/wm6/g7nz8V/sup/AnuA3brpwr9tnX8B+Fzsp1FFgNfvx31vfeDx1fHJl9+07feN73h1+t5XrS/bO8BfoeUB+BAeN0L1wM8OYB7dC/s0OH8T+rn7Lzl+zu+43K+r/LnArxgJ+lLMgJ8LABf66vgXgr/r/muO3wA++/sam3r9Xs+/Uu5frNdvAD8XAIS/QJ9i4OXTO1/Y9rgVf7enDPAHgejo6f6xrWPez6jQx5y1vRYDvuPnoj/L+a/L/18azgIw+v10/QR/T8+fQkDhvw/nL06f5X9GWwx8/qNzdoW02A8/zKNO+hDATmC2RH3vhzK2cmjCv+L4tdx/UXv9s52/IQImzp+gt+JM5w/gu46fJX/AfV+9/hnwrzp+lvx7nH/m+gl9xhz+afvqavXM8bNzjl3xt3vIwN2/9JWTHPT5NqFfir7rLy/0I/wZVQR09fwpBMT5N/X8VQQYzh+L/rjwb/KrfkNrILn6bZw/SvyVU/3w3HP7/umKfvliPwtcLRA+hL/DeziEG/M1eS9a5s/HFedfdf109rXY4Pxn9/qzU/tM519y+5w3gL+18y/1+TFf6fXzftf1e9BnRcDp83c7/1KfH/NOqR/3dcEfAqB0M4Df6vwpBp57++rlZ37yq3tAWLzEnAzgaoAEPmMJ9CWnn89PBYFfAVDon63uX5f9z7adC/9Yq/7d8/ydnv8vfnE1ruoX+FMEpFha7V8QAlrup9Nn9EQAftYXZ2ls2/dPzp/n93PR3yFAnPDcJuJv9n1jzvi6Cv30GXLYc7vi/AF91/Gz7A/oL9TrNy/rq+f1Oxf3AejzU/wmzh9w93r9jfCvOv8ex++IgKrzrzn+Rvhrz98s/Wuv33L+Wu53REAV/jXHTzFQgT8AX3P+QwUgfglwDpn39Lf47XgP+NZ9Wu6fwj7v+XMbIqB8UxFw5vw7ev+G83crAEus9i8AP1UFhgV+HKsIsMv800V/+Lu/c/9v/f1td4EX/uQDr1395QefObuW/wBOwuwiRwXwPsYJ8tnZEmP+CPs8Njj+Zvh7rr/i+E3gc3GfRmeR3wh9z/kvCP+0kM8q9XPOc/y8r+L8mxz/As7fBD5X9jN6jp/3NTj/tJCP5f08Lgh/OvxivLpa3Vjf4jLA2x7B9/h3vBiQBXprTuGP+3V7Kgb6nT8dP+P6oj8FIdDr/LXcz14/IwRByfFzfkHnP1YAstX+ozj42JNf33YX2FjwZwGMcxcx4j3v4zZC3mo75MDHtjp+bhtCoOr8a46fgqAC/+oqf3X+hgCYOP4B/hPHz1P8avBHuR+PqZT91fmbIqDH+RsCQB2/2/OvOf+55/Ur+C3Hr9BvdPws/5sioAZ/OH48psH5F6GP0/8Afca1AMBVALc9jsXf7SkDKDHf/X/9wcqCfWluCnq6fCuWXf8a8uv7166/AHr2961oOH9zlT/hzzhAndDPo9nvp+NnzFw+3b7GifOv9PxH+D/4xNar/q9du/aq9al+BiQVaBcR/Pr+Md7XLc+VudCPgsAAfhIGw3xTr98r93fA/2B6/Y3wN6G/oOt3oa8L/Vjat+KB9Pq5FsAEvrp/lvVLcUn4nzn/tRg4Xn3/9F1v3BPG4mXmZODeh/7vUzr5HPqc9+JUEGzh/IeL/OzU+Sv86fwZAXU6/TzuyPmXqgC41O+2ff/1RX4E/oRkDrHLsI3PsIubKzQIeo3q/A0BoI7fLfvXnD8cPx7T4Pyr8O/s9U8W+qnj93r+Fedfdfyt8K+c36/O3yz9q+O3yv7q+PHYggio9vrV+dPlW1F7/kbpv6vXDzGQw1+h7zh/uHm318+L/uTgl+3T975qDpfib/eUAZwKmIO/tD2FveX6MbeN8++oAGj531vwR+hr3Mb9qwjYofNHFeCOky//aO/Xns71//Z9b1j/jK+AUWF2GaCffx4sbqTI0ZiEwRb35c+h20Xnb0BfXb8LfV3oR3dvxSXhb5T7eV4/+/0T4LPUrxEiwLvNLff3wN8o93N1f5Prt6Cfu/8C9CkGqvAH6L1yP4WAAXy6fcaq67egb4kAp+RfhT8gPy33s+/PVkBcA6D3KH6Oj7/nE1/9px7wcZ9VAZiKgYrzH0TB2YK/s/P7l3L+5sI/XfBHx8/oOf/hvlTSZ9mf0RABWu6nu89jKvM7rYC3fPizv7LNbpD6/mnR3wB/gOs8gc+zDvbxHhLsDdGTz+t78e7T3CUBoG5fxx3O3yz9q+P3yv4V+M/t9RP+k56/wp5jdf4W/NXx4/6CCKg6/5m9fsK/y/nnwKfTZ3QEwGz4Vxy/gh/jogAA5D34q/M34K/Qd51/Bf6nx2k9AE4B3LaSuc0xMP5mRgZwKmBJAOTwn0I/rwBUnL+IgK1X+/OiPz3OX0WAUQHQ8r/Z/zeAn4RBYT6d3ueAXvv9HOO0P1zut/drTH3/v3rgn47lcAWYQm/f8/t+7QRrET76eWv38b3ycSkq7PNxxfWbwKfb12i5fZ2bW+7nSv+5rt8CvjVXgD7FgNvnh+vnKv5anOv6LeBbcw744f6Tq2dp34p09rVYcf5F6LPfnzv80rYBfl38l1w9S/tWlPL+sNJ/4vwH+GPupafverj3WBaPP6cM4FKzuQCwHD/FwFQELOP8edW/jZ/71XI/r/SXwd90/iz7A/h0/IwiAhT+xfP8F3D+rAYQ+Hnc2v1/591vGeFPZ6vwI9z2HVvfA6sFrY8vPc77fN59eD7e+LhiuR9CYC781fkr7DlWx4+5TASo43dP8+tZ5T+4/F2s8lfHDyGwIQLU8XsiYG6vv2ehn+P8uxy/V/avOH9A33X8rfCf6/zV8Ttlf8If8fR49eJz73z/OeEsXrY3AycnJ6/JBYBuqxiYwp8VABUBm1WA4/Ny/ioCBPrWqv8Ef6vsX3D5VgVg4vw7KgC86E/v95bcv17mNwcZgXYesec18Vh9fNpe8HcLSqLBmjfhXyn3UxQ0OX+CvhQz4OcCwIV+h+Nv6vdbLl/nKo7fBD77+xpbHD8eU3D+1XJ/D/znun4P+qwENDj+xeA/1/U70GcVYIA+wM9bnAHQezQ/58fzTACFPR0/4xT+Cv3NhX8K/ekpf6Xef3atf8v5FyoA5ql/Bee/4fgHYTCW/gF8On5GncsEwdj7N67xD5dfc/54zNbu/7s//49H90+YKUg5dx6x5zVLj93VZ8Hr6Wtyexv46yp/VwAA+Lvs9Sv8O1f5T5w/AI+KgILeGmvP3xACE+evsOdYnb8lANTxz4E/3HzrQr+lnD9Br1EdP+YLIqDq/Gf2+lny156/WfpX52+U/tXxQwgI/F86vbo6Z5zFy/dmwDoTYAp8un2NKgI2nT/PBkgL/9Kpfljpv6fV/ka5v+r8tQKQgd5y/JxTEZCqAKUL/BTmcTGm3u8rXeqXq+CTYzZK2bsAaGvJfhevrdCe+/wj9JG3vMfP7YZy/2Kr/Pfl/Lmoz4sW8HXOAD77/Iu5fgf6rASYp/XR7RP6jFaPn3NLuP6FnL/b76/Bn73/ua7fAD7dvkaB/igAbhyvXn76+Bu9x7N4/DlnAD8KpO4/H5+JAYW+4/yl7M9V/nnc6PdzgZ9EuHv2+EtxUgEoOH/C36oAbDh+On9GQwwo9OnyGVudPx735g9/9mvbfPWr81j4p0KjBuAlYV17rdb7Cf3J4wl7Ri33Y64gAqrOv+b42QKogF97/ub5/T29/jmX8604fgoA7fE/T7evscf5GyV/Lfe7p/nVnD+g7zh+PcXPXewHN+/BX52/4frV8Ztlf4X+jFX+6vxNx89Ffz3O/6zkPwqA0ztjAeA2B/Tz/hv9TYAy/On+VQSUnT9L/2vXv2fn71QAVAQk+G/p/BPw2etnLLh8wD6/vfWBx3F65d/r/e7Ttf7/6sP/dtI3nwtcQLHF3c99nfP4e31NjNONwLdiAfoUA26pn2V+RoLeig3wN6HPcr9T6ufpfez1T8r8uftXd2+Nt4C/CoFxbJX68zkD+nT8jE3On+7eikvCX8v81tiAfl7+d12/B311/BgXnH+13K/wr7h/y/Vnc7EAsPeIfgCPxwVo2OvP49r9K/Q3nf9Y7t/W+fNSv0PvPzn/Qs+flYC5zj8t/NP+Ph0/Y6/z7xABgD8W/7335KT7alkr9v4VbBNXmy2qa31cy3O0PKb19Xb5ODx38VaCfqPjd8v+NecP6OMxBfhXHT/h3+P8c+BjG6DP4xbw117/CPoex08BoD1/QwSo8zcFgDp+r+xfgX/XKn8L+JzrcP6mAFDnT9BbsWOVv+n8K46fJX9APuv1n7l+VALuHNYB3LnCz5AfANLiLfRm4OonvvrXhP9ZyZ+un9BnLDv/1PP/BPv9e3b+8sM+LPszLun8x3J/B/Q3KwBPdp8rmy76g5/53QU8d/GchyIYRjFQgn/F9bvQ57n9lsvXuQr8KQrmuv50UR8L+vmcBXydW6LXDzFAyJeiAXy6fbfMr/1+D/qsAlyUXn/PKX4F149qgAl8un2Nc10/4L8WAHEFwF7qHtDj3/7QH/4xnLwtArQC0Ab/vOfPba/3vw/nv1H2p+NnNJw/gE/o57Fn4R+cP4QAItouvV//6rv/8O+OK/8PBa6H+j4I/fT+LPDT8TMaIqCr1++V/Svw73L+zoV9dn1FP3X87oI/wN6Df8XxUwB0OX+CXqM6fsxnIkAdv3txHzh7r9evzt8p+5tun8BnuZ+x5vhxfyYAtNzvioCK8686fvb/xflDBNy4eq33mBaPP5AMcCHgpvtvg/8a8Fs4fy3/Zxf5mZT5eV5/HnXh33BaH11/KvPnp/oB9HpzgE/wa0xOfpbzX4uArcr/+Xn/hwrf83pfE+izDeDB34A+e/1Nrt+DPt1/odyvjn+p8/tTWT93+rqtDt8aV1y/C32W/ktOn/Md8DfL/XT+CnpvnEHfEgEJ7gC8davBv1LuZ8+/Cn8P/BQDGfBzAeBCn66/wfG75X6FP90/4H+8Wl2/cv+B4CzeRm8G3v7L//w9mwsAFf7l8v9Z2X/zPP8W54++PioDqQKQiYBFe/4EP6BPx8/oCAFr1X+P87/ywHoRICsA26z+R29tvVBvwYvknBeol35dbV9QBJin9wH4juMn/LucP0GvUR0/5jMRoI7fhf8WvX5zwR9gDyFgQR9zlYV+E+dP0FtxpvOvOn6Fv1f2V+dvCAB1/lXoe86/An9A31zdr66f4Gck7DUu2euHECiIgKrzzxx/Kv2fiYC4AFAvdQ/o8VgIuOn+y9AH2PXWvdo/c/5JBAzwP0jnD9c/w/lTBKzXAnz+o71f/epfP3Aylv8VeEvD9KI+n+bEhD8rAXNdv4LeG2fQt0SA2+93Sv3j6n7v1D46/xL0Od/g+hdz/pV+f1PP33P7Rpk/d/xuqV8rACzrl6JT6if0GV33r6C3xg2ufynnn63oLy70y8CPNQDR/+89oh/g47EQcA11gJ/wZ5wCf+3s13NeBaC551+oAEzEgJb7jVP9dKFfXv5P2yXnX6gCuM6/QQzQ8U/iA0+s8PsLvb+WtcLiP734jwLvokK7933rZ8Z4Y5uQz2PF+Vcd/0IL/arOXx2/c5qf1eufOH/A3XP8jfCvOv8ex4/HFgRA1fkD7J7jpygw3L4KgC7nb4FfHT/uL4iAqvMH6D3HTyFQgb/2/M1Ffx29frfs7zv/1ekRzv9/7ACRFm+pJwO4IuBZFWAT+Or4OT6DP/v/2WV96fTziLK/3Cagz/v8uq0iYB89/6E1kK/ib94eyv+oAEAI4PS/nu8EQmEs/yvweuF5no9vucbAtu9vzEkOfW43OP6mfr/n9o0yf+743VI/T+9zoM9z+xP86e6tuCD800I+q9TPOfb1vViAPsWA2+cn9BkJeis2wN8s9/e4fgf6FAOu2yf0GQl6KzbA34Q+e/1OqV9bAK7r5yl+Z2X+9Yp/3T5KZwHE+f89R/UDfeyVBz//0fVZAIB/n/NftwDO1gB4zn/S829y/l/c/FU/qQB4zn+j119w+5OFfgL9jVX/uKhPzf1nPf9UARgEwFb9/7mr/wngbSE75+/wt3P+3nT68pxmuV8dP4RAQQRUnT/Avo+Ffur8jdL/xPEPZf+J46cQqMG/0utPawGGX+0zr+Sn4Me4BP7KQj91/G7Zv+b85/b6CX+AfaFev1v2rzn/ub1+wr/H+XNRn0Z1/J4IWMN/df1ohQuUHSjW4m21ZABOE6VpOvtaTM5/n9f4xzn+An1d6Z+X+xP0AXq9OYv8FP4ca/m/2e3rFf9UBAzwhxB46wN95/+nCsC//gdPzO7/z4Xwtn8/OnSB9rbPxb+jKDDh3+H8E9xZ3s/jgvB3e/0Nrp89/1TWJ+zzyLJ+KXbA33X+JejrfMX1u9CH21/A8bP0P9v1F8r8dPyMTc7fcvqcqzh+rvif6/qrjp9CQF2+NQb817e4/n8LYS/AYwCb6TqAaRtAy/0QCGuXv45n204LQFf7b+v85WI/nvOf1fOvVQAU9DqWcj9EQ977X29vsQAw9f8XBChBumRklWFb4PPv8/dE2HOe2yb81fkbrl8dv1n2V+h7zl9X+TuL/ZrA7wiAifPPgY9tdfzctgRABf7a658F/w7nb5b+1fFbIkAdPx5bKPvP7vWz/689f0MIdPX6rbK/On4IgYIIqPb61fkXVvjnPX6ctrchBtT5G9C/Pjj+BP47V3D+qf//p+/41QuAt3iLtQxAAKzXAUzBr9UAFQEs+5vl/rznj23p+XMMV49xcQ3AEs6/oey/tPNPq/4H58/+PwRAzwWAkvtPp/8dOPwJfUCaoN4mlv5mhP4+zu2HCPBuFfjrQj9XABilfvb5GV3HT0FgAV/nKqv8F4V/xfmb0Kfjt4C/Za/fXelfK/cr/A3oNzt+AN+CPh0/YwH6FANV+FfK/ez3b8C+JAAM8I+r/s9cP91/EgHfefdbamyJ+y9IBrAOQIG/dvZrQXAG//NF99AAACAASURBVC+trg4/7bsT589Ff7rgT8r/O3P+Dz5RvuKfOv3CeOL4WQGYlP8fX+F0y55dYfVXH71ndvmfgO6NJVfugbp0X+88oT/5O5b389jh/M2yvzr/XcK/0utX8LPsP7vXDzFQEAFV+KOsP6PXrwv93LK/Ov8S9B3Hz0rAbOdfcfwKf4yLZX/A3YO/On9DACj03VP8KvAH9On8TcdPEVBx/pnjp/NHjNP/eo7mF+CxpXUAZ/DvXO3PSkDm/ouOn/BnNFb6a/9/0ufPe/7bOv/aIr+CAEhrBdAGyKAPYYBb7xkA2F129uM/rWJgAuCKw+95bMvrUwSY5X6KAKPUr4v+TODn/X6v3E9B4JT6m1f4O+V+hb/r/NXde+MC9CkG3FK/B332+ivlfoW/6/wt4FtzhXK/wt/t99PZ16Lj+l3otzp+p9RP1+9Cv6PcT/i77t9z/Lgvc/1D2T+JgOtx+t8FQHr/W0zrAIYFftMKQMn5cz1A1v8fev6TVf/Zlf5MIaBlfzr/X/xiWtSXL/ibbKN3T+gz6ly2EHBc6Ffr+ZcEQUPPn/BHfPM/+sx3er+N1fMf+K1zqwAQwK1gb4F67bny1zThX3H8FADa8zeFQM35a7kfj81EgJb7XRFQcf5Wr3+28zcEgDp+8+I+6vg9EVCBP4DvOn6W/S3Q65z2/A0B0OX4F1rlX3T9nuPXcr8jANT5Y7xxU8eP+wv9fnX+Jvxrjn8QBQp7CIF8+/TK6sVnf+o9vce0ePyBZ0DXAdjOvwB8un2NhvN3e/6j8//iSp1+Pl7c+QPyJdDXHD/uF+dvVQBSdeBjT36996tf8fr/S8C1Bl/rfmuu9F56Hlt6DgqAFOnyNXbA34Q+3T+dvRcz4OcCwIU+3H6j42e5f5bzN4BPt89Ydf0e9NX5O73+ReFvQJ+O3+3z8/Q+D/qsBDQ4/kWcv1HqV8ff5Pod6FMMmMBnqR+xEf50/gp9jHk7PVq9+C/fFqf/9R7QL8Ljr37iK39v3eNn7//s/P5pz78gBJZ0/tICKPb+1eXT+TNmrj+d10/Hzyi9/y4RMFQA4O7HVf+F8n96zMee/HrvjwBdqCsAelAviQMCn/dzexvnX3X8Cn+v7K/O3xAB6vzNhX7q+B0RYDn/iQhAid9b3c8WAOCPcUEETJw/IJ/f1PkT9BrV8WO+IACq8Ie7b1nst6TzJ+g1aq8f8wURALfvwn9mr58CoMv5G65fHb9b9q/Bf1jlr9BX5396ZWgJIF6JX/+7CDDvfY9YeX7PL33lx87P+f+z1Z1yqp/l/Fn2n1QBVAQY0Ocqf0Yt/3dBP68GVJz/pAXw4c9+rff7GAUAAXnIcdv3NkIfq/zV7eu4oddvntpH6DN6jt8o81uufzHnz5X8VuyBfwH8Zpk/h3+L63egTzGQwM7SvhV74O84f7fPT+evsC+NC9CnGHBL/Sz3M7LEb8WK898o8+elfwP4dPsam5z/UNofV/Xr9gD/qvMf4B/l/95D+cV6/Nt+8YvP82qAOM1vSedfbAEUVv1TBGxUABT66vh1LGJAoZ8qAeL8uZ1K9bVWgOX8h1X/Cvx8/JaPPP6Fk5OTV/bsCau/+vC/nVzzflvIHsrfEfZ8P5NtBT7GWu7ntiEEqs4fYPccP0WB4fZVAHQ5f+M0v4njz37IZ9Lzr8G/4vhZCVCnb17ZD2D3BIA6f8P1q+N3e/41+FccP8v+VfgD9l7ZX52/IQDU8ZvOXx2/B//KKn91/q4A0J6/IQQmzl/L/Byr42f5X6HPcafzX1cCbsXV/3qO5BfssVwHoBf7aTrfX8v/LQv+2PPnYj8p+RP8jBPHD8gT9IwCezr9PKoIGJ1/Dfi562/o+efwh7CAAOjdDdY/AZz98A3heVEjoT/GHPy6bQCfi/yaHf9C8DfL/ez1O6V+rvBnr38C+9z9s6xfilvAX4XAONYSf2lsQJ+On7HJ+evCvny8JPxLbp/zBvTp+E3gA/L5zXL5OleBf7XczwqAAfwux68igKC3or/KP5X6U0vgzPljLn78p/dIfsEej3UAyfkP5/ujJVAUAAr9whX+iq6f4M/jAHiW+/O4Af8GETDCfwfO31r4tykCfueJ3t0guX+A8qLCnu+bsOc2o1nyV+dvCAB1/K4IqDn/ub1+wl97/jXnnwMf2zXHTzFQgT/g7pb9a46fQqDD+ZsCQB2/1/OvwL9rlT8hb8UO578BfDp9RoV9Pp4L/4rjpwBQ52+W/gH6Bsefyv1nV/QbV/lPev0QCFP4p+2b992LdnHv8Swef0EycHJy8upp2T87xU9X+mOsIqDX+RP+Pe5fy/8Nzp+VgOT66fgZLYdfmuvo+Y8C4COfS9cB2KoCsCv48yI/u3p+63kpAsaoTp9jA/jq+DlOJX329a3Isn4pVuDP0v9c15/K/hb08zlCvhSdPr8L/bznT8iXYsX1m8Av9fxzt6/bTp+/eYW/V+6nEFjC9bfC3+n3u6V+uv6lVvlbTj+fa3D+FvhPr6SL/wT8LwjI57zNtz/0h38MsPOqfxsVAIX+gs5fS/5znP/o+AeBgDI8e/2MOpf6/yXw88p+WSTk8bccj3EA/1uHeOXBvgrA6vS9r9qJ84f7pgPfdSTsJ69D2Oexw/mbAkAdv1X2V+jjsYWef7XXr87fcPws+U96/jnwW5y/On4Ig0wEqON3RUDN+Vccv5b7F+v1QwxkIkAdvysCAHcP/hXHz7K/6fa15A+H78FfHT8emwkALfe7p/lVnH/V8TeW+1Mp33D8XPUP4LPcz2iIgJeevuvhOVyJv70gGWAbYAP86v5VBOzI+VMETNYANLp+FQHJ/QPw2zj/QRgA7lruN8E/XPkvCQERAb0VgGvXrr2qewFggvtH/30V8JZDn0B6QZFAEZBiDn1uNzh/E/q5+y85fs4XoE8xUIV/pdyv8E+n8Fng51zJ7XM+A34uAFzo0/kvCH/X/au7L40z4OcCwIW+rvDfF/zzEn++nQE/FwAu9On6G3r9KP2bpX6C3yv30/lnjp+n9xH+DvDHFsDwmO+fvuuNFwRh8TbnZODuh/7oh033r9Cn82dsEQG9q/2H9QCpjM9eP6MjBEb478D5qwgYHb+CH2OBfxIO+6oAtIC85THbiATCns/P7W16/Vru31evH0KgWPavwN9y/OaCPwCeFQDCXqM6f0METJw/Qa9RoY95r9yP+wplfwDfdfws/QP4++r1z4A/3HzTYr8e52+IAHX+ZulfHb9T9q86/1qvf4D/BPL2Ff1G5284/lEA4L5njp+dw5T42wuWAZwNYFYAVAS0QB99fr05/X46fsZtnL/2/Mdy/4LOvwh9SwRACHzkc6veFgB2le4KAIFLAC8Ze9YNqHgw4d/o/Kuun86+FhucfxH8DSv8Ff6u81fQW2MD+Fs7/xL4HehTDHTBv+T4Mb+E6/eg39Hrb4Z/7vR12wB+7vxN6NPxMzY4f9f1N8LfOq9/4v6NBX6WCICIwLX/T+/5+AVDWLzdORl404c+8zOjAFDo0/EzZiLAXPW/rfNvrACMjn+HPf9tnD8rAb0tgK3XACwJfYIcz5k/L+/TiPFkm6DXOLfXz7J/C/TxmAL8tdxvOn91/I4IsOA/cf4Avef4KQQq8O9y/hb8tdfviIAq/GuOn4KgAn/t+aeePsv8jD29fjy2sOCv6vxrjp8CoAL/LudvCAB1/GbZX6Hvlf1R7nd6/awIWKB35nDp3+8998HXzeFJ/O0FywAuXIMfBzJFQAb9icNXt69jFQFGFQBu33T+DSV/un6NaWHfXOdvLfDLnX6+Pbj+BP9h3CsAtloDkAM4h/a22wr10nNMXluBr+NKrx+O3y3398C/AH4KAtfx9yz0Y0/figvCHwLAvVnQz+cK5X51/qmcz/J+HheEvwl9wr/F9TvQpxiYvdCvA/5V529An6f2Mbqu34P+UO7nqX2W8x96+M3lfoqBwf2vbly9dsHwFW93iQy89YEnH04CYKgAAPTYTrFFBCj0IQYy8Cv0Cf8U4eQJ/jwavf+xAmD1/DtEwLpfv17Vz0V+ufPn/KQVkPX86fx/YssWwEFVAFQA5OPJtsKeY3X8mCuIgCr84eat1f2sBAD4juNX8JuOX6Hf6Pjdi/vU4F/p9bP0r87fFACA/EK9frfnX4M/HD8eU3D+VcdP+Pc4f8P1q+N3y/415w/Hj8cUnH/V8Wu5v7HXf0MX9nGszp+gt2LF+Seg4zGNZf/8cTfuPV6CJ/EcFywDxydfftOkAtACfXX9I/Q34U8xoCIgQd8q+xvQV7efev1S/p+z2h/AJ/QV9jqewJ8VAMP5swpwoSsAueufQH8o+++81+/BX0WA4/yrrt85rY8r/An92b1+CISGsr8JfVYDcodvbVdcvwt9VgBY1i/FAvRzMTDb9RvAp9vX2OT86e6tWIE/RcFc1191/CoCLOhzLlvlzzI/3XsO865tPPcdN+Pc/wsG7iXf7pWPPfl1XhjIcv5L9fxZAehx/hQBgHMSARJ7RIDn/F3wV5w/KwD/44c+8/ne72Sj756D2Nq25hTY296vz4HxZJtuX6M6f8P1q+M3y/7q+D34dzh/VwBoz98QAtrrn/T4WfpXx2/1/NXxO/CvOv5W+GvP3xABXb1+a5W/Ov45zr/m+HE/y/2MhhBQ528KAHX81vn9Cn3D+avjd0/x01X+Ttlf4b+V8x8cP8v+Cv00B6dPx8+4nfuPxX+9R+5L9Hgov/U1Ab48Kfsfas+fIgDQ7r7JD/2oICi6fTp/RMP9E/64r7cCkFoACtlWcG/zN9s8N0VA0fkb0M/L/6mkz76+FensS7ECf13oV4W/Af0u129BH6DXW4Pjd8/vr5X7WQEwgM8+P6Pb67eAb7n/ivOvlv174G9An67fBL5e1McCfsn5F0r+hD6j6f63gL8KgXFMZ+9FQD27qQhI4+2AP20THN2KxX+XCOjbfBT8jn36hcD/cyoCbOc/nPKnvX/p+2u5n46fcSvnL2X/Ef4dPf9U7s+u8JeX/1MFIJ3K98TZ+f2Ef1YBIPR/4iOPpccy9lYADmYNgAqKEfqoAKjb13GH8zcFgDr/EvgxPxf+FcdP+Hc5f4U9x+r8HQFQdf41+Fccv4LfLfsD9J4AUOfvCIDZ8AfwHcev8Me4KALU+Zegbzh+LfMT+ozbwB9w5+p+0/FruR/jEvwBfWeVfyrvz3P8KgDiyn/bEPMS/s3dv/SVEy3/uxWAAvyrPX/t/Tf0/Mfyv4iAbtePSoE4/wR7XPFPV/+3wF8qACoCKAB6KwAHexZAEfwQARXXbwJ/W+c/p9evC/4c5+/2+Vscv4qACvxn9/ohECrOfxHX75T72fOf3esH+BvhXwR/q+t34K8iwIS+LvSrlPsJ/9HlE/gaS9DnfMXxL9Lzl6oBnu/m+15/CXEWH6k3A7gyYL76fyICFPrjwr/1aX10+G4ExBtW+1vQ33D+LRWAAfoT+D8wXf3P0j8rANwey/0s/T/w+OoM+usL/xD8jBeuAmA6f3X6HFccP0VBFf4156+OnxUAEQFa7l9slf/Q36/2/Al6jRXnr47fLPur419olb8rAKwSv85VnH+X4/dO86s4fwDfdfws/VtuX+e052+U/as9fy33N67yN+EPuHuOf4C/lvdR+s+34fzTnAC8a7Hf5t+9/MxPfjUW//WS8pI+HtcEeNs/+cInJtC3Vvsb8D9055+X/EfQsxLAMj/L/oycH9y/igCMAf9tBQB2o65FgOjj42p9Cu7W3n7pcfpcpvNfEv5eud8APk/r0+j2+Z1T+6xyv+v+FfTW2HH7XPnvOv6ehX6O6wfw3XL/gqv8q67fg36H418M/gb06fjdUj9dvwP9rvP6G+DPXr9CH2PeZoJeS/6TcZz6d0lpvuXHuuPkyz+KCwOZIqBQAfB6/qkisIDzHysALT/245T7Wfan42ccBQHL/BPnv+71sypA4GvEeKsKgAK4BGmdx1i3e/5eH4vxZJtuX2MF/nD85ur+vOTf4/zF8RP86vxNAaC9fkcEWL3+ifMH6L2yf8XxK/jp+J8n6DWq88c4v2mvH/cVBEAV/rVeP93/ks6foNeojt8p+1edP9y9V/avOH7CX52/WfZX52+U/Se9fu+HfGrOf7+9/gn41+sIngr3vyUoL/OfXXnw8x81BYDj/LUCkMr87PUzdvT7E+y1599S7s/PCDDK/yPkB3e/AX+6foE/oZ/+Njl+uP4z5w/wUwjsRQDk4O4VAxPo1xb6Of3+Lvh7zt8APsGv0QQ/+/wO9CfOfyj3m86/Bn9WASrOv+r6c9iXtgvQpxhwS/1c4MdI0FvRWeSHfv8irt+Bvi70uwi9/i7nz76+FQf4n5fzhwC4ed+9l5lj8dm2zADPCLjz48ZqfxEBWzt/rgPIRMF4pT8L/i0iwIB+XvpnBYBAn4gALfdTBLAiMEAfgoDAJ/x/4kNrEbCVAOgFeE8FYAP2Uj2olvtRCSgIgCr8a46fgqAC/y7nbyz0mzj+nxvcvSUCavDvcP4UALOdvyEA1PG7Zf+a8684/q6Ffl7ZX50/xtlNHb9Z9lfHv5DzNx0/S/49zl8X9nGsjt8q+yv097fKf9P5X1m9/PTxN8L9bwnI2+HP3v7L//w9qQqgIkBO9VPHn8r8dPp5BMwLwOdiP40qAgDn7puKgGzBH2GfIt0+oZ9vE/xp8d9jKwgGy/lTBEAY9AqAvZwFYIkAE/4s/RegTzEwe6FfB/znun64/yQCLOhzjs6+FLeAP0XAJJacvs4b0KfjZ2xy/pbT59yS8NcyvzXOgJ8LABP6XODHqIv6rHGl7F8t9yv8jXI/HX/TCn8L+rn7r6zyhzNfeKGfJQDC/d8OFJ/5Gd/84c9+LZ0VoL1/EQHFCoBCX+GvY3H/Cn32+vPYJASs3v8gAvLy/2SbIsCKmeNnBSCBf3D+B1cBMKE/9PxN+Hf0+t2ef835w/HjMQXnX3X8LPlrz7/m/Al6jer4Mb8l/AF49vonsGe/H3DHWCFvjQF+zBcEgDp/UwCo4/fK/hX4d63yt4DPuQ7nb5b91flb0OfcXPhXHD/hrz3/rVb5d/T69wH/06Po/c9k46X/c5SHsCAwXQhIoE/nz2j2+wl6RoG9un0dqwjAuAn4VoUAIiBz/oT9xPmzxF9y/gQ/Hzds0/GPkSJgi0WAO60AmCKALl9jxfF3OX+6eysWoJ+Lgbmuv+r4KQRK0Of83F6/igAL+pwrQJ9iwAQ+V/ZrpMMvxSV6/V65X+HvOH8T+HT7Ggn5Ulxihf9Sq/xzl29tNzj/Xa305/NeP1q9DIHx7fvecOkBFh9wmQzoaYFFxz8IhAR0Qp9RqwGZEFDo546f20kI1ARBg/NP8BeHn28nkcCy//A4QJ6OH/eP0B8W/tH5M/a2ABa/EqAJ/dpCv6V6/Vj5n4NfHf9Szt9w/NZCv8nqfoV+q+OHEMhEgDr+Wc6/4vgV/hgXRYA6fwv86vhxfyYC1PG7C/4Adw/+FcfP0n8V/oA9RIAHfdxXgL+W+93T/CrOv+r4tedvwX6YS26+0usfHT8EwuZ5+kvPxVX/luHibfUsuEQwHT/jRXD+G46fbp+uPo8UAOz7D9te7z/Bf8tFgDupAExEgDr9fFxx/tVeP0/1y6Gfb1ecf7XsXyn3K/zN1f2Evwf+RtfvQr/H8TvlfoV/EfxemV+FQAb8XAC40AfwCX1GunyNS8K/BH7OF8CvgsBd5Nfo+Jv6/Q740yV+M8fPC/sk4PMiP7sHvgqIl0/vfOGFP/nAa28reMWHnZ+Be37pKz+2XhD4z9KPBW1UAtTl0/kzZq4/OfthbqwAlH7dbwHnz/L/JA4OH+5+dP4UAxQB0gKoOX+KgHOrAEygP6PXr+X+ffX60QIolv0r8J+s8h9AP9v5Z66f0B8jQa8RQMe2Rpb4NVacP4DvOn6W/HucvyEC1PknyBP2jOr4Z8Afbr55od9Czt8UAOr4HRFQdf6AvrfQr9LrJ/z3tdAvqyi8+Nw73z+fBvEMt2UG8GuBcP8K/0kVQEWAAf3UHpD5Ef6AfA30Vq+fc9v2/FkNEOAnQTCIAi3/bwgAtADg+vV23msAJiIgd/u6Pdf55w7f2q64fhf6utCvVu73Tu2j86e7L0UD+IB9fjMX+eUiQGGfjxt6/c3wV5efjw3g587fhD7hz6gu3xo7fX5Cn9Et/dPdl+ISrt+Bvi70Mxf4abnfgz8rAoPzJ+w1pvF+XX+qAKD3/zeX/L0twRUferkMXHnwd55AJWAUAQp9On5GgT3hr9Bnjz+PKNtzDmPvBvfOMn8e6ezTfP5DPwp9On9GOv8sJhHABX8aRQTsrQIA2PPG6wikbQW9jjtW+bulfwv2Oqc9f0MEdJX7nYv7VJ0/YL9AyX/S81fYcwzI0/nnwMe2On5uG0Kg6vxrjp8ioAL/Ludfgj7mK2X/qvMH7D3HTzFQgb/2/KvO3zjFTx2/WfZXx+/Bv8P5Z65cS/S7GqP0Hz/3uxwHb9tnevTRR1995WNPfn1x579tBaB1tT/hrpFjFQMCfS7+23D/BfijGtArALAjTS7HS5iXorp8PmacU+DruMHxu+X+hXr9Ta7fgb72+s0yvzr+heA/2/U70O/q9bf0/BvgX3X+FvTzuQbnX3X8C8HfhD7cPm8G9On4GV3X70FfHT/GhvOn42c8B/jjmgIvPvtT77ltoRUffNkM4NRALApMIsCqAMxw/tVWgLXaf/hJX1YAcufP7WLMBAAe50LfKv8PVYBeAbDVWQAbzl9hz7E6fswVRMDsK/pVHD9P8ety/kbZf+L4vYv71Jw/Svt4jFHiH3v871+7evNKfts4/4rjd8v+NecP6OMxBfhXHb+W+xfq9btl/5rzh+PHYwrOv+r4FfxO2X/i/Fni16jOn6C3YsX5J+DjMedQ9h9eM1b9L8u/eLZXvOIVWBT4Pz34xPdHEWBAn2X/PCbI0/EzVkr9gPt4M0RAgnveDhh6+bxvjDnwh8dtQJ+n+jFKqX/S+5f5XgGQzgKgk6/F0elL+d+8qI+KgAL4mx2/dWqflvwxNkr9Oldc4NfY61fnn8r6dPp5LPX4OV+BP0XBbNdvAJ9uX6O7wn8Bx09RMNv1Vxx/age8cyjpw9mXbizrl2IB+rkYGN09YZ/HiuuvOn4KAQv4Ojc4fs/5nyP4ITpwuV+YjIBWZGDxDByffPlN4ymBWgkQMbDPnj97/SPoUeLXMj/HEgF9PCZFEQajGNByv+P83/ShR9OCwF4BkCoACvZcBFj3sQJgwl+dvwF/dfymCADQCX3GHPiEPqMhAKqOX+HvlP0nzj8HPsv8eSTw6fTzaLh/7fW7AsDq8+uc9vwNIdDV67dEgDr+Oc4fZX3P8bPsv2Sv3yr7q+Of4/x1lb8jAKrwB+Cdsn8q5eMxRrk/zellfM/X+aPvv7r5vtcvfuCPJ4wMMANH/8e1e1MlQKCfO37dHkv82zh/VAG26flTCBD8Anr2+bn6fwQ/XT+hzyhu36oC9AoA5LH6074j8FucvwF9Lf+7C/x6ev1Lwd8o9zc7fgoCBb41NoBPt5+X/U34A/DeQj8KAAP46vjdUr+e3scFfaVYKPd3Of5W+Dvuv+j0tQJQcvs6X3H+1bL/kvBXh2+NM9cP6CdRMMTz7PVrtQHv48Y9d/E4HTEysLMM3PlPvngnREA6RTATAmMFQFb2QxCwnK9jzlkRLj05/FKUVf7pcUNZP4Gd4Jc4cf5SARgFQKfzX7wCUHT+LO/nscP5myIAQPccP+4n9Bm3cf6V8/oV/hinCgBBrxGgp/MvQR/zBfir46cI2Ar+FcdPAdDl/C3wq/N3BEC1519z/hXHr+X+ffX6l7qi3w2W9q1Ycf7J3Veu6McKgIL4XMax6G9nsIsntjOAdkCpEqAiYKwAaE+/cawiIJX2KQYE/pzfiJnrp+PXCsAIf7p/FQEV549qAERAbwWgqQWQKgA58HV7CdffCn8D+uz3V3v9Wvaf4/wt4FtzBfhTFJjA5yK/VscP919x/rN7/RQEDvjh/mf3+rXsP8f5q7svjSuu34U+e/5OqZ+n9DG6pX/L6etc5vpzx4/tQ3D+vM7/9Sv320fpmI0M7DADEAHp7ACpAsCN0+Uz6hzG3k2hj8dtbAv80/09zp+n/Omqf4V+Q9mfzp+xVwDg69hoAWyU/BX2HFccP8v+pttnqZ/QZ6TL1wjg0/EzigjQXj+EQFEEVJy/1es3T/WzQK9zgD62C/CvOn8t93sioOL8q46/teRfcf5djt8r+1ecP8r9ruNn2b8EfM5rz98QAV3l/sZV/ib8a45/EAAK+7zcT8d/CPAfKg0vnd7z8R0e4uOpIwN+Bu5+6I9++C0fefwLgH0CPsv9jBXgW2JAoU9nTzHA7RQJ/1LPny0AqQZsuH5Cn7HR+UMA7KYCQOBrXBL+CntrLLCn089jEfodjp/l/lTW11K/jhX01rgAfRUDVdfvQb+x178o/Oe6fg/6HY5/Mfgb0NdV/tUV/g70u87rdxb6pev4QwAYC/3o9g8I+sMahFtxmV+fTXHvnjKAnxG+8uDnP0oRMDr/DhGg0CfsJ7HT+bPkP+n9DxWAJAIs52+IADr9jfgLMwWA9vzdkn8F/nD85up+df10/Iwl8BuOn/BX528KAHX8S63yL0HfcfyE/8T5a5mfY3X+BL1GdfyYL5T9q/BHOd9a3a9lfowbwO+W/Xt6/XhsoeRfdf5w9tbq/kbHT/h3OX+j9A+Xz3I/41bOH9C/KL1+Xlvg6FYs+NsT3OJl2jOAawW8+cOf/Zrl6pvm5Hx/FQTj2HL8dPmM4vZZJTBdP2HP2On8UwXgF/rXACCb4yV9zdP6cufv9Pu74G9Bn3NLuH4H+pOFfurw8zHAjjkL/DpXcf5V16+g98YF6FMMJLCztG/FGvxVBDgC4EL1+iEE5rp+A/h0+xpN4OuCP+3rW+ML0uufLCw8Lw2TdgAAIABJREFUemr17fve0H5UjkdGBvacAZwqiLUBLdAf4c4Ffnmc4/w3ev6fW/+YD6HP6MC/5PzfNLsCoKDXsTp+zBcEQBX+gLvn+Bvh3+X8jYV+k16/9UM+Cn0P/pVevzp/CgDzyn4Avlf2V+dvCAB1/BACRRFQg3+l18+KQBP8vbJ/R6/fLPur45/h/KuOXxf6OWX/ifNX2HMM0LPcz6jwHxx/KvdfJOd/dGv1N4v9Tk5OXrnnw3m8XGSgLwNoCeAv0BZoEQIUASz5czs5eO3vl8aZ62fZnyv+NyoAWv534M/z/lUE0PkzbrUIcAnnn+Cel/m5vSD8zXI/e/0Nrn+xXj+EQsH5a7mf8Dej5/Z5nwF9On7GIvRZBaCzL8Ul4c++fikWSv1sASxybv/chX4Kf8f9Vx2/igCFfj6uOH847kPo+Q/rD/CrfrjAD4+rfUfjeHRk4Bwz8N6Tk1fhZ4Xf/I8+851xbQAWBkq5n+AvXfRnIgTYBrBi5vhNAaDwdyoACv10yt/g+On8U9yiBbA+DVAdP8fq/A3Xr47f7fnX4K+r/I3Sf9XxE/7a8685/7zUT6fPqOX9fFxx/lX41xy/gh/jggBQ528KAHX8Vs9foY/HFkr+Xav8S9Bnj5/REAGze/2NPf+q8wfwHcfPkr86f1MIqPPPgY/tnl4/Hst++3nGo6dW33n3W87x8B0vHRmYnwEq1zd96DM/M1kjkIkACgGzAkDgaxVAnT/vH+Z+Qhf8AfR6a3D9PM+fkY5/jBAEv/Dp7usAIJurjQqAAXyr9O+6/gXK/brgz3X+BvDZ56fjN0/py4VADvt8u+D4WQkwXT4X+Wkk5EuxAH2KARP4dPsaS46f8wXoUwzMLvdTEBjAp+M3y/w8pS+PhHwpzu31L+X8LeDnc5nrhyBILv+ArujH8/pPj55a3bzv3vlH3niGyMABZgC/LviWD3/2V9AeSLC3Lvfr9f4JfmPhH8v/KaoIWMz5f3q1dv/r2NsC2KwAdDh/UwCo47dEgDp+PNZw/ZirOv+K46cASD3/AfSmCADkPeevjh+PzUSAOn7cVxQBgP2MXn8z/NX5E/QaK85fHf9iq/wdAVAt+WvP3wJ/R7nfvbhPxflXHX9juT9BvtLrP4Ry/zPHz+Kc/u8998HXHeAhO95SZGC5DKAigBvaAzhz4O/c/1t//60PPPnwlY89+XWW+1M1QF197vwV/ry0r17gRx0/xws6f4qAeQKg4vxN4LPPzwio124F6FMMLAn/BPfc6XM7d/jWdgb8XAC40KfrLzl9zsPxYzzX+SvoS+OK63ehj8V93gI/dfxOuZ/uvwn+FvR1ruL6Xeh3OH731L5G+PO8fo1DXz21BM4V/Ee3VnD616/cH6v6l2NLPNMFywDbAxQFePsQBWgXYBHhlQd/54nUNvjYk1/HOgLccAlinufPqI5/0vuf4fzt3v+8CgA+37oF0AD/ffX6WQEwy/4V5z9Z5b+U8zdEwMT5E/Qa1fHPcP7VXj9L/gC+1eunEFDnb4gAdf5m6R9AJ/wZCXyNcPsO/Ku9fpb9F3T+qadP2DOq48dcYbFf1fmjtG+t7mfJv9LrT9Afevw7EQBHt9Kv8p3ecfMH3zy+AchjEd9LT9/1MBw+Lt6zunHvMSqBPFTzGMjtiJGByEAhAxf9n2XdAmiAv+v+a47fKfXT9bvQ14V+Tr9f4T/L+RvAz51/sdSfiwC6fCtmjv/Pf/Zrhd0spiMDkYHIQGQgMrBsBooCAMB3HX9ryV97/kbpv6vc75zmZ8F/0vOv9fpZ/q/Av8v5l6CPeaPsHwJg2Z07ni0yEBmIDEQGyhkwBcCi8Deg3+X6HehbC/1M578g/KvO34J+Ppc5f4iBP3vPahUCoLyjxj2RgchAZCAysGwGNgRAFf4o51ur+9kGqDh+wr/L+Rtlf3X87ql+NfjD8eMxBedfdfws+QPyM3v9IQCW3bnj2SIDkYHIQGSgnIGJAEhgZ2nfioR8Lc51/Qbw6fY1mm6fK/wRWdYvxQr8KQpmu37D8ecr/qMCUN5J457IQGQgMhAZWD4DowAoOn91/As5f3N1vy70c8r+E+evsOdYHb8lAhT6jc7fFQB5eT/fNnr9Cn9d5R8VgOV38HjGyEBkIDIQGbAzkATAbOdfKftXy/0Kf8f9Vx2/BXzL/RfK/er4MS6Cv1bupwioOP/JFf1+OtYA2LtozEYGIgORgcjALjJQFgDq/L2S/1z4A/iO42fJv8v5l6Df6Phnwb/i+On+1flTCEQFYBe7eDxnZCAyEBmIDFgZKAsAr9xPQTC317+U87eAb801OP+i6/cW+Knjx7jH+Q8X8sFFdkIAWLtozEUGIgORgcjALjKwKQBqzr/D8bsX96k4f8vxT87r156/BXvOac/fEAAAPh0/40QEaLnfEwEV5285fjp/xhAAu9jF4zkjA5GByEBkwMrAVADQ2Xux4vpd6Hc4fp7a5/b9CflSNIAPyOttAnue0pdHOvxSbHD8qAoQ9FaMCoC1e8ZcZCAyEBmIDOwqA2cCYEHnb67yV8fv9Pwt5z8RAYC9t9iv4vgJ/4nzz4FPp89ogV8dP+4viADA3oW/XMM/KgC72s3jeSMDkYHIQGTAysDsX+9rcv0O9HWh3wT2LPMzlpx+Pp+5fEKfser6LeBbcwXoUwxYTn8yJ/D/zv+6evnp42+svvXO4wt7w4/K4P0jXujbPXetbr7v9db/SsxFBiIDkYFLk4F1BWBGyb96ip86f4yz28Tx/9zg7gl8RHX83M6Bj+0O5+8KAIC+1fkbAkAdv+n8BfpJDPDX+v6X1ep5vDZ/0a/y63342d7mn+5d6Nf78DO+Gz/hq7/ah1/y05/q1TF+thfbhZ/vxS/2Nf90b+Ov993gz/Rq1F/vs37Fj7/ed+X+S/NPHh8kMhAZiAxYGfAFQKXfb5b62ednzICfCwD2+s0FfhQCFvB1rgJ/LfdX4W85fZ0zoE/Hzzhx+fy5Xo2EfilW4I/1As3w15/qtcb4+V7ntgF8/lyvRgW9NV4S/oWf7cXP+aaf5VXYW2P+TK8Xj1ar6yEArONFzEUGIgOXKAObAqBjlb8rAHqcP0GvEYD3HD8FwFz41xw/4Q/wY1wQAOr8TQGgzt8Cv0If9w8OP49V+APynuOnCAD0MS7AH+A3HT/BD9C3Ov45zh/Adxw/wE/4M5pCQJ2/BX86f8QQAJfoEBcfJTIQGShlYCoAKo5ff8inCn/H+bt9/lwEEPRWnNvr5+I/Qr4UC9CnGDCBr46fYwv8OleAPkVAAjvgXrr1wL8Afhf6hD+j5fZ1rlDuZxsggR1wL9064G9CnxUAC/j53AB+wD8EQOlwEfORgcjAZcrAmQCY6/wrjp+l/9TzHyBvlv1rzr/D8WNdQLHkD9jP6PU3wx+AhwBQ0Ou44vzV8btl/xr8K46flYBqyb/H+RsCQHv9bs+/An8A33X8jfC/njv/EACX6fgWnyUyEBlwMrAWABXnP3ehn8Lfdf+Wy8/nKq7fhX6P43fK/V3wV9hb44rrd6HPSgDL+qW4JPzV4VtjA/p0/IxFx89KwFDWZ3k/j0vBn25fIwRBusUaAOewEXdFBiIDlyEDRQGg0HdP86s4/+T4h9X9dPyMEzGwpPMn6DWq45/h/Gf3+ikC1PkbIkCdv1nyV8fv9fwr8K/2+rXc39rzN0SAOn9TAKjjd3r+Vfj39vrp+PMYAuAyHN/iM0QGIgNOBooCwIV+4wp/hf8E9trnb13oty/n7/T7q/DfV6+/x/lXev1NPX/L6eucAXy6fUYT+nT8jA3Of3avHwIhh71sp5bAlTgLwDlmxF2RgcjAJcnAhgBQ528u9FPH71zcR+FPx8+YxEDN8bP0XwG/nuL3vDp+jtX5Y5zfdHU/7ssEgEIf96V+PkGvEc7e6/Wr8zccvy70c8v+6vytkr86ftxfEABV5w/Ae46fAqAC/y7nbwgAdfxmz18dP/r++eI+bgPyd67L+2mRn0A/CYIrgzBADAFwSQ5v8TEiA5EBLwOmADDBT9fvQF97/RPYW45/AedfXOBH+HulfhUCGfQtEVAEP6HPSNBrrJT7Ff5muZ+O3yv1qxgoQJ9iYNcL/fbq+j3oZ/C3nP/o+CEIBviHAPAOGXFfZCAycFkyMAqALudvnOI3cfxZz39S/q85/55V/gr6fAzAewJAnb8hANT57xL+1V4/4d/j/A0BUHX8++r1a7m/sddfvaIfQW/FTudPERAXArosh7j4HJGByEApA0kAzHX86vwnsLecP0v7VqyU+xe7lr8B/Nz1u+V+lv7V5Vtjp9RP1++W+xX+6vDzsQF8un2NTc6fpX0rVsr9zc7fKPXrSn+3z8/T+1qd/1Dqz8v+dP4Efh5DAJQOGTEfGYgMXJYM1AWA9vxrzj8HPsv8eVT4q+PHfEEEaK/fLf1rad8aV+Bfdf4APcv9jAp/LfdjviACqs6/5vgpAgB/jAsioOr8tddv9fwBfTxGowgB7fHjMcXFfrrK3xEAVfjD5TvwT2DHY7Ief5ofyvwj/IftHP7YDgFwWQ5x8TkiA5GBUgZ8AWAAn24f0XX7KgYU+Na4AH2KgSr8a+V+CoEK/Bdx/Q70KQaa+vwt/f4C9CkGqo7fAv4Wzl9FgCkAloS/VebXOXH8lggY4S/9/hAApcNDzEcGIgOXOQObAqDi+CkAJj1/hT3HAD2dfwn6mC/AX6GPxxRdfw3+gD4eU4F/l/NXx8+xOn/D9avjd8v+Nec/1/HvoNc/x/lPVvlreT8fV5x/gn3HKn8L+joXFYDLfNiLzxYZiAwgA5sCoHGVv+v+LeDncwXwqyAoQp8L/ujsS7ED/tWFfgS9Fw3w0/W70O/p9Tvl/mbnb7l8nZMSP/v6VjTdPhf5OQv82O9X+Lulf3X41jhz/Sz3I/KmcG8ZhwCIA2RkIDJw2TNwJgAqzt9y/Oapfjno822AH3MFATBx/gS9RnX8+1rlX4M+7i/AX52/WfpXx++V/Zd0/gr7fFzo9VMAdJX7HRFQhX/N8Q9CQGGfL/RLVQH0851ef0kMhAC47Ie++HyRgcjAWgA09Pqbev457PPtAvRVDFRdvwd9VgLmlvsXXOVvQp+OnxEiwLs19Prh/qs9/xz2+XaD86+6fgf66vyrjt9Z6Dde7Gdw/ioC6Pi3gb6KgRAAcXCMDEQGLnsGphUAQwhYzn9S/gfkZ/T6CX91/qYIUOdP0GvUcj/mCyJg171+VgK6nL8Ff3X8uL8gArpW+efAx3bF8W/l/I1V/ur4zSv6sedfc/6A/oK9foW+jkMAXPZDX3y+yEBkwK0AJPhzUZ8Va/BnBaDi/E3g52V/hX1pXIA+xYDb5+cpfYy1sn+h5L9Ir5+CoAB9ioHZjp+CoOL8q67fAD7dvkbX9Xc4/tLqfrp/Bfm24xAAcXCMDEQGLnsGNgTAxPFbp/op9Gc4f8vxz76WvyEA1PGbp/kB9IQ+owV/AN/p9avzd8v+hHspqvM3BIA6frPsD6jz9D5Ggl5jxflXe/1c7Fc5xW/i/OnyNarjt0TA4PiXXuVfEwYhAC77oS8+X2QgMmAKgEmJv+T86e6t2LHQz3X/JafPeQP4dPsam5y/BX3OVeBfLfe39vqdUn+z6/egTwHQ4PhR+p/r/KuO3wL+sLhv7PNje+j1M+Y9f8B8bs8/FwQhAOLgGBmIDFz2DIwCYOL8S9D3HD+FwFz4A+6tC/3w2IIIUOdvCgDAvdXxO86/Cn9A3Vvdz0pAh/M3S//q/Al6K851/hXHz5K/On9TCKjzL0G/sde/NPyToLhy/2X/34/PFxmIDNzmGUgCoNrrpyAg5Etxbq+ffX86/FIsQJ9iwAQ+YK83unsvOn3+5l5/K/yNcn+X61/I+Vdd/1Kr/C3o61zm+uH+2eNnzF37kttRAbjNj4zx8SMDt0kGVjyfn3HSAgDsPeff4fix4r9Y8q85f0DfcfzN8O9x/oYAUMfvioCa8684/mb415x/h+N3y/4V519z/M8cP/vy08ffePn0zhfSKv5JiV/An9x8xfnvwvHn4iEEwG1y9IuPGRm4zTNQvqZ/yenrfMX1u9DvcfxLwd9z/LjPgH4+l0r67OtbkWX9UlwS/laZX+cq/X4X+rrQz1npr/BHC+CZ42df+tN3/Orq5n33rm6+7/X5v9cLf/KB137/9F1vxA/uvPzMT351dXp0ay0KBtefAC9jbu8D/BQCIQDyry22IwORgcuYgbECsDPnT9BrVMePeWxbt4rzR1kf7n9S3s9L/V6vn4Jg7kI/dfxe2b8Cf13lfzC9fqfsL/BfQ38T+C3/My8++1PvgXBYL+Ybyv0s+6fFfztY6EfYWzEEQMvXFo+JDEQGLnIGxjUAG/BXl5+Pl3D9HvQpBBp6/S78KQQI+VKsuP6q42cVoOT4Oe/0+XlKH6MJf/T5D6zXf+Pq6qWn73rMcvrb/F+kqgDaBHD7vFmA3vVcCIBtvr74m8hAZOAiZeBMAADyXq+fIqACfz2/f/Z5/RACmQhQx+/CH7Bvdf6OANCevykE1PkT9BrV8WO+IAIWdf5O2b96fn9Pr//oFsr8S+/vaBGsTo+eWp/+V/nZ3l0JgRAAS3+t8XyRgcjAoWVgLQAWhH9xkR/L/3T3pZgBPxcALvTV8Xvwr5T72fM3gU+375X5VQA40KcYcN0+HT+j9vfzsQP+pl6/U+qfnN5392p1esfN1bfve8Ou9ueTk5Mfeunpux5e7QrwtecNAbCrrzaeNzIQGTikDPjOv2eVPyFvRQDfK/vP7fUvBP+q46cAANg9EaDO33D96vjNsj/gTugz5sDHdscqf/cUvw7n/8zxs9977oOv28c+/NLpPR8/FxEQAmAfX2+8RmQgMnCeGTirALDEr7FS7tcf8nGdf8ntc77B9Tc7/1KfH/NOqV/vm+38DeDT7Wtscv4W9DnX4PibnL+zwh/OnxfygYDAin1jZf8u9+H1mQJ7bgWEANjlVxrPHRmIDBxCBjYFgDp+iIGCCNBevwn/muNvhL/2/M2V/trrt8r+Wu53REDV+dccP8v+Ffir8zcFAOBOx89I4COq4+e2CAHt8bvwrzh+LfkPAuClU/zNPXfte7/FPvqDbx7fWJ8hsCchEAJg319zvF5kIDKw7wxsCgAH+hQD+4S/CX2W+y3gWxWAivNvcvxeub8D/ib0AXreFPalsQA/CYJs2y31s8/P6Lh/Ov/hVD/05Pe9f/L10nUDan37Je8PAcDUR4wMRAYuawbOBIA6f8P1K/Tdi/vUnH+l189Ff13OvwT9RseP8n9RBNScf6XXz5L/CHiCPo+APeY86OO+DPbcXsr5D7Afy/6jCDi6ta++f+l/bXXj6rWX93UxoBAApa8h5iMDkYHLkoGpADDAT9fvQp+L/ljWL8UO+LvO3wJ+Pldx/S70daEf3b0Vl4R/CfycL4CfAgCxyflXHL/2/An/G8crLMY7730eaw9CAJz3txCvHxmIDFyqDKyed8r+E+dP0GtUx7+vVf457HVbe/6GCOjq9Vtlf4U+REGh5w83j/uanD8hb0WAH/MFAaDO3xQA2ut3yv5F54+f7D1enbf75z8cqgB7WQsQFQCmPGJkIDJwmTNQXOjX5Po96LMSUFnlXy33s+evoLfGBvB1dX+T67egn7v/AvQpBqrwB9C9cj+FQAH6KgZM6AP0enNcv+X46fyTKDheYRX+oez/6ZLBS/b68+e6frRKVYYQAIfylcf7iAxEBnaZgdXz//sPNqoAXc6foNeo5X7MF0RAFf4AvbfYr+L4KQC6nH8OfDp9RkcAzIZ/xfET/l3O3xAA6vhdEYBf5rty/y73v57nRiViDWj8WNCOzgi4frSC0Oh5X/HYyEBkIDJwITOw+lc/8xeTKgDg794U9N64AH2KAbfPT+gzWo6fcxXnX1zg19rrpyBwwL9Iub/R+U/cvTp9jg3g87Q+jer0zTF+pvd4te/z/mv/ROvLBO8O/klY7OASx7XPFfdHBiIDkYG9Z2D1lz/39CgAXPCz3M9owV+dvyEA1PGbF/dRx+/Bv+L8q46/Ff6AvuP81fGbIkDL/V7Zv+L8q46/Ef4T57/u709X/A/QP2U8urX3HbLygukSwbv8oSA893fe/ZbK24i7IwORgcjAxc/AKACa4G9Bn3MG8On2Gauu34O+On6MC85/UfjPdf0e9Dsc/1Kr/E2nr0IA4OcN83fcPLQ9PF0eeNenA+7wdw4OLZ/xfiIDkYHbOAOrP//Zr6V1AKYAANw9x6/wx7ggAtT5myJAnT9Br1Ed/xz4w823LvRrdP5pQR9Arzd1/gS9RnX8mC8s+Ks6f13l75T+1fmbIoCOn/BnPHoKP8xzSP8e40LAXYqAPV/u+JDyG+8lMhAZuI0y8NKfvuNX5/X8C9CnGDCBD6ef3xT41rjg+FkJaOr1t8Lfcf4T0Cv087EC3xoXoE8x0NTrR+nfAb+7wI/On7DfjId0BgD/JVc37j3eyamAg6B4+fTOF/haESMDkYHIwKXOwOq7//DvbgqAmvMH9B3H3wx/gN4r+1ecv5b73dP8as6/0uvXU/xcAQDQQwhYwMecOn9DAKjjd8v+Fedfdfx1+KMV8PLTx9842ArArs4COD28qselPgDFh4sMRAbOLwPpOuuT8j/L+qW4JPwtp69zFdfvQn+hhX5d8C+Bn/MG9On4GZucv+P6q/CH04cA2HT807mj1aG5YYgRnJa4s1MAT6+szvM3D87vKBCvHBmIDNy2GVi7efb6GS0BUIE/3Dzc/0Z5n+X+muMn/NX5GyJAnb9Z+lfH75X9K84fbt5c3c9yP8DuOX4FP8YFAaDO3xQAFcfPNsBs+OP8epz7j7geH9o/BQC900sCH9B1Dw4t9/F+IgORgUuWgeSqsBAwlfQt6HPuovT6e5x/pdfvwl9FAEFvxQL0KQZM4PO0Po2O65/Z68+df4I/RcCBrYjHuoSdrAEYWgqoiF2yf/H4OJGByEBkoJyB1Xd//h+vV/AT9ozq+DGXiQB1/Is5f8Px60I/t+yvzh/j/KaOH/dlAkAdvwt/gL7V+TsCYK7zV8dvigAt93tl/8z5E/7Xjw7ih4C45+LHq0b3PyzaW7IdcGgtD37uiJGByEBkYGcZwIVPyhWADPqWCCiW/LnAj5Elfo2Vcr/C3yz30/F7pX4VAhn0LRGQ4E6Hn8ca/AF8PMYBP+5rcv5zXb8Hfa4BGOCfSv5HZ+V/AHYtBJ7a2Y7X+cTpFMDxfS18NUCInafveqzzLcXDIwORgcjAxc/A+pLA7P+r8zcEgDr/XcK/2usn/AF4TwCo8zcEgDp/E/4Kfc/5V+Bfdfws+Vd6/hPnzxX9GtX5E/QaFfrS818Dn+Afrrd/dDCXAwagR8ef3uuyIiB+A+DiH8fiE0QGIgOdGUjrAJ7/wG81ndrHCoALfs/x0/07pX66frfcr/BXh5+PDeDnrt8t97MCABHg3Rocf5PzX8L1tzp/CIHhpvAnXIeIa0V07lKLPxy/SZDgz/e29GmA149WL/zJB167+BuPJ4wMRAYiA4eegdW373tDVQBUnT/g7sFfy/14bEEEVJ1/zfFTBFTgP9v5q+M3yv7q+F34Vxy/rvJPp/Cp29dxxfkneFYc/whYCIMrrAbcOu8fBRrd//j+lnX/Uf4/9CNUvL/IQGRgpxlIlwWmw89j1fF74Kfrd6BPMdDU5/fK/R3wN8v9dPxeqV8rAQ3O3+33Lwl/LfNbY3H8nvM33PV5nh8PcTou/jPe29gW2OY+Cor4AaCdHlviySMDkYEDz0BaZGVd4W9R52+4fnX8btm/5vzn9voJfwDeEwDq/A0BsJTzr/b66f4rzn84p388vz9Bb1zkd9brLwGUkLxx7/G+rwyIlf8/+ObxjbNqxLLOH897iFc8PPBDRby9yEBk4DJmIP06oLr/qvNXd18aG9Cn42dscv5091aswJ99/9mu3wC+teLfdf2N1/A3T+0j9Bktp69zmetX+GNMuJfgz/n1392CG9/Xfp/Wpty4em1n8B8++4vPvfP9+/pM8TqRgchAZOBgM5CqAFXHj3J/S8lfe/6GCFDnbwoAdfxW2V+hj8cWev7VXr86fy3v5+MO528KAC33GyJg4vivDpfsJeg11hz/IADW0GYffzMC7l0CAO77jpvfe+6Dr9vHDpx++nciQJZ3/4f4k8f7yG28RmQgMhAZ2MjAe09OXpXWAsx2/gbw6fYZTehzdT+j5fZ1rgB9ioEq/GvlfoqABudvQp+n9jHOXeVfgz8cPx4zOH8VARjzRrC2RIoE/u0zx8/uelFg+pVKvje+PreXitePVnHq38YhICYiA5GB2zkDq2+983j1Hbp8jSjxe86/4vgV/BgXBYA6f4U9x+r8HQEwG/4Vx8/Sv/b8TRGgzt8QABPnr04/HzfCPwGT5X2JCZwQBls6aYI4xTtu7qIdgLL/xop/vu6277v4d/HLf7fzcS4+e2QgMlDIwAq910kVoNTfz+crzr8I/VbHryKgAn+3309nX4sV528Cn27fKPPzlL48uqf3QQgMZf1ibOj1LwFSeQ5cOhe/zlfYhbqn06mop0dPjW0Jea2tRUsJ/njuWPnf/R3FH0QGIgO3QQZwUZR0dcDR8c9w/oC+6/hb4V9x/ur4zYv7aLl/oVX+rgCY6/zV8VsiQMv9lfP7U0tgS+dvQZRwRkRL4MY9d237b4E1BXD946l++tzWay8wd56nNW6bp/i7yEBkIDKwtwyk3wgYBUDu9LldKfsvCn/H8ZvA5+I+jQs4fveiPnT/RqlfXX/V8VvAt6oAFee/ACxN951DOm3fcRNgXd28716cvuftqHD760V+R0+N4Md75fPu6n3jeSFYKu/Pe+9xX2QgMhAZuC0ykA7SOC3wzwh8RIU+t43SfxX+tV6/lvsxLggAdf5m2V+dvyUAtNeP+wtl/4vY6981UPn8Zrzj5uoyb7HHAAAgAElEQVT06CmIgrSo78bVazjnfnV6dIun9iX442/zv9+hAIif/L0tDl3xISMDkYG5GcCirPQb7BMB4EBfF/q5/f4e+BfA3+z6vXI/BUEB+hQDbqmfvX5Gx/1Xnb/l8nUuc/y62p8gJUx3CNFJVYCvZ0XO6XvhHCPvy7c5v1Q8sJ83nvu/GX8fGYgMRAZ2noG0HuAvf+7ptGo/CQHD7bPHn0dTBNTgX+n1sxJguv283O/BX52/IQDU8btl/45evysAFPTGOAGy0uvfNURLMObrbhPzvym9xtz5G1ev7fyfJV4gMhAZiAxctgykX2P7s3f9m+IP+HQ5f5b2rbgk/OnuS9GAPh0/Y5Pzrzj+Ja/ol2A5VAEw1ttcQM75+xzi227PeQ/Fv035eir6/pftqBSfJzIQGdhbBtaLAn/6++v1AFIF6Or1Y8W/BX7MVeA/u9dPIdDh/E0BoI7fKfvD7bvwh8v3FvsBXI7jT5DFY/a0eK4I2AXPLtjJa+zv6oV7+2eMF4oMRAYiA/vOwJkIGASAWeLnaX0aS9DnvNPnP6he/1Kr/I0Sv3mOv7h99PvV8dNl7wSahw71hveX8rObCxbt+/8uXi8yEBmIDBxEBkYR0OX8CXqN6vgxn4kAdfyuCICz93r96vydsr/p9gl8On1Go+yvjt90/ur4Zzj/BPzB+Qf8y1c2fOb42X39bsFB/GPGm4gMRAYiA/vIwFoEvOvf+JfzVdiXxhn0LRHgLvarwb9S7m/u9Tvg5/n97gI/AN+DPisCg+PX1f3q/AH8cP5l6I/5OXoKi1f38b8QrxEZiAxEBm67DKRLt/6rn/mLTREA2O+r1+85/wr8dZW/6/61519x/qYIUOdP0GsE9NnrZ+S58RLD+fvgH6ohuKrgbffPGB84MhAZiAzsOwPpFME//9mvnYmAktPnfMXxu6X+/BQ/lvat6JT6eUofYxX+BvS7XP9Czn8A3OQc/Jg7EwVxnv++//3j9SIDkYHIwCtekS4Bm64BQNBbsQJ/7fmbZf+ecj8em4kAdfwu/CuOvxn+FeefSvl4jLHQL81puT96/r7wOboVP+0bR6LIQGQgMnBOGcABeIVrBZin+TXA34R+j+s3oG+JgKrjX6LfryX+0jjr97PXzxi9/jN3X6h0rH9HIFb6n9O/fLxsZCAyEBk4ywAuGLS+dPBPL3BeP+Hf4/wz10+nn0dTBFScv67y36rXPwgBOv8UpcfP7QS7cPy+41+fBpgqT/HDPmf/gDGKDEQGIgPnmQFcce2lb/9v/2D1rf/5exun9m21yh8CoHQzgJ+7fsLfhD7cfqPjN0/t4+p+xpLb53zm+gl9xDRuOL+94IZbgHkpHnP9aPXy6Z0v4FcHz3M/j9eODEQGIgORgUIG0uWDb1y9tl4gKC2A2b1+igHAH+OCCADYXfir4zdEgDp+F/6Ae8NCP4U9y/wab3ewN33+o1tw/XGKX+GfLqYjA5GByMAhZSD9Pjx+g50r/BnNnj+A7p3ap/AvgN+FPh0/o7PC34W+On4P/nD8EAiD81cRQNcfzr/a60flAqf3QVQe0r4d7yUyEBmIDEQGKhnAzwqntgAWCZrgJ/QZCXqNFcfPSkCX8zcEwMT5E/Qa1fE3wF+hv+H4o9dfa0tgTcn3T9/1RuxDld0s7o4MRAYiA5GBQ80A1gesrl+5f/Wtd/z1VAgo6L2x4/qbnL8BfJ7Wp9Fc5JeLAPb1rdjQ6w/nbzv/oTLy8tPH38AVJw91X473FRmIDEQGIgOdGYCTQw/3pdN7Pr4WAgD+DOdfdfwd5X6W/W8o7DmuOX8t98cV/WrOvnQ/wB/n9Hf+U8XDIwORgcjARcvAphDI3X+D41/C+Vcdv1fq1wpAg/NvWux2m50NANePBaM37rnrou3D8X4jA5GByEBkYEYGKAT+3fW7/2L1LVYDKj3/qvPXVf5G6b/a67ecv8Ke48H5t/T6o+yflf3Xq/rxuxIzdp/408hAZCAyEBm46BnAGoF0RcHTo6eKp/c1O37j1D7t87Pc77p/Qr4UM8evq/2HXnac359XM5CzO26iBRSn8130/9h4/5GByEBkYAcZwMrvdKU3LBiE21fHb4oAdfwO/NX5z4F/cvOVXn84/onjx4r+F5975/t3sLvEU0YGIgORgcjAZcvAycnJK9O1BG5cvfYShUAxGqV+df1V+MPpn/X7X3r6rrSNyBvO6+cY16LHGPGi3bAIb30t/dyhL7SdxM/RLUI/3P5l+8+MzxMZiAxEBvaQAZ4DDoigRZAuCjNWBtT5nwmAl07X8+t4dQ32oeyPuQTxIQL62C5FAh/xxX/5tvTYlgjA4nGHGLcRLGhnJNHAaC5oPLqFBX1w+gH9PfxzxEtEBiIDkYHbIQMQArzh82LV+Et/+o5fXT1z/CyqAwnsjIB76w0On6JA3L6CX8cKf4x7b//+m/7f1O7vfb2Wx1sipUUk4LlxbX6IMkKfgg3fkY5vh300PmNkIDIQGYgMbJkBAr4jvhKPTb89cP3K/enXCL/1jr9OwKYYYBRB8O++eXwG/dOrK25P4tN3reclAs54bjwO8COsrYg5nd/1du39tNyPx+S3DXFweucLKc/Xr9w/XKUP3wFvo0hr/Q633FXizyIDkYHIQGTgImagFQ4ClgSYRx555D9478nJqxA5xrbeTk5OXv3d/+ddb0/VgdOjpyZQL8Aej+m9Aej4mzzyeTjP7aVj/vzcRuSN74/btUiRoI9Lv76HNRi4eNPfnKuP/A6311y7dm2S+/y7wXeUfYfNAuEi7tfxniMDkYHIQGRAMtAIezrIVxIqOeA5D/gANAKiBKRHH32UYEJ8DSH1yCOPvIaCAM71B//v1RVuOZDRBtC5fFvvu6hjgB3v3Ys/+ObxDZb0B4f/mk9+8pP/keRU8/vqLO/pO+D3g8jvDWPc+L1iXsRBkzCQ3SqGkYHIQGQgMnBIGeiFPWHASEhUIE+4E/jYTjfA/uGHH/4PrRsgxhvAhp51OtUQ1x04PbqlwoACIZ/jfI8AsJ6Dcz2x5zVbH4vXX50ePYVqCRZYfu+5D74OuWSeGK18Yg75Zu4zgcDvZiN6ogD3iSiAKKwKg0Pa/+O9RAYiA5GB2yYDDQfo5OhxUCfkGUuwzxwlYf8awoaxBCVCi/HTn/70azFG5O3nf/lTP6K3ux/6ox9OogBnGaRS99VrcMI9gD70x+JKi6iAJNFz/cr9f/61996rOeD4N37jN/7jhx566IeZK80f84hYyj/mIQb4PQ2RQoDfJ7dTHMCfKjusGHA/QewRBbfNP1980MhAZCAysM8MtACfB2sc1HkQV9jnpXtje3SVHmQIeIUSoQWA4QaYWbdf//Vf/09w432/9mu/9p8BgIyEIaIKA5TGIQzQFz9I4OO9DZCHkEGVA+2PRx555G/lnw+flXnQXHCOuWFkPplb5poCQb8P73trrRioKOC+xP2J+9gQ3SrBPv8/4rUiA5GByMClyUAP8HlwJuzp5Aj4mrMvQYNgIWgIHoIIgCKcCCsCTeOnPvWpH8G2Rox5++3f/u3/FGOAMb/dcfLlH/3kJz/5XwKiGOP+z33uc/8NxAGcdLqE8fUr9wO6cNgQCmm9AaoIcyoJw98PUH8sPTcqFNev3I/XxGvjPRDweH94n/p+88/C7fxzYzvPD7Z5Q24xZo41Mv+I+j2pOMNYv2NWCDAnFQNWBl6j+4uKAe5X3N8QWwXBpfnHjA8SGYgMRAZ2kYFW6OeuTA/ShP4Qteyb3D0O/goDjgl7Rgv2Ch6FEwGFOcItj4A8boQgI+c18j7Ghx9++D/H7Td/8zeTAABo8xvAS/jmYzwP5hjxPN42n7v0fJzn4/B8vPG9auTn0M/IXDBaj8lzyPxaudfvhmMKNX6X/G5zQcB9AJHioLaugGJA98UQA7s4KsRzRgYiA5c6AxXwp1X6PNAi8gbIY0zoD86N0B97wTzAK/wBAXWMhAQdJSHCCOhgTPgojAgqwAxjQk0jxrwBjgCeRowfffTRBHqMAVRE3rD96U9/OoGWkQBmhBvHGBGPf+yxx/6LOVGfj8/L12LE8+c3vD/r8/DzMeIxeR6YI8wzfyoOmF/mPP8e9Hvid4fI79WqFHiCoKdCwP2SFQKIhFqr4FL/Y8eHiwxEBiIDVgZ6oM8DqsKe0M+cvtvDVweowCccCAxCRIFP4DAqqAgrzjESboQ4I4DJMSK2AU3ecqBiGzC3bgTxY4899re8G2Dee7Oej6IA98lrm++NAoSfRz8fRYLmQYWBzuf5pSDgvCcK8u+S3zFFAQUBxSD3EYpGjVIdYLtgI1IEIGK/jTaB9d8fc5GByMBtmYEW8CvwCX1GAL/m9HnQ5sGcB3dEwp6RQCAoEAEURoULHalGjAErhb2CDPAjzAA9bDMSkIiAqQIeoFUAc9uKjz766H+F+ZaIx+jj8u3W58HjeMP7xNiKw+dKYkE/Hz8vxY3mRcUB5jWfzDPhr2JLvxf93vT71O+Z3z3FACKFIfYd7jfcnzS2VAa0TUBBIG2C4gLC2/LAEB86MhAZuLwZcMA/XoiHB0lE3jKnr44ruX09KHNM8PMgDtjzxoM+QKAwACT0pmCxYEOoMyqkMAeI8UbIKQAF+iM4CVGClIBFJKhb4+OPP/5fL31rfW0+Tt9//tlU3FAMMD/IF2/MoYoC5DfPN+b4nTHie+N3p98tBYF+/xxTDGB/UTHAfYr7mMZhvQBbT7qPpjH3Zd2/Qwhc3mNdfLLIQGRgyIAHfvZILccvTn88oNL5s5fPiIMxYc+IgzcP5oQ+Ig/0iAQB4QBwYKzgIEAQPdgDWIAUYc9IqNEJE3wEIuHOSHjm0YM5zgrA/Roxzm+PP/74jw2PcSP/jo/n9vC3k9cpva/8/XObn1MjBQ9zg2iJAuRS8wwRgG39Xvg9IeJ+/f4wxvfL71m/f90vdH+hcMzFgAoAjKUiQCFQPJuAgiBrD0RFII6akYHIwOXIgAN+HOjchX0W/AF7BT4PwHRmPEAj4qCtB3E9uGNM+BP8OfTVQRIuiOo66UwBoBz2A/Q3nD2gxxuBmMcSUBXCA4h/DIAu3Z588sn/dqkbXgPPVXotvh/jPZpViPwzc5u5QbREAcUUo4qBvEKg3xtFgH6vnNN9gPsG9x3uN9xmVYAik/se90XGXVQELsdRIT5FZCAycOkz4MA/gT93/OyVstxPpz9sb6zmx4FWD8KEPw7UFvx5YNeDPcYAAkGgkfBQ4GOODt+CvuXwCTQADmOCjjGH/QDS5LAVqgQvIUywl+affPLJHx8eY0XMtdwgIPK/H0WFigJ9XzqPsX4O/Xz5Z2dOGJkv5hBRKwQUAawU1MQAvl98hyoC9PvnvkFxyH3GEgHYz7jPeSIAgnUQA6hibVQEuN/z/4EVMef/54cu/cEjPmBkIDJwcTPgHLxG+POAh1IooW/EdPD0XD9FgAV9HKT1IM4DvAKA0CcICAmAQuGvcCF4JI5uVWFFkGnMoYdtQFFvCnUFPccSWyA+PuYLX/jCf9d7y4UC/j6fE5EwigO+x1wM8LPp56Uo0NxoznTM/BrVgXQWAr4nfC/6fVliDt+z9d1z3+C+wv2HFYA8akWgJAQyEcAFrGNbiyKgpy1wcY8O8c4jA5GBS5uBFvjzQEf4M4oAoGvauGAPD7JwXy3wx4EcB3Ee0An6PFqQwJzj+Ec3SmeKCFgxKrgIN8KOAFSHTFjm8By2R5ArgHOg/+7v/u7fxlwef+/3fu+/3/ZmPZ++Lt8P5jjOYhIG/Hwa9fNLTiZtA82j5lfzDkHASgCFWS4G+B0zUuwR+hQE2Fcwx32G+w8iRaUKARUB3C/ZCiD8GVnZGuK4QBD7vv5ftKwNuLQHkfhgkYHIwMXLQAv8e5w/D6KMhD/Bj4Nt7vx5YOZBmwdxHtTp/HiwJwQAhZLjB0gyuIzwpxP1oK/wJ+QGIZD69wS+ETegr+AlmAH7Gty/9KUvvXHbW+25KTb0vWUCIP8c41oCfmYIAd6yHI1iIBcCFAPIPcUAvo/hNl6XgNWA1jUC3Ee2EQEUANhHud8yUgRQ6IYIuHjHuHjHkYHIgJGBFvirw6HjyQ6G4+ppHCxx4GTEmOBnzOGvDg3AVxGQO35u0w0C/gAFtgkMRLhJwn+II2wIfUYFFKHPSKgRcgAfx4gEoQVOBSthW4JyDvnf//3f/x/yOWxzvhTzv+HjdL70HihM+L6tzzTMVSsDg1AaRQDyqXmmCGAUAQAh4LYF8P2q6FNRyP1jGxHA/VNFAOHPOOz3s9cEGP+KMRUZiAxEBvabgZoAAPzV/WvZX50QT6Wia2LEwZQ3y/nn8C85fxzQeXAn/DUq/CkARARM4E/nmQOJ0Ge04E8BMIAfDhkwnDhlApRAtZy+AjkfA9re7Q/+4A/elN+8x+fPn2/ngoBihZ8j/3wiAn6cYohCiNuSu6oIMKoAowjAd8jv1qsE6P5RqgRgX9P9jVUnRG0HcH/lPsyYiwCKYIpiCmX+v/CMmdL/2H7/0+PVIgORgchAloHSwYmrmnEww40LnnjQy+D/ah4cebBk5MEU8MeNB1s9+GJsOX/M6cEcB3lCXx0g5tjzJzDoItVZEvxznL8IABf+hGgO1xy+3KZTV5DnkN9mW58Pr6Wvg/fG18/fJ7YpABgNIZDEDyshGjHuFQGGEDArAdwHGLGPYKwiAGPsP4zcvygAdP9jRQr7qtcKoMjl/0AeKQAomkMAZAeb2IwMRAYOJwMl+PPApQc0HecHvuF0qY2FfxABPKhSAPBgywMwD8iIOEjzlh/MdZsHfhUBEAAqAnIBQLhY8EclgK4fkeBCpKNVh6sOOIciYQkB0Or8FdIc12D/L/7F77+Zj9Ex5zTyOQl/Qj+PuQigiOFnyj+r5iGHvwqAIY9jJSCvvGgbgN/TY+s1AUkAUNTx++X3r5FtAN1PFP7cr3R/4z6IqBUAigCKWEaKXGP/HxcFEv6I/D8q/Z8dzpEg3klkIDJwW2agdHDiwYvlTAoAHvxaKwA8mFIA8GCrB1/CnxEHax68EfXgjoM+thX+mKMAICxyAQCgEP6MCiIKAMKKIiAXAD0VgFYBQGeuoFaAzxnrc3Kcg5/buQAA+FUEGAJgUgFQkaQCgLll1LwT/vhOMviPbQC0AHjD96zg5/6AqPDHPqL7EcbcvygCuA9SlHIfZdWK4Ge0KgD4PxhgH2cD3JZH0PjQkYELnIGaAFBHwwNdQQS4V/tjJYAHWx58eTDmwZlOjQdvHMhVAGBMAKgIYJ8YUeDPhYAjXAiaHEKEEyMFwCAIxlX/dLqEnQHFH6djBjx7RABBTFAzbiMA+LeMfG4r5uDHtoIfn8f4nGkhoAiitE3BlOWv6P75fRD+jFzASUGn3y++f2xzP0DM9xFuc3/i/qX7G/dBRK0AlARAVgHgwteJ+9f/F4ro0v/YBT5sxFuPDEQGLkMGSgcnHrysCkAuBCAIeHCkW2LkwZSVABxotxEBWgmwRADEgEIC4CBEWs8CIPwRFWC5CCD8MzFQXAhIJ22B1gKyNQcRgHkVA7oN0HMbkdsYW9uYs95PA/jHtQ/Z5x/PjmDuNJ8Y56ILsGcF4DH5VcLsexsXARL6iCr+sD9gm9Bn3Ab+3E+5/zJy/x7Eb5wFcBkOfvEZIgORgVe8okUEqBBgBcCI6UJAPGgyqgjAAdYSAXBhcGd0ajx4ayWAJV6KATpAhUEuAqQakM4zp8NE5C0HUw4uAdp4znsmAgjFVBLP3TIrAoylygCBTGgvGfnceeR74XtjzD/DsE3Xn1b/0/3XXH8J/vwuAH/eCH/P+ev3Tdhzn+C27j8Y15w/wc99lfsuI9e5GPu8WQGggC79b8VxJzIQGYgMHEwGSgcqHshUAGgFoHUtAA+sPNBaIoACoCYCeJBHVBGgDpELxgiSXAgAOBQAiLkIwLYKAYoARkKPENQ4iAOKgkllACAlZBHpuDXmkLa26eAZrcfonD6/vj7GBdiP759O34qYk5ykyonmzcqr5v2xsysBTnr++L64roPfMaIFf90fIAQIf+5HNfhj3+R+iTGhz2j1/iEE+H+AyBv+T/g/U/qfOph/+ngjkYHIQGQAGSgdrIb5rX4LgAdQRhUBOODitk07AAd8HvRxwFdA6JgAgTDATUQA2wMbawMsMaBA45jQQ6QYYDTEwOicHdiOQiEH9BLbDa/L95iifhZ+Hs4hZp9/7PEjPx70AXzckGeBv7nan4JOv1OM9bvP9wWFPwUlq0tWz98DP/bbVucP8Af841gaGYgMXOgMOEJgFAF0O+qA8tIoe6aIOJAyYqyOqyYCeBDngZ0OLz/wswdMWGCbAEH0KgKtawQINooAjQQi4UhYEp5DVWDsk+fzA6AB31EItIwrDj5/Lj7/CHl5H5OyPuYpbjQO462cvgd9VmrwPfE7xPdmOX7sA7hxH8C+wf0C49z5E/wUm4gKfsv1c/8d9uuNnj8rAPxfCPhf6MNevPnIQGSAGWgRAXQ8OAAOFw1KvVAcGLO2gHl2AIUAxQCFAA/SdG1avqUIYFQIqCskQBgVIioGMMaNlQEKAXWoHFuVAU8QQBxQFDDm4kBFAgUCI+9DFEgnATE8JpXoh/s34J3/vT4vn08fgzHfp0YVORzzc1sReSLodYw8Ms+EPb8LijPr+yLkc+hzm/sCwc/9hdBnxH5F8Cv8sR/qTcr9XOW/AX9eFAv/A4MITuLY+b+JnwLmwSViZCAycPgZ8A5m6HHmB0FusxKQiYDiWQIUAjwoUwjwwK1RnZ0e+DGmGNCIMaACiChcAB5sE0CIvCmkVBBQCDACfhQFjDkQCUyNgCu2NWbATSAmkJeO2WuN70Pfo47zz2R9bgX+APpU3mcuubCPOWbe+Z1gW0Uavy9CnuKOkd+97g8Y5/CnmCT4KTbV8WtlSuA/EbNa6eJ+3gr/w/9Pj3cYGYgMRAYKGagJAYgBrQbwYEkhMKciYIkBPcjzoE8gMFIEABiEBucIHUbAh2OuGaAjJbAIMkQVBbnD5bZC0gKozils9znW9+CN+ZkYCXhsc4xIyDNXzB0i88k8W9H6rnSO3y0jv3sViDom9LEPUVwq+On6pdRPxz/CH/su9me9BfgLB4qYjgxEBi5vBmpCIHdG3KYQyCsCw/bYHlAnhoMzD9o8gOPgTkfHA72KAYAB2wQEI10kBQC34TgBmBxGmM9FgUIMgMO2iAEuYCMERzASkhoJUkAXYyt6QJ5zX+n1dB4wx7ZGgj6HPLeZD80ToM/cYt5y+BRnGjHGd4fvid8hv1dCX7937gvcP3S/AfAt6IvTJ/Q3yvwKfxW4tRX++D+5vEeB+GSRgcjAbZ2BmhDQigDdEh0UxYAR0/UDchFAl8YDOcUAYi4GAAAFhI4JEkaKAcCG8KEwwDbBxajw4hxhx6oBtnmjC84jgDlAcxQJhCugy5vClzDm42oxfzy3+dzcLjwPxcwY8Zkoevj5+JlLzl7zxXxaecYc5/ndaOR3SMjn4Mc+oE6f+4kFfexL4vYnLl/3R+6riNx/A/q39SEvPnxkIDJgZaBVDOjBtFYZ4EGakSKAkQd5dXoUA4w5MAgSRACGEWM6TYoCK2IO4FeYUQgo7DiHSDhq5FihSrgi0lEz5gJi220+H6P1+pjD++N7ZNTPh8fwM+p8nhfkK89jDnvcT9jz+9DviYKO3yUiv18KQewL3A8s6FtOX2HPMfZP7peEPrYD/NZ/fcxFBiIDkQHJQEUI/BAPpCyl8iBLt8UDcSGmNkGtOkAYEA6EhQIkhwqBk4sCgklBRoAhcp6R9xGOpajQLD0G8wAtgVyLFrQJb0YFd+l18Rjv/eEz4m+tz488MAf5/cwlI3POyO8H2xwj8vtD5HeqsLeAD5EI6MstOf28/YT9jPueilPup0PEfmveZNePYWQgMhAZiAwwA6WDpsynU6Ysx4WDcS4CuFaA86wMMLIyoJFigJEAUagobAgfjSoKME+AMQJ6GFvwIwQZKRQYMU+YWpGQ5uO4rTGHdb6tz8u/4/NZEX/P98eIx2GskWPM8/MzJ4zMFyJvyDfGmneO9Xsh5BnxHXqw537AOOwnbk8/oM//1oiRgchAZGCHGRDwm26KrosH5bw64IgC9nFHx6ciIB8TJLkoAGgAIEKIUGK0oEWoMRJ8pUigagRISzdCl/dzWyOfS4Gs9/Nveb9u52M+FyI+A6P1efCZMc/Pzujli/chMtcUZfw+9PvJvztuC+S5eA/7wAT2FIrYb/TG6hP3t5rLx367w3+LeOrIQGQgMnD7ZaBVEOQVAh7McYBXUZCVd0cwEBaMhEgeCR46To0YE1oaFWg6BgyxrZGAJDS9aAF3iTm8B30ebnsR9/GzcczI+TxSRHmQZ36Rd/0u8D1xW3v3w/c3ir3s+07z2B+4v3A/oZBs7eUH8G+/Y1F84shAZOCcM9AqCODYeFBn5MGeke6PMW8fDPNjxUChQ/jkkQIBkfBCzG+EnkIwB2RpG2AlXPNY+pvafP48us1x7Tlwv34ujvPPzrxornLA53nFNsVZ3rPn92dFfteMdPbY7nH3Afxz/sePl48MRAYiA3kGGgTBuKgQB3w6v1wUcB4QGeBAF5liSRwQSow5uEqiIYcfodgSCVQCNhcRc7b5nIQ5X6vlfeWih58xzwlhns87Tp7fxVi+x/fB70kjxnrj99zj7AP2+X9ZbEcGIgORgQuSgUZRMBEGEAcEh7pEziGWxAGdZ0EkAF5jFYGQKwmDHIot2wTtkrHldVsew8+b54A50zjkj7DfiPpdcJx/V72uPmB/Qf6p421GBiIDkYE5GegQBhvigE4yjwSRVUGgaLAgl4mFcS2CPlbhyQpDawSc8fetsfV588fl73fYHj8Poc6oj2d+NDKPzGue78zJ4wyR0mLRjfk5+078bWQgMhAZiAxc0gz0gEQey191GyPApdDimEDTSNgBiphXOG4zJkGE2YYAAAErSURBVGR7I1+Lf8ftbSI/h37OfIyc8Ib7mKPMvTOnGyCX/Jv3XdJdND5WZCAyEBmIDJxHBmrQabifQEuRTpYigBC0IudykOo2n4dz3O6N+d9zm5HvpRbxugWg4/Ob4G6dP4/vP14zMhAZiAxEBiIDbgZaITbzcRMx4YB2ycfNgnbt87pJjTsjA5GByEBkIDJwmTNQg+Sh33+Zv5v4bJGByEBkIDIQGYgMRAYiA5GByEBkIDIQGYgMRAYiA5GByEBkIDIQGYgMRAYiA5GByEBkIDIQGYgMRAYiA5GByEBkIDIQGYgMRAYiA5GByEBkIDIQGYgMRAYiA5GByEBkIDIQGYgMRAYiA5GByEBkIDIQGYgMRAYiA5GByEBkIDIQGYgMRAYiA5GBrTPw/wOaiwZ5A5ovyAAAAABJRU5ErkJggg==;" vertex="1" parent="1">
          <mxGeometry x="-93.33000000000004" y="598.58" width="100" height="100" as="geometry" />
        </mxCell>
        <mxCell id="TehJbA46y9saMmQgOfsr-5" value="" style="shape=image;verticalLabelPosition=bottom;labelBackgroundColor=default;verticalAlign=top;aspect=fixed;imageAspect=0;image=https://seeklogo.com/images/A/amazon-s3-simple-storage-service-logo-9A3F37976E-seeklogo.com.png;" vertex="1" parent="1">
          <mxGeometry x="350" y="861.63" width="223" height="223" as="geometry" />
        </mxCell>
        <mxCell id="TehJbA46y9saMmQgOfsr-6" value="" style="shape=image;verticalLabelPosition=bottom;labelBackgroundColor=default;verticalAlign=top;aspect=fixed;imageAspect=0;image=https://www.cdata.com/sync/to/_img/logo-snowflake.png;" vertex="1" parent="1">
          <mxGeometry x="723" y="877.13" width="207.5" height="207.5" as="geometry" />
        </mxCell>
        <mxCell id="TehJbA46y9saMmQgOfsr-7" value="&lt;font&gt;SPOTIFY DATA PIPELINE&amp;nbsp;&lt;/font&gt;&lt;div&gt;&lt;span style=&quot;background-color: transparent; color: light-dark(rgb(0, 0, 0), rgb(255, 255, 255));&quot;&gt;ETL ORCHESTRATION&lt;/span&gt;&lt;/div&gt;" style="rounded=1;whiteSpace=wrap;html=1;fontStyle=1;fontSize=49;strokeColor=#6c8ebf;fillColor=#dae8fc;opacity=60;" vertex="1" parent="1">
          <mxGeometry x="-1170" y="140" width="2652" height="194" as="geometry" />
        </mxCell>
        <mxCell id="TehJbA46y9saMmQgOfsr-8" value="" style="shape=image;verticalLabelPosition=bottom;labelBackgroundColor=default;verticalAlign=top;aspect=fixed;imageAspect=0;image=https://logodix.com/logo/542135.jpg;" vertex="1" parent="1">
          <mxGeometry x="782.28" y="1400" width="140.73" height="110" as="geometry" />
        </mxCell>
        <mxCell id="TehJbA46y9saMmQgOfsr-9" value="Python" style="text;html=1;align=center;verticalAlign=middle;whiteSpace=wrap;rounded=0;fontStyle=1;fontSize=18;" vertex="1" parent="1">
          <mxGeometry x="-123.33000000000004" y="713.9999999999999" width="150" height="30" as="geometry" />
        </mxCell>
        <mxCell id="TehJbA46y9saMmQgOfsr-17" value="" style="endArrow=classic;html=1;rounded=0;" edge="1" parent="1" source="TehJbA46y9saMmQgOfsr-28">
          <mxGeometry width="50" height="50" relative="1" as="geometry">
            <mxPoint x="830.41" y="939" as="sourcePoint" />
            <mxPoint x="850" y="1380" as="targetPoint" />
          </mxGeometry>
        </mxCell>
        <mxCell id="TehJbA46y9saMmQgOfsr-21" value="Spotify" style="text;html=1;align=center;verticalAlign=middle;whiteSpace=wrap;rounded=0;fontStyle=1;fontSize=26;" vertex="1" parent="1">
          <mxGeometry x="-1127.89" y="850" width="160" height="60" as="geometry" />
        </mxCell>
        <mxCell id="TehJbA46y9saMmQgOfsr-25" style="edgeStyle=orthogonalEdgeStyle;rounded=0;orthogonalLoop=1;jettySize=auto;html=1;exitX=0.5;exitY=1;exitDx=0;exitDy=0;" edge="1" parent="1">
          <mxGeometry relative="1" as="geometry">
            <mxPoint x="-348.49999999999955" y="819.9999999999995" as="sourcePoint" />
            <mxPoint x="-348.49999999999955" y="819.9999999999995" as="targetPoint" />
          </mxGeometry>
        </mxCell>
        <mxCell id="TehJbA46y9saMmQgOfsr-27" value="" style="endArrow=classic;html=1;rounded=0;" edge="1" parent="1" target="TehJbA46y9saMmQgOfsr-28">
          <mxGeometry width="50" height="50" relative="1" as="geometry">
            <mxPoint x="850" y="1140" as="sourcePoint" />
            <mxPoint x="830.03" y="1037" as="targetPoint" />
          </mxGeometry>
        </mxCell>
        <mxCell id="TehJbA46y9saMmQgOfsr-28" value="Transformation queries" style="text;html=1;align=center;verticalAlign=middle;whiteSpace=wrap;rounded=0;fontSize=28;" vertex="1" parent="1">
          <mxGeometry x="671.25" y="1241.75" width="350" height="35" as="geometry" />
        </mxCell>
        <mxCell id="TehJbA46y9saMmQgOfsr-32" value="" style="shape=image;verticalLabelPosition=bottom;labelBackgroundColor=default;verticalAlign=top;aspect=fixed;imageAspect=0;image=https://logos-world.net/wp-content/uploads/2021/02/Docker-Symbol.png;strokeWidth=29;imageBorder=none;" vertex="1" parent="1">
          <mxGeometry x="-110" y="1190" width="302.13" height="169.94" as="geometry" />
        </mxCell>
        <mxCell id="TehJbA46y9saMmQgOfsr-34" value="" style="shape=image;verticalLabelPosition=bottom;labelBackgroundColor=default;verticalAlign=top;aspect=fixed;imageAspect=0;image=https://logos-world.net/wp-content/uploads/2022/02/Microsoft-Power-BI-Symbol.png;" vertex="1" parent="1">
          <mxGeometry x="1230.56" y="894.58" width="213.33" height="120" as="geometry" />
        </mxCell>
        <mxCell id="TehJbA46y9saMmQgOfsr-38" value="" style="shape=image;verticalLabelPosition=bottom;labelBackgroundColor=default;verticalAlign=top;aspect=fixed;imageAspect=0;image=https://logos-world.net/wp-content/uploads/2020/09/Spotify-Emblem.png;" vertex="1" parent="1">
          <mxGeometry x="-1137.89" y="750" width="195.56" height="110" as="geometry" />
        </mxCell>
        <mxCell id="TehJbA46y9saMmQgOfsr-41" value="" style="rounded=1;whiteSpace=wrap;html=1;fillColor=none;" vertex="1" parent="1">
          <mxGeometry x="-780" y="550" width="1810" height="1000" as="geometry" />
        </mxCell>
        <mxCell id="TehJbA46y9saMmQgOfsr-42" value="" style="rounded=1;whiteSpace=wrap;html=1;fillColor=none;" vertex="1" parent="1">
          <mxGeometry x="-1172.8899999999999" y="550" width="250" height="1000" as="geometry" />
        </mxCell>
        <mxCell id="TehJbA46y9saMmQgOfsr-45" value="" style="shape=image;verticalLabelPosition=bottom;labelBackgroundColor=default;verticalAlign=top;aspect=fixed;imageAspect=0;image=https://cdn1.iconfinder.com/data/icons/cloud-computing-thick-line/1000/5819-Cloud_Service-512.png;" vertex="1" parent="1">
          <mxGeometry x="-1110.18" y="1090" width="144.58" height="144.58" as="geometry" />
        </mxCell>
        <mxCell id="TehJbA46y9saMmQgOfsr-46" value="Streaming data" style="text;html=1;align=center;verticalAlign=middle;whiteSpace=wrap;rounded=0;fontStyle=1;fontSize=26;" vertex="1" parent="1">
          <mxGeometry x="-1140" y="1216.75" width="212.22" height="60" as="geometry" />
        </mxCell>
        <mxCell id="TehJbA46y9saMmQgOfsr-47" value="Data Sources" style="text;html=1;align=center;verticalAlign=middle;whiteSpace=wrap;rounded=0;fontStyle=1;fontSize=40;fontColor=#3333FF;" vertex="1" parent="1">
          <mxGeometry x="-1215.11" y="470" width="350" height="64" as="geometry" />
        </mxCell>
        <mxCell id="TehJbA46y9saMmQgOfsr-51" value="" style="shape=image;verticalLabelPosition=bottom;labelBackgroundColor=default;verticalAlign=top;aspect=fixed;imageAspect=0;image=data:image/png,iVBORw0KGgoAAAANSUhEUgAAAIMAAABRCAYAAADxaxVCAAAAAXNSR0IArs4c6QAAAARnQU1BAACxjwv8YQUAAAAJcEhZcwAADsMAAA7DAcdvqGQAABZrSURBVHhe7Z0JnI5l98ePobJHi96o8GbpX6lICtlJdmkzqFS8EcaaNVu20oy9aLVkKcJQZJet1f9VslVaJEspUSH7//qe5zl3d9PMmOcZNP6f+/f53D3Pc1/buc75Xec61zLKdNJBAgRwiAl/BggQkCHAnwjIEMBDQIYAHgIyBPAQkCGAh4AMATwEZAjgISBDAA8BGQJ4OO1kCHa3z12clrOJ48eP62emTJkkJiZGf1Mt33kCnBtIFxkoesIZPnOWLOE3f8fxY6RnDv8KkJERNRkohicAGzdskBnTZ8iGzz6TQ4cOykUXXSxly5WVxk2auO8XybFjxyRLKoQJkDEQFRn8RBg0YKBMePVV/W1VkcLv87NmlaeHPiN16tYNCHEOICoyEBNkzpxZuj/RVWbPmoXlJYv7feTIESXCCVdlVkeEw38clkwxmSRhxHCpV79+MGVkcERMhuNuhBMjzHv7bekU10GNCwkIFAsWLCiX588vmzZtkl/371fCHD16VM4//3x5d/UqyZcvn5w4cSIIKjMoIrZKjDMweGHsOOcBTqiXYEro1bu3LF6+TCZNmSyr3lsjtWrX1jQ8BASaNGGiloMMATImIiIDhsTw323bJls2b1Zi4Fjuufdeeejh5poOAbJlyyYjx4yW/AUKyOHDh3XaWLN6tdaBtwiQMRERGWxG2b17t36PccQA1WvU0E/e2dQAbq9wuxdY/vjjj0oMf6AZIGMhqsk76argoFtOAttssqng4IHQe0CAmVKsQBlWG/ZQTzCdnH1ERAZGNbjyqqs0FsBwGHLq5Cn6nkCRPBdccIHs3rVLFi9erOl4EMqcd955XoxhIJ7gNwSzB+8Ccaz+AGcHEZEBA2HMSy+9VG697TY1IgT437VrpU2r1vL1V1/JL3t/kfffe0+axTaRPw4dUmJkyhQjd9auFa7lT1AXKxNWI0sXL5HRI0dJ/DNDZdrUqbLt221KDNogX4Azj8iXlhjQjVx2HRvWq68j10Y8rj1Hjhxy8GBoeoAIGJol54Ili7Uc+TEweSHXW3PnytODh8geF1P4QXqju++W/gMHaEBq7QY4c4hu0ym8eTT99TfkyZ491cB4CAzPd3PzGDCrM+TsOYlydZEinkHt87nRY2TUiBFqeMrznvJ4BKYIUKhwYZmZOFty5szpESjAmUFUmoUIGO6+xvfLuJdekvz58+sKwoiA0TBmmVtvlfkLF4SI4H4rEcKfy5ctk5HDhwtM5DflKYOx+U79EOTbb76RjnHtQw0HOKOIyjMYbDeSKuYmJkrP7j3UO2D8+GEJcn2JEn/LB5gm6tWqLVu2bPG8wF2NGsljrVtJdjfNvLdmjQzo118OHDig6RBj4uTXpGy5cp5XSQkQUduhKRenppb3TAIZkCX8Q/dk6Lf3PqyL1E58zzbS5XPpCIakk7Xr1lVDsnIoVKiQEoE0Om4d5jt5N23cqERQT+GMW7tOHRmaEK8kuvzyy+Xue+5xHudFLWOYP29e+FvKQNF4FurFe/1TRKBP9FPlUFlCgbD1395lJCKA0zYB//rrr9pZ+G6bTqaUpNi6dau+58GAzR95WN9Tjjog0W1ly8oNN96o38mz9csvNU9y9QHykAbR3n7rLXln3nz1MGcb5rnwkImzZsuA/v2lxcOPyIcffKBE3blzp8q34J13ZNHChXLIrbgA8v/TSBcZCCRx40AN6wwJjh0PBX+hZaVbGjqD+nHo4F8VkD17Dv1EWf4AMVeunHoKCo4cCREsJTJgBDBx/ATp0rGTdIiLk369++i7s6VoI8LXX38t1StXkW5duuiZzJpVq+Urt+wGH33wocoX16atLsd//vlnfX/OkgHBeXDFX37xhfTu2UsaNWgov/32m45sOtygbj0Z+9xz+g53CCHMYNeXuF7LY1ieVStX6nve4R0g2L59+2Tdf9eFpn6Xh+kDWB1JYSRhquL2Ffly5cql784WjMgd2sXJD7t3Sxa35NY+HTsqefPk1TRbNUEaBouf/P80IpbEb8ThCQlSu+ad8sbrr8uO77/XdDqHQXHXIxKGSeUKFXVDCUKgCLBwwUKtB+LwDIuPl3eXL1cSsGfx+++/O4W2Uxeq3sWVub1CBS1rRk8JEMFl0nzHw57KD5uGMIjFNEmBbKTj+UKfofy8B/46eACftMltr82bNml/0QPxz9pP1kmlKpU1X0zmmJBs4bJWp8Fr2/ckhebxtW+P9YX0pPKlBVHTslP7DjLu+bH6HZZjSITgobMYlQiaew2tH3tMZkyfLh+8/75UceQY9/zzWg7hyXfUTQEtH3lU7m54l35WLFfezffvaZ0cbl186aVy192NtEx6RhKKoTz1msz8RmYDBEB+0i0I1WDPffIeJfvr4LE+A2InNbbrG/3r2qO75MmTRzfOTgWrx+q1xw/6oHl87duDXJbuly+tiGhpSUNUzkYRG0Z8592J4y5KjgkJkCNnTvll715PyRACFpuyAN8Z8Zc4I+NRyMs7FM0nStSbUo4IgGVlufLlNZ02koPJ1vfJ3rqdTdvXXX+9JL41N5TuyqLAPXv2yGefrpds2bPp0jVfvstcoHqDN6qQhS31+fPnuWnqv/o9e47sUrJkSWnolr/c6fzi889lx44d2h6bYaVuvtnFQQdl8+bNOuWNGTU6VJdLH/LM03LJJZfoSqlAgQKyYP47Ete2raZTfsm7y/W9yUc/Vq9a5dL4HiIeXhG92GYfsi5y3pUAedeuXVpPkaJF9TZZ8WuKy08//SSfrV+vA415tnSZW1SfRraUkGYyIACCffPNN1KjSlWtlM7iltmCZgRUq1ZN52y2lqdMnqzBkxLCiOE+qYf9AraZUULb1q3dFPGutmGiIC7nGTldADli9CipULGip6yUkBoZLI34pe6dtVSBAFlmzkmUG92qxfIQgMY/+6wc/uMPzePJ5PoLEbm8s2TxYpnw6ngNmAtceaUsW/GukqNS+dCRPY+RC1DvwMGD5N7779cbYraJxvulriybdtZ+28cfl8ULF2n5zE5fPXv3lgebP6RTDsZlVdKjW3f5fvt2rcMvH9979Oop/776amnVoqU3TS51hLuqYEHPhikhzT7XGp08aZJWiGAQgZGR+PZb0qRpU7nsX//SoA1hevftK4PdqEBIYIRo1769KrRw4cIaQ7z4yivywssv6c2oosWK6h5F6TJlpGOXTrJ81co0EeFUQMm03bRxrOzaucszGESBCCwDyTPoqQEyeOBAHeX0jzKWl+8Y5OGHmsvHH32sXopLOwwE4OX11j8hWPkTJ0L6I58f9pv2+zudLXYjHr1QxoiAfMizcMECeSC2iWz/7ruQ/p1xrX5XkdYzZNBgeWGsm77D78mXGgH8SDMZEBasWrlKO2Cdh4kY8A83khCO97Acxd17331S4447tJy59yNh12/nGJSpUrWq3oya79bdi5YtlalvvC6t3AjJnTt3uohA3QbW+qHbWSHv9MqECboxRpCK8tkTmDRxovaTfhHHsM/R4j8tVZaKlSqpvJzErv/kkz9lcu/AhRdeqBd/Y5s28XSDETp3fUL6PtVfbi59s+bLHPPXOfyY0xNg5TX1tclynpMFHbVp19YjAvJxu6xt68eVgBgY/V5xxRXS9IEHpG1cO6nXsIFbomfXutZ+tFZtQD+TC6JTQprIYEplvsXF0lmE4RCqWviWky2TUAIKNTbWd0ICyoB169bpJ+QwhWnk6x7AO9rjHWXS4xGoC/To2k1Wu7mcNql71JgxegsLRRPY0RYrGlWeUyIYOGSQHpB17d5dOnXp7MgzXqbPfFMudMGg9iTcH9eIfmCI+g0aSM1ad2q7+ri+xcbGSmyTJjqnA2IrA23lu+wymf/2PLcyG6ZL0aNOpiYPNJP2HTt6UwcgnTrtHsn9sY31knHf/v0krkMHSRg+XJatXCE3udgG55RWb+BHRCUYFSjQOpvHjYZTreW5+4BRUTSf1AEob8BIGJ10HtKMLOkBBiKYm/Xmm2o0lPiUmwZq1amt3//0div1Kh8jkPZR7n2NG6sxyMcD+QkURz83RuVKKhvlAKsJP37Zt08/0Zsf6APdzZmdqAEl5WmnrgsC+/bvr+kAGQlily1dqnnwGhwADhg0SNMpg5zId/HFF8uE1yZJ3rx5Q0F9hPqLiAx4AlMYDx0lKEsN3H1EKPMa1AFMeQCvwGNKNsX480QK2lv/6acyYtgwHckot3vPHtK4SawqD7JZ/WxuARQKgXDPAFnIx4NrRiaC39K3lNY6/CAvIK8fXPcDlm7AyKxm+jz5ZPiNyB131tSpJim2bNmsd0S0blcPB3oAeXhHXcgH4YhhmjrPggfSwzHNmTakiQzmchjlRL50DFIQcbOhBPQWdHj0oyhj9tzEOfppymCJBszY5MMr2HTAb9qjk5Sx6SNSUIctTamHtipVqaK/DSbTjz/8oJ/kwZ0z/5scyaFEiRu8sqeCES45mA7QJfWVd6sRgFH9bbM6U104vWL0YsWK6fuk8pmnQz7AaieS4ZQmMgAbCRUqVvBuRdORIc5dffvttzqXIRxCG1PZaGIZBug4ON/FFvoZVgBlli1dpq6y1h01pYYLJmNd4MnGFC4XkkRDCNq79rrrdA7FsLT1WIsWIfI5+VIz0qlwxHmQlJDWetFnHufOuVmORwJcFOI0F91on62usL4B/eBJFuH8djaUYr4UkGYyWMXNHnxQI1Rlr1MqW8cN69aTqVOmyO5du9WAX23dKk/16yc93XrYlGMGGT1ypDzYtJnuVzByifJbtWypmzGcTH637TtZ+/FaGR6foLuVK1esiJoQLHtHjBqpMiArdffq3kPTWBabbJfnD517IB8y7N+/X0mKzH6YatmMSg+ZAG2xhO3j9ARpqY93cY+3CRHW9dlauMwFmaRDYvT++eef6/uk8tnKAf0pXH2R0CHNZEA5sJllJAEWgrEpwvsDvx/QE8IqFStK1UqVpWb1GjJ50mtajk6Z0PbJtnT92nU0nxqbutwDUAgdZ4kFsR5t/rDutFGPeZe0gq3wK668Uvq5pZ1rXEfcTBdMzklM/Et9JUuV0k+8GXPzxPHj9Tduljz0m9FLmaVLlsjmjRs9eaMF/aTObNmy6sYaoE68bK8ePfW3Ea548eJKbPUg7t3Y50Lb+UylfvnoH6egb0ybprpmAEVC2TSTASAsAsZ1aC9169VTIWg0y3mhIAaB9rugko4iKA8jEMKwAfXa1Cm66whY37MVTTk6xHPjTTdJpcqVdc5mBGAc0KVTZ/Ui1GcKSgtYqgG8GfECdQL+YHj79u06tSF/+dtv11NR0pGdW9rTpkxV49MmMiILu3+dO3TUtX4kcqQE6sULsQFHcAv5lLAzZsjcOXO0TfZvmE6qVqumemSaXfvxx9LTLXlV9z75iH0eeai5Epp3kSIiMvhB1Nvq8daOqaH5D2OiSBvZEAMi5HaGHfvCC7oBxYUV1sZs4gA6Rz46wjr+zdmz5KVXX5EVa1ZLufLltE72L37es0dmz5ylZcy7RApuUrGUozz1tnPuGCAriuvYubPKY0rs27u33v5mV3Lo00/LQ82a6Q4mKwB1vq6fpwNG2EfdVFnW9dkI263LE/K9GywQFrTv2EFlhRwQ4M3pM6SSIzFxRvzQZ6V923ZSrXIVPS3GJtHoKWIymLF5UOD8RQt0U4U/kgEIgXE5F+jQuZOscMavVqO6uizraE23hKIelM/TqUsX3eHDSJBD5/rRo3VDCI/AGOTwBtBuamCjR+HyxYQ3eKiTk8NnExK0PRSM0p4ZMkSNT3rDRndJk2ZNldi0QR/4c4CJEybIyy++pKeoyEzZEjeW8GIY6vODPKG2Xd/cd/3tw1/S3eNPjx8+3C29Q94KXWBgwG/OFkY6nVDGBhBb69xQf3HcOHln3jxvD6dU6Zu1X9RtwX5aEJVnoBEeTtGKumUOh04zZ8/WkYewt5a9Tff9W7dpo4ZFcbhcG3UbPtug5Y1UnD8A3tFJFIHxSpYqqQEQeexwyepICiMJ5FEjODkOhm9UMZKos2r1as7gzZSU5H/15Vf0ChptIiObPV27d1ODo3CT0f3Hkw0Pxh8QUSfvCAKBtU87tG3eMukI5R06Ih05LJ3vnG4OjY/XdNqEjL179fIIULtuHRk/caJ3G533Jp8TRh92TFu3cZ7XJ09SGVJCum5HAxpDMRybEhD+5oI+jIvSMIwtIQEKwJjMh1z94jvl2eYliKODvEN46uR+AxtHgI2eaW6pSpoqKwnoBu1w5Wzn9zv0DCJnzlx6PO1Pp42PPvxQ6+d7rty59bDKFEbd9IVDofWffCr79u+THDlyap56DerrETarJUYlbXBkT5rVv/fnveHLLSHSsrS12IS69+516RtD6eQnnakQWB2frFvnpiPmfUhzwk2vt6leTH8Qd9HCRfKh6wc3qqiraNGiUssF5cWKF9M2Nm3YqLEcMBms/hThMqQLTqH66Zh9snTJUieLFf73ycdatNR3pLkO6HfgDK+fzkWfLFKo8MniVxc5WdTlj2vTVt/74YI1zXNNkaKa58kePfW91ZEcnMLD35JHSun+96nVD6y/ySHa9v04VZ7U2genkj81RDVNGGAoI8zVo3PWQRdcua7o8ojrX6QxGvzzK3n/59prpfg113hM5xo8ARMjjtvDs2bOFEcoLWNMxkWeCuR1ylRvQ908fpBO+5ZGPvL7R4t5Js2T5Nob7+lTSm1Y/adqP6V0QB5LSy6P6dtk4qE+qxP5T9VGSoh6mrCGly5ZKv379NGDHpRkygQcqDwT/6wetSI8cYN9cufxP4+20M7zUMavbB4CSObSSpUr6b0H3iU3RQQ4PYiKDHb96o1pr2uAQxXEBhjO/ZAYlxaTKRQkXeDmqsS5c5L9W0vO8EckDHfeJOW/teSiDEtODmACMpxZREwGM2RKf4XN6oG1OCAwgiBXFbxKFi5ZouXIb54AwxLNDx44SH7as0fLGEjnnwfqN+ApDX6s3QBnDlGTgTMFtpIhAlE5N5q41XNR3rx62OICPtm2bZsSgltDffr31Vs5fqPadwizeuUq/VfiWIHkL5BfypUrLwULFfxLvgBnFhGRwUYzN56qVqyku2HgljJl9KqaHyx5qletphshhGdl3Np88rSpfzOsxRDJgamCvHiSAGceEU3AxhsuZNq2KIbi3h9ghJOH0c3l2Bo1aoSmBPeOMngQjOvnH0Tgt0XEFgVDPKs/wNlBVNEYxvIje7bQRUwbxRbk8fcGhmNhAycHymB4e6gnCBTPPiLSuI1SztdtxIPFixbpJ+8gCnEEWL1qtRcw8q/DEj/Y7wAZDxGRgdGKMTk0YeOIU0kMyx0B/qiEdEY1x9McsuzcsUMJwFkBx8QgqVcJkHEQ+WoiHPCl9m9Hb9y4Uc8oIAZxAoTgD2KCfzs6YyO6TSc3ujF0967dJHHmTDnpRn5q/6r88FEj9X8zYJtVATImohqiNrL5f0k82Ly5Thd4AACzmBb4Y5Cs2bN5RNBlYkCEDI2oPAOgmAWCwf+J5v8HoiYDoCheIaVNIxBMDecO0kUGg60Q8BRMIfymWr4HweK5g9NCBj+oLthHODdx2odtQIRzF4EPD+AhIEMADwEZAngIyBDAQ0CGAB4CMgTwEJAhgIeADAE8BGQI4CEgQwAPARkCeAjIECAMkf8DvxCLycuL1QUAAAAASUVORK5CYII=;" vertex="1" parent="1">
          <mxGeometry x="-760" y="1147.25" width="135.04" height="83.5" as="geometry" />
        </mxCell>
        <mxCell id="TehJbA46y9saMmQgOfsr-52" value="" style="shape=image;verticalLabelPosition=bottom;labelBackgroundColor=default;verticalAlign=top;aspect=fixed;imageAspect=0;image=data:image/png,iVBORw0KGgoAAAANSUhEUgAAANIAAAA+CAYAAABeH0W7AAAAAXNSR0IArs4c6QAAAARnQU1BAACxjwv8YQUAAAAJcEhZcwAADsMAAA7DAcdvqGQAAB0qSURBVHhe7Z0LYBTVvca/fW/eL4iAxGAJBAlEiAQ1goBJvQGqAbRFbEWsheT6gOtVoFdEWxXbKqWXlxcIVoj0KthLQasBy7NARISAgUQgARI2kLBJNtn3zr7O/Z/ZSchjkwaVaur89JDsmTMzZx7f/h9z5kThEtwMMjIyXwul9FNGRuZrIAtJRuYb4Lq6dowxHD5yAhcumVB1xQ7D5Tp4vV4oFCoM/kE/xMeFIXvcCPSOjZLWkJHpmVw3Ifl8Pry+7E28s/lD+MnwqdVqqNQacZmafioVSkT16oew8CgseOLHSB8xGFqNWlwuI9PTuG5CWrZyPdbkF4D5fWAKNXx+P/r1iYNaqUJDoxVujxdKcizV2hDE9UnErxfOwV3pw6CRxSTTA7luMZJapYBKpYagCoclJAH1vUbjprsehHbYjzBozI8xesJEDE8dRlZIiYbaKjz7/G9Ra2yQ1paR6VlcNyHdOXokbhk+FE2qaPhDY9AvWgl7zWlYq0vg9zTAr4+FNWwo+gwcRq6eEsxjoaDKL60tI9OzuG5CSh+VhvTUm6Gv3Y9nhlTirUkeTOt/CemqE6jesxpFf3oB/qq/odpowug7RiN/5W/Q54Ze0toyMj2L65q1+/v+3Xjjd79BTnp/PHBPGuD3wut0kQtXh6Ol53H4TA2+rAeWvPZb3HHXGIqPtNKaMjI9i+v6HClGaUP/cD/KzlZhy8efovqKBaHhkTA5FVDqwpD3wFhkD4uD1tMkJiVkZHoq11VIYSSa4UkJyBo1mGyfH6crL8Fqd6JvfDQ0Wi3cXoaBA/ohNiZaTIfLyPRUrvtYu5N/3wbF5RNI7BODRocb4WF6REWEAj4/6oxXYBCiMfSeGQiLjpPWkJHpeXRqBvxeNzwOq/TpqzP87im4MXkkvB43vF4fXIIXguChn/SZ6uL6D4JaFyK1lpHpmQQVEo9XrFcu4uLnu6Warwej3XhIRLFREYiIjILV5YfVZofL5YFWHwKlSnbrZHo2wYXEGGyNV2A8fVSq+eo4BQfqyfoIChVsTI9GRMPsUsLpFHDBaIImujfUGp3UWkamZ9K1KSBBfR3qzVdQVLIHO0s+Q6XJggilC31VDbgxzAO/z4vimhocPvsZLlwuh91hEwUsI9MT6VpI/q92Y1vtFlysPY+PDm/BXw4UUDxUj7ioMPhIKE5y51xuj+ja3RARisJj7+KtD/8b+4/vRJPVJItJpkfSuZDohvb7rv3Zjt1hxdHSIry7ex1O156ALlwFg88Cg2CBRqsSkwwmsw1utRK1Wgam0qC6vgofHN6Eo18WwWJrksUk0+NoKyS6ge1NdXA7bWJGjVuOa8HusuFE+REcv3gQToVZHN3NrZAbfhy9Uo1zTSZERIRAGanHCa8V5912OJwe2q0fKp0Kn5/bj/3HPoHb65a2KCPTM2gjJIe5DrZzn8Jx6STqL1XBaDKhwVAOn8sitQgOtyBXTDU4+MUuHDm3Dw2OWrg9Ajw+LkSyLn4fDC4z9lefx6GqSmy7cAaljka4vF5odGpoQpXkRXpRazbgo883o4HELFslmZ5EKyExNF4+h2j/FYQ0lsFxuYwskgv1XxTCV3MCPmut1K4tPElw9mIpdh75Mz4+8h6qGy+g0WYi960eDlrm83uh1ABer4Djxsv4wFCGM+ZaWCwWMIUfXhKbW3CSZXLC5/OSK6hB0cldMNsaaes9V0yGtZkYkDgXe6XPMv/atLFIOopb6k1mmJos6H9jL9x+xzAMujEc6qbz8FR9BldTWzGJrlzFZ/jLoY0oMRwCNF5YrCSixnoqDbCZLXA6nCRIAX4SjUarxk29HYgM80KhYlCoIVouc6MNgtUNu91OwrSjsPh9fHpyn/gyYHAEbH88kW7URMzbJVV9b9mLeXQe+LnosqS+imJpjetK5Tpk0f6y1hqkiqtYds1FKi1Lzd2GOq9U2eMxIP/exFZCoi9/rf0S3G43ysqrxPjo5ht7o66hicTggtrdCMeFT9F06Syu1FTiTNUpHPhiJw6UFsLoqIZdEGC1WmE2NeKG8BvRL24AnC4BdqsNdvHhqwCVRgl9iBd6nQIe2r5A6/h9DC6bF+mDxsPj8Ilt7Q4H9p74SBRkUGrew8ZdKUhLA7a/v41k9X1mGOa8uQZrgpbleGosb5OApza9ADpd3x7n1mHG49thSV2EraunoPe/zIvQCZj9SVUrISno/8j+UITEQqNSQqtSoa7RispqI+rqG8D8HoR5G2Av34fqk3uw++B7KDz2ZxiunIeNLImVrI/Cp8YtCemYPiEX6UPGBOydmkEgEblcLrh9blQ0xMPiiYTfz6APpfhIr0DKoOHIvisHek1glINarUKjywibM/gQpYp381GcPAWvP5kD7NiIzTXSgu8lvZEyeSKyg5UhBuw4QJf6ybV4LlVq/m1gIas5dQlKo3Lw9p/mIOlfcDaBVq6dAuE/GIXogaNxY3wsrHYHGkxNsJGFaGw0oa6unqyFBaHMDq21Es4GA1xeFyw2KxrrG6H0acmqjMPsnGeRkTpejG58zEcuHe2EXDoln/xEqUCfUDNCVC7aHYPb64VL8GDsyB+KD269SgGhoSFUQhGpjUX/PjcFutaGCmzbakDSAxORNP4hzNQVY9vOOmmZTAveUix9dCkqEp7Cmv9MkSq/BbwVyP/pLGwHiejgCkyIlOr/xWgTIykUCkTED0Bov1vggQYXq2pIDGr4dLEwNJFHRQai3qnEpSYHLtcbSUAmcsf8GNJ3JHIyfobs2x9E//hEnLt0GhfJUmk1WhKPCjq9BlqtBiravlrpgt/rgE/pE10/qIATZcew69hf4fF6aLmaJK3EhFt/BCWt24FPNyLfkIaZ9yeQtctA9k90KF6/geTVkasBvwXFG+ZicqoULwweg4dfKezopwv0Df7KDGQ1t0scjLG561AcLGlpKkbBM5OQPrhV2xkbUSotbsFL+16bi7HN7VInYWEnwq/b+SoeHje41fZexY6vaG1Ll+VilSEJz22cj5QgFkCoLMSSGZlIHSj1a+BwZHWxP8vnGzHvvlFIFvtGZfAoTH5mY/Bz04IFe+dPxZKSFCz6S+ci6vZxWwLnvKXPdC7nbSimvbQmEDOKMVoNP8YxLX1OvW8uCo4H6bC3TrzuLdco6P0RiIUGPEN30/F1yLsj0LY5Rm8jJG6VlKExCB98NzRRN6G+3ob+aT/EjaN+hLhhWYgZmomo5Luh638rwmMTcOuA2zFt3CP4ec7TeCDrpxjQ/wfiVk5eOIqz1Seh0+qpaAMiImvk9vhQXh+FRieJhSwVT33zaboOHN0NP7wICw0Tp+waeMMt+OEd94kibM/eLQUQ0qZgYt/A54zJ06Ez5KPg88DnYJSufQgz3gGm/CoQNyzKAorW5yFzPpfYVfb+cgzyNhiR8uRyMcZYPu82mHcswbSfrqPT2Ary9yePnIoXPxCQ8Wyg7Zo/PIc0cwWMUpMAFmybfw9yP6Ub+g+8zVPIIKltnjMVS0ukJhIVa0mUc/JhSHkOy8XtzUZSRT5dsBnX7rqWvIG81WS1F6zFUwOlulZYdi3AmHF5yK+IxPRf83NCx7pgAnCE728S8s9JDSUq1k9F6oMvYrsjI3Ac1P7lRxJg3Poipo2hL6qgYqrD3mfuwmNbdZj+1nuYHaQfnG4fN3cPx9A5303bk/r88iQB21+aijEvBUmjNBRi3v2LcWzo7MB2l9B2q7bjxSkPtT0+bjGnjkLeegNSpGu5PC8J5XR/pD/yHh1FOypJRC+bMefjKlRWVWE53Usi/H2k9sVus7HjO//M/ve/ZnVc5nCwykuV7HDJIVZRVd5huUsQ2JZ9f2SP/CaTzfzdvWKZ8Zvx7Mcv38WeWPZD9l9vjmc/f2Msm/rrDHb/S3ewKfTz3qfS2M+W3MueXDaFLfrjv7N9xZ8wu9PRcdumLWxWn75s0tpLreoPswWJfVni/H2t6gKlfMVY1ofaJ+ZuZ8Z2y469MpqWDWALDl6tK1y9hBXVtW1X9FIqtRvLlpZJdXbaX3Jf1ic5jxW2a9u6NO978BM72+778yUsnffpl4ev1p1ZxcZQ3ZhlZVfreKnbznL5sbVu+49Kc//uXcVO2YMsN+0Utxl0eR0t4+tOymeG5jqpbx2Og5eyVSyTH0vrcy+1T0xOFo9/1tb6tuu0Lt0+bisrfGIA65OYx7a1O+enlvHz/ADbWN1cR8dA22xzzZpL3RY2gy+bVtByfIHr1LGt8YM8ltjm/jjHVo7j253M1lW2bctLO4t0FRUF/SFB5pjjU2z16dUPI5LTKYZJlGpbo0B0SC+Ea6MgCG7x9QmPm2IhuxuCmz4LDrj5u0g+H5ifwePyon9oOFKo/fDQBGQOnYyB5FoqFR2tUd0Hm7EDaZjyb72lGg59nqGD8M5GbLdLVW3ojdm/mIj2XkXKY9w6CCg6ctUpnPCL+Uhr1zBtdAb9W4HyC4HP2LcBBWYdZq7tjr+fhDlPTWi7b3JHcuLJtbKYpQqymFvW0R4m4OlZSVKNRORETMymtp8ebWsRu6D4lUepf+RK/XfwoF7YTedJoP4/H2R55AQ89yT1oXgztlUHqgJ9S8NzZLE6HO7AOXhuGm3znW0dnpcljJ8AHpntWPMeKjpJdXf7uO2FKNgqoPcvcpHdrhNJ2VPoLBeh6AupopmspztawcgptC8duSNFOCb2ibyD9XT9g7SNzJyIbH5/FLc780n3IEPyhloTXEjkd6kUSirS52skUtcLOsTAZnHCYbeLz5IsJgeqjRaUXvLCZPbCR26ez+2DYBWQqo/GuOh+GKSKQoI6BFoWbMd1KNxSRL7c9Ba3rpm0B2aTXHZg2+5gifAMDBsq/dqa3jfQOiSRilYnyiuggmKwpb9cgMcoHki/YzgGPL5dWhjAcI5HQRm4rVtZsBQkdfiuiURUDP0oLW8Rh7GGOxDkugyVfPRWJY/v/sypoDFgBz5fjFkbLEh5fkWnrpSxhu+18/4nDOS3fymdl8BnsW/x1D7IzcNJGsJFQP2ThNdCyny8+1YOIkvINZ4VXEzdPu46o3iu6lZP6tBuwD1LxTal59re8Elpw+ge7EjvfhRb0/EZxP7Sdrkvvmve1divuQzMA+9Cxel2Zz4liYTbkaCJSH4b85hG/RUGrXIarLWwuBoQEqqHUsmg9DDaHgmTrJyG4iUeHylJpT4vgyJMgbjQUPSKiYKXqXD+6E5EGWsxfNyUlimORc5sQL7oCi9EeuJCsao9e98mn/b+R0WBtIZCsU7RRUrzjpMPvjBzFjYbdUjIyEbG6Dl4IS0Bkec247Hft/++jYSum69QdbXvNsRmY9GrU8Avc0duwjDpt06xU/8fLxCf0yx/PNil/ucTmbUCW5+vQNZrCzFt/g04+IcgVu0ajjvlF8vxdFrwEx85hMx8a9RdXaB4RIZJvxKRkxfh9cnBe4CEdmdepZd+aUunl5ln8JTs2oV0qaYap6tOwqd2ISaM36QMLpcTfi+5imF66EN1okunIKH6fH4wBYOB3L3RahVu6t0L5w01cF0+BXPNcMT0Txb7wSndvpm+ldIw+805uE2saYtx1xK8uDUfG888iueSpUoR+natJLdtgPSxmZKj5BAAtw0JnEDDu6+SiJLw3J7dbQP0nYXSLwH0kfyC7UDRcSA7PVD3dYmKpItuEhA/ntyJVhe4+wjY+6u52MxdupVdP6eJ78uPl1ybEiDnzkBda5otbpqUMY/vS19LRmpPgX9KEKskfmPrZuK2/lJFO5Jy38Pbp3nSYRZmDNmNj3Kvirzbxx0WSbc+UK4bhOzJ3UvlByxJe3EIKOauvC4Dg8Rv2yhEURcsQjwmTJ4Y1IJ1l05jpOYb+FqpuFSGitovodVpodFooKai14ciLCwcISGh9E1OYgoh903M6OmgUWlwAQ6YSGwCxVKxMTGI0PrhNF0mDUpj7bxF5MuSG5BFImn/0FEqM/Ny6LQZsP2jdqaYDH/B/xa3G/1gwfblq8hZzEDO+ID9qhB9mfauGLXb0ta16z15Onn1AgpeJv++E9//WknLnk4XcS9Wbmjf9+4h7FuMeVvIpVu8FrPbf2G0Q5c5RfT9C14L0n+yyktXUx8ycnCPZNZTcqbTeS3G0tfbZjhFzq3D0q30jT5jahejJiIx4Y2/YBG5kqWvTUXeB1fzYN0+7t6ZyKYd1K1fix1BM4RB2LoRm03S782UrMDSXa37myY+PsGulR0ylddKp0L6KviZH3a/mS6TTRyhQEaHioKsj5KsEInD5oJb4K9N8AHhFCf53OKIidhY+jrzKyC4XIgM1SIkshei+w1sEbPw8UYUkBIm5HTxrZH8EGaSJTKs2YiiNjdIEiI/nYoxs94gkRVix0cbyYUbLub/U55/BdOb0+hjKbolr3jBj19FQUu7UdjsaHeLUMC6XPL9s+6ciiWbeFsqm97AY5MWdwi6u8Wd87FmWiQqXs9E+oPN+w9sc96MUVjY1XhCuvkXzN0MC7lIU/qeCqwXrByoCHyZhE3B60H6v33tXGSNlB6crn3oqnucPB9vP58CC1mU1My5yN8aaF/wylSk37MEpXzIz+J/MPhInYTZf9qAnCgLdjx9D517SQ3dPu7emLl0EVKE7cgbmYl5a7dJx7UN+a/MwuQH2z2eIHqnGrEkPRMLm49v2Syk37cKhqgcLH/2an8zFqylflVg6T2jMO2VjdJ26fiWzcXDdyzo/vVsn8bjxWG3s7P7P2Q7Fs3ssKyrcujYAbZgZS6bvTyH/fvqaeyp/3mQPfnmA2zW7yey++bfziY+O4pNf3k8+/nvJ4vl0dez2MOvTmAvrfoPVl78CTu3bxM7tn01u1J+jDmdLmm7VrZ5Fk87Psw2mzrus3UxrJ1M7fqy3I8CnwOpzTxWaCljG5/IYoliWrQvS7zjAbb4g9YpdF7qWdGKx1g6Tw3zdolZLHdTGTN/lNdmm83FeDCf5d6b2rLNPslj2bQXdrZLq9K+W60TKFIaddwqVt663k77X5vHMnn6WdpmYirfZgE71UWaveiFQJr5H5Z2+zOWFLB5rfufOLrLfRl2LWGzxrTaVzKdnxX7mKF9Cr05pb3iXNt6Xiq3sFni8WWxlS2PE7p/3OYz29niaaOv9rl/Mht+bx5buav1tQykv8esKGPGnUvYtJFX22Y+kd/h8YZYag6zdXR/DO4vte0zgA0fQ/cIXf+rKX/puj2xs+26Ugk6r53f64Hh6B5c+OR9jH9xvVT7j9ny8Tt4b9d63HBTHLlvOqi0KvEPizVZTLhSXQ+FSoHo2HBERESBDBHtx0uunxrRofHIHJaDtJtTQPYLMX1uCj6q4RrhIxvGvpaCt6tWkDsm8/2Aj2yYhdLnD2JXbicJhOtAp64dd8V46S4+vw/6CA2i4sNFcfBR3W67V3xOxOez87p98Hn9gXkbrORk0Ka5ggVafsV0Cce+PAx1RAzi+t38jYhIRuafSecxEt3wjATQXS5WV+L0uTIIbhfMZjPMTRbxhT2m8IqZOR4XhYdEQK/RksgoXnLwl/kccLrtsAtWlFUeF9eVkemJdJ1saM6adYPIiEgx48bAR3Q74fQ4YbZYYLXaxD+DydFpyN1TaBAarqE9M7JiHjAlLVMDTlhgbKwVLZuMTE/jG8valRtO44uKo2K6WxeiRQgVrkM+TIiLg7t6PpcffnIXFSqVOARIz1PhuhCyUnqEhGpQZ6mmtt9QTllG5p9Il0LyCi7Unu3wYkAHuDgabDUwOWtJQCFknSIQHh4OfYheevDqw48mTMOghKFinOQnhen0OoSFUrsQiqnISrkphvrz7k3iHBDfFAm5u1EpJxq+Z0zA8qqqf2qigdOlkNwUw1Qc3id96hxuRbiYuOsWoiUrQ0XFrY5WAYVaIVqmm/sPRExEnBgf8bnF1drAtMWNJjMcdv4w1oMLF8ulmYdkZHoWnQqJWw2r0wlrU/vHwx1RKPgDV4U4wttudcFmpvUabfB4BDHREMjPUTuyTjwP6PZ6xGUKio/8FCe5xSFEPmTfOQ2huq80RkZG5lslqJD4nHL8+Y+D4hsXxTZdweOf42cP4+CpnQiNCIEmVA0+T4NfxV/V8wUSDX4GrUoLfZgOKg0Xkx8CCcij8EKpU0IbRsvIDXSScOX57GR6Ip1aJP6ag83pJler62dJ/MY31tWipu6yKBRG//E0Np9my+3hlscDi9FJZkiD0LAQKHnMRPGQ+E6Syw3B4SYB8Vld6bNawP7P/yauKyPTk+hUSF6KeQQvf/7TtYXgr4OPHjYW40dORGNdE5rqzbCabbA1OeBsdFER4BX8JCAlEuMHIUwdDY/gE+v4w1qXzQOXlYvKCye5hWaHSRyzJyPTk1C9sHjxr/gvuT+ZxOchwZmyUjhsVpw7VoSL5WcQMSAZI8Z0nvfiA0tD9WFI7DsQetJcdU05bIJALp8fyTcPw8+y8/DI5FykDLwVCfE3Q68IR1NNHQTaB7d6Oo0ayYmpmJ71OCbdNQ3DkkaImbyvOvpcRubboGWs3b0jbkavmFiuDOj1IYiL0MN08QJMHgXCo2Iw8Jbh+NWqt8SVgsGnGzac2ocLRz9ATX0D4oaMxa1j7kN0RKw4CQofQ8dxuhziX5xoLPkQpuozqK2vx8j7/wN9E24JtJMFJNMDaXHtHvzpY+SSNcJGxVh7GfVWJ+qcXtQ31OP8mTJ89vfdWL/y91LrjpyjNps3bcKR/YdgOFkKodGB3lE3QK8NaRERJ0Qfim3vvgvLlTokxMVB5VbCZXGRi8hnFpJFJNMzaRFSdGwv8dkPv5n5YFWL2QI+WQnPuHH4n3mx1LedbKo1ZSXHcHB3IWx1Brgaa8hCdR7n1FUUY9+ePSg6fALHS76E4fxp2r6cYJDpubQIyUOCUam0JCQ1fF4vBGsTeoVooBGfA5GQSFTmhqtvN7am5kIZHGf3YWyCDwmRCkTr/DCfP4LqinaTt0k4KYY6crwEO/cdQlVVJbl7gbT35S8P4/8Wjsf7c0fgT0+OxKEtK+V0uEyPoEVIg4fdChUF/nxyEp5hc9od8Ln4aOxAEzfd/PVXOv5pl+qKUziy+XdQXNiFfhEMYRovCYmEeb4IDaeLSJQd/2hYjF4JFfMgQunETREe+KoOY8fSn6No1ePifA2C6SJgvojzHy/Dnvf/R1pLRua7S4uQbr0tHT6lCkq1Fiq1Gn6lAkaHQJaqeTQ2g8lYi88P/V36HMB26UtcObEDPrcLfv66uFcJm0dJMZaAgtW/xf6/bpZaBti06jXUnC3G0Hg1knurcXOMEjVf7IKt/AAEMwmV8YGtKnE7JnIvlZ6gk9XJyHynaBGSRqPFjMfyyCLxSUv0UKjU8PDFCiWUfNycWgOLxYyjB9uOvfP6+AgIHxwetSigJhcJzuGB0ebF5XorbA6n1DKAyXAaHnsD/cbg4X/SxaeEmdrbaRtWtwpWQQ0LhUtXbHyucT/Vy66dzHefFiFxBqWkiqO39WFh4jzcer0eutBQ6PgMQOFhFK/4UXOxecrRAPxl10tmP5qcfhKQD43iTwYbCcDuZnC3e71IFxZB1k5HAgEaSXSNThKQ4CchUuxEjZtcftRafTDafai1MezZf0BaU0bmu0uLkHi27pZbR+IHw0YgKjoaMb3iER3XCzFSie3VB73i+6Ke3LstfwzELU6HHRcv1+FotRc7yl3Yd96NQ5UeHL/sRanRh3qHH263II7ba+ZCbROOVtmw74KAT864UXjajcMXPfRTwIf0O//5yVkBeyvcKKnx4NCB/dKaMjLfXTpMfsIfrJZ/WYqTRz7FX7dSfMMYdGqVOBoc5N4lDRmG7Gk/wYhRt8PD/7pfyTFsWLMM+/9WCKWU4eMZ81F33o209AyMzZyIlBGjxHrOoX1/w9nSE22SEGoFKVp6hvTWulVobLRg9lPPiHPgjbx9LNIz7haXych8Vwk6i5CMjMy10SZGkpGR+WrIQpKR+QaQhSQj87UB/h+p+wHeZaVdCgAAAABJRU5ErkJggg==;" vertex="1" parent="1">
          <mxGeometry x="-540" y="1162.35" width="231.69" height="68.4" as="geometry" />
        </mxCell>
        <mxCell id="TehJbA46y9saMmQgOfsr-56" value="" style="shape=image;verticalLabelPosition=bottom;labelBackgroundColor=default;verticalAlign=top;aspect=fixed;imageAspect=0;image=https://miro.medium.com/v2/resize:fit:720/1*icemCezVMahlyIQB31tzpA.png;" vertex="1" parent="1">
          <mxGeometry x="-750" y="885.55" width="520" height="144.45" as="geometry" />
        </mxCell>
        <mxCell id="TehJbA46y9saMmQgOfsr-58" value="" style="endArrow=classic;startArrow=classic;html=1;rounded=0;" edge="1" parent="1">
          <mxGeometry width="50" height="50" relative="1" as="geometry">
            <mxPoint x="-640" y="1129" as="sourcePoint" />
            <mxPoint x="-590" y="1039" as="targetPoint" />
          </mxGeometry>
        </mxCell>
        <mxCell id="TehJbA46y9saMmQgOfsr-61" value="" style="endArrow=classic;startArrow=classic;html=1;rounded=0;" edge="1" parent="1">
          <mxGeometry width="50" height="50" relative="1" as="geometry">
            <mxPoint x="-480" y="1139" as="sourcePoint" />
            <mxPoint x="-530" y="1039" as="targetPoint" />
          </mxGeometry>
        </mxCell>
        <mxCell id="TehJbA46y9saMmQgOfsr-63" value="" style="endArrow=classic;html=1;rounded=0;" edge="1" parent="1">
          <mxGeometry width="50" height="50" relative="1" as="geometry">
            <mxPoint x="-53.33000000000004" y="774.0000000000001" as="sourcePoint" />
            <mxPoint x="-53.33000000000004" y="894.0000000000001" as="targetPoint" />
          </mxGeometry>
        </mxCell>
        <mxCell id="TehJbA46y9saMmQgOfsr-65" value="Apache Airflow" style="text;html=1;align=center;verticalAlign=middle;whiteSpace=wrap;rounded=0;fontStyle=1;fontSize=26;" vertex="1" parent="1">
          <mxGeometry x="-143.33000000000004" y="1074" width="212.22" height="60" as="geometry" />
        </mxCell>
        <mxCell id="TehJbA46y9saMmQgOfsr-68" value="Dags" style="text;html=1;align=center;verticalAlign=middle;whiteSpace=wrap;rounded=0;strokeWidth=10;fontSize=21;" vertex="1" parent="1">
          <mxGeometry x="-210" y="818.58" width="250" height="30" as="geometry" />
        </mxCell>
        <mxCell id="TehJbA46y9saMmQgOfsr-69" value="" style="endArrow=classic;html=1;rounded=0;strokeWidth=4;" edge="1" parent="1">
          <mxGeometry width="50" height="50" relative="1" as="geometry">
            <mxPoint x="120" y="983.5" as="sourcePoint" />
            <mxPoint x="320" y="980" as="targetPoint" />
          </mxGeometry>
        </mxCell>
        <mxCell id="TehJbA46y9saMmQgOfsr-71" value="Snowflake" style="text;html=1;align=center;verticalAlign=middle;whiteSpace=wrap;rounded=0;fontStyle=1;fontSize=26;" vertex="1" parent="1">
          <mxGeometry x="718.28" y="1080" width="212.22" height="60" as="geometry" />
        </mxCell>
        <mxCell id="TehJbA46y9saMmQgOfsr-72" value="Amazon S3" style="text;html=1;align=center;verticalAlign=middle;whiteSpace=wrap;rounded=0;fontStyle=1;fontSize=26;" vertex="1" parent="1">
          <mxGeometry x="340" y="1084.63" width="212.22" height="60" as="geometry" />
        </mxCell>
        <mxCell id="TehJbA46y9saMmQgOfsr-73" value="Amazon" style="text;html=1;align=center;verticalAlign=middle;whiteSpace=wrap;rounded=0;fontStyle=1;fontSize=26;" vertex="1" parent="1">
          <mxGeometry x="-630" y="883.58" width="390" height="60" as="geometry" />
        </mxCell>
        <mxCell id="TehJbA46y9saMmQgOfsr-74" value="" style="rounded=1;whiteSpace=wrap;html=1;fillColor=none;" vertex="1" parent="1">
          <mxGeometry x="1176.6699999999998" y="550" width="320" height="1000" as="geometry" />
        </mxCell>
        <mxCell id="TehJbA46y9saMmQgOfsr-75" value="" style="endArrow=classic;html=1;rounded=0;strokeWidth=4;" edge="1" parent="1">
          <mxGeometry width="50" height="50" relative="1" as="geometry">
            <mxPoint x="583" y="985.17" as="sourcePoint" />
            <mxPoint x="723" y="981.67" as="targetPoint" />
            <Array as="points">
              <mxPoint x="663" y="981.67" />
            </Array>
          </mxGeometry>
        </mxCell>
        <mxCell id="TehJbA46y9saMmQgOfsr-77" value="Visualization" style="text;html=1;align=center;verticalAlign=middle;whiteSpace=wrap;rounded=0;fontStyle=1;fontSize=40;fontColor=#3333FF;" vertex="1" parent="1">
          <mxGeometry x="1150" y="460" width="350" height="64" as="geometry" />
        </mxCell>
        <mxCell id="TehJbA46y9saMmQgOfsr-78" value="Data Ingestion, Storing and backup" style="text;html=1;align=center;verticalAlign=middle;whiteSpace=wrap;rounded=0;fontStyle=1;fontSize=43;fontColor=#3333FF;" vertex="1" parent="1">
          <mxGeometry x="-260" y="470" width="740" height="64" as="geometry" />
        </mxCell>
        <mxCell id="TehJbA46y9saMmQgOfsr-80" value="" style="shape=image;verticalLabelPosition=bottom;labelBackgroundColor=default;verticalAlign=top;aspect=fixed;imageAspect=0;image=https://e7.pngegg.com/pngimages/205/447/png-clipart-multi-user-end-user-users-group-information-others-miscellaneous-leaf-thumbnail.png;" vertex="1" parent="1">
          <mxGeometry x="1252.67" y="620" width="168" height="140" as="geometry" />
        </mxCell>
        <mxCell id="TehJbA46y9saMmQgOfsr-81" value="End users" style="text;html=1;align=center;verticalAlign=middle;whiteSpace=wrap;rounded=0;fontStyle=1;fontSize=26;" vertex="1" parent="1">
          <mxGeometry x="1230.56" y="760" width="212.22" height="60" as="geometry" />
        </mxCell>
        <mxCell id="TehJbA46y9saMmQgOfsr-83" value="Insights, Reports" style="text;html=1;align=center;verticalAlign=middle;whiteSpace=wrap;rounded=0;fontStyle=1;fontSize=26;" vertex="1" parent="1">
          <mxGeometry x="1198.0600000000002" y="1030" width="278.33" height="60" as="geometry" />
        </mxCell>
        <mxCell id="TehJbA46y9saMmQgOfsr-86" value="" style="shape=image;verticalLabelPosition=bottom;labelBackgroundColor=default;verticalAlign=top;aspect=fixed;imageAspect=0;image=https://static.vecteezy.com/system/resources/previews/020/059/124/non_2x/operational-system-icon-design-free-vector.jpg;" vertex="1" parent="1">
          <mxGeometry x="1275" y="1173.3500000000001" width="135" height="162.33" as="geometry" />
        </mxCell>
        <mxCell id="TehJbA46y9saMmQgOfsr-87" value="Operational systems &amp;amp; processes" style="text;html=1;align=center;verticalAlign=middle;whiteSpace=wrap;rounded=0;fontStyle=1;fontSize=26;" vertex="1" parent="1">
          <mxGeometry x="1203.3300000000002" y="1370" width="278.33" height="60" as="geometry" />
        </mxCell>
        <mxCell id="TehJbA46y9saMmQgOfsr-89" value="" style="rounded=1;whiteSpace=wrap;html=1;fillColor=#d5e8d4;strokeColor=#82b366;opacity=30;strokeWidth=2;" vertex="1" parent="1">
          <mxGeometry x="-180" y="578.58" width="250" height="670" as="geometry" />
        </mxCell>
        <mxCell id="TehJbA46y9saMmQgOfsr-92" value="" style="endArrow=classic;html=1;rounded=0;strokeWidth=4;" edge="1" parent="1">
          <mxGeometry width="50" height="50" relative="1" as="geometry">
            <mxPoint x="-340" y="972.02" as="sourcePoint" />
            <mxPoint x="-215" y="972.02" as="targetPoint" />
          </mxGeometry>
        </mxCell>
        <mxCell id="TehJbA46y9saMmQgOfsr-95" value="" style="shape=flexArrow;endArrow=classic;html=1;rounded=0;strokeWidth=10;strokeColor=#BBEAFF;" edge="1" parent="1">
          <mxGeometry width="50" height="50" relative="1" as="geometry">
            <mxPoint x="974.9999999999999" y="990.89" as="sourcePoint" />
            <mxPoint x="1145" y="990.89" as="targetPoint" />
          </mxGeometry>
        </mxCell>
        <mxCell id="TehJbA46y9saMmQgOfsr-96" value="" style="shape=flexArrow;endArrow=classic;html=1;rounded=0;strokeWidth=10;strokeColor=#BBEAFF;" edge="1" parent="1">
          <mxGeometry width="50" height="50" relative="1" as="geometry">
            <mxPoint x="-967.8900000000002" y="990.89" as="sourcePoint" />
            <mxPoint x="-797.8900000000001" y="990.89" as="targetPoint" />
          </mxGeometry>
        </mxCell>
      </root>
    </mxGraphModel>
  </diagram>
</mxfile>
